G75*
%MOIN*%
%OFA0B0*%
%FSLAX25Y25*%
%IPPOS*%
%LPD*%
%AMOC8*
5,1,8,0,0,1.08239X$1,22.5*
%
%ADD10C,0.01100*%
%ADD11C,0.00600*%
%ADD12C,0.00400*%
%ADD13C,0.00500*%
%ADD14C,0.00800*%
%ADD15C,0.00100*%
D10*
X0148266Y0089159D02*
X0152203Y0089159D01*
X0150234Y0097190D02*
X0150234Y0101127D01*
X0152203Y0099159D02*
X0148266Y0099159D01*
X0147473Y0164706D02*
X0146489Y0165690D01*
X0146489Y0169627D01*
X0147473Y0170611D01*
X0149441Y0170611D01*
X0150425Y0169627D01*
X0150425Y0165690D01*
X0149441Y0164706D01*
X0147473Y0164706D01*
X0143980Y0165690D02*
X0142996Y0164706D01*
X0141027Y0164706D01*
X0140043Y0165690D01*
X0140043Y0170611D01*
X0137534Y0170611D02*
X0133598Y0170611D01*
X0135566Y0170611D02*
X0135566Y0164706D01*
X0143980Y0165690D02*
X0143980Y0170611D01*
X0382543Y0099159D02*
X0386480Y0099159D01*
X0384511Y0101127D02*
X0384511Y0097190D01*
X0386480Y0089159D02*
X0382543Y0089159D01*
X0392895Y0164706D02*
X0392895Y0170611D01*
X0396831Y0170611D02*
X0392895Y0164706D01*
X0396831Y0164706D02*
X0396831Y0170611D01*
X0399160Y0170611D02*
X0401128Y0170611D01*
X0400144Y0170611D02*
X0400144Y0164706D01*
X0401128Y0164706D02*
X0399160Y0164706D01*
D11*
X0387490Y0132056D02*
X0380124Y0132056D01*
X0381238Y0130859D02*
X0381238Y0127456D01*
X0383507Y0130859D01*
X0383507Y0127456D01*
X0384922Y0127456D02*
X0387190Y0127456D01*
X0387190Y0130859D01*
X0384922Y0130859D01*
X0386056Y0129158D02*
X0387190Y0129158D01*
X0387330Y0120859D02*
X0388465Y0120859D01*
X0389032Y0120292D01*
X0389032Y0118023D01*
X0388465Y0117456D01*
X0387330Y0117456D01*
X0386763Y0118023D01*
X0385349Y0117456D02*
X0383080Y0117456D01*
X0381666Y0117456D02*
X0381666Y0120859D01*
X0381098Y0119158D02*
X0379397Y0117456D01*
X0381666Y0118590D02*
X0379397Y0120859D01*
X0385349Y0120859D02*
X0385349Y0117456D01*
X0386763Y0120292D02*
X0387330Y0120859D01*
X0386716Y0110859D02*
X0388418Y0110859D01*
X0388418Y0107456D01*
X0386716Y0107456D01*
X0386149Y0108023D01*
X0386149Y0110292D01*
X0386716Y0110859D01*
X0384735Y0110859D02*
X0383601Y0110859D01*
X0384168Y0110859D02*
X0384168Y0107456D01*
X0384735Y0107456D02*
X0383601Y0107456D01*
X0382279Y0107456D02*
X0382279Y0110859D01*
X0380011Y0107456D01*
X0380011Y0110859D01*
X0382323Y0042797D02*
X0381589Y0042063D01*
X0384525Y0039127D01*
X0383791Y0038393D01*
X0382323Y0038393D01*
X0381589Y0039127D01*
X0381589Y0042063D01*
X0382323Y0042797D02*
X0383791Y0042797D01*
X0384525Y0042063D01*
X0384525Y0039127D01*
X0386193Y0039127D02*
X0386927Y0038393D01*
X0388395Y0038393D01*
X0389129Y0039127D01*
X0389129Y0039861D01*
X0388395Y0040595D01*
X0386927Y0040595D01*
X0386193Y0039861D01*
X0386193Y0039127D01*
X0386927Y0040595D02*
X0386193Y0041329D01*
X0386193Y0042063D01*
X0386927Y0042797D01*
X0388395Y0042797D01*
X0389129Y0042063D01*
X0389129Y0041329D01*
X0388395Y0040595D01*
X0390797Y0042063D02*
X0390797Y0039127D01*
X0391531Y0038393D01*
X0392999Y0038393D01*
X0393733Y0039127D01*
X0390797Y0042063D01*
X0391531Y0042797D01*
X0392999Y0042797D01*
X0393733Y0042063D01*
X0393733Y0039127D01*
X0395401Y0039127D02*
X0395401Y0042063D01*
X0398337Y0039127D01*
X0397603Y0038393D01*
X0396135Y0038393D01*
X0395401Y0039127D01*
X0395401Y0042063D02*
X0396135Y0042797D01*
X0397603Y0042797D01*
X0398337Y0042063D01*
X0398337Y0039127D01*
X0400005Y0038393D02*
X0402941Y0038393D01*
X0401473Y0038393D02*
X0401473Y0042797D01*
X0402941Y0041329D01*
X0404609Y0042063D02*
X0404609Y0040595D01*
X0405343Y0039861D01*
X0407545Y0039861D01*
X0407545Y0038393D02*
X0407545Y0042797D01*
X0405343Y0042797D01*
X0404609Y0042063D01*
X0409213Y0042063D02*
X0409213Y0039127D01*
X0409947Y0038393D01*
X0412149Y0038393D01*
X0412149Y0042797D01*
X0409947Y0042797D01*
X0409213Y0042063D01*
X0379921Y0037659D02*
X0376986Y0037659D01*
X0373850Y0038393D02*
X0372382Y0041329D01*
X0370713Y0041329D02*
X0369246Y0042797D01*
X0369246Y0038393D01*
X0370713Y0038393D02*
X0367778Y0038393D01*
X0373850Y0038393D02*
X0375317Y0041329D01*
X0154032Y0118023D02*
X0153465Y0117456D01*
X0152330Y0117456D01*
X0151763Y0118023D01*
X0150349Y0117456D02*
X0150349Y0120859D01*
X0151763Y0120292D02*
X0152330Y0120859D01*
X0153465Y0120859D01*
X0154032Y0120292D01*
X0154032Y0118023D01*
X0150349Y0117456D02*
X0148080Y0117456D01*
X0146666Y0117456D02*
X0146666Y0120859D01*
X0146098Y0119158D02*
X0144397Y0117456D01*
X0146666Y0118590D02*
X0144397Y0120859D01*
X0146238Y0127456D02*
X0146238Y0130859D01*
X0145124Y0132056D02*
X0152490Y0132056D01*
X0152190Y0130859D02*
X0149922Y0130859D01*
X0148507Y0130859D02*
X0146238Y0127456D01*
X0148507Y0127456D02*
X0148507Y0130859D01*
X0151056Y0129158D02*
X0152190Y0129158D01*
X0152190Y0130859D02*
X0152190Y0127456D01*
X0149922Y0127456D01*
X0264175Y0291506D02*
X0263107Y0292573D01*
X0263107Y0294709D01*
X0264175Y0295776D01*
X0265242Y0295776D01*
X0266310Y0294709D01*
X0266310Y0293641D01*
X0266310Y0294709D02*
X0267377Y0295776D01*
X0268445Y0295776D01*
X0269513Y0294709D01*
X0269513Y0292573D01*
X0268445Y0291506D01*
X0264175Y0297951D02*
X0263107Y0297951D01*
X0263107Y0299019D01*
X0264175Y0299019D01*
X0264175Y0297951D01*
X0264175Y0301174D02*
X0263107Y0302242D01*
X0263107Y0304377D01*
X0264175Y0305444D01*
X0265242Y0305444D01*
X0266310Y0304377D01*
X0266310Y0303309D01*
X0266310Y0304377D02*
X0267377Y0305444D01*
X0268445Y0305444D01*
X0269513Y0304377D01*
X0269513Y0302242D01*
X0268445Y0301174D01*
X0275607Y0305444D02*
X0278810Y0301174D01*
X0282013Y0305444D01*
X0279877Y0307620D02*
X0282013Y0309755D01*
X0275607Y0309755D01*
X0275607Y0307620D02*
X0275607Y0311890D01*
X0275607Y0314065D02*
X0276675Y0314065D01*
X0280945Y0318335D01*
X0282013Y0318335D01*
X0282013Y0314065D01*
X0279877Y0320511D02*
X0275607Y0322646D01*
X0279877Y0324781D01*
X0269513Y0318335D02*
X0269513Y0314065D01*
X0266310Y0314065D01*
X0267377Y0316200D01*
X0267377Y0317268D01*
X0266310Y0318335D01*
X0264175Y0318335D01*
X0263107Y0317268D01*
X0263107Y0315133D01*
X0264175Y0314065D01*
X0266310Y0311890D02*
X0266310Y0307620D01*
X0254513Y0308687D02*
X0253445Y0307620D01*
X0249175Y0307620D01*
X0248107Y0308687D01*
X0248107Y0310822D01*
X0249175Y0311890D01*
X0251310Y0311890D01*
X0251310Y0309755D01*
X0253445Y0311890D02*
X0254513Y0310822D01*
X0254513Y0308687D01*
X0254513Y0314065D02*
X0248107Y0318335D01*
X0254513Y0318335D01*
X0254513Y0320511D02*
X0254513Y0323713D01*
X0253445Y0324781D01*
X0249175Y0324781D01*
X0248107Y0323713D01*
X0248107Y0320511D01*
X0254513Y0320511D01*
X0263107Y0322646D02*
X0267377Y0324781D01*
X0267377Y0320511D02*
X0263107Y0322646D01*
X0254513Y0314065D02*
X0248107Y0314065D01*
D12*
X0154332Y0140956D02*
X0143282Y0140956D01*
X0143958Y0140158D02*
X0143958Y0138156D01*
X0143958Y0139157D02*
X0145292Y0139157D01*
X0145292Y0138156D02*
X0145292Y0140158D01*
X0146168Y0139824D02*
X0146501Y0140158D01*
X0147169Y0140158D01*
X0147502Y0139824D01*
X0147502Y0138490D01*
X0147169Y0138156D01*
X0146501Y0138156D01*
X0146168Y0138490D01*
X0148378Y0140158D02*
X0149712Y0140158D01*
X0149045Y0140158D02*
X0149045Y0138156D01*
X0150587Y0138156D02*
X0150587Y0139491D01*
X0151255Y0140158D01*
X0151922Y0139491D01*
X0151922Y0138156D01*
X0152797Y0138156D02*
X0154132Y0138156D01*
X0154132Y0140158D01*
X0151922Y0139157D02*
X0150587Y0139157D01*
X0378282Y0140956D02*
X0389332Y0140956D01*
X0389132Y0140158D02*
X0389132Y0138156D01*
X0387797Y0138156D01*
X0386922Y0138156D02*
X0386922Y0139491D01*
X0386255Y0140158D01*
X0385587Y0139491D01*
X0385587Y0138156D01*
X0385587Y0139157D02*
X0386922Y0139157D01*
X0384712Y0140158D02*
X0383378Y0140158D01*
X0384045Y0140158D02*
X0384045Y0138156D01*
X0382502Y0138490D02*
X0382169Y0138156D01*
X0381501Y0138156D01*
X0381168Y0138490D01*
X0380292Y0138156D02*
X0380292Y0140158D01*
X0381168Y0139824D02*
X0381501Y0140158D01*
X0382169Y0140158D01*
X0382502Y0139824D01*
X0382502Y0138490D01*
X0380292Y0139157D02*
X0378958Y0139157D01*
X0378958Y0140158D02*
X0378958Y0138156D01*
D13*
X0144710Y0110508D02*
X0144710Y0107806D01*
X0146756Y0108257D02*
X0146756Y0110508D01*
X0145611Y0110508D02*
X0143809Y0110508D01*
X0146756Y0108257D02*
X0147206Y0107806D01*
X0148107Y0107806D01*
X0148557Y0108257D01*
X0148557Y0110508D01*
X0149702Y0110058D02*
X0150152Y0110508D01*
X0151053Y0110508D01*
X0151504Y0110058D01*
X0151504Y0108257D01*
X0151053Y0107806D01*
X0150152Y0107806D01*
X0149702Y0108257D01*
X0149702Y0110058D01*
X0152649Y0110058D02*
X0152649Y0108257D01*
X0153099Y0107806D01*
X0154450Y0107806D01*
X0154450Y0110508D01*
X0153099Y0110508D01*
X0152649Y0110058D01*
X0152649Y0147806D02*
X0154450Y0147806D01*
X0154450Y0150508D01*
X0151504Y0150508D02*
X0151504Y0147806D01*
X0149702Y0147806D01*
X0148557Y0147806D02*
X0147206Y0147806D01*
X0146756Y0148257D01*
X0146756Y0150058D01*
X0147206Y0150508D01*
X0148557Y0150508D01*
X0148557Y0147806D01*
X0150603Y0149157D02*
X0151504Y0149157D01*
X0151504Y0150508D02*
X0149702Y0150508D01*
X0145611Y0149157D02*
X0143809Y0149157D01*
X0144710Y0148257D02*
X0144710Y0150058D01*
X0378809Y0149157D02*
X0380611Y0149157D01*
X0379710Y0148257D02*
X0379710Y0150058D01*
X0381756Y0150058D02*
X0381756Y0148257D01*
X0382206Y0147806D01*
X0383557Y0147806D01*
X0383557Y0150508D01*
X0382206Y0150508D01*
X0381756Y0150058D01*
X0384702Y0150508D02*
X0386504Y0150508D01*
X0386504Y0147806D01*
X0384702Y0147806D01*
X0385603Y0149157D02*
X0386504Y0149157D01*
X0387649Y0147806D02*
X0389450Y0147806D01*
X0389450Y0150508D01*
D14*
X0285756Y0320770D02*
X0244417Y0320770D01*
X0244417Y0345180D01*
X0285756Y0345180D01*
X0285756Y0348329D01*
X0244417Y0348329D01*
X0244417Y0345180D01*
X0285756Y0345180D02*
X0285756Y0320770D01*
D15*
X0250677Y0322856D02*
X0250427Y0322606D01*
X0250176Y0322606D01*
X0249926Y0322856D01*
X0249926Y0324107D01*
X0250176Y0324107D02*
X0249676Y0324107D01*
X0249204Y0324107D02*
X0248453Y0324107D01*
X0248203Y0323857D01*
X0248203Y0323357D01*
X0248453Y0323107D01*
X0249204Y0323107D01*
X0249204Y0322606D02*
X0249204Y0324107D01*
X0247730Y0323857D02*
X0247480Y0324107D01*
X0246980Y0324107D01*
X0246730Y0323857D01*
X0246730Y0323607D01*
X0246980Y0323357D01*
X0246730Y0323107D01*
X0246730Y0322856D01*
X0246980Y0322606D01*
X0247480Y0322606D01*
X0247730Y0322856D01*
X0247230Y0323357D02*
X0246980Y0323357D01*
M02*
