%
M48
M72
T01C0.0200
T02C0.0236
T03C0.0315
T04C0.0320
T05C0.0354
T06C0.0400
T07C0.0472
T08C0.1260
%
T01
X33131Y7416
T02
X26631Y7416
T03
X29131Y8916
X29131Y9916
X29131Y12416
X29131Y13416
X29131Y15916
X29131Y16916
X31631Y19416
X32631Y19416
X35131Y19416
X36131Y19416
X38631Y19416
X39631Y19416
X42131Y16916
X42131Y15916
X42131Y13416
X42131Y12416
X42131Y9916
X42131Y8916
X39631Y6416
X38631Y6416
X36131Y6416
X35131Y6416
X32631Y6416
X31631Y6416
X24131Y8916
X24131Y9916
X24131Y12416
X24131Y13416
X24131Y15916
X24131Y16916
X21631Y19416
X20631Y19416
X18131Y19416
X17131Y19416
X14631Y19416
X13631Y19416
X11131Y16916
X11131Y15916
X11131Y13416
X11131Y12416
X11131Y9916
X11131Y8916
X13631Y6416
X14631Y6416
X17131Y6416
X18131Y6416
X20631Y6416
X21631Y6416
X6631Y12416
X6631Y13416
X11131Y21916
X11131Y22916
X11131Y25416
X11131Y26416
X11131Y28916
X11131Y29916
X13631Y32416
X14631Y32416
X17131Y32416
X18131Y32416
X20631Y32416
X21631Y32416
X24131Y29916
X24131Y28916
X24131Y26416
X24131Y25416
X24131Y22916
X24131Y21916
X29131Y21916
X29131Y22916
X29131Y25416
X29131Y26416
X29131Y28916
X29131Y29916
X31631Y32416
X32631Y32416
X35131Y32416
X36131Y32416
X38631Y32416
X39631Y32416
X42131Y29916
X42131Y28916
X42131Y26416
X42131Y25416
X42131Y22916
X42131Y21916
X6631Y25416
X6631Y26416
T04
X16131Y16916
X16131Y15916
X16131Y14916
X16131Y13916
X16131Y12916
X16131Y11916
X16131Y10916
X16131Y9916
X19131Y9916
X19131Y10916
X19131Y11916
X19131Y12916
X19131Y13916
X19131Y14916
X19131Y15916
X19131Y16916
X34131Y16916
X34131Y15916
X34131Y14916
X34131Y13916
X34131Y12916
X34131Y11916
X34131Y10916
X34131Y9916
X37131Y9916
X37131Y10916
X37131Y11916
X37131Y12916
X37131Y13916
X37131Y14916
X37131Y15916
X37131Y16916
T05
X37131Y8916
X34131Y8916
X19131Y8916
X16131Y8916
X9631Y18916
X9631Y19916
X6631Y19916
X6631Y18916
T06
X13631Y14916
X13631Y13916
X13631Y12916
X13631Y11916
X13631Y10916
X13631Y9916
X13631Y8916
X39631Y8916
X39631Y9916
X39631Y10916
X39631Y11916
X39631Y12916
X39631Y13916
X39631Y14916
T07
X27887Y33416
X26509Y33416
X25131Y33416
T08
X6206Y4990
X42426Y4990
X42426Y33337
X6206Y33337
M30
