G75*
%MOIN*%
%OFA0B0*%
%FSLAX25Y25*%
%IPPOS*%
%LPD*%
%AMOC8*
5,1,8,0,0,1.08239X$1,22.5*
%
%ADD10C,0.05400*%
%ADD11C,0.08000*%
%ADD12C,0.07200*%
%ADD13C,0.13198*%
%ADD14R,0.10100X0.10100*%
%ADD15C,0.10100*%
%ADD16C,0.04000*%
%ADD17C,0.04362*%
D10*
X0158907Y0099156D02*
X0163707Y0099156D01*
X0163707Y0109156D02*
X0158907Y0109156D01*
X0158907Y0119156D02*
X0163707Y0119156D01*
X0163707Y0129156D02*
X0158907Y0129156D01*
X0158907Y0139156D02*
X0163707Y0139156D01*
X0163707Y0149156D02*
X0158907Y0149156D01*
X0158907Y0159156D02*
X0163707Y0159156D01*
X0163707Y0169156D02*
X0158907Y0169156D01*
X0188907Y0169156D02*
X0193707Y0169156D01*
X0193707Y0159156D02*
X0188907Y0159156D01*
X0188907Y0149156D02*
X0193707Y0149156D01*
X0193707Y0139156D02*
X0188907Y0139156D01*
X0188907Y0129156D02*
X0193707Y0129156D01*
X0193707Y0119156D02*
X0188907Y0119156D01*
X0188907Y0109156D02*
X0193707Y0109156D01*
X0193707Y0099156D02*
X0188907Y0099156D01*
X0338907Y0099156D02*
X0343707Y0099156D01*
X0343707Y0109156D02*
X0338907Y0109156D01*
X0338907Y0119156D02*
X0343707Y0119156D01*
X0343707Y0129156D02*
X0338907Y0129156D01*
X0338907Y0139156D02*
X0343707Y0139156D01*
X0343707Y0149156D02*
X0338907Y0149156D01*
X0338907Y0159156D02*
X0343707Y0159156D01*
X0343707Y0169156D02*
X0338907Y0169156D01*
X0368907Y0169156D02*
X0373707Y0169156D01*
X0373707Y0159156D02*
X0368907Y0159156D01*
X0368907Y0149156D02*
X0373707Y0149156D01*
X0373707Y0139156D02*
X0368907Y0139156D01*
X0368907Y0129156D02*
X0373707Y0129156D01*
X0373707Y0119156D02*
X0368907Y0119156D01*
X0368907Y0109156D02*
X0373707Y0109156D01*
X0373707Y0099156D02*
X0368907Y0099156D01*
D11*
X0371307Y0089156D03*
X0396307Y0089156D03*
X0396307Y0099156D03*
X0396307Y0109156D03*
X0396307Y0119156D03*
X0396307Y0129156D03*
X0396307Y0139156D03*
X0396307Y0149156D03*
X0341307Y0089156D03*
X0191307Y0089156D03*
X0161307Y0089156D03*
X0136307Y0089156D03*
X0136307Y0099156D03*
X0136307Y0109156D03*
X0136307Y0119156D03*
X0136307Y0129156D03*
X0136307Y0139156D03*
X0136307Y0149156D03*
X0096307Y0189156D03*
X0096307Y0199156D03*
X0066307Y0199156D03*
X0066307Y0189156D03*
D12*
X0111307Y0169156D03*
X0111307Y0159156D03*
X0111307Y0134156D03*
X0111307Y0124156D03*
X0111307Y0099156D03*
X0111307Y0089156D03*
X0136307Y0064156D03*
X0146307Y0064156D03*
X0171307Y0064156D03*
X0181307Y0064156D03*
X0206307Y0064156D03*
X0216307Y0064156D03*
X0241307Y0089156D03*
X0241307Y0099156D03*
X0241307Y0124156D03*
X0241307Y0134156D03*
X0241307Y0159156D03*
X0241307Y0169156D03*
X0216307Y0194156D03*
X0206307Y0194156D03*
X0181307Y0194156D03*
X0171307Y0194156D03*
X0146307Y0194156D03*
X0136307Y0194156D03*
X0111307Y0219156D03*
X0111307Y0229156D03*
X0111307Y0254156D03*
X0111307Y0264156D03*
X0111307Y0289156D03*
X0111307Y0299156D03*
X0136307Y0324156D03*
X0146307Y0324156D03*
X0171307Y0324156D03*
X0181307Y0324156D03*
X0206307Y0324156D03*
X0216307Y0324156D03*
X0241307Y0299156D03*
X0241307Y0289156D03*
X0241307Y0264156D03*
X0241307Y0254156D03*
X0241307Y0229156D03*
X0241307Y0219156D03*
X0291307Y0219156D03*
X0291307Y0229156D03*
X0291307Y0254156D03*
X0291307Y0264156D03*
X0291307Y0289156D03*
X0291307Y0299156D03*
X0316307Y0324156D03*
X0326307Y0324156D03*
X0351307Y0324156D03*
X0361307Y0324156D03*
X0386307Y0324156D03*
X0396307Y0324156D03*
X0421307Y0299156D03*
X0421307Y0289156D03*
X0421307Y0264156D03*
X0421307Y0254156D03*
X0421307Y0229156D03*
X0421307Y0219156D03*
X0396307Y0194156D03*
X0386307Y0194156D03*
X0361307Y0194156D03*
X0351307Y0194156D03*
X0326307Y0194156D03*
X0316307Y0194156D03*
X0291307Y0169156D03*
X0291307Y0159156D03*
X0291307Y0134156D03*
X0291307Y0124156D03*
X0291307Y0099156D03*
X0291307Y0089156D03*
X0316307Y0064156D03*
X0326307Y0064156D03*
X0351307Y0064156D03*
X0361307Y0064156D03*
X0386307Y0064156D03*
X0396307Y0064156D03*
X0421307Y0089156D03*
X0421307Y0099156D03*
X0421307Y0124156D03*
X0421307Y0134156D03*
X0421307Y0159156D03*
X0421307Y0169156D03*
X0066307Y0134156D03*
X0066307Y0124156D03*
X0066307Y0254156D03*
X0066307Y0264156D03*
D13*
X0062055Y0049904D03*
X0424260Y0049904D03*
X0424260Y0333369D03*
X0062055Y0333369D03*
D14*
X0251307Y0334156D03*
D15*
X0265087Y0334156D03*
X0278866Y0334156D03*
D16*
X0331307Y0074156D03*
D17*
X0266307Y0074156D03*
M02*
