G75*
%MOIN*%
%OFA0B0*%
%FSLAX25Y25*%
%IPPOS*%
%LPD*%
%AMOC8*
5,1,8,0,0,1.08239X$1,22.5*
%
%ADD10C,0.04800*%
%ADD11C,0.07400*%
%ADD12C,0.06600*%
%ADD13C,0.00000*%
%ADD14R,0.09500X0.09500*%
%ADD15C,0.09500*%
%ADD16C,0.03200*%
%ADD17C,0.03400*%
%ADD18C,0.03762*%
%ADD19C,0.01600*%
D10*
X0158907Y0099156D02*
X0163707Y0099156D01*
X0163707Y0109156D02*
X0158907Y0109156D01*
X0158907Y0119156D02*
X0163707Y0119156D01*
X0163707Y0129156D02*
X0158907Y0129156D01*
X0158907Y0139156D02*
X0163707Y0139156D01*
X0163707Y0149156D02*
X0158907Y0149156D01*
X0158907Y0159156D02*
X0163707Y0159156D01*
X0163707Y0169156D02*
X0158907Y0169156D01*
X0188907Y0169156D02*
X0193707Y0169156D01*
X0193707Y0159156D02*
X0188907Y0159156D01*
X0188907Y0149156D02*
X0193707Y0149156D01*
X0193707Y0139156D02*
X0188907Y0139156D01*
X0188907Y0129156D02*
X0193707Y0129156D01*
X0193707Y0119156D02*
X0188907Y0119156D01*
X0188907Y0109156D02*
X0193707Y0109156D01*
X0193707Y0099156D02*
X0188907Y0099156D01*
X0338907Y0099156D02*
X0343707Y0099156D01*
X0343707Y0109156D02*
X0338907Y0109156D01*
X0338907Y0119156D02*
X0343707Y0119156D01*
X0343707Y0129156D02*
X0338907Y0129156D01*
X0338907Y0139156D02*
X0343707Y0139156D01*
X0343707Y0149156D02*
X0338907Y0149156D01*
X0338907Y0159156D02*
X0343707Y0159156D01*
X0343707Y0169156D02*
X0338907Y0169156D01*
X0368907Y0169156D02*
X0373707Y0169156D01*
X0373707Y0159156D02*
X0368907Y0159156D01*
X0368907Y0149156D02*
X0373707Y0149156D01*
X0373707Y0139156D02*
X0368907Y0139156D01*
X0368907Y0129156D02*
X0373707Y0129156D01*
X0373707Y0119156D02*
X0368907Y0119156D01*
X0368907Y0109156D02*
X0373707Y0109156D01*
X0373707Y0099156D02*
X0368907Y0099156D01*
D11*
X0371307Y0089156D03*
X0396307Y0089156D03*
X0396307Y0099156D03*
X0396307Y0109156D03*
X0396307Y0119156D03*
X0396307Y0129156D03*
X0396307Y0139156D03*
X0396307Y0149156D03*
X0341307Y0089156D03*
X0191307Y0089156D03*
X0161307Y0089156D03*
X0136307Y0089156D03*
X0136307Y0099156D03*
X0136307Y0109156D03*
X0136307Y0119156D03*
X0136307Y0129156D03*
X0136307Y0139156D03*
X0136307Y0149156D03*
X0096307Y0189156D03*
X0096307Y0199156D03*
X0066307Y0199156D03*
X0066307Y0189156D03*
D12*
X0111307Y0169156D03*
X0111307Y0159156D03*
X0111307Y0134156D03*
X0111307Y0124156D03*
X0111307Y0099156D03*
X0111307Y0089156D03*
X0136307Y0064156D03*
X0146307Y0064156D03*
X0171307Y0064156D03*
X0181307Y0064156D03*
X0206307Y0064156D03*
X0216307Y0064156D03*
X0241307Y0089156D03*
X0241307Y0099156D03*
X0241307Y0124156D03*
X0241307Y0134156D03*
X0241307Y0159156D03*
X0241307Y0169156D03*
X0216307Y0194156D03*
X0206307Y0194156D03*
X0181307Y0194156D03*
X0171307Y0194156D03*
X0146307Y0194156D03*
X0136307Y0194156D03*
X0111307Y0219156D03*
X0111307Y0229156D03*
X0111307Y0254156D03*
X0111307Y0264156D03*
X0111307Y0289156D03*
X0111307Y0299156D03*
X0136307Y0324156D03*
X0146307Y0324156D03*
X0171307Y0324156D03*
X0181307Y0324156D03*
X0206307Y0324156D03*
X0216307Y0324156D03*
X0241307Y0299156D03*
X0241307Y0289156D03*
X0241307Y0264156D03*
X0241307Y0254156D03*
X0241307Y0229156D03*
X0241307Y0219156D03*
X0291307Y0219156D03*
X0291307Y0229156D03*
X0291307Y0254156D03*
X0291307Y0264156D03*
X0291307Y0289156D03*
X0291307Y0299156D03*
X0316307Y0324156D03*
X0326307Y0324156D03*
X0351307Y0324156D03*
X0361307Y0324156D03*
X0386307Y0324156D03*
X0396307Y0324156D03*
X0421307Y0299156D03*
X0421307Y0289156D03*
X0421307Y0264156D03*
X0421307Y0254156D03*
X0421307Y0229156D03*
X0421307Y0219156D03*
X0396307Y0194156D03*
X0386307Y0194156D03*
X0361307Y0194156D03*
X0351307Y0194156D03*
X0326307Y0194156D03*
X0316307Y0194156D03*
X0291307Y0169156D03*
X0291307Y0159156D03*
X0291307Y0134156D03*
X0291307Y0124156D03*
X0291307Y0099156D03*
X0291307Y0089156D03*
X0316307Y0064156D03*
X0326307Y0064156D03*
X0351307Y0064156D03*
X0361307Y0064156D03*
X0386307Y0064156D03*
X0396307Y0064156D03*
X0421307Y0089156D03*
X0421307Y0099156D03*
X0421307Y0124156D03*
X0421307Y0134156D03*
X0421307Y0159156D03*
X0421307Y0169156D03*
X0066307Y0134156D03*
X0066307Y0124156D03*
X0066307Y0254156D03*
X0066307Y0264156D03*
D13*
X0062055Y0034156D02*
X0424260Y0034156D01*
X0417961Y0049904D02*
X0417963Y0050062D01*
X0417969Y0050220D01*
X0417979Y0050378D01*
X0417993Y0050536D01*
X0418011Y0050693D01*
X0418032Y0050850D01*
X0418058Y0051006D01*
X0418088Y0051162D01*
X0418121Y0051317D01*
X0418159Y0051470D01*
X0418200Y0051623D01*
X0418245Y0051775D01*
X0418294Y0051926D01*
X0418347Y0052075D01*
X0418403Y0052223D01*
X0418463Y0052369D01*
X0418527Y0052514D01*
X0418595Y0052657D01*
X0418666Y0052799D01*
X0418740Y0052939D01*
X0418818Y0053076D01*
X0418900Y0053212D01*
X0418984Y0053346D01*
X0419073Y0053477D01*
X0419164Y0053606D01*
X0419259Y0053733D01*
X0419356Y0053858D01*
X0419457Y0053980D01*
X0419561Y0054099D01*
X0419668Y0054216D01*
X0419778Y0054330D01*
X0419891Y0054441D01*
X0420006Y0054550D01*
X0420124Y0054655D01*
X0420245Y0054757D01*
X0420368Y0054857D01*
X0420494Y0054953D01*
X0420622Y0055046D01*
X0420752Y0055136D01*
X0420885Y0055222D01*
X0421020Y0055306D01*
X0421156Y0055385D01*
X0421295Y0055462D01*
X0421436Y0055534D01*
X0421578Y0055604D01*
X0421722Y0055669D01*
X0421868Y0055731D01*
X0422015Y0055789D01*
X0422164Y0055844D01*
X0422314Y0055895D01*
X0422465Y0055942D01*
X0422617Y0055985D01*
X0422770Y0056024D01*
X0422925Y0056060D01*
X0423080Y0056091D01*
X0423236Y0056119D01*
X0423392Y0056143D01*
X0423549Y0056163D01*
X0423707Y0056179D01*
X0423864Y0056191D01*
X0424023Y0056199D01*
X0424181Y0056203D01*
X0424339Y0056203D01*
X0424497Y0056199D01*
X0424656Y0056191D01*
X0424813Y0056179D01*
X0424971Y0056163D01*
X0425128Y0056143D01*
X0425284Y0056119D01*
X0425440Y0056091D01*
X0425595Y0056060D01*
X0425750Y0056024D01*
X0425903Y0055985D01*
X0426055Y0055942D01*
X0426206Y0055895D01*
X0426356Y0055844D01*
X0426505Y0055789D01*
X0426652Y0055731D01*
X0426798Y0055669D01*
X0426942Y0055604D01*
X0427084Y0055534D01*
X0427225Y0055462D01*
X0427364Y0055385D01*
X0427500Y0055306D01*
X0427635Y0055222D01*
X0427768Y0055136D01*
X0427898Y0055046D01*
X0428026Y0054953D01*
X0428152Y0054857D01*
X0428275Y0054757D01*
X0428396Y0054655D01*
X0428514Y0054550D01*
X0428629Y0054441D01*
X0428742Y0054330D01*
X0428852Y0054216D01*
X0428959Y0054099D01*
X0429063Y0053980D01*
X0429164Y0053858D01*
X0429261Y0053733D01*
X0429356Y0053606D01*
X0429447Y0053477D01*
X0429536Y0053346D01*
X0429620Y0053212D01*
X0429702Y0053076D01*
X0429780Y0052939D01*
X0429854Y0052799D01*
X0429925Y0052657D01*
X0429993Y0052514D01*
X0430057Y0052369D01*
X0430117Y0052223D01*
X0430173Y0052075D01*
X0430226Y0051926D01*
X0430275Y0051775D01*
X0430320Y0051623D01*
X0430361Y0051470D01*
X0430399Y0051317D01*
X0430432Y0051162D01*
X0430462Y0051006D01*
X0430488Y0050850D01*
X0430509Y0050693D01*
X0430527Y0050536D01*
X0430541Y0050378D01*
X0430551Y0050220D01*
X0430557Y0050062D01*
X0430559Y0049904D01*
X0430557Y0049746D01*
X0430551Y0049588D01*
X0430541Y0049430D01*
X0430527Y0049272D01*
X0430509Y0049115D01*
X0430488Y0048958D01*
X0430462Y0048802D01*
X0430432Y0048646D01*
X0430399Y0048491D01*
X0430361Y0048338D01*
X0430320Y0048185D01*
X0430275Y0048033D01*
X0430226Y0047882D01*
X0430173Y0047733D01*
X0430117Y0047585D01*
X0430057Y0047439D01*
X0429993Y0047294D01*
X0429925Y0047151D01*
X0429854Y0047009D01*
X0429780Y0046869D01*
X0429702Y0046732D01*
X0429620Y0046596D01*
X0429536Y0046462D01*
X0429447Y0046331D01*
X0429356Y0046202D01*
X0429261Y0046075D01*
X0429164Y0045950D01*
X0429063Y0045828D01*
X0428959Y0045709D01*
X0428852Y0045592D01*
X0428742Y0045478D01*
X0428629Y0045367D01*
X0428514Y0045258D01*
X0428396Y0045153D01*
X0428275Y0045051D01*
X0428152Y0044951D01*
X0428026Y0044855D01*
X0427898Y0044762D01*
X0427768Y0044672D01*
X0427635Y0044586D01*
X0427500Y0044502D01*
X0427364Y0044423D01*
X0427225Y0044346D01*
X0427084Y0044274D01*
X0426942Y0044204D01*
X0426798Y0044139D01*
X0426652Y0044077D01*
X0426505Y0044019D01*
X0426356Y0043964D01*
X0426206Y0043913D01*
X0426055Y0043866D01*
X0425903Y0043823D01*
X0425750Y0043784D01*
X0425595Y0043748D01*
X0425440Y0043717D01*
X0425284Y0043689D01*
X0425128Y0043665D01*
X0424971Y0043645D01*
X0424813Y0043629D01*
X0424656Y0043617D01*
X0424497Y0043609D01*
X0424339Y0043605D01*
X0424181Y0043605D01*
X0424023Y0043609D01*
X0423864Y0043617D01*
X0423707Y0043629D01*
X0423549Y0043645D01*
X0423392Y0043665D01*
X0423236Y0043689D01*
X0423080Y0043717D01*
X0422925Y0043748D01*
X0422770Y0043784D01*
X0422617Y0043823D01*
X0422465Y0043866D01*
X0422314Y0043913D01*
X0422164Y0043964D01*
X0422015Y0044019D01*
X0421868Y0044077D01*
X0421722Y0044139D01*
X0421578Y0044204D01*
X0421436Y0044274D01*
X0421295Y0044346D01*
X0421156Y0044423D01*
X0421020Y0044502D01*
X0420885Y0044586D01*
X0420752Y0044672D01*
X0420622Y0044762D01*
X0420494Y0044855D01*
X0420368Y0044951D01*
X0420245Y0045051D01*
X0420124Y0045153D01*
X0420006Y0045258D01*
X0419891Y0045367D01*
X0419778Y0045478D01*
X0419668Y0045592D01*
X0419561Y0045709D01*
X0419457Y0045828D01*
X0419356Y0045950D01*
X0419259Y0046075D01*
X0419164Y0046202D01*
X0419073Y0046331D01*
X0418984Y0046462D01*
X0418900Y0046596D01*
X0418818Y0046732D01*
X0418740Y0046869D01*
X0418666Y0047009D01*
X0418595Y0047151D01*
X0418527Y0047294D01*
X0418463Y0047439D01*
X0418403Y0047585D01*
X0418347Y0047733D01*
X0418294Y0047882D01*
X0418245Y0048033D01*
X0418200Y0048185D01*
X0418159Y0048338D01*
X0418121Y0048491D01*
X0418088Y0048646D01*
X0418058Y0048802D01*
X0418032Y0048958D01*
X0418011Y0049115D01*
X0417993Y0049272D01*
X0417979Y0049430D01*
X0417969Y0049588D01*
X0417963Y0049746D01*
X0417961Y0049904D01*
X0424260Y0034156D02*
X0424641Y0034161D01*
X0425021Y0034174D01*
X0425401Y0034197D01*
X0425780Y0034230D01*
X0426158Y0034271D01*
X0426535Y0034321D01*
X0426911Y0034381D01*
X0427286Y0034449D01*
X0427658Y0034527D01*
X0428029Y0034614D01*
X0428397Y0034709D01*
X0428763Y0034814D01*
X0429126Y0034927D01*
X0429487Y0035049D01*
X0429844Y0035179D01*
X0430198Y0035319D01*
X0430549Y0035466D01*
X0430896Y0035623D01*
X0431239Y0035787D01*
X0431578Y0035960D01*
X0431913Y0036141D01*
X0432244Y0036330D01*
X0432569Y0036527D01*
X0432890Y0036731D01*
X0433206Y0036944D01*
X0433516Y0037164D01*
X0433822Y0037391D01*
X0434121Y0037626D01*
X0434415Y0037868D01*
X0434703Y0038116D01*
X0434985Y0038372D01*
X0435260Y0038635D01*
X0435529Y0038904D01*
X0435792Y0039179D01*
X0436048Y0039461D01*
X0436296Y0039749D01*
X0436538Y0040043D01*
X0436773Y0040342D01*
X0437000Y0040648D01*
X0437220Y0040958D01*
X0437433Y0041274D01*
X0437637Y0041595D01*
X0437834Y0041920D01*
X0438023Y0042251D01*
X0438204Y0042586D01*
X0438377Y0042925D01*
X0438541Y0043268D01*
X0438698Y0043615D01*
X0438845Y0043966D01*
X0438985Y0044320D01*
X0439115Y0044677D01*
X0439237Y0045038D01*
X0439350Y0045401D01*
X0439455Y0045767D01*
X0439550Y0046135D01*
X0439637Y0046506D01*
X0439715Y0046878D01*
X0439783Y0047253D01*
X0439843Y0047629D01*
X0439893Y0048006D01*
X0439934Y0048384D01*
X0439967Y0048763D01*
X0439990Y0049143D01*
X0440003Y0049523D01*
X0440008Y0049904D01*
X0440008Y0333369D01*
X0417961Y0333369D02*
X0417963Y0333527D01*
X0417969Y0333685D01*
X0417979Y0333843D01*
X0417993Y0334001D01*
X0418011Y0334158D01*
X0418032Y0334315D01*
X0418058Y0334471D01*
X0418088Y0334627D01*
X0418121Y0334782D01*
X0418159Y0334935D01*
X0418200Y0335088D01*
X0418245Y0335240D01*
X0418294Y0335391D01*
X0418347Y0335540D01*
X0418403Y0335688D01*
X0418463Y0335834D01*
X0418527Y0335979D01*
X0418595Y0336122D01*
X0418666Y0336264D01*
X0418740Y0336404D01*
X0418818Y0336541D01*
X0418900Y0336677D01*
X0418984Y0336811D01*
X0419073Y0336942D01*
X0419164Y0337071D01*
X0419259Y0337198D01*
X0419356Y0337323D01*
X0419457Y0337445D01*
X0419561Y0337564D01*
X0419668Y0337681D01*
X0419778Y0337795D01*
X0419891Y0337906D01*
X0420006Y0338015D01*
X0420124Y0338120D01*
X0420245Y0338222D01*
X0420368Y0338322D01*
X0420494Y0338418D01*
X0420622Y0338511D01*
X0420752Y0338601D01*
X0420885Y0338687D01*
X0421020Y0338771D01*
X0421156Y0338850D01*
X0421295Y0338927D01*
X0421436Y0338999D01*
X0421578Y0339069D01*
X0421722Y0339134D01*
X0421868Y0339196D01*
X0422015Y0339254D01*
X0422164Y0339309D01*
X0422314Y0339360D01*
X0422465Y0339407D01*
X0422617Y0339450D01*
X0422770Y0339489D01*
X0422925Y0339525D01*
X0423080Y0339556D01*
X0423236Y0339584D01*
X0423392Y0339608D01*
X0423549Y0339628D01*
X0423707Y0339644D01*
X0423864Y0339656D01*
X0424023Y0339664D01*
X0424181Y0339668D01*
X0424339Y0339668D01*
X0424497Y0339664D01*
X0424656Y0339656D01*
X0424813Y0339644D01*
X0424971Y0339628D01*
X0425128Y0339608D01*
X0425284Y0339584D01*
X0425440Y0339556D01*
X0425595Y0339525D01*
X0425750Y0339489D01*
X0425903Y0339450D01*
X0426055Y0339407D01*
X0426206Y0339360D01*
X0426356Y0339309D01*
X0426505Y0339254D01*
X0426652Y0339196D01*
X0426798Y0339134D01*
X0426942Y0339069D01*
X0427084Y0338999D01*
X0427225Y0338927D01*
X0427364Y0338850D01*
X0427500Y0338771D01*
X0427635Y0338687D01*
X0427768Y0338601D01*
X0427898Y0338511D01*
X0428026Y0338418D01*
X0428152Y0338322D01*
X0428275Y0338222D01*
X0428396Y0338120D01*
X0428514Y0338015D01*
X0428629Y0337906D01*
X0428742Y0337795D01*
X0428852Y0337681D01*
X0428959Y0337564D01*
X0429063Y0337445D01*
X0429164Y0337323D01*
X0429261Y0337198D01*
X0429356Y0337071D01*
X0429447Y0336942D01*
X0429536Y0336811D01*
X0429620Y0336677D01*
X0429702Y0336541D01*
X0429780Y0336404D01*
X0429854Y0336264D01*
X0429925Y0336122D01*
X0429993Y0335979D01*
X0430057Y0335834D01*
X0430117Y0335688D01*
X0430173Y0335540D01*
X0430226Y0335391D01*
X0430275Y0335240D01*
X0430320Y0335088D01*
X0430361Y0334935D01*
X0430399Y0334782D01*
X0430432Y0334627D01*
X0430462Y0334471D01*
X0430488Y0334315D01*
X0430509Y0334158D01*
X0430527Y0334001D01*
X0430541Y0333843D01*
X0430551Y0333685D01*
X0430557Y0333527D01*
X0430559Y0333369D01*
X0430557Y0333211D01*
X0430551Y0333053D01*
X0430541Y0332895D01*
X0430527Y0332737D01*
X0430509Y0332580D01*
X0430488Y0332423D01*
X0430462Y0332267D01*
X0430432Y0332111D01*
X0430399Y0331956D01*
X0430361Y0331803D01*
X0430320Y0331650D01*
X0430275Y0331498D01*
X0430226Y0331347D01*
X0430173Y0331198D01*
X0430117Y0331050D01*
X0430057Y0330904D01*
X0429993Y0330759D01*
X0429925Y0330616D01*
X0429854Y0330474D01*
X0429780Y0330334D01*
X0429702Y0330197D01*
X0429620Y0330061D01*
X0429536Y0329927D01*
X0429447Y0329796D01*
X0429356Y0329667D01*
X0429261Y0329540D01*
X0429164Y0329415D01*
X0429063Y0329293D01*
X0428959Y0329174D01*
X0428852Y0329057D01*
X0428742Y0328943D01*
X0428629Y0328832D01*
X0428514Y0328723D01*
X0428396Y0328618D01*
X0428275Y0328516D01*
X0428152Y0328416D01*
X0428026Y0328320D01*
X0427898Y0328227D01*
X0427768Y0328137D01*
X0427635Y0328051D01*
X0427500Y0327967D01*
X0427364Y0327888D01*
X0427225Y0327811D01*
X0427084Y0327739D01*
X0426942Y0327669D01*
X0426798Y0327604D01*
X0426652Y0327542D01*
X0426505Y0327484D01*
X0426356Y0327429D01*
X0426206Y0327378D01*
X0426055Y0327331D01*
X0425903Y0327288D01*
X0425750Y0327249D01*
X0425595Y0327213D01*
X0425440Y0327182D01*
X0425284Y0327154D01*
X0425128Y0327130D01*
X0424971Y0327110D01*
X0424813Y0327094D01*
X0424656Y0327082D01*
X0424497Y0327074D01*
X0424339Y0327070D01*
X0424181Y0327070D01*
X0424023Y0327074D01*
X0423864Y0327082D01*
X0423707Y0327094D01*
X0423549Y0327110D01*
X0423392Y0327130D01*
X0423236Y0327154D01*
X0423080Y0327182D01*
X0422925Y0327213D01*
X0422770Y0327249D01*
X0422617Y0327288D01*
X0422465Y0327331D01*
X0422314Y0327378D01*
X0422164Y0327429D01*
X0422015Y0327484D01*
X0421868Y0327542D01*
X0421722Y0327604D01*
X0421578Y0327669D01*
X0421436Y0327739D01*
X0421295Y0327811D01*
X0421156Y0327888D01*
X0421020Y0327967D01*
X0420885Y0328051D01*
X0420752Y0328137D01*
X0420622Y0328227D01*
X0420494Y0328320D01*
X0420368Y0328416D01*
X0420245Y0328516D01*
X0420124Y0328618D01*
X0420006Y0328723D01*
X0419891Y0328832D01*
X0419778Y0328943D01*
X0419668Y0329057D01*
X0419561Y0329174D01*
X0419457Y0329293D01*
X0419356Y0329415D01*
X0419259Y0329540D01*
X0419164Y0329667D01*
X0419073Y0329796D01*
X0418984Y0329927D01*
X0418900Y0330061D01*
X0418818Y0330197D01*
X0418740Y0330334D01*
X0418666Y0330474D01*
X0418595Y0330616D01*
X0418527Y0330759D01*
X0418463Y0330904D01*
X0418403Y0331050D01*
X0418347Y0331198D01*
X0418294Y0331347D01*
X0418245Y0331498D01*
X0418200Y0331650D01*
X0418159Y0331803D01*
X0418121Y0331956D01*
X0418088Y0332111D01*
X0418058Y0332267D01*
X0418032Y0332423D01*
X0418011Y0332580D01*
X0417993Y0332737D01*
X0417979Y0332895D01*
X0417969Y0333053D01*
X0417963Y0333211D01*
X0417961Y0333369D01*
X0424260Y0349117D02*
X0424641Y0349112D01*
X0425021Y0349099D01*
X0425401Y0349076D01*
X0425780Y0349043D01*
X0426158Y0349002D01*
X0426535Y0348952D01*
X0426911Y0348892D01*
X0427286Y0348824D01*
X0427658Y0348746D01*
X0428029Y0348659D01*
X0428397Y0348564D01*
X0428763Y0348459D01*
X0429126Y0348346D01*
X0429487Y0348224D01*
X0429844Y0348094D01*
X0430198Y0347954D01*
X0430549Y0347807D01*
X0430896Y0347650D01*
X0431239Y0347486D01*
X0431578Y0347313D01*
X0431913Y0347132D01*
X0432244Y0346943D01*
X0432569Y0346746D01*
X0432890Y0346542D01*
X0433206Y0346329D01*
X0433516Y0346109D01*
X0433822Y0345882D01*
X0434121Y0345647D01*
X0434415Y0345405D01*
X0434703Y0345157D01*
X0434985Y0344901D01*
X0435260Y0344638D01*
X0435529Y0344369D01*
X0435792Y0344094D01*
X0436048Y0343812D01*
X0436296Y0343524D01*
X0436538Y0343230D01*
X0436773Y0342931D01*
X0437000Y0342625D01*
X0437220Y0342315D01*
X0437433Y0341999D01*
X0437637Y0341678D01*
X0437834Y0341353D01*
X0438023Y0341022D01*
X0438204Y0340687D01*
X0438377Y0340348D01*
X0438541Y0340005D01*
X0438698Y0339658D01*
X0438845Y0339307D01*
X0438985Y0338953D01*
X0439115Y0338596D01*
X0439237Y0338235D01*
X0439350Y0337872D01*
X0439455Y0337506D01*
X0439550Y0337138D01*
X0439637Y0336767D01*
X0439715Y0336395D01*
X0439783Y0336020D01*
X0439843Y0335644D01*
X0439893Y0335267D01*
X0439934Y0334889D01*
X0439967Y0334510D01*
X0439990Y0334130D01*
X0440003Y0333750D01*
X0440008Y0333369D01*
X0424260Y0349117D02*
X0062055Y0349117D01*
X0055756Y0333369D02*
X0055758Y0333527D01*
X0055764Y0333685D01*
X0055774Y0333843D01*
X0055788Y0334001D01*
X0055806Y0334158D01*
X0055827Y0334315D01*
X0055853Y0334471D01*
X0055883Y0334627D01*
X0055916Y0334782D01*
X0055954Y0334935D01*
X0055995Y0335088D01*
X0056040Y0335240D01*
X0056089Y0335391D01*
X0056142Y0335540D01*
X0056198Y0335688D01*
X0056258Y0335834D01*
X0056322Y0335979D01*
X0056390Y0336122D01*
X0056461Y0336264D01*
X0056535Y0336404D01*
X0056613Y0336541D01*
X0056695Y0336677D01*
X0056779Y0336811D01*
X0056868Y0336942D01*
X0056959Y0337071D01*
X0057054Y0337198D01*
X0057151Y0337323D01*
X0057252Y0337445D01*
X0057356Y0337564D01*
X0057463Y0337681D01*
X0057573Y0337795D01*
X0057686Y0337906D01*
X0057801Y0338015D01*
X0057919Y0338120D01*
X0058040Y0338222D01*
X0058163Y0338322D01*
X0058289Y0338418D01*
X0058417Y0338511D01*
X0058547Y0338601D01*
X0058680Y0338687D01*
X0058815Y0338771D01*
X0058951Y0338850D01*
X0059090Y0338927D01*
X0059231Y0338999D01*
X0059373Y0339069D01*
X0059517Y0339134D01*
X0059663Y0339196D01*
X0059810Y0339254D01*
X0059959Y0339309D01*
X0060109Y0339360D01*
X0060260Y0339407D01*
X0060412Y0339450D01*
X0060565Y0339489D01*
X0060720Y0339525D01*
X0060875Y0339556D01*
X0061031Y0339584D01*
X0061187Y0339608D01*
X0061344Y0339628D01*
X0061502Y0339644D01*
X0061659Y0339656D01*
X0061818Y0339664D01*
X0061976Y0339668D01*
X0062134Y0339668D01*
X0062292Y0339664D01*
X0062451Y0339656D01*
X0062608Y0339644D01*
X0062766Y0339628D01*
X0062923Y0339608D01*
X0063079Y0339584D01*
X0063235Y0339556D01*
X0063390Y0339525D01*
X0063545Y0339489D01*
X0063698Y0339450D01*
X0063850Y0339407D01*
X0064001Y0339360D01*
X0064151Y0339309D01*
X0064300Y0339254D01*
X0064447Y0339196D01*
X0064593Y0339134D01*
X0064737Y0339069D01*
X0064879Y0338999D01*
X0065020Y0338927D01*
X0065159Y0338850D01*
X0065295Y0338771D01*
X0065430Y0338687D01*
X0065563Y0338601D01*
X0065693Y0338511D01*
X0065821Y0338418D01*
X0065947Y0338322D01*
X0066070Y0338222D01*
X0066191Y0338120D01*
X0066309Y0338015D01*
X0066424Y0337906D01*
X0066537Y0337795D01*
X0066647Y0337681D01*
X0066754Y0337564D01*
X0066858Y0337445D01*
X0066959Y0337323D01*
X0067056Y0337198D01*
X0067151Y0337071D01*
X0067242Y0336942D01*
X0067331Y0336811D01*
X0067415Y0336677D01*
X0067497Y0336541D01*
X0067575Y0336404D01*
X0067649Y0336264D01*
X0067720Y0336122D01*
X0067788Y0335979D01*
X0067852Y0335834D01*
X0067912Y0335688D01*
X0067968Y0335540D01*
X0068021Y0335391D01*
X0068070Y0335240D01*
X0068115Y0335088D01*
X0068156Y0334935D01*
X0068194Y0334782D01*
X0068227Y0334627D01*
X0068257Y0334471D01*
X0068283Y0334315D01*
X0068304Y0334158D01*
X0068322Y0334001D01*
X0068336Y0333843D01*
X0068346Y0333685D01*
X0068352Y0333527D01*
X0068354Y0333369D01*
X0068352Y0333211D01*
X0068346Y0333053D01*
X0068336Y0332895D01*
X0068322Y0332737D01*
X0068304Y0332580D01*
X0068283Y0332423D01*
X0068257Y0332267D01*
X0068227Y0332111D01*
X0068194Y0331956D01*
X0068156Y0331803D01*
X0068115Y0331650D01*
X0068070Y0331498D01*
X0068021Y0331347D01*
X0067968Y0331198D01*
X0067912Y0331050D01*
X0067852Y0330904D01*
X0067788Y0330759D01*
X0067720Y0330616D01*
X0067649Y0330474D01*
X0067575Y0330334D01*
X0067497Y0330197D01*
X0067415Y0330061D01*
X0067331Y0329927D01*
X0067242Y0329796D01*
X0067151Y0329667D01*
X0067056Y0329540D01*
X0066959Y0329415D01*
X0066858Y0329293D01*
X0066754Y0329174D01*
X0066647Y0329057D01*
X0066537Y0328943D01*
X0066424Y0328832D01*
X0066309Y0328723D01*
X0066191Y0328618D01*
X0066070Y0328516D01*
X0065947Y0328416D01*
X0065821Y0328320D01*
X0065693Y0328227D01*
X0065563Y0328137D01*
X0065430Y0328051D01*
X0065295Y0327967D01*
X0065159Y0327888D01*
X0065020Y0327811D01*
X0064879Y0327739D01*
X0064737Y0327669D01*
X0064593Y0327604D01*
X0064447Y0327542D01*
X0064300Y0327484D01*
X0064151Y0327429D01*
X0064001Y0327378D01*
X0063850Y0327331D01*
X0063698Y0327288D01*
X0063545Y0327249D01*
X0063390Y0327213D01*
X0063235Y0327182D01*
X0063079Y0327154D01*
X0062923Y0327130D01*
X0062766Y0327110D01*
X0062608Y0327094D01*
X0062451Y0327082D01*
X0062292Y0327074D01*
X0062134Y0327070D01*
X0061976Y0327070D01*
X0061818Y0327074D01*
X0061659Y0327082D01*
X0061502Y0327094D01*
X0061344Y0327110D01*
X0061187Y0327130D01*
X0061031Y0327154D01*
X0060875Y0327182D01*
X0060720Y0327213D01*
X0060565Y0327249D01*
X0060412Y0327288D01*
X0060260Y0327331D01*
X0060109Y0327378D01*
X0059959Y0327429D01*
X0059810Y0327484D01*
X0059663Y0327542D01*
X0059517Y0327604D01*
X0059373Y0327669D01*
X0059231Y0327739D01*
X0059090Y0327811D01*
X0058951Y0327888D01*
X0058815Y0327967D01*
X0058680Y0328051D01*
X0058547Y0328137D01*
X0058417Y0328227D01*
X0058289Y0328320D01*
X0058163Y0328416D01*
X0058040Y0328516D01*
X0057919Y0328618D01*
X0057801Y0328723D01*
X0057686Y0328832D01*
X0057573Y0328943D01*
X0057463Y0329057D01*
X0057356Y0329174D01*
X0057252Y0329293D01*
X0057151Y0329415D01*
X0057054Y0329540D01*
X0056959Y0329667D01*
X0056868Y0329796D01*
X0056779Y0329927D01*
X0056695Y0330061D01*
X0056613Y0330197D01*
X0056535Y0330334D01*
X0056461Y0330474D01*
X0056390Y0330616D01*
X0056322Y0330759D01*
X0056258Y0330904D01*
X0056198Y0331050D01*
X0056142Y0331198D01*
X0056089Y0331347D01*
X0056040Y0331498D01*
X0055995Y0331650D01*
X0055954Y0331803D01*
X0055916Y0331956D01*
X0055883Y0332111D01*
X0055853Y0332267D01*
X0055827Y0332423D01*
X0055806Y0332580D01*
X0055788Y0332737D01*
X0055774Y0332895D01*
X0055764Y0333053D01*
X0055758Y0333211D01*
X0055756Y0333369D01*
X0046307Y0333369D02*
X0046312Y0333750D01*
X0046325Y0334130D01*
X0046348Y0334510D01*
X0046381Y0334889D01*
X0046422Y0335267D01*
X0046472Y0335644D01*
X0046532Y0336020D01*
X0046600Y0336395D01*
X0046678Y0336767D01*
X0046765Y0337138D01*
X0046860Y0337506D01*
X0046965Y0337872D01*
X0047078Y0338235D01*
X0047200Y0338596D01*
X0047330Y0338953D01*
X0047470Y0339307D01*
X0047617Y0339658D01*
X0047774Y0340005D01*
X0047938Y0340348D01*
X0048111Y0340687D01*
X0048292Y0341022D01*
X0048481Y0341353D01*
X0048678Y0341678D01*
X0048882Y0341999D01*
X0049095Y0342315D01*
X0049315Y0342625D01*
X0049542Y0342931D01*
X0049777Y0343230D01*
X0050019Y0343524D01*
X0050267Y0343812D01*
X0050523Y0344094D01*
X0050786Y0344369D01*
X0051055Y0344638D01*
X0051330Y0344901D01*
X0051612Y0345157D01*
X0051900Y0345405D01*
X0052194Y0345647D01*
X0052493Y0345882D01*
X0052799Y0346109D01*
X0053109Y0346329D01*
X0053425Y0346542D01*
X0053746Y0346746D01*
X0054071Y0346943D01*
X0054402Y0347132D01*
X0054737Y0347313D01*
X0055076Y0347486D01*
X0055419Y0347650D01*
X0055766Y0347807D01*
X0056117Y0347954D01*
X0056471Y0348094D01*
X0056828Y0348224D01*
X0057189Y0348346D01*
X0057552Y0348459D01*
X0057918Y0348564D01*
X0058286Y0348659D01*
X0058657Y0348746D01*
X0059029Y0348824D01*
X0059404Y0348892D01*
X0059780Y0348952D01*
X0060157Y0349002D01*
X0060535Y0349043D01*
X0060914Y0349076D01*
X0061294Y0349099D01*
X0061674Y0349112D01*
X0062055Y0349117D01*
X0046307Y0333369D02*
X0046307Y0049904D01*
X0055756Y0049904D02*
X0055758Y0050062D01*
X0055764Y0050220D01*
X0055774Y0050378D01*
X0055788Y0050536D01*
X0055806Y0050693D01*
X0055827Y0050850D01*
X0055853Y0051006D01*
X0055883Y0051162D01*
X0055916Y0051317D01*
X0055954Y0051470D01*
X0055995Y0051623D01*
X0056040Y0051775D01*
X0056089Y0051926D01*
X0056142Y0052075D01*
X0056198Y0052223D01*
X0056258Y0052369D01*
X0056322Y0052514D01*
X0056390Y0052657D01*
X0056461Y0052799D01*
X0056535Y0052939D01*
X0056613Y0053076D01*
X0056695Y0053212D01*
X0056779Y0053346D01*
X0056868Y0053477D01*
X0056959Y0053606D01*
X0057054Y0053733D01*
X0057151Y0053858D01*
X0057252Y0053980D01*
X0057356Y0054099D01*
X0057463Y0054216D01*
X0057573Y0054330D01*
X0057686Y0054441D01*
X0057801Y0054550D01*
X0057919Y0054655D01*
X0058040Y0054757D01*
X0058163Y0054857D01*
X0058289Y0054953D01*
X0058417Y0055046D01*
X0058547Y0055136D01*
X0058680Y0055222D01*
X0058815Y0055306D01*
X0058951Y0055385D01*
X0059090Y0055462D01*
X0059231Y0055534D01*
X0059373Y0055604D01*
X0059517Y0055669D01*
X0059663Y0055731D01*
X0059810Y0055789D01*
X0059959Y0055844D01*
X0060109Y0055895D01*
X0060260Y0055942D01*
X0060412Y0055985D01*
X0060565Y0056024D01*
X0060720Y0056060D01*
X0060875Y0056091D01*
X0061031Y0056119D01*
X0061187Y0056143D01*
X0061344Y0056163D01*
X0061502Y0056179D01*
X0061659Y0056191D01*
X0061818Y0056199D01*
X0061976Y0056203D01*
X0062134Y0056203D01*
X0062292Y0056199D01*
X0062451Y0056191D01*
X0062608Y0056179D01*
X0062766Y0056163D01*
X0062923Y0056143D01*
X0063079Y0056119D01*
X0063235Y0056091D01*
X0063390Y0056060D01*
X0063545Y0056024D01*
X0063698Y0055985D01*
X0063850Y0055942D01*
X0064001Y0055895D01*
X0064151Y0055844D01*
X0064300Y0055789D01*
X0064447Y0055731D01*
X0064593Y0055669D01*
X0064737Y0055604D01*
X0064879Y0055534D01*
X0065020Y0055462D01*
X0065159Y0055385D01*
X0065295Y0055306D01*
X0065430Y0055222D01*
X0065563Y0055136D01*
X0065693Y0055046D01*
X0065821Y0054953D01*
X0065947Y0054857D01*
X0066070Y0054757D01*
X0066191Y0054655D01*
X0066309Y0054550D01*
X0066424Y0054441D01*
X0066537Y0054330D01*
X0066647Y0054216D01*
X0066754Y0054099D01*
X0066858Y0053980D01*
X0066959Y0053858D01*
X0067056Y0053733D01*
X0067151Y0053606D01*
X0067242Y0053477D01*
X0067331Y0053346D01*
X0067415Y0053212D01*
X0067497Y0053076D01*
X0067575Y0052939D01*
X0067649Y0052799D01*
X0067720Y0052657D01*
X0067788Y0052514D01*
X0067852Y0052369D01*
X0067912Y0052223D01*
X0067968Y0052075D01*
X0068021Y0051926D01*
X0068070Y0051775D01*
X0068115Y0051623D01*
X0068156Y0051470D01*
X0068194Y0051317D01*
X0068227Y0051162D01*
X0068257Y0051006D01*
X0068283Y0050850D01*
X0068304Y0050693D01*
X0068322Y0050536D01*
X0068336Y0050378D01*
X0068346Y0050220D01*
X0068352Y0050062D01*
X0068354Y0049904D01*
X0068352Y0049746D01*
X0068346Y0049588D01*
X0068336Y0049430D01*
X0068322Y0049272D01*
X0068304Y0049115D01*
X0068283Y0048958D01*
X0068257Y0048802D01*
X0068227Y0048646D01*
X0068194Y0048491D01*
X0068156Y0048338D01*
X0068115Y0048185D01*
X0068070Y0048033D01*
X0068021Y0047882D01*
X0067968Y0047733D01*
X0067912Y0047585D01*
X0067852Y0047439D01*
X0067788Y0047294D01*
X0067720Y0047151D01*
X0067649Y0047009D01*
X0067575Y0046869D01*
X0067497Y0046732D01*
X0067415Y0046596D01*
X0067331Y0046462D01*
X0067242Y0046331D01*
X0067151Y0046202D01*
X0067056Y0046075D01*
X0066959Y0045950D01*
X0066858Y0045828D01*
X0066754Y0045709D01*
X0066647Y0045592D01*
X0066537Y0045478D01*
X0066424Y0045367D01*
X0066309Y0045258D01*
X0066191Y0045153D01*
X0066070Y0045051D01*
X0065947Y0044951D01*
X0065821Y0044855D01*
X0065693Y0044762D01*
X0065563Y0044672D01*
X0065430Y0044586D01*
X0065295Y0044502D01*
X0065159Y0044423D01*
X0065020Y0044346D01*
X0064879Y0044274D01*
X0064737Y0044204D01*
X0064593Y0044139D01*
X0064447Y0044077D01*
X0064300Y0044019D01*
X0064151Y0043964D01*
X0064001Y0043913D01*
X0063850Y0043866D01*
X0063698Y0043823D01*
X0063545Y0043784D01*
X0063390Y0043748D01*
X0063235Y0043717D01*
X0063079Y0043689D01*
X0062923Y0043665D01*
X0062766Y0043645D01*
X0062608Y0043629D01*
X0062451Y0043617D01*
X0062292Y0043609D01*
X0062134Y0043605D01*
X0061976Y0043605D01*
X0061818Y0043609D01*
X0061659Y0043617D01*
X0061502Y0043629D01*
X0061344Y0043645D01*
X0061187Y0043665D01*
X0061031Y0043689D01*
X0060875Y0043717D01*
X0060720Y0043748D01*
X0060565Y0043784D01*
X0060412Y0043823D01*
X0060260Y0043866D01*
X0060109Y0043913D01*
X0059959Y0043964D01*
X0059810Y0044019D01*
X0059663Y0044077D01*
X0059517Y0044139D01*
X0059373Y0044204D01*
X0059231Y0044274D01*
X0059090Y0044346D01*
X0058951Y0044423D01*
X0058815Y0044502D01*
X0058680Y0044586D01*
X0058547Y0044672D01*
X0058417Y0044762D01*
X0058289Y0044855D01*
X0058163Y0044951D01*
X0058040Y0045051D01*
X0057919Y0045153D01*
X0057801Y0045258D01*
X0057686Y0045367D01*
X0057573Y0045478D01*
X0057463Y0045592D01*
X0057356Y0045709D01*
X0057252Y0045828D01*
X0057151Y0045950D01*
X0057054Y0046075D01*
X0056959Y0046202D01*
X0056868Y0046331D01*
X0056779Y0046462D01*
X0056695Y0046596D01*
X0056613Y0046732D01*
X0056535Y0046869D01*
X0056461Y0047009D01*
X0056390Y0047151D01*
X0056322Y0047294D01*
X0056258Y0047439D01*
X0056198Y0047585D01*
X0056142Y0047733D01*
X0056089Y0047882D01*
X0056040Y0048033D01*
X0055995Y0048185D01*
X0055954Y0048338D01*
X0055916Y0048491D01*
X0055883Y0048646D01*
X0055853Y0048802D01*
X0055827Y0048958D01*
X0055806Y0049115D01*
X0055788Y0049272D01*
X0055774Y0049430D01*
X0055764Y0049588D01*
X0055758Y0049746D01*
X0055756Y0049904D01*
X0046307Y0049904D02*
X0046312Y0049523D01*
X0046325Y0049143D01*
X0046348Y0048763D01*
X0046381Y0048384D01*
X0046422Y0048006D01*
X0046472Y0047629D01*
X0046532Y0047253D01*
X0046600Y0046878D01*
X0046678Y0046506D01*
X0046765Y0046135D01*
X0046860Y0045767D01*
X0046965Y0045401D01*
X0047078Y0045038D01*
X0047200Y0044677D01*
X0047330Y0044320D01*
X0047470Y0043966D01*
X0047617Y0043615D01*
X0047774Y0043268D01*
X0047938Y0042925D01*
X0048111Y0042586D01*
X0048292Y0042251D01*
X0048481Y0041920D01*
X0048678Y0041595D01*
X0048882Y0041274D01*
X0049095Y0040958D01*
X0049315Y0040648D01*
X0049542Y0040342D01*
X0049777Y0040043D01*
X0050019Y0039749D01*
X0050267Y0039461D01*
X0050523Y0039179D01*
X0050786Y0038904D01*
X0051055Y0038635D01*
X0051330Y0038372D01*
X0051612Y0038116D01*
X0051900Y0037868D01*
X0052194Y0037626D01*
X0052493Y0037391D01*
X0052799Y0037164D01*
X0053109Y0036944D01*
X0053425Y0036731D01*
X0053746Y0036527D01*
X0054071Y0036330D01*
X0054402Y0036141D01*
X0054737Y0035960D01*
X0055076Y0035787D01*
X0055419Y0035623D01*
X0055766Y0035466D01*
X0056117Y0035319D01*
X0056471Y0035179D01*
X0056828Y0035049D01*
X0057189Y0034927D01*
X0057552Y0034814D01*
X0057918Y0034709D01*
X0058286Y0034614D01*
X0058657Y0034527D01*
X0059029Y0034449D01*
X0059404Y0034381D01*
X0059780Y0034321D01*
X0060157Y0034271D01*
X0060535Y0034230D01*
X0060914Y0034197D01*
X0061294Y0034174D01*
X0061674Y0034161D01*
X0062055Y0034156D01*
D14*
X0251307Y0334156D03*
D15*
X0265087Y0334156D03*
X0278866Y0334156D03*
D16*
X0266307Y0331656D02*
X0266307Y0074156D01*
X0271307Y0054156D02*
X0121307Y0054156D01*
X0066307Y0109156D01*
X0066307Y0124156D01*
X0111307Y0169156D02*
X0116307Y0169156D01*
X0136307Y0149156D01*
X0146307Y0149156D02*
X0146307Y0154156D01*
X0111307Y0189156D01*
X0111307Y0204156D01*
X0066307Y0249156D01*
X0066307Y0254156D01*
X0111307Y0219156D02*
X0111307Y0214156D01*
X0116307Y0209156D01*
X0116307Y0194156D01*
X0151307Y0159156D01*
X0161307Y0159156D01*
X0161307Y0169156D02*
X0151307Y0169156D01*
X0121307Y0199156D01*
X0121307Y0309156D01*
X0136307Y0324156D01*
X0265087Y0332877D02*
X0266307Y0331656D01*
X0265087Y0332877D02*
X0265087Y0334156D01*
X0301307Y0309156D02*
X0316307Y0324156D01*
X0301307Y0309156D02*
X0301307Y0194156D01*
X0326307Y0169156D01*
X0341307Y0169156D01*
X0341307Y0159156D02*
X0326307Y0159156D01*
X0291307Y0194156D01*
X0291307Y0219156D01*
X0241307Y0219156D02*
X0241307Y0204156D01*
X0206307Y0169156D01*
X0191307Y0169156D01*
X0191307Y0149156D02*
X0201307Y0149156D01*
X0226307Y0124156D01*
X0226307Y0104156D01*
X0241307Y0089156D01*
X0241307Y0099156D02*
X0241307Y0124156D01*
X0241307Y0134156D02*
X0241307Y0159156D01*
X0206307Y0134156D02*
X0206307Y0089156D01*
X0191307Y0074156D01*
X0146307Y0074156D01*
X0136307Y0064156D01*
X0206307Y0134156D02*
X0201307Y0139156D01*
X0191307Y0139156D01*
X0161307Y0139156D02*
X0156307Y0139156D01*
X0146307Y0149156D01*
X0271307Y0054156D02*
X0316307Y0099156D01*
X0316307Y0119156D01*
X0336307Y0139156D01*
X0341307Y0139156D01*
X0341307Y0149156D02*
X0336307Y0149156D01*
X0306307Y0119156D01*
X0306307Y0104156D01*
X0291307Y0089156D01*
X0291307Y0099156D02*
X0291307Y0124156D01*
X0291307Y0134156D02*
X0291307Y0159156D01*
X0336307Y0099156D02*
X0341307Y0099156D01*
X0336307Y0099156D02*
X0331307Y0094156D01*
X0331307Y0074156D01*
X0316307Y0064156D02*
X0316307Y0059156D01*
X0321307Y0054156D01*
X0361307Y0054156D01*
X0381307Y0074156D01*
X0381307Y0134156D01*
X0376307Y0139156D01*
X0371307Y0139156D01*
X0371307Y0149156D02*
X0381307Y0149156D01*
X0391307Y0159156D01*
X0401307Y0159156D01*
X0411307Y0149156D01*
X0411307Y0099156D01*
X0421307Y0089156D01*
X0386307Y0169156D02*
X0371307Y0169156D01*
X0386307Y0169156D02*
X0421307Y0204156D01*
X0421307Y0219156D01*
X0421307Y0229156D02*
X0421307Y0254156D01*
X0421307Y0264156D02*
X0421307Y0289156D01*
D17*
X0331307Y0074156D03*
D18*
X0266307Y0074156D03*
D19*
X0262426Y0074119D02*
X0196361Y0074119D01*
X0197960Y0075717D02*
X0262707Y0075717D01*
X0262707Y0075607D02*
X0262426Y0074928D01*
X0262426Y0073384D01*
X0263017Y0071958D01*
X0264109Y0070866D01*
X0265535Y0070275D01*
X0267079Y0070275D01*
X0268506Y0070866D01*
X0269597Y0071958D01*
X0270188Y0073384D01*
X0270188Y0074928D01*
X0269907Y0075607D01*
X0269907Y0329431D01*
X0270809Y0330333D01*
X0271837Y0332813D01*
X0271837Y0335499D01*
X0270809Y0337980D01*
X0268910Y0339879D01*
X0266429Y0340906D01*
X0263744Y0340906D01*
X0261263Y0339879D01*
X0259364Y0337980D01*
X0258337Y0335499D01*
X0258337Y0332813D01*
X0259364Y0330333D01*
X0261263Y0328434D01*
X0262707Y0327836D01*
X0262707Y0075607D01*
X0262707Y0077316D02*
X0199558Y0077316D01*
X0201157Y0078914D02*
X0262707Y0078914D01*
X0262707Y0080513D02*
X0202755Y0080513D01*
X0204354Y0082112D02*
X0262707Y0082112D01*
X0262707Y0083710D02*
X0205952Y0083710D01*
X0207551Y0085309D02*
X0237659Y0085309D01*
X0238305Y0084663D02*
X0240253Y0083856D01*
X0242361Y0083856D01*
X0244309Y0084663D01*
X0245800Y0086154D01*
X0246607Y0088102D01*
X0246607Y0090210D01*
X0245800Y0092158D01*
X0244309Y0093649D01*
X0243086Y0094156D01*
X0244309Y0094663D01*
X0245800Y0096154D01*
X0246607Y0098102D01*
X0246607Y0100210D01*
X0245800Y0102158D01*
X0244907Y0103051D01*
X0244907Y0120261D01*
X0245800Y0121154D01*
X0246607Y0123102D01*
X0246607Y0125210D01*
X0245800Y0127158D01*
X0244309Y0128649D01*
X0243086Y0129156D01*
X0244309Y0129663D01*
X0245800Y0131154D01*
X0246607Y0133102D01*
X0246607Y0135210D01*
X0245800Y0137158D01*
X0244907Y0138051D01*
X0244907Y0155261D01*
X0245800Y0156154D01*
X0246607Y0158102D01*
X0246607Y0160210D01*
X0245800Y0162158D01*
X0244309Y0163649D01*
X0243086Y0164156D01*
X0244309Y0164663D01*
X0245800Y0166154D01*
X0246607Y0168102D01*
X0246607Y0170210D01*
X0245800Y0172158D01*
X0244309Y0173649D01*
X0242361Y0174456D01*
X0240253Y0174456D01*
X0238305Y0173649D01*
X0236814Y0172158D01*
X0236007Y0170210D01*
X0236007Y0168102D01*
X0236814Y0166154D01*
X0238305Y0164663D01*
X0239529Y0164156D01*
X0238305Y0163649D01*
X0236814Y0162158D01*
X0236007Y0160210D01*
X0236007Y0158102D01*
X0236814Y0156154D01*
X0237707Y0155261D01*
X0237707Y0138051D01*
X0236814Y0137158D01*
X0236007Y0135210D01*
X0236007Y0133102D01*
X0236814Y0131154D01*
X0238305Y0129663D01*
X0239529Y0129156D01*
X0238305Y0128649D01*
X0236814Y0127158D01*
X0236007Y0125210D01*
X0236007Y0123102D01*
X0236814Y0121154D01*
X0237707Y0120261D01*
X0237707Y0103051D01*
X0236814Y0102158D01*
X0236007Y0100210D01*
X0236007Y0099547D01*
X0229907Y0105647D01*
X0229907Y0124872D01*
X0229359Y0126195D01*
X0228346Y0127208D01*
X0203346Y0152208D01*
X0202023Y0152756D01*
X0196330Y0152756D01*
X0196199Y0152886D01*
X0194582Y0153556D01*
X0188032Y0153556D01*
X0186415Y0152886D01*
X0185177Y0151649D01*
X0184507Y0150031D01*
X0184507Y0148281D01*
X0185177Y0146664D01*
X0186415Y0145426D01*
X0188032Y0144756D01*
X0194582Y0144756D01*
X0196199Y0145426D01*
X0196330Y0145556D01*
X0199816Y0145556D01*
X0203035Y0142337D01*
X0202023Y0142756D01*
X0196330Y0142756D01*
X0196199Y0142886D01*
X0194582Y0143556D01*
X0188032Y0143556D01*
X0186415Y0142886D01*
X0185177Y0141649D01*
X0184507Y0140031D01*
X0184507Y0138281D01*
X0185177Y0136664D01*
X0186415Y0135426D01*
X0188032Y0134756D01*
X0194582Y0134756D01*
X0196199Y0135426D01*
X0196330Y0135556D01*
X0199816Y0135556D01*
X0202707Y0132665D01*
X0202707Y0090647D01*
X0189816Y0077756D01*
X0145591Y0077756D01*
X0144268Y0077208D01*
X0136516Y0069456D01*
X0135253Y0069456D01*
X0133305Y0068649D01*
X0131814Y0067158D01*
X0131007Y0065210D01*
X0131007Y0063102D01*
X0131814Y0061154D01*
X0133305Y0059663D01*
X0135253Y0058856D01*
X0137361Y0058856D01*
X0139309Y0059663D01*
X0140800Y0061154D01*
X0141307Y0062378D01*
X0141814Y0061154D01*
X0143305Y0059663D01*
X0145253Y0058856D01*
X0147361Y0058856D01*
X0149309Y0059663D01*
X0150800Y0061154D01*
X0151607Y0063102D01*
X0151607Y0065210D01*
X0150800Y0067158D01*
X0149309Y0068649D01*
X0147361Y0069456D01*
X0146698Y0069456D01*
X0147798Y0070556D01*
X0192023Y0070556D01*
X0193346Y0071104D01*
X0194359Y0072117D01*
X0209359Y0087117D01*
X0209907Y0088440D01*
X0209907Y0134872D01*
X0209488Y0135884D01*
X0222707Y0122665D01*
X0222707Y0103440D01*
X0223255Y0102117D01*
X0236007Y0089365D01*
X0236007Y0088102D01*
X0236814Y0086154D01*
X0238305Y0084663D01*
X0236502Y0086907D02*
X0209149Y0086907D01*
X0209907Y0088506D02*
X0236007Y0088506D01*
X0235268Y0090104D02*
X0209907Y0090104D01*
X0209907Y0091703D02*
X0233670Y0091703D01*
X0232071Y0093301D02*
X0209907Y0093301D01*
X0209907Y0094900D02*
X0230472Y0094900D01*
X0228874Y0096498D02*
X0209907Y0096498D01*
X0209907Y0098097D02*
X0227275Y0098097D01*
X0225677Y0099695D02*
X0209907Y0099695D01*
X0209907Y0101294D02*
X0224078Y0101294D01*
X0222934Y0102892D02*
X0209907Y0102892D01*
X0209907Y0104491D02*
X0222707Y0104491D01*
X0222707Y0106089D02*
X0209907Y0106089D01*
X0209907Y0107688D02*
X0222707Y0107688D01*
X0222707Y0109286D02*
X0209907Y0109286D01*
X0209907Y0110885D02*
X0222707Y0110885D01*
X0222707Y0112483D02*
X0209907Y0112483D01*
X0209907Y0114082D02*
X0222707Y0114082D01*
X0222707Y0115680D02*
X0209907Y0115680D01*
X0209907Y0117279D02*
X0222707Y0117279D01*
X0222707Y0118877D02*
X0209907Y0118877D01*
X0209907Y0120476D02*
X0222707Y0120476D01*
X0222707Y0122074D02*
X0209907Y0122074D01*
X0209907Y0123673D02*
X0221699Y0123673D01*
X0220101Y0125271D02*
X0209907Y0125271D01*
X0209907Y0126870D02*
X0218502Y0126870D01*
X0216904Y0128468D02*
X0209907Y0128468D01*
X0209907Y0130067D02*
X0215305Y0130067D01*
X0213707Y0131665D02*
X0209907Y0131665D01*
X0209907Y0133264D02*
X0212108Y0133264D01*
X0210510Y0134862D02*
X0209907Y0134862D01*
X0217495Y0138059D02*
X0237707Y0138059D01*
X0237707Y0139658D02*
X0215896Y0139658D01*
X0214298Y0141256D02*
X0237707Y0141256D01*
X0237707Y0142855D02*
X0212699Y0142855D01*
X0211101Y0144453D02*
X0237707Y0144453D01*
X0237707Y0146052D02*
X0209502Y0146052D01*
X0207904Y0147650D02*
X0237707Y0147650D01*
X0237707Y0149249D02*
X0206305Y0149249D01*
X0204707Y0150847D02*
X0237707Y0150847D01*
X0237707Y0152446D02*
X0202772Y0152446D01*
X0197437Y0156664D02*
X0198107Y0158281D01*
X0198107Y0160031D01*
X0197437Y0161649D01*
X0196199Y0162886D01*
X0194582Y0163556D01*
X0188032Y0163556D01*
X0186415Y0162886D01*
X0185177Y0161649D01*
X0184507Y0160031D01*
X0184507Y0158281D01*
X0185177Y0156664D01*
X0186415Y0155426D01*
X0188032Y0154756D01*
X0194582Y0154756D01*
X0196199Y0155426D01*
X0197437Y0156664D01*
X0197677Y0157242D02*
X0236363Y0157242D01*
X0236007Y0158840D02*
X0198107Y0158840D01*
X0197938Y0160439D02*
X0236102Y0160439D01*
X0236764Y0162037D02*
X0197049Y0162037D01*
X0195736Y0165234D02*
X0237734Y0165234D01*
X0238291Y0163636D02*
X0151919Y0163636D01*
X0152798Y0162756D02*
X0149579Y0165975D01*
X0150591Y0165556D01*
X0156285Y0165556D01*
X0156415Y0165426D01*
X0158032Y0164756D01*
X0164582Y0164756D01*
X0166199Y0165426D01*
X0167437Y0166664D01*
X0168107Y0168281D01*
X0168107Y0170031D01*
X0167437Y0171649D01*
X0166199Y0172886D01*
X0164582Y0173556D01*
X0158032Y0173556D01*
X0156415Y0172886D01*
X0156285Y0172756D01*
X0152798Y0172756D01*
X0136698Y0188856D01*
X0137361Y0188856D01*
X0139309Y0189663D01*
X0140800Y0191154D01*
X0141307Y0192378D01*
X0141814Y0191154D01*
X0143305Y0189663D01*
X0145253Y0188856D01*
X0147361Y0188856D01*
X0149309Y0189663D01*
X0150800Y0191154D01*
X0151607Y0193102D01*
X0151607Y0195210D01*
X0150800Y0197158D01*
X0149309Y0198649D01*
X0147361Y0199456D01*
X0145253Y0199456D01*
X0143305Y0198649D01*
X0141814Y0197158D01*
X0141307Y0195935D01*
X0140800Y0197158D01*
X0139309Y0198649D01*
X0137361Y0199456D01*
X0135253Y0199456D01*
X0133305Y0198649D01*
X0131814Y0197158D01*
X0131007Y0195210D01*
X0131007Y0194547D01*
X0124907Y0200647D01*
X0124907Y0307665D01*
X0136098Y0318856D01*
X0137361Y0318856D01*
X0139309Y0319663D01*
X0140800Y0321154D01*
X0141307Y0322378D01*
X0141814Y0321154D01*
X0143305Y0319663D01*
X0145253Y0318856D01*
X0147361Y0318856D01*
X0149309Y0319663D01*
X0150800Y0321154D01*
X0151607Y0323102D01*
X0151607Y0325210D01*
X0150800Y0327158D01*
X0149309Y0328649D01*
X0147361Y0329456D01*
X0145253Y0329456D01*
X0143305Y0328649D01*
X0141814Y0327158D01*
X0141307Y0325935D01*
X0140800Y0327158D01*
X0139309Y0328649D01*
X0137361Y0329456D01*
X0135253Y0329456D01*
X0133305Y0328649D01*
X0131814Y0327158D01*
X0131007Y0325210D01*
X0131007Y0323947D01*
X0119268Y0312208D01*
X0118255Y0311195D01*
X0117707Y0309872D01*
X0117707Y0212847D01*
X0115100Y0215454D01*
X0115800Y0216154D01*
X0116607Y0218102D01*
X0116607Y0220210D01*
X0115800Y0222158D01*
X0114309Y0223649D01*
X0113086Y0224156D01*
X0114309Y0224663D01*
X0115800Y0226154D01*
X0116607Y0228102D01*
X0116607Y0230210D01*
X0115800Y0232158D01*
X0114309Y0233649D01*
X0112361Y0234456D01*
X0110253Y0234456D01*
X0108305Y0233649D01*
X0106814Y0232158D01*
X0106007Y0230210D01*
X0106007Y0228102D01*
X0106814Y0226154D01*
X0108305Y0224663D01*
X0109529Y0224156D01*
X0108305Y0223649D01*
X0106814Y0222158D01*
X0106007Y0220210D01*
X0106007Y0218102D01*
X0106814Y0216154D01*
X0107707Y0215261D01*
X0107707Y0213440D01*
X0108126Y0212428D01*
X0070100Y0250454D01*
X0070800Y0251154D01*
X0071607Y0253102D01*
X0071607Y0255210D01*
X0070800Y0257158D01*
X0069309Y0258649D01*
X0068086Y0259156D01*
X0069309Y0259663D01*
X0070800Y0261154D01*
X0071607Y0263102D01*
X0071607Y0265210D01*
X0070800Y0267158D01*
X0069309Y0268649D01*
X0067361Y0269456D01*
X0065253Y0269456D01*
X0063305Y0268649D01*
X0061814Y0267158D01*
X0061007Y0265210D01*
X0061007Y0263102D01*
X0061814Y0261154D01*
X0063305Y0259663D01*
X0064529Y0259156D01*
X0063305Y0258649D01*
X0061814Y0257158D01*
X0061007Y0255210D01*
X0061007Y0253102D01*
X0061814Y0251154D01*
X0062707Y0250261D01*
X0062707Y0248440D01*
X0063255Y0247117D01*
X0064268Y0246104D01*
X0107707Y0202665D01*
X0107707Y0188440D01*
X0108255Y0187117D01*
X0109268Y0186104D01*
X0142707Y0152665D01*
X0142707Y0148440D01*
X0143255Y0147117D01*
X0144268Y0146104D01*
X0154268Y0136104D01*
X0155591Y0135556D01*
X0156285Y0135556D01*
X0156415Y0135426D01*
X0158032Y0134756D01*
X0164582Y0134756D01*
X0166199Y0135426D01*
X0167437Y0136664D01*
X0168107Y0138281D01*
X0168107Y0140031D01*
X0167437Y0141649D01*
X0166199Y0142886D01*
X0164582Y0143556D01*
X0158032Y0143556D01*
X0157301Y0143253D01*
X0149907Y0150647D01*
X0149907Y0154872D01*
X0149423Y0156040D01*
X0150591Y0155556D01*
X0156285Y0155556D01*
X0156415Y0155426D01*
X0158032Y0154756D01*
X0164582Y0154756D01*
X0166199Y0155426D01*
X0167437Y0156664D01*
X0168107Y0158281D01*
X0168107Y0160031D01*
X0167437Y0161649D01*
X0166199Y0162886D01*
X0164582Y0163556D01*
X0158032Y0163556D01*
X0156415Y0162886D01*
X0156285Y0162756D01*
X0152798Y0162756D01*
X0150320Y0165234D02*
X0156878Y0165234D01*
X0165736Y0165234D02*
X0186878Y0165234D01*
X0186415Y0165426D02*
X0188032Y0164756D01*
X0194582Y0164756D01*
X0196199Y0165426D01*
X0196330Y0165556D01*
X0207023Y0165556D01*
X0208346Y0166104D01*
X0243346Y0201104D01*
X0244359Y0202117D01*
X0244907Y0203440D01*
X0244907Y0215261D01*
X0245800Y0216154D01*
X0246607Y0218102D01*
X0246607Y0220210D01*
X0245800Y0222158D01*
X0244309Y0223649D01*
X0243086Y0224156D01*
X0244309Y0224663D01*
X0245800Y0226154D01*
X0246607Y0228102D01*
X0246607Y0230210D01*
X0245800Y0232158D01*
X0244309Y0233649D01*
X0242361Y0234456D01*
X0240253Y0234456D01*
X0238305Y0233649D01*
X0236814Y0232158D01*
X0236007Y0230210D01*
X0236007Y0228102D01*
X0236814Y0226154D01*
X0238305Y0224663D01*
X0239529Y0224156D01*
X0238305Y0223649D01*
X0236814Y0222158D01*
X0236007Y0220210D01*
X0236007Y0218102D01*
X0236814Y0216154D01*
X0237707Y0215261D01*
X0237707Y0205647D01*
X0204816Y0172756D01*
X0196330Y0172756D01*
X0196199Y0172886D01*
X0194582Y0173556D01*
X0188032Y0173556D01*
X0186415Y0172886D01*
X0185177Y0171649D01*
X0184507Y0170031D01*
X0184507Y0168281D01*
X0185177Y0166664D01*
X0186415Y0165426D01*
X0185107Y0166833D02*
X0167507Y0166833D01*
X0168107Y0168431D02*
X0184507Y0168431D01*
X0184507Y0170030D02*
X0168107Y0170030D01*
X0167446Y0171628D02*
X0185168Y0171628D01*
X0187236Y0173227D02*
X0165378Y0173227D01*
X0157236Y0173227D02*
X0152328Y0173227D01*
X0150729Y0174825D02*
X0206885Y0174825D01*
X0205286Y0173227D02*
X0195378Y0173227D01*
X0208483Y0176424D02*
X0149131Y0176424D01*
X0147532Y0178022D02*
X0210082Y0178022D01*
X0211680Y0179621D02*
X0145934Y0179621D01*
X0144335Y0181219D02*
X0213279Y0181219D01*
X0214877Y0182818D02*
X0142737Y0182818D01*
X0141138Y0184416D02*
X0216476Y0184416D01*
X0218074Y0186015D02*
X0139540Y0186015D01*
X0137941Y0187613D02*
X0219673Y0187613D01*
X0219309Y0189663D02*
X0220800Y0191154D01*
X0221607Y0193102D01*
X0221607Y0195210D01*
X0220800Y0197158D01*
X0219309Y0198649D01*
X0217361Y0199456D01*
X0215253Y0199456D01*
X0213305Y0198649D01*
X0211814Y0197158D01*
X0211307Y0195935D01*
X0210800Y0197158D01*
X0209309Y0198649D01*
X0207361Y0199456D01*
X0205253Y0199456D01*
X0203305Y0198649D01*
X0201814Y0197158D01*
X0201007Y0195210D01*
X0201007Y0193102D01*
X0201814Y0191154D01*
X0203305Y0189663D01*
X0205253Y0188856D01*
X0207361Y0188856D01*
X0209309Y0189663D01*
X0210800Y0191154D01*
X0211307Y0192378D01*
X0211814Y0191154D01*
X0213305Y0189663D01*
X0215253Y0188856D01*
X0217361Y0188856D01*
X0219309Y0189663D01*
X0218220Y0189212D02*
X0221272Y0189212D01*
X0220457Y0190810D02*
X0222870Y0190810D01*
X0221320Y0192409D02*
X0224469Y0192409D01*
X0226067Y0194007D02*
X0221607Y0194007D01*
X0221443Y0195606D02*
X0227666Y0195606D01*
X0229264Y0197204D02*
X0220754Y0197204D01*
X0218939Y0198803D02*
X0230863Y0198803D01*
X0232461Y0200401D02*
X0125153Y0200401D01*
X0124907Y0202000D02*
X0234060Y0202000D01*
X0235658Y0203598D02*
X0124907Y0203598D01*
X0124907Y0205197D02*
X0237257Y0205197D01*
X0237707Y0206795D02*
X0124907Y0206795D01*
X0124907Y0208394D02*
X0237707Y0208394D01*
X0237707Y0209992D02*
X0124907Y0209992D01*
X0124907Y0211591D02*
X0237707Y0211591D01*
X0237707Y0213189D02*
X0124907Y0213189D01*
X0124907Y0214788D02*
X0237707Y0214788D01*
X0236718Y0216386D02*
X0124907Y0216386D01*
X0124907Y0217985D02*
X0236056Y0217985D01*
X0236007Y0219583D02*
X0124907Y0219583D01*
X0124907Y0221182D02*
X0236410Y0221182D01*
X0237436Y0222780D02*
X0124907Y0222780D01*
X0124907Y0224379D02*
X0238991Y0224379D01*
X0236990Y0225978D02*
X0124907Y0225978D01*
X0124907Y0227576D02*
X0236225Y0227576D01*
X0236007Y0229175D02*
X0124907Y0229175D01*
X0124907Y0230773D02*
X0236240Y0230773D01*
X0237027Y0232372D02*
X0124907Y0232372D01*
X0124907Y0233970D02*
X0239079Y0233970D01*
X0243535Y0233970D02*
X0262707Y0233970D01*
X0262707Y0232372D02*
X0245587Y0232372D01*
X0246374Y0230773D02*
X0262707Y0230773D01*
X0262707Y0229175D02*
X0246607Y0229175D01*
X0246389Y0227576D02*
X0262707Y0227576D01*
X0262707Y0225978D02*
X0245624Y0225978D01*
X0243624Y0224379D02*
X0262707Y0224379D01*
X0262707Y0222780D02*
X0245178Y0222780D01*
X0246205Y0221182D02*
X0262707Y0221182D01*
X0262707Y0219583D02*
X0246607Y0219583D01*
X0246559Y0217985D02*
X0262707Y0217985D01*
X0262707Y0216386D02*
X0245896Y0216386D01*
X0244907Y0214788D02*
X0262707Y0214788D01*
X0262707Y0213189D02*
X0244907Y0213189D01*
X0244907Y0211591D02*
X0262707Y0211591D01*
X0262707Y0209992D02*
X0244907Y0209992D01*
X0244907Y0208394D02*
X0262707Y0208394D01*
X0262707Y0206795D02*
X0244907Y0206795D01*
X0244907Y0205197D02*
X0262707Y0205197D01*
X0262707Y0203598D02*
X0244907Y0203598D01*
X0244242Y0202000D02*
X0262707Y0202000D01*
X0262707Y0200401D02*
X0242643Y0200401D01*
X0241045Y0198803D02*
X0262707Y0198803D01*
X0262707Y0197204D02*
X0239446Y0197204D01*
X0237848Y0195606D02*
X0262707Y0195606D01*
X0262707Y0194007D02*
X0236249Y0194007D01*
X0234651Y0192409D02*
X0262707Y0192409D01*
X0262707Y0190810D02*
X0233052Y0190810D01*
X0231454Y0189212D02*
X0262707Y0189212D01*
X0262707Y0187613D02*
X0229855Y0187613D01*
X0228257Y0186015D02*
X0262707Y0186015D01*
X0262707Y0184416D02*
X0226658Y0184416D01*
X0225060Y0182818D02*
X0262707Y0182818D01*
X0262707Y0181219D02*
X0223461Y0181219D01*
X0221863Y0179621D02*
X0262707Y0179621D01*
X0262707Y0178022D02*
X0220264Y0178022D01*
X0218666Y0176424D02*
X0262707Y0176424D01*
X0262707Y0174825D02*
X0217067Y0174825D01*
X0215469Y0173227D02*
X0237882Y0173227D01*
X0236594Y0171628D02*
X0213870Y0171628D01*
X0212272Y0170030D02*
X0236007Y0170030D01*
X0236007Y0168431D02*
X0210673Y0168431D01*
X0209075Y0166833D02*
X0236533Y0166833D01*
X0244323Y0163636D02*
X0262707Y0163636D01*
X0262707Y0165234D02*
X0244880Y0165234D01*
X0246081Y0166833D02*
X0262707Y0166833D01*
X0262707Y0168431D02*
X0246607Y0168431D01*
X0246607Y0170030D02*
X0262707Y0170030D01*
X0262707Y0171628D02*
X0246020Y0171628D01*
X0244732Y0173227D02*
X0262707Y0173227D01*
X0269907Y0173227D02*
X0287882Y0173227D01*
X0288305Y0173649D02*
X0286814Y0172158D01*
X0286007Y0170210D01*
X0286007Y0168102D01*
X0286814Y0166154D01*
X0288305Y0164663D01*
X0289529Y0164156D01*
X0288305Y0163649D01*
X0286814Y0162158D01*
X0286007Y0160210D01*
X0286007Y0158102D01*
X0286814Y0156154D01*
X0287707Y0155261D01*
X0287707Y0138051D01*
X0286814Y0137158D01*
X0286007Y0135210D01*
X0286007Y0133102D01*
X0286814Y0131154D01*
X0288305Y0129663D01*
X0289529Y0129156D01*
X0288305Y0128649D01*
X0286814Y0127158D01*
X0286007Y0125210D01*
X0286007Y0123102D01*
X0286814Y0121154D01*
X0287707Y0120261D01*
X0287707Y0103051D01*
X0286814Y0102158D01*
X0286007Y0100210D01*
X0286007Y0098102D01*
X0286814Y0096154D01*
X0288305Y0094663D01*
X0289529Y0094156D01*
X0288305Y0093649D01*
X0286814Y0092158D01*
X0286007Y0090210D01*
X0286007Y0088102D01*
X0286814Y0086154D01*
X0288305Y0084663D01*
X0290253Y0083856D01*
X0292361Y0083856D01*
X0294309Y0084663D01*
X0295800Y0086154D01*
X0296607Y0088102D01*
X0296607Y0089365D01*
X0309359Y0102117D01*
X0309907Y0103440D01*
X0309907Y0117665D01*
X0313126Y0120884D01*
X0312707Y0119872D01*
X0312707Y0100647D01*
X0269816Y0057756D01*
X0122798Y0057756D01*
X0069907Y0110647D01*
X0069907Y0120261D01*
X0070800Y0121154D01*
X0071607Y0123102D01*
X0071607Y0125210D01*
X0070800Y0127158D01*
X0069309Y0128649D01*
X0068086Y0129156D01*
X0069309Y0129663D01*
X0070800Y0131154D01*
X0071607Y0133102D01*
X0071607Y0135210D01*
X0070800Y0137158D01*
X0069309Y0138649D01*
X0067361Y0139456D01*
X0065253Y0139456D01*
X0063305Y0138649D01*
X0061814Y0137158D01*
X0061007Y0135210D01*
X0061007Y0133102D01*
X0061814Y0131154D01*
X0063305Y0129663D01*
X0064529Y0129156D01*
X0063305Y0128649D01*
X0061814Y0127158D01*
X0061007Y0125210D01*
X0061007Y0123102D01*
X0061814Y0121154D01*
X0062707Y0120261D01*
X0062707Y0108440D01*
X0063255Y0107117D01*
X0064268Y0106104D01*
X0119268Y0051104D01*
X0120591Y0050556D01*
X0272023Y0050556D01*
X0273346Y0051104D01*
X0274359Y0052117D01*
X0319359Y0097117D01*
X0319907Y0098440D01*
X0319907Y0117665D01*
X0337301Y0135059D01*
X0338032Y0134756D01*
X0344582Y0134756D01*
X0346199Y0135426D01*
X0347437Y0136664D01*
X0348107Y0138281D01*
X0348107Y0140031D01*
X0347437Y0141649D01*
X0346199Y0142886D01*
X0344582Y0143556D01*
X0338032Y0143556D01*
X0336415Y0142886D01*
X0336285Y0142756D01*
X0335591Y0142756D01*
X0334579Y0142337D01*
X0337301Y0145059D01*
X0338032Y0144756D01*
X0344582Y0144756D01*
X0346199Y0145426D01*
X0347437Y0146664D01*
X0348107Y0148281D01*
X0348107Y0150031D01*
X0347437Y0151649D01*
X0346199Y0152886D01*
X0344582Y0153556D01*
X0338032Y0153556D01*
X0336415Y0152886D01*
X0336285Y0152756D01*
X0335591Y0152756D01*
X0334268Y0152208D01*
X0304268Y0122208D01*
X0303255Y0121195D01*
X0302707Y0119872D01*
X0302707Y0105647D01*
X0296607Y0099547D01*
X0296607Y0100210D01*
X0295800Y0102158D01*
X0294907Y0103051D01*
X0294907Y0120261D01*
X0295800Y0121154D01*
X0296607Y0123102D01*
X0296607Y0125210D01*
X0295800Y0127158D01*
X0294309Y0128649D01*
X0293086Y0129156D01*
X0294309Y0129663D01*
X0295800Y0131154D01*
X0296607Y0133102D01*
X0296607Y0135210D01*
X0295800Y0137158D01*
X0294907Y0138051D01*
X0294907Y0155261D01*
X0295800Y0156154D01*
X0296607Y0158102D01*
X0296607Y0160210D01*
X0295800Y0162158D01*
X0294309Y0163649D01*
X0293086Y0164156D01*
X0294309Y0164663D01*
X0295800Y0166154D01*
X0296607Y0168102D01*
X0296607Y0170210D01*
X0295800Y0172158D01*
X0294309Y0173649D01*
X0292361Y0174456D01*
X0290253Y0174456D01*
X0288305Y0173649D01*
X0286594Y0171628D02*
X0269907Y0171628D01*
X0269907Y0170030D02*
X0286007Y0170030D01*
X0286007Y0168431D02*
X0269907Y0168431D01*
X0269907Y0166833D02*
X0286533Y0166833D01*
X0287734Y0165234D02*
X0269907Y0165234D01*
X0269907Y0163636D02*
X0288291Y0163636D01*
X0286764Y0162037D02*
X0269907Y0162037D01*
X0269907Y0160439D02*
X0286102Y0160439D01*
X0286007Y0158840D02*
X0269907Y0158840D01*
X0269907Y0157242D02*
X0286363Y0157242D01*
X0287325Y0155643D02*
X0269907Y0155643D01*
X0269907Y0154045D02*
X0287707Y0154045D01*
X0287707Y0152446D02*
X0269907Y0152446D01*
X0269907Y0150847D02*
X0287707Y0150847D01*
X0287707Y0149249D02*
X0269907Y0149249D01*
X0269907Y0147650D02*
X0287707Y0147650D01*
X0287707Y0146052D02*
X0269907Y0146052D01*
X0269907Y0144453D02*
X0287707Y0144453D01*
X0287707Y0142855D02*
X0269907Y0142855D01*
X0269907Y0141256D02*
X0287707Y0141256D01*
X0287707Y0139658D02*
X0269907Y0139658D01*
X0269907Y0138059D02*
X0287707Y0138059D01*
X0286525Y0136461D02*
X0269907Y0136461D01*
X0269907Y0134862D02*
X0286007Y0134862D01*
X0286007Y0133264D02*
X0269907Y0133264D01*
X0269907Y0131665D02*
X0286602Y0131665D01*
X0287901Y0130067D02*
X0269907Y0130067D01*
X0269907Y0128468D02*
X0288124Y0128468D01*
X0286694Y0126870D02*
X0269907Y0126870D01*
X0269907Y0125271D02*
X0286032Y0125271D01*
X0286007Y0123673D02*
X0269907Y0123673D01*
X0269907Y0122074D02*
X0286433Y0122074D01*
X0287492Y0120476D02*
X0269907Y0120476D01*
X0269907Y0118877D02*
X0287707Y0118877D01*
X0287707Y0117279D02*
X0269907Y0117279D01*
X0269907Y0115680D02*
X0287707Y0115680D01*
X0287707Y0114082D02*
X0269907Y0114082D01*
X0269907Y0112483D02*
X0287707Y0112483D01*
X0287707Y0110885D02*
X0269907Y0110885D01*
X0269907Y0109286D02*
X0287707Y0109286D01*
X0287707Y0107688D02*
X0269907Y0107688D01*
X0269907Y0106089D02*
X0287707Y0106089D01*
X0287707Y0104491D02*
X0269907Y0104491D01*
X0269907Y0102892D02*
X0287548Y0102892D01*
X0286456Y0101294D02*
X0269907Y0101294D01*
X0269907Y0099695D02*
X0286007Y0099695D01*
X0286009Y0098097D02*
X0269907Y0098097D01*
X0269907Y0096498D02*
X0286671Y0096498D01*
X0288068Y0094900D02*
X0269907Y0094900D01*
X0269907Y0093301D02*
X0287957Y0093301D01*
X0286625Y0091703D02*
X0269907Y0091703D01*
X0269907Y0090104D02*
X0286007Y0090104D01*
X0286007Y0088506D02*
X0269907Y0088506D01*
X0269907Y0086907D02*
X0286502Y0086907D01*
X0287659Y0085309D02*
X0269907Y0085309D01*
X0269907Y0083710D02*
X0295770Y0083710D01*
X0294955Y0085309D02*
X0297368Y0085309D01*
X0296112Y0086907D02*
X0298967Y0086907D01*
X0300565Y0088506D02*
X0296607Y0088506D01*
X0297346Y0090104D02*
X0302164Y0090104D01*
X0303762Y0091703D02*
X0298945Y0091703D01*
X0300543Y0093301D02*
X0305361Y0093301D01*
X0306959Y0094900D02*
X0302142Y0094900D01*
X0303740Y0096498D02*
X0308558Y0096498D01*
X0310156Y0098097D02*
X0305339Y0098097D01*
X0306937Y0099695D02*
X0311755Y0099695D01*
X0312707Y0101294D02*
X0308536Y0101294D01*
X0309680Y0102892D02*
X0312707Y0102892D01*
X0312707Y0104491D02*
X0309907Y0104491D01*
X0309907Y0106089D02*
X0312707Y0106089D01*
X0312707Y0107688D02*
X0309907Y0107688D01*
X0309907Y0109286D02*
X0312707Y0109286D01*
X0312707Y0110885D02*
X0309907Y0110885D01*
X0309907Y0112483D02*
X0312707Y0112483D01*
X0312707Y0114082D02*
X0309907Y0114082D01*
X0309907Y0115680D02*
X0312707Y0115680D01*
X0312707Y0117279D02*
X0309907Y0117279D01*
X0311119Y0118877D02*
X0312707Y0118877D01*
X0312718Y0120476D02*
X0312957Y0120476D01*
X0307331Y0125271D02*
X0296582Y0125271D01*
X0296607Y0123673D02*
X0305733Y0123673D01*
X0304134Y0122074D02*
X0296181Y0122074D01*
X0295122Y0120476D02*
X0302957Y0120476D01*
X0302707Y0118877D02*
X0294907Y0118877D01*
X0294907Y0117279D02*
X0302707Y0117279D01*
X0302707Y0115680D02*
X0294907Y0115680D01*
X0294907Y0114082D02*
X0302707Y0114082D01*
X0302707Y0112483D02*
X0294907Y0112483D01*
X0294907Y0110885D02*
X0302707Y0110885D01*
X0302707Y0109286D02*
X0294907Y0109286D01*
X0294907Y0107688D02*
X0302707Y0107688D01*
X0302707Y0106089D02*
X0294907Y0106089D01*
X0294907Y0104491D02*
X0301550Y0104491D01*
X0299952Y0102892D02*
X0295066Y0102892D01*
X0296158Y0101294D02*
X0298353Y0101294D01*
X0296755Y0099695D02*
X0296607Y0099695D01*
X0309149Y0086907D02*
X0327707Y0086907D01*
X0327707Y0085309D02*
X0307551Y0085309D01*
X0305952Y0083710D02*
X0327707Y0083710D01*
X0327707Y0082112D02*
X0304354Y0082112D01*
X0302755Y0080513D02*
X0327707Y0080513D01*
X0327707Y0078914D02*
X0301157Y0078914D01*
X0299558Y0077316D02*
X0327707Y0077316D01*
X0327707Y0075717D02*
X0297960Y0075717D01*
X0296361Y0074119D02*
X0327607Y0074119D01*
X0327607Y0073420D02*
X0328170Y0072060D01*
X0329211Y0071019D01*
X0330571Y0070456D01*
X0332043Y0070456D01*
X0333403Y0071019D01*
X0334444Y0072060D01*
X0335007Y0073420D01*
X0335007Y0074892D01*
X0334907Y0075134D01*
X0334907Y0092665D01*
X0337301Y0095059D01*
X0338032Y0094756D01*
X0339932Y0094756D01*
X0338078Y0093988D01*
X0336475Y0092385D01*
X0335607Y0090290D01*
X0335607Y0088022D01*
X0336475Y0085927D01*
X0338078Y0084324D01*
X0340173Y0083456D01*
X0342441Y0083456D01*
X0344536Y0084324D01*
X0346139Y0085927D01*
X0347007Y0088022D01*
X0347007Y0090290D01*
X0346139Y0092385D01*
X0344536Y0093988D01*
X0342682Y0094756D01*
X0344582Y0094756D01*
X0346199Y0095426D01*
X0347437Y0096664D01*
X0348107Y0098281D01*
X0348107Y0100031D01*
X0347437Y0101649D01*
X0346199Y0102886D01*
X0344582Y0103556D01*
X0338032Y0103556D01*
X0336415Y0102886D01*
X0336285Y0102756D01*
X0335591Y0102756D01*
X0334268Y0102208D01*
X0333255Y0101195D01*
X0328255Y0096195D01*
X0327707Y0094872D01*
X0327707Y0075134D01*
X0327607Y0074892D01*
X0327607Y0073420D01*
X0327980Y0072520D02*
X0294763Y0072520D01*
X0293164Y0070922D02*
X0329447Y0070922D01*
X0329309Y0068649D02*
X0327361Y0069456D01*
X0325253Y0069456D01*
X0323305Y0068649D01*
X0321814Y0067158D01*
X0321307Y0065935D01*
X0320800Y0067158D01*
X0319309Y0068649D01*
X0317361Y0069456D01*
X0315253Y0069456D01*
X0313305Y0068649D01*
X0311814Y0067158D01*
X0311007Y0065210D01*
X0311007Y0063102D01*
X0311814Y0061154D01*
X0312707Y0060261D01*
X0312707Y0058440D01*
X0313255Y0057117D01*
X0314268Y0056104D01*
X0319268Y0051104D01*
X0320591Y0050556D01*
X0362023Y0050556D01*
X0363346Y0051104D01*
X0364359Y0052117D01*
X0384359Y0072117D01*
X0384907Y0073440D01*
X0384907Y0134872D01*
X0384359Y0136195D01*
X0383346Y0137208D01*
X0378346Y0142208D01*
X0377023Y0142756D01*
X0376330Y0142756D01*
X0376199Y0142886D01*
X0374582Y0143556D01*
X0368032Y0143556D01*
X0366415Y0142886D01*
X0365177Y0141649D01*
X0364507Y0140031D01*
X0364507Y0138281D01*
X0365177Y0136664D01*
X0366415Y0135426D01*
X0368032Y0134756D01*
X0374582Y0134756D01*
X0375313Y0135059D01*
X0377707Y0132665D01*
X0377707Y0130997D01*
X0377437Y0131649D01*
X0376199Y0132886D01*
X0374582Y0133556D01*
X0368032Y0133556D01*
X0366415Y0132886D01*
X0365177Y0131649D01*
X0364507Y0130031D01*
X0364507Y0128281D01*
X0365177Y0126664D01*
X0366415Y0125426D01*
X0368032Y0124756D01*
X0374582Y0124756D01*
X0376199Y0125426D01*
X0377437Y0126664D01*
X0377707Y0127315D01*
X0377707Y0120997D01*
X0377437Y0121649D01*
X0376199Y0122886D01*
X0374582Y0123556D01*
X0368032Y0123556D01*
X0366415Y0122886D01*
X0365177Y0121649D01*
X0364507Y0120031D01*
X0364507Y0118281D01*
X0365177Y0116664D01*
X0366415Y0115426D01*
X0368032Y0114756D01*
X0374582Y0114756D01*
X0376199Y0115426D01*
X0377437Y0116664D01*
X0377707Y0117315D01*
X0377707Y0110997D01*
X0377437Y0111649D01*
X0376199Y0112886D01*
X0374582Y0113556D01*
X0368032Y0113556D01*
X0366415Y0112886D01*
X0365177Y0111649D01*
X0364507Y0110031D01*
X0364507Y0108281D01*
X0365177Y0106664D01*
X0366415Y0105426D01*
X0368032Y0104756D01*
X0374582Y0104756D01*
X0376199Y0105426D01*
X0377437Y0106664D01*
X0377707Y0107315D01*
X0377707Y0100437D01*
X0377599Y0100768D01*
X0377299Y0101357D01*
X0376911Y0101892D01*
X0376443Y0102360D01*
X0375908Y0102748D01*
X0375319Y0103048D01*
X0374691Y0103253D01*
X0374038Y0103356D01*
X0371307Y0103356D01*
X0368577Y0103356D01*
X0367924Y0103253D01*
X0367295Y0103048D01*
X0366706Y0102748D01*
X0366171Y0102360D01*
X0365704Y0101892D01*
X0365315Y0101357D01*
X0365015Y0100768D01*
X0364811Y0100140D01*
X0364707Y0099487D01*
X0364707Y0099156D01*
X0364707Y0098826D01*
X0364811Y0098173D01*
X0365015Y0097544D01*
X0365315Y0096955D01*
X0365704Y0096420D01*
X0366171Y0095953D01*
X0366706Y0095564D01*
X0367295Y0095264D01*
X0367924Y0095060D01*
X0368577Y0094956D01*
X0371307Y0094956D01*
X0371307Y0099156D01*
X0371307Y0099156D01*
X0364707Y0099156D01*
X0371307Y0099156D01*
X0371307Y0099156D01*
X0371307Y0094956D01*
X0374038Y0094956D01*
X0374691Y0095060D01*
X0375319Y0095264D01*
X0375908Y0095564D01*
X0376443Y0095953D01*
X0376911Y0096420D01*
X0377299Y0096955D01*
X0377599Y0097544D01*
X0377707Y0097875D01*
X0377707Y0075647D01*
X0366607Y0064547D01*
X0366607Y0065210D01*
X0365800Y0067158D01*
X0364309Y0068649D01*
X0362361Y0069456D01*
X0360253Y0069456D01*
X0358305Y0068649D01*
X0356814Y0067158D01*
X0356307Y0065935D01*
X0355800Y0067158D01*
X0354309Y0068649D01*
X0352361Y0069456D01*
X0350253Y0069456D01*
X0348305Y0068649D01*
X0346814Y0067158D01*
X0346007Y0065210D01*
X0346007Y0063102D01*
X0346814Y0061154D01*
X0348305Y0059663D01*
X0350253Y0058856D01*
X0352361Y0058856D01*
X0354309Y0059663D01*
X0355800Y0061154D01*
X0356307Y0062378D01*
X0356814Y0061154D01*
X0358305Y0059663D01*
X0360253Y0058856D01*
X0360916Y0058856D01*
X0359816Y0057756D01*
X0322798Y0057756D01*
X0320100Y0060454D01*
X0320800Y0061154D01*
X0321307Y0062378D01*
X0321814Y0061154D01*
X0323305Y0059663D01*
X0325253Y0058856D01*
X0327361Y0058856D01*
X0329309Y0059663D01*
X0330800Y0061154D01*
X0331607Y0063102D01*
X0331607Y0065210D01*
X0330800Y0067158D01*
X0329309Y0068649D01*
X0330234Y0067725D02*
X0347380Y0067725D01*
X0346387Y0066126D02*
X0331228Y0066126D01*
X0331607Y0064528D02*
X0346007Y0064528D01*
X0346079Y0062929D02*
X0331536Y0062929D01*
X0330873Y0061331D02*
X0346741Y0061331D01*
X0348236Y0059732D02*
X0329379Y0059732D01*
X0323236Y0059732D02*
X0320822Y0059732D01*
X0320873Y0061331D02*
X0321741Y0061331D01*
X0322421Y0058134D02*
X0360194Y0058134D01*
X0358236Y0059732D02*
X0354379Y0059732D01*
X0355873Y0061331D02*
X0356741Y0061331D01*
X0356387Y0066126D02*
X0356228Y0066126D01*
X0355234Y0067725D02*
X0357380Y0067725D01*
X0359932Y0069323D02*
X0352682Y0069323D01*
X0349932Y0069323D02*
X0327682Y0069323D01*
X0324932Y0069323D02*
X0317682Y0069323D01*
X0314932Y0069323D02*
X0291565Y0069323D01*
X0289967Y0067725D02*
X0312380Y0067725D01*
X0311387Y0066126D02*
X0288368Y0066126D01*
X0286770Y0064528D02*
X0311007Y0064528D01*
X0311079Y0062929D02*
X0285171Y0062929D01*
X0283573Y0061331D02*
X0311741Y0061331D01*
X0312707Y0059732D02*
X0281974Y0059732D01*
X0280376Y0058134D02*
X0312834Y0058134D01*
X0313837Y0056535D02*
X0278777Y0056535D01*
X0277179Y0054937D02*
X0315435Y0054937D01*
X0317034Y0053338D02*
X0275580Y0053338D01*
X0274359Y0052117D02*
X0274359Y0052117D01*
X0273982Y0051740D02*
X0318632Y0051740D01*
X0321228Y0066126D02*
X0321387Y0066126D01*
X0322380Y0067725D02*
X0320234Y0067725D01*
X0333168Y0070922D02*
X0372982Y0070922D01*
X0374580Y0072520D02*
X0334634Y0072520D01*
X0335007Y0074119D02*
X0376179Y0074119D01*
X0377707Y0075717D02*
X0334907Y0075717D01*
X0334907Y0077316D02*
X0377707Y0077316D01*
X0377707Y0078914D02*
X0334907Y0078914D01*
X0334907Y0080513D02*
X0377707Y0080513D01*
X0377707Y0082112D02*
X0334907Y0082112D01*
X0334907Y0083710D02*
X0339560Y0083710D01*
X0337094Y0085309D02*
X0334907Y0085309D01*
X0334907Y0086907D02*
X0336069Y0086907D01*
X0335607Y0088506D02*
X0334907Y0088506D01*
X0334907Y0090104D02*
X0335607Y0090104D01*
X0336192Y0091703D02*
X0334907Y0091703D01*
X0335543Y0093301D02*
X0337391Y0093301D01*
X0337142Y0094900D02*
X0337686Y0094900D01*
X0344929Y0094900D02*
X0377707Y0094900D01*
X0377707Y0096498D02*
X0376967Y0096498D01*
X0377707Y0093301D02*
X0374940Y0093301D01*
X0374890Y0093351D02*
X0374190Y0093860D01*
X0373418Y0094253D01*
X0372595Y0094521D01*
X0371740Y0094656D01*
X0371393Y0094656D01*
X0371393Y0089242D01*
X0376807Y0089242D01*
X0376807Y0089589D01*
X0376672Y0090444D01*
X0376404Y0091267D01*
X0376011Y0092039D01*
X0375502Y0092739D01*
X0374890Y0093351D01*
X0376182Y0091703D02*
X0377707Y0091703D01*
X0377707Y0090104D02*
X0376726Y0090104D01*
X0376807Y0089070D02*
X0371393Y0089070D01*
X0371393Y0083656D01*
X0371740Y0083656D01*
X0372595Y0083792D01*
X0373418Y0084059D01*
X0374190Y0084452D01*
X0374890Y0084961D01*
X0375502Y0085573D01*
X0376011Y0086274D01*
X0376404Y0087045D01*
X0376672Y0087868D01*
X0376807Y0088723D01*
X0376807Y0089070D01*
X0376773Y0088506D02*
X0377707Y0088506D01*
X0377707Y0086907D02*
X0376334Y0086907D01*
X0375238Y0085309D02*
X0377707Y0085309D01*
X0377707Y0083710D02*
X0372080Y0083710D01*
X0371393Y0083710D02*
X0371221Y0083710D01*
X0371221Y0083656D02*
X0371221Y0089070D01*
X0371393Y0089070D01*
X0371393Y0089242D01*
X0371221Y0089242D01*
X0371221Y0089070D01*
X0365807Y0089070D01*
X0365807Y0088723D01*
X0365943Y0087868D01*
X0366210Y0087045D01*
X0366603Y0086274D01*
X0367112Y0085573D01*
X0367724Y0084961D01*
X0368424Y0084452D01*
X0369196Y0084059D01*
X0370019Y0083792D01*
X0370874Y0083656D01*
X0371221Y0083656D01*
X0370534Y0083710D02*
X0343054Y0083710D01*
X0345520Y0085309D02*
X0367377Y0085309D01*
X0366280Y0086907D02*
X0346545Y0086907D01*
X0347007Y0088506D02*
X0365842Y0088506D01*
X0365807Y0089242D02*
X0371221Y0089242D01*
X0371221Y0094656D01*
X0370874Y0094656D01*
X0370019Y0094521D01*
X0369196Y0094253D01*
X0368424Y0093860D01*
X0367724Y0093351D01*
X0367112Y0092739D01*
X0366603Y0092039D01*
X0366210Y0091267D01*
X0365943Y0090444D01*
X0365807Y0089589D01*
X0365807Y0089242D01*
X0365889Y0090104D02*
X0347007Y0090104D01*
X0346422Y0091703D02*
X0366432Y0091703D01*
X0367674Y0093301D02*
X0345223Y0093301D01*
X0347272Y0096498D02*
X0365647Y0096498D01*
X0364835Y0098097D02*
X0348031Y0098097D01*
X0348107Y0099695D02*
X0364740Y0099695D01*
X0365282Y0101294D02*
X0347584Y0101294D01*
X0346185Y0102892D02*
X0366988Y0102892D01*
X0365752Y0106089D02*
X0346863Y0106089D01*
X0347437Y0106664D02*
X0348107Y0108281D01*
X0348107Y0110031D01*
X0347437Y0111649D01*
X0346199Y0112886D01*
X0344582Y0113556D01*
X0338032Y0113556D01*
X0336415Y0112886D01*
X0335177Y0111649D01*
X0334507Y0110031D01*
X0334507Y0108281D01*
X0335177Y0106664D01*
X0336415Y0105426D01*
X0338032Y0104756D01*
X0344582Y0104756D01*
X0346199Y0105426D01*
X0347437Y0106664D01*
X0347861Y0107688D02*
X0364753Y0107688D01*
X0364507Y0109286D02*
X0348107Y0109286D01*
X0347754Y0110885D02*
X0364861Y0110885D01*
X0366012Y0112483D02*
X0346603Y0112483D01*
X0346199Y0115426D02*
X0347437Y0116664D01*
X0348107Y0118281D01*
X0348107Y0120031D01*
X0347437Y0121649D01*
X0346199Y0122886D01*
X0344582Y0123556D01*
X0338032Y0123556D01*
X0336415Y0122886D01*
X0335177Y0121649D01*
X0334507Y0120031D01*
X0334507Y0118281D01*
X0335177Y0116664D01*
X0336415Y0115426D01*
X0338032Y0114756D01*
X0344582Y0114756D01*
X0346199Y0115426D01*
X0346454Y0115680D02*
X0366160Y0115680D01*
X0364922Y0117279D02*
X0347692Y0117279D01*
X0348107Y0118877D02*
X0364507Y0118877D01*
X0364691Y0120476D02*
X0347923Y0120476D01*
X0347011Y0122074D02*
X0365603Y0122074D01*
X0366788Y0125271D02*
X0345826Y0125271D01*
X0346199Y0125426D02*
X0347437Y0126664D01*
X0348107Y0128281D01*
X0348107Y0130031D01*
X0347437Y0131649D01*
X0346199Y0132886D01*
X0344582Y0133556D01*
X0338032Y0133556D01*
X0336415Y0132886D01*
X0335177Y0131649D01*
X0334507Y0130031D01*
X0334507Y0128281D01*
X0335177Y0126664D01*
X0336415Y0125426D01*
X0338032Y0124756D01*
X0344582Y0124756D01*
X0346199Y0125426D01*
X0347523Y0126870D02*
X0365092Y0126870D01*
X0364507Y0128468D02*
X0348107Y0128468D01*
X0348092Y0130067D02*
X0364522Y0130067D01*
X0365194Y0131665D02*
X0347420Y0131665D01*
X0345288Y0133264D02*
X0367326Y0133264D01*
X0367775Y0134862D02*
X0344839Y0134862D01*
X0347234Y0136461D02*
X0365380Y0136461D01*
X0364599Y0138059D02*
X0348015Y0138059D01*
X0348107Y0139658D02*
X0364507Y0139658D01*
X0365015Y0141256D02*
X0347600Y0141256D01*
X0346231Y0142855D02*
X0366383Y0142855D01*
X0368032Y0144756D02*
X0374582Y0144756D01*
X0376199Y0145426D01*
X0376330Y0145556D01*
X0382023Y0145556D01*
X0383346Y0146104D01*
X0392798Y0155556D01*
X0399816Y0155556D01*
X0407707Y0147665D01*
X0407707Y0098440D01*
X0408255Y0097117D01*
X0416007Y0089365D01*
X0416007Y0088102D01*
X0416814Y0086154D01*
X0418305Y0084663D01*
X0420253Y0083856D01*
X0422361Y0083856D01*
X0424309Y0084663D01*
X0425800Y0086154D01*
X0426607Y0088102D01*
X0426607Y0090210D01*
X0425800Y0092158D01*
X0424309Y0093649D01*
X0423086Y0094156D01*
X0424309Y0094663D01*
X0425800Y0096154D01*
X0426607Y0098102D01*
X0426607Y0100210D01*
X0425800Y0102158D01*
X0424309Y0103649D01*
X0422361Y0104456D01*
X0420253Y0104456D01*
X0418305Y0103649D01*
X0416814Y0102158D01*
X0416007Y0100210D01*
X0416007Y0099547D01*
X0414907Y0100647D01*
X0414907Y0149872D01*
X0414359Y0151195D01*
X0413346Y0152208D01*
X0403346Y0162208D01*
X0402023Y0162756D01*
X0390591Y0162756D01*
X0389268Y0162208D01*
X0388255Y0161195D01*
X0379816Y0152756D01*
X0376330Y0152756D01*
X0376199Y0152886D01*
X0374582Y0153556D01*
X0368032Y0153556D01*
X0366415Y0152886D01*
X0365177Y0151649D01*
X0364507Y0150031D01*
X0364507Y0148281D01*
X0365177Y0146664D01*
X0366415Y0145426D01*
X0368032Y0144756D01*
X0365789Y0146052D02*
X0346825Y0146052D01*
X0347846Y0147650D02*
X0364768Y0147650D01*
X0364507Y0149249D02*
X0348107Y0149249D01*
X0347769Y0150847D02*
X0364845Y0150847D01*
X0365974Y0152446D02*
X0346640Y0152446D01*
X0346199Y0155426D02*
X0347437Y0156664D01*
X0348107Y0158281D01*
X0348107Y0160031D01*
X0347437Y0161649D01*
X0346199Y0162886D01*
X0344582Y0163556D01*
X0338032Y0163556D01*
X0336415Y0162886D01*
X0336285Y0162756D01*
X0327798Y0162756D01*
X0324579Y0165975D01*
X0325591Y0165556D01*
X0336285Y0165556D01*
X0336415Y0165426D01*
X0338032Y0164756D01*
X0344582Y0164756D01*
X0346199Y0165426D01*
X0347437Y0166664D01*
X0348107Y0168281D01*
X0348107Y0170031D01*
X0347437Y0171649D01*
X0346199Y0172886D01*
X0344582Y0173556D01*
X0338032Y0173556D01*
X0336415Y0172886D01*
X0336285Y0172756D01*
X0327798Y0172756D01*
X0304907Y0195647D01*
X0304907Y0307665D01*
X0316098Y0318856D01*
X0317361Y0318856D01*
X0319309Y0319663D01*
X0320800Y0321154D01*
X0321307Y0322378D01*
X0321814Y0321154D01*
X0323305Y0319663D01*
X0325253Y0318856D01*
X0327361Y0318856D01*
X0329309Y0319663D01*
X0330800Y0321154D01*
X0331607Y0323102D01*
X0331607Y0325210D01*
X0330800Y0327158D01*
X0329309Y0328649D01*
X0327361Y0329456D01*
X0325253Y0329456D01*
X0323305Y0328649D01*
X0321814Y0327158D01*
X0321307Y0325935D01*
X0320800Y0327158D01*
X0319309Y0328649D01*
X0317361Y0329456D01*
X0315253Y0329456D01*
X0313305Y0328649D01*
X0311814Y0327158D01*
X0311007Y0325210D01*
X0311007Y0323947D01*
X0298255Y0311195D01*
X0297707Y0309872D01*
X0297707Y0193440D01*
X0298126Y0192428D01*
X0294907Y0195647D01*
X0294907Y0215261D01*
X0295800Y0216154D01*
X0296607Y0218102D01*
X0296607Y0220210D01*
X0295800Y0222158D01*
X0294309Y0223649D01*
X0293086Y0224156D01*
X0294309Y0224663D01*
X0295800Y0226154D01*
X0296607Y0228102D01*
X0296607Y0230210D01*
X0295800Y0232158D01*
X0294309Y0233649D01*
X0292361Y0234456D01*
X0290253Y0234456D01*
X0288305Y0233649D01*
X0286814Y0232158D01*
X0286007Y0230210D01*
X0286007Y0228102D01*
X0286814Y0226154D01*
X0288305Y0224663D01*
X0289529Y0224156D01*
X0288305Y0223649D01*
X0286814Y0222158D01*
X0286007Y0220210D01*
X0286007Y0218102D01*
X0286814Y0216154D01*
X0287707Y0215261D01*
X0287707Y0193440D01*
X0288255Y0192117D01*
X0289268Y0191104D01*
X0324268Y0156104D01*
X0325591Y0155556D01*
X0336285Y0155556D01*
X0336415Y0155426D01*
X0338032Y0154756D01*
X0344582Y0154756D01*
X0346199Y0155426D01*
X0346416Y0155643D02*
X0366198Y0155643D01*
X0366415Y0155426D02*
X0368032Y0154756D01*
X0374582Y0154756D01*
X0376199Y0155426D01*
X0377437Y0156664D01*
X0378107Y0158281D01*
X0378107Y0160031D01*
X0377437Y0161649D01*
X0376199Y0162886D01*
X0374582Y0163556D01*
X0368032Y0163556D01*
X0366415Y0162886D01*
X0365177Y0161649D01*
X0364507Y0160031D01*
X0364507Y0158281D01*
X0365177Y0156664D01*
X0366415Y0155426D01*
X0364938Y0157242D02*
X0347677Y0157242D01*
X0348107Y0158840D02*
X0364507Y0158840D01*
X0364676Y0160439D02*
X0347938Y0160439D01*
X0347049Y0162037D02*
X0365565Y0162037D01*
X0366878Y0165234D02*
X0345736Y0165234D01*
X0347507Y0166833D02*
X0365107Y0166833D01*
X0365177Y0166664D02*
X0366415Y0165426D01*
X0368032Y0164756D01*
X0374582Y0164756D01*
X0376199Y0165426D01*
X0376330Y0165556D01*
X0387023Y0165556D01*
X0388346Y0166104D01*
X0423346Y0201104D01*
X0424359Y0202117D01*
X0424907Y0203440D01*
X0424907Y0215261D01*
X0425800Y0216154D01*
X0426607Y0218102D01*
X0426607Y0220210D01*
X0425800Y0222158D01*
X0424309Y0223649D01*
X0423086Y0224156D01*
X0424309Y0224663D01*
X0425800Y0226154D01*
X0426607Y0228102D01*
X0426607Y0230210D01*
X0425800Y0232158D01*
X0424907Y0233051D01*
X0424907Y0250261D01*
X0425800Y0251154D01*
X0426607Y0253102D01*
X0426607Y0255210D01*
X0425800Y0257158D01*
X0424309Y0258649D01*
X0423086Y0259156D01*
X0424309Y0259663D01*
X0425800Y0261154D01*
X0426607Y0263102D01*
X0426607Y0265210D01*
X0425800Y0267158D01*
X0424907Y0268051D01*
X0424907Y0285261D01*
X0425800Y0286154D01*
X0426607Y0288102D01*
X0426607Y0290210D01*
X0425800Y0292158D01*
X0424309Y0293649D01*
X0423086Y0294156D01*
X0424309Y0294663D01*
X0425800Y0296154D01*
X0426607Y0298102D01*
X0426607Y0300210D01*
X0425800Y0302158D01*
X0424309Y0303649D01*
X0422361Y0304456D01*
X0420253Y0304456D01*
X0418305Y0303649D01*
X0416814Y0302158D01*
X0416007Y0300210D01*
X0416007Y0298102D01*
X0416814Y0296154D01*
X0418305Y0294663D01*
X0419529Y0294156D01*
X0418305Y0293649D01*
X0416814Y0292158D01*
X0416007Y0290210D01*
X0416007Y0288102D01*
X0416814Y0286154D01*
X0417707Y0285261D01*
X0417707Y0268051D01*
X0416814Y0267158D01*
X0416007Y0265210D01*
X0416007Y0263102D01*
X0416814Y0261154D01*
X0418305Y0259663D01*
X0419529Y0259156D01*
X0418305Y0258649D01*
X0416814Y0257158D01*
X0416007Y0255210D01*
X0416007Y0253102D01*
X0416814Y0251154D01*
X0417707Y0250261D01*
X0417707Y0233051D01*
X0416814Y0232158D01*
X0416007Y0230210D01*
X0416007Y0228102D01*
X0416814Y0226154D01*
X0418305Y0224663D01*
X0419529Y0224156D01*
X0418305Y0223649D01*
X0416814Y0222158D01*
X0416007Y0220210D01*
X0416007Y0218102D01*
X0416814Y0216154D01*
X0417707Y0215261D01*
X0417707Y0205647D01*
X0384816Y0172756D01*
X0376330Y0172756D01*
X0376199Y0172886D01*
X0374582Y0173556D01*
X0368032Y0173556D01*
X0366415Y0172886D01*
X0365177Y0171649D01*
X0364507Y0170031D01*
X0364507Y0168281D01*
X0365177Y0166664D01*
X0364507Y0168431D02*
X0348107Y0168431D01*
X0348107Y0170030D02*
X0364507Y0170030D01*
X0365168Y0171628D02*
X0347446Y0171628D01*
X0345378Y0173227D02*
X0367236Y0173227D01*
X0375378Y0173227D02*
X0385286Y0173227D01*
X0386885Y0174825D02*
X0325729Y0174825D01*
X0324131Y0176424D02*
X0388483Y0176424D01*
X0390082Y0178022D02*
X0322532Y0178022D01*
X0320934Y0179621D02*
X0391680Y0179621D01*
X0393279Y0181219D02*
X0319335Y0181219D01*
X0317737Y0182818D02*
X0394877Y0182818D01*
X0396476Y0184416D02*
X0316138Y0184416D01*
X0314540Y0186015D02*
X0398074Y0186015D01*
X0399673Y0187613D02*
X0312941Y0187613D01*
X0313305Y0189663D02*
X0315253Y0188856D01*
X0317361Y0188856D01*
X0319309Y0189663D01*
X0320800Y0191154D01*
X0321307Y0192378D01*
X0321814Y0191154D01*
X0323305Y0189663D01*
X0325253Y0188856D01*
X0327361Y0188856D01*
X0329309Y0189663D01*
X0330800Y0191154D01*
X0331607Y0193102D01*
X0331607Y0195210D01*
X0330800Y0197158D01*
X0329309Y0198649D01*
X0327361Y0199456D01*
X0325253Y0199456D01*
X0323305Y0198649D01*
X0321814Y0197158D01*
X0321307Y0195935D01*
X0320800Y0197158D01*
X0319309Y0198649D01*
X0317361Y0199456D01*
X0315253Y0199456D01*
X0313305Y0198649D01*
X0311814Y0197158D01*
X0311007Y0195210D01*
X0311007Y0193102D01*
X0311814Y0191154D01*
X0313305Y0189663D01*
X0314394Y0189212D02*
X0311343Y0189212D01*
X0312158Y0190810D02*
X0309744Y0190810D01*
X0311294Y0192409D02*
X0308146Y0192409D01*
X0306547Y0194007D02*
X0311007Y0194007D01*
X0311171Y0195606D02*
X0304949Y0195606D01*
X0304907Y0197204D02*
X0311860Y0197204D01*
X0313676Y0198803D02*
X0304907Y0198803D01*
X0304907Y0200401D02*
X0412461Y0200401D01*
X0410863Y0198803D02*
X0398939Y0198803D01*
X0399309Y0198649D02*
X0397361Y0199456D01*
X0395253Y0199456D01*
X0393305Y0198649D01*
X0391814Y0197158D01*
X0391307Y0195935D01*
X0390800Y0197158D01*
X0389309Y0198649D01*
X0387361Y0199456D01*
X0385253Y0199456D01*
X0383305Y0198649D01*
X0381814Y0197158D01*
X0381007Y0195210D01*
X0381007Y0193102D01*
X0381814Y0191154D01*
X0383305Y0189663D01*
X0385253Y0188856D01*
X0387361Y0188856D01*
X0389309Y0189663D01*
X0390800Y0191154D01*
X0391307Y0192378D01*
X0391814Y0191154D01*
X0393305Y0189663D01*
X0395253Y0188856D01*
X0397361Y0188856D01*
X0399309Y0189663D01*
X0400800Y0191154D01*
X0401607Y0193102D01*
X0401607Y0195210D01*
X0400800Y0197158D01*
X0399309Y0198649D01*
X0400754Y0197204D02*
X0409264Y0197204D01*
X0407666Y0195606D02*
X0401443Y0195606D01*
X0401607Y0194007D02*
X0406067Y0194007D01*
X0404469Y0192409D02*
X0401320Y0192409D01*
X0400457Y0190810D02*
X0402870Y0190810D01*
X0401272Y0189212D02*
X0398220Y0189212D01*
X0394394Y0189212D02*
X0388220Y0189212D01*
X0390457Y0190810D02*
X0392158Y0190810D01*
X0391860Y0197204D02*
X0390754Y0197204D01*
X0388939Y0198803D02*
X0393676Y0198803D01*
X0383676Y0198803D02*
X0363939Y0198803D01*
X0364309Y0198649D02*
X0362361Y0199456D01*
X0360253Y0199456D01*
X0358305Y0198649D01*
X0356814Y0197158D01*
X0356307Y0195935D01*
X0355800Y0197158D01*
X0354309Y0198649D01*
X0352361Y0199456D01*
X0350253Y0199456D01*
X0348305Y0198649D01*
X0346814Y0197158D01*
X0346007Y0195210D01*
X0346007Y0193102D01*
X0346814Y0191154D01*
X0348305Y0189663D01*
X0350253Y0188856D01*
X0352361Y0188856D01*
X0354309Y0189663D01*
X0355800Y0191154D01*
X0356307Y0192378D01*
X0356814Y0191154D01*
X0358305Y0189663D01*
X0360253Y0188856D01*
X0362361Y0188856D01*
X0364309Y0189663D01*
X0365800Y0191154D01*
X0366607Y0193102D01*
X0366607Y0195210D01*
X0365800Y0197158D01*
X0364309Y0198649D01*
X0365754Y0197204D02*
X0381860Y0197204D01*
X0381171Y0195606D02*
X0366443Y0195606D01*
X0366607Y0194007D02*
X0381007Y0194007D01*
X0381294Y0192409D02*
X0366320Y0192409D01*
X0365457Y0190810D02*
X0382158Y0190810D01*
X0384394Y0189212D02*
X0363220Y0189212D01*
X0359394Y0189212D02*
X0353220Y0189212D01*
X0355457Y0190810D02*
X0357158Y0190810D01*
X0356860Y0197204D02*
X0355754Y0197204D01*
X0353939Y0198803D02*
X0358676Y0198803D01*
X0348676Y0198803D02*
X0328939Y0198803D01*
X0330754Y0197204D02*
X0346860Y0197204D01*
X0346171Y0195606D02*
X0331443Y0195606D01*
X0331607Y0194007D02*
X0346007Y0194007D01*
X0346294Y0192409D02*
X0331320Y0192409D01*
X0330457Y0190810D02*
X0347158Y0190810D01*
X0349394Y0189212D02*
X0328220Y0189212D01*
X0324394Y0189212D02*
X0318220Y0189212D01*
X0320457Y0190810D02*
X0322158Y0190810D01*
X0321860Y0197204D02*
X0320754Y0197204D01*
X0318939Y0198803D02*
X0323676Y0198803D01*
X0304907Y0202000D02*
X0414060Y0202000D01*
X0415658Y0203598D02*
X0304907Y0203598D01*
X0304907Y0205197D02*
X0417257Y0205197D01*
X0417707Y0206795D02*
X0304907Y0206795D01*
X0304907Y0208394D02*
X0417707Y0208394D01*
X0417707Y0209992D02*
X0304907Y0209992D01*
X0304907Y0211591D02*
X0417707Y0211591D01*
X0417707Y0213189D02*
X0304907Y0213189D01*
X0304907Y0214788D02*
X0417707Y0214788D01*
X0416718Y0216386D02*
X0304907Y0216386D01*
X0304907Y0217985D02*
X0416056Y0217985D01*
X0416007Y0219583D02*
X0304907Y0219583D01*
X0304907Y0221182D02*
X0416410Y0221182D01*
X0417436Y0222780D02*
X0304907Y0222780D01*
X0304907Y0224379D02*
X0418991Y0224379D01*
X0416990Y0225978D02*
X0304907Y0225978D01*
X0304907Y0227576D02*
X0416225Y0227576D01*
X0416007Y0229175D02*
X0304907Y0229175D01*
X0304907Y0230773D02*
X0416240Y0230773D01*
X0417027Y0232372D02*
X0304907Y0232372D01*
X0304907Y0233970D02*
X0417707Y0233970D01*
X0417707Y0235569D02*
X0304907Y0235569D01*
X0304907Y0237167D02*
X0417707Y0237167D01*
X0417707Y0238766D02*
X0304907Y0238766D01*
X0304907Y0240364D02*
X0417707Y0240364D01*
X0417707Y0241963D02*
X0304907Y0241963D01*
X0304907Y0243561D02*
X0417707Y0243561D01*
X0417707Y0245160D02*
X0304907Y0245160D01*
X0304907Y0246758D02*
X0417707Y0246758D01*
X0417707Y0248357D02*
X0304907Y0248357D01*
X0304907Y0249955D02*
X0417707Y0249955D01*
X0416648Y0251554D02*
X0304907Y0251554D01*
X0304907Y0253152D02*
X0416007Y0253152D01*
X0416007Y0254751D02*
X0304907Y0254751D01*
X0304907Y0256349D02*
X0416479Y0256349D01*
X0417603Y0257948D02*
X0304907Y0257948D01*
X0304907Y0259546D02*
X0418587Y0259546D01*
X0416823Y0261145D02*
X0304907Y0261145D01*
X0304907Y0262743D02*
X0416156Y0262743D01*
X0416007Y0264342D02*
X0304907Y0264342D01*
X0304907Y0265940D02*
X0416309Y0265940D01*
X0417194Y0267539D02*
X0304907Y0267539D01*
X0304907Y0269137D02*
X0417707Y0269137D01*
X0417707Y0270736D02*
X0304907Y0270736D01*
X0304907Y0272334D02*
X0417707Y0272334D01*
X0417707Y0273933D02*
X0304907Y0273933D01*
X0304907Y0275531D02*
X0417707Y0275531D01*
X0417707Y0277130D02*
X0304907Y0277130D01*
X0304907Y0278728D02*
X0417707Y0278728D01*
X0417707Y0280327D02*
X0304907Y0280327D01*
X0304907Y0281925D02*
X0417707Y0281925D01*
X0417707Y0283524D02*
X0304907Y0283524D01*
X0304907Y0285122D02*
X0417707Y0285122D01*
X0416579Y0286721D02*
X0304907Y0286721D01*
X0304907Y0288319D02*
X0416007Y0288319D01*
X0416007Y0289918D02*
X0304907Y0289918D01*
X0304907Y0291516D02*
X0416548Y0291516D01*
X0417771Y0293115D02*
X0304907Y0293115D01*
X0304907Y0294714D02*
X0418254Y0294714D01*
X0416748Y0296312D02*
X0304907Y0296312D01*
X0304907Y0297911D02*
X0416086Y0297911D01*
X0416007Y0299509D02*
X0304907Y0299509D01*
X0304907Y0301108D02*
X0416379Y0301108D01*
X0417362Y0302706D02*
X0304907Y0302706D01*
X0304907Y0304305D02*
X0419887Y0304305D01*
X0422727Y0304305D02*
X0437708Y0304305D01*
X0437708Y0305903D02*
X0304907Y0305903D01*
X0304907Y0307502D02*
X0437708Y0307502D01*
X0437708Y0309100D02*
X0306342Y0309100D01*
X0307941Y0310699D02*
X0437708Y0310699D01*
X0437708Y0312297D02*
X0309539Y0312297D01*
X0311138Y0313896D02*
X0437708Y0313896D01*
X0437708Y0315494D02*
X0312736Y0315494D01*
X0314335Y0317093D02*
X0437708Y0317093D01*
X0437708Y0318691D02*
X0315933Y0318691D01*
X0319936Y0320290D02*
X0322678Y0320290D01*
X0321510Y0321888D02*
X0321104Y0321888D01*
X0320997Y0326684D02*
X0321617Y0326684D01*
X0322938Y0328282D02*
X0319676Y0328282D01*
X0312938Y0328282D02*
X0282324Y0328282D01*
X0282690Y0328434D02*
X0284589Y0330333D01*
X0285616Y0332813D01*
X0285616Y0335499D01*
X0284589Y0337980D01*
X0282690Y0339879D01*
X0280209Y0340906D01*
X0277523Y0340906D01*
X0275043Y0339879D01*
X0273144Y0337980D01*
X0272116Y0335499D01*
X0272116Y0332813D01*
X0273144Y0330333D01*
X0275043Y0328434D01*
X0277523Y0327406D01*
X0280209Y0327406D01*
X0282690Y0328434D01*
X0284137Y0329881D02*
X0410853Y0329881D01*
X0410764Y0330118D02*
X0411003Y0329476D01*
X0411149Y0328807D01*
X0411286Y0328719D01*
X0411410Y0328387D01*
X0411364Y0328231D01*
X0411692Y0327629D01*
X0411932Y0326987D01*
X0412080Y0326920D01*
X0412249Y0326609D01*
X0412226Y0326448D01*
X0412637Y0325899D01*
X0412965Y0325298D01*
X0413122Y0325252D01*
X0413334Y0324969D01*
X0413334Y0324806D01*
X0413818Y0324321D01*
X0414229Y0323772D01*
X0414390Y0323749D01*
X0414640Y0323499D01*
X0414664Y0323338D01*
X0415212Y0322927D01*
X0415697Y0322443D01*
X0415860Y0322443D01*
X0416143Y0322231D01*
X0416189Y0322074D01*
X0416790Y0321746D01*
X0417339Y0321335D01*
X0417500Y0321358D01*
X0417811Y0321189D01*
X0417878Y0321041D01*
X0418520Y0320801D01*
X0419122Y0320473D01*
X0419278Y0320519D01*
X0419610Y0320395D01*
X0419698Y0320258D01*
X0420367Y0320112D01*
X0421010Y0319873D01*
X0421158Y0319940D01*
X0421503Y0319865D01*
X0421610Y0319742D01*
X0422294Y0319693D01*
X0422963Y0319548D01*
X0423100Y0319636D01*
X0423373Y0319616D01*
X0423431Y0319558D01*
X0424188Y0319558D01*
X0424943Y0319504D01*
X0425006Y0319558D01*
X0437708Y0319558D01*
X0437708Y0063715D01*
X0425006Y0063715D01*
X0424943Y0063769D01*
X0424188Y0063715D01*
X0423431Y0063715D01*
X0423373Y0063657D01*
X0423100Y0063637D01*
X0422963Y0063725D01*
X0422294Y0063580D01*
X0421610Y0063531D01*
X0421503Y0063408D01*
X0421158Y0063333D01*
X0421010Y0063400D01*
X0420367Y0063161D01*
X0419698Y0063015D01*
X0419610Y0062878D01*
X0419278Y0062754D01*
X0419122Y0062800D01*
X0418520Y0062472D01*
X0417878Y0062232D01*
X0417811Y0062084D01*
X0417500Y0061915D01*
X0417339Y0061938D01*
X0416790Y0061527D01*
X0416189Y0061199D01*
X0416143Y0061042D01*
X0415860Y0060830D01*
X0415697Y0060830D01*
X0415212Y0060346D01*
X0414664Y0059935D01*
X0414640Y0059774D01*
X0414390Y0059524D01*
X0414229Y0059500D01*
X0413818Y0058952D01*
X0413334Y0058467D01*
X0413334Y0058304D01*
X0413122Y0058021D01*
X0412965Y0057975D01*
X0412637Y0057374D01*
X0412226Y0056825D01*
X0412249Y0056664D01*
X0412080Y0056353D01*
X0411932Y0056286D01*
X0411692Y0055644D01*
X0411364Y0055042D01*
X0411410Y0054886D01*
X0411286Y0054554D01*
X0411149Y0054466D01*
X0411003Y0053797D01*
X0410764Y0053154D01*
X0410831Y0053006D01*
X0410756Y0052661D01*
X0410633Y0052554D01*
X0410584Y0051870D01*
X0410439Y0051201D01*
X0410527Y0051064D01*
X0410507Y0050791D01*
X0410449Y0050733D01*
X0410449Y0049976D01*
X0410395Y0049221D01*
X0410449Y0049158D01*
X0410449Y0036656D01*
X0075866Y0036656D01*
X0075866Y0049158D01*
X0075920Y0049221D01*
X0075866Y0049976D01*
X0075866Y0050733D01*
X0075808Y0050791D01*
X0075788Y0051064D01*
X0075876Y0051201D01*
X0075731Y0051870D01*
X0075682Y0052554D01*
X0075559Y0052661D01*
X0075483Y0053006D01*
X0075551Y0053154D01*
X0075312Y0053797D01*
X0075166Y0054466D01*
X0075029Y0054554D01*
X0074905Y0054886D01*
X0074951Y0055042D01*
X0074623Y0055644D01*
X0074383Y0056286D01*
X0074235Y0056353D01*
X0074066Y0056664D01*
X0074089Y0056825D01*
X0073678Y0057374D01*
X0073349Y0057975D01*
X0073193Y0058021D01*
X0072981Y0058304D01*
X0072981Y0058467D01*
X0072497Y0058952D01*
X0072086Y0059500D01*
X0071925Y0059524D01*
X0071675Y0059774D01*
X0071651Y0059935D01*
X0071103Y0060346D01*
X0070618Y0060830D01*
X0070455Y0060830D01*
X0070172Y0061042D01*
X0070126Y0061199D01*
X0069525Y0061527D01*
X0068976Y0061938D01*
X0068815Y0061915D01*
X0068504Y0062084D01*
X0068437Y0062232D01*
X0067795Y0062472D01*
X0067193Y0062800D01*
X0067037Y0062754D01*
X0066705Y0062878D01*
X0066617Y0063015D01*
X0065948Y0063161D01*
X0065305Y0063400D01*
X0065157Y0063333D01*
X0064812Y0063408D01*
X0064705Y0063531D01*
X0064021Y0063580D01*
X0063352Y0063725D01*
X0063215Y0063637D01*
X0062942Y0063657D01*
X0062884Y0063715D01*
X0062127Y0063715D01*
X0061371Y0063769D01*
X0061309Y0063715D01*
X0048807Y0063715D01*
X0048807Y0319558D01*
X0061309Y0319558D01*
X0061371Y0319504D01*
X0062126Y0319558D01*
X0062884Y0319558D01*
X0062942Y0319616D01*
X0063215Y0319636D01*
X0063352Y0319548D01*
X0064021Y0319693D01*
X0064705Y0319742D01*
X0064812Y0319865D01*
X0065157Y0319940D01*
X0065305Y0319873D01*
X0065948Y0320112D01*
X0066617Y0320258D01*
X0066705Y0320395D01*
X0067037Y0320519D01*
X0067193Y0320473D01*
X0067795Y0320801D01*
X0068437Y0321041D01*
X0068504Y0321189D01*
X0068815Y0321358D01*
X0068976Y0321335D01*
X0069525Y0321746D01*
X0070126Y0322074D01*
X0070172Y0322231D01*
X0070455Y0322443D01*
X0070618Y0322443D01*
X0071103Y0322927D01*
X0071651Y0323338D01*
X0071675Y0323499D01*
X0071925Y0323749D01*
X0072086Y0323772D01*
X0072497Y0324321D01*
X0072981Y0324806D01*
X0072981Y0324969D01*
X0073193Y0325252D01*
X0073349Y0325298D01*
X0073678Y0325899D01*
X0074089Y0326448D01*
X0074066Y0326609D01*
X0074235Y0326920D01*
X0074383Y0326987D01*
X0074623Y0327629D01*
X0074951Y0328231D01*
X0074905Y0328387D01*
X0075029Y0328719D01*
X0075166Y0328807D01*
X0075312Y0329476D01*
X0075551Y0330118D01*
X0075483Y0330267D01*
X0075559Y0330612D01*
X0075682Y0330719D01*
X0075731Y0331402D01*
X0075876Y0332072D01*
X0075788Y0332209D01*
X0075808Y0332482D01*
X0075866Y0332540D01*
X0075866Y0333297D01*
X0075920Y0334052D01*
X0075866Y0334115D01*
X0075866Y0346656D01*
X0410449Y0346656D01*
X0410449Y0334115D01*
X0410395Y0334052D01*
X0410449Y0333297D01*
X0410449Y0332540D01*
X0410507Y0332482D01*
X0410527Y0332209D01*
X0410439Y0332072D01*
X0410584Y0331402D01*
X0410633Y0330719D01*
X0410756Y0330612D01*
X0410831Y0330267D01*
X0410764Y0330118D01*
X0410568Y0331479D02*
X0285063Y0331479D01*
X0285616Y0333078D02*
X0410449Y0333078D01*
X0410449Y0334676D02*
X0285616Y0334676D01*
X0285295Y0336275D02*
X0410449Y0336275D01*
X0410449Y0337873D02*
X0284633Y0337873D01*
X0283096Y0339472D02*
X0410449Y0339472D01*
X0410449Y0341070D02*
X0075866Y0341070D01*
X0075866Y0339472D02*
X0244845Y0339472D01*
X0244880Y0339601D02*
X0244757Y0339143D01*
X0244757Y0334537D01*
X0250926Y0334537D01*
X0250926Y0333775D01*
X0251688Y0333775D01*
X0251688Y0327606D01*
X0256294Y0327606D01*
X0256752Y0327729D01*
X0257162Y0327966D01*
X0257497Y0328301D01*
X0257734Y0328711D01*
X0257857Y0329169D01*
X0257857Y0333775D01*
X0251688Y0333775D01*
X0251688Y0334537D01*
X0257857Y0334537D01*
X0257857Y0339143D01*
X0257734Y0339601D01*
X0257497Y0340011D01*
X0257162Y0340347D01*
X0256752Y0340583D01*
X0256294Y0340706D01*
X0251688Y0340706D01*
X0251688Y0334537D01*
X0250926Y0334537D01*
X0250926Y0340706D01*
X0246320Y0340706D01*
X0245862Y0340583D01*
X0245452Y0340347D01*
X0245117Y0340011D01*
X0244880Y0339601D01*
X0244757Y0337873D02*
X0075866Y0337873D01*
X0075866Y0336275D02*
X0244757Y0336275D01*
X0244757Y0334676D02*
X0075866Y0334676D01*
X0075866Y0333078D02*
X0244757Y0333078D01*
X0244757Y0333775D02*
X0244757Y0329169D01*
X0244880Y0328711D01*
X0245117Y0328301D01*
X0245452Y0327966D01*
X0245862Y0327729D01*
X0246320Y0327606D01*
X0250926Y0327606D01*
X0250926Y0333775D01*
X0244757Y0333775D01*
X0244757Y0331479D02*
X0075747Y0331479D01*
X0075462Y0329881D02*
X0244757Y0329881D01*
X0245135Y0328282D02*
X0219676Y0328282D01*
X0219309Y0328649D02*
X0220800Y0327158D01*
X0221607Y0325210D01*
X0221607Y0323102D01*
X0220800Y0321154D01*
X0219309Y0319663D01*
X0217361Y0318856D01*
X0215253Y0318856D01*
X0213305Y0319663D01*
X0211814Y0321154D01*
X0211307Y0322378D01*
X0210800Y0321154D01*
X0209309Y0319663D01*
X0207361Y0318856D01*
X0205253Y0318856D01*
X0203305Y0319663D01*
X0201814Y0321154D01*
X0201007Y0323102D01*
X0201007Y0325210D01*
X0201814Y0327158D01*
X0203305Y0328649D01*
X0205253Y0329456D01*
X0207361Y0329456D01*
X0209309Y0328649D01*
X0210800Y0327158D01*
X0211307Y0325935D01*
X0211814Y0327158D01*
X0213305Y0328649D01*
X0215253Y0329456D01*
X0217361Y0329456D01*
X0219309Y0328649D01*
X0220997Y0326684D02*
X0262707Y0326684D01*
X0262707Y0325085D02*
X0221607Y0325085D01*
X0221607Y0323487D02*
X0262707Y0323487D01*
X0262707Y0321888D02*
X0221104Y0321888D01*
X0219936Y0320290D02*
X0262707Y0320290D01*
X0262707Y0318691D02*
X0135933Y0318691D01*
X0134335Y0317093D02*
X0262707Y0317093D01*
X0262707Y0315494D02*
X0132736Y0315494D01*
X0131138Y0313896D02*
X0262707Y0313896D01*
X0262707Y0312297D02*
X0129539Y0312297D01*
X0127941Y0310699D02*
X0262707Y0310699D01*
X0262707Y0309100D02*
X0126342Y0309100D01*
X0124907Y0307502D02*
X0262707Y0307502D01*
X0262707Y0305903D02*
X0124907Y0305903D01*
X0124907Y0304305D02*
X0239887Y0304305D01*
X0240253Y0304456D02*
X0238305Y0303649D01*
X0236814Y0302158D01*
X0236007Y0300210D01*
X0236007Y0298102D01*
X0236814Y0296154D01*
X0238305Y0294663D01*
X0239529Y0294156D01*
X0238305Y0293649D01*
X0236814Y0292158D01*
X0236007Y0290210D01*
X0236007Y0288102D01*
X0236814Y0286154D01*
X0238305Y0284663D01*
X0240253Y0283856D01*
X0242361Y0283856D01*
X0244309Y0284663D01*
X0245800Y0286154D01*
X0246607Y0288102D01*
X0246607Y0290210D01*
X0245800Y0292158D01*
X0244309Y0293649D01*
X0243086Y0294156D01*
X0244309Y0294663D01*
X0245800Y0296154D01*
X0246607Y0298102D01*
X0246607Y0300210D01*
X0245800Y0302158D01*
X0244309Y0303649D01*
X0242361Y0304456D01*
X0240253Y0304456D01*
X0242727Y0304305D02*
X0262707Y0304305D01*
X0262707Y0302706D02*
X0245252Y0302706D01*
X0246235Y0301108D02*
X0262707Y0301108D01*
X0262707Y0299509D02*
X0246607Y0299509D01*
X0246528Y0297911D02*
X0262707Y0297911D01*
X0262707Y0296312D02*
X0245866Y0296312D01*
X0244360Y0294714D02*
X0262707Y0294714D01*
X0262707Y0293115D02*
X0244844Y0293115D01*
X0246066Y0291516D02*
X0262707Y0291516D01*
X0262707Y0289918D02*
X0246607Y0289918D01*
X0246607Y0288319D02*
X0262707Y0288319D01*
X0262707Y0286721D02*
X0246035Y0286721D01*
X0244769Y0285122D02*
X0262707Y0285122D01*
X0262707Y0283524D02*
X0124907Y0283524D01*
X0124907Y0285122D02*
X0237845Y0285122D01*
X0236579Y0286721D02*
X0124907Y0286721D01*
X0124907Y0288319D02*
X0236007Y0288319D01*
X0236007Y0289918D02*
X0124907Y0289918D01*
X0124907Y0291516D02*
X0236548Y0291516D01*
X0237771Y0293115D02*
X0124907Y0293115D01*
X0124907Y0294714D02*
X0238254Y0294714D01*
X0236748Y0296312D02*
X0124907Y0296312D01*
X0124907Y0297911D02*
X0236086Y0297911D01*
X0236007Y0299509D02*
X0124907Y0299509D01*
X0124907Y0301108D02*
X0236379Y0301108D01*
X0237362Y0302706D02*
X0124907Y0302706D01*
X0117707Y0302706D02*
X0115252Y0302706D01*
X0115800Y0302158D02*
X0114309Y0303649D01*
X0112361Y0304456D01*
X0110253Y0304456D01*
X0108305Y0303649D01*
X0106814Y0302158D01*
X0106007Y0300210D01*
X0106007Y0298102D01*
X0106814Y0296154D01*
X0108305Y0294663D01*
X0109529Y0294156D01*
X0108305Y0293649D01*
X0106814Y0292158D01*
X0106007Y0290210D01*
X0106007Y0288102D01*
X0106814Y0286154D01*
X0108305Y0284663D01*
X0110253Y0283856D01*
X0112361Y0283856D01*
X0114309Y0284663D01*
X0115800Y0286154D01*
X0116607Y0288102D01*
X0116607Y0290210D01*
X0115800Y0292158D01*
X0114309Y0293649D01*
X0113086Y0294156D01*
X0114309Y0294663D01*
X0115800Y0296154D01*
X0116607Y0298102D01*
X0116607Y0300210D01*
X0115800Y0302158D01*
X0116235Y0301108D02*
X0117707Y0301108D01*
X0117707Y0299509D02*
X0116607Y0299509D01*
X0116528Y0297911D02*
X0117707Y0297911D01*
X0117707Y0296312D02*
X0115866Y0296312D01*
X0114360Y0294714D02*
X0117707Y0294714D01*
X0117707Y0293115D02*
X0114844Y0293115D01*
X0116066Y0291516D02*
X0117707Y0291516D01*
X0117707Y0289918D02*
X0116607Y0289918D01*
X0116607Y0288319D02*
X0117707Y0288319D01*
X0117707Y0286721D02*
X0116035Y0286721D01*
X0114769Y0285122D02*
X0117707Y0285122D01*
X0117707Y0283524D02*
X0048807Y0283524D01*
X0048807Y0285122D02*
X0107845Y0285122D01*
X0106579Y0286721D02*
X0048807Y0286721D01*
X0048807Y0288319D02*
X0106007Y0288319D01*
X0106007Y0289918D02*
X0048807Y0289918D01*
X0048807Y0291516D02*
X0106548Y0291516D01*
X0107771Y0293115D02*
X0048807Y0293115D01*
X0048807Y0294714D02*
X0108254Y0294714D01*
X0106748Y0296312D02*
X0048807Y0296312D01*
X0048807Y0297911D02*
X0106086Y0297911D01*
X0106007Y0299509D02*
X0048807Y0299509D01*
X0048807Y0301108D02*
X0106379Y0301108D01*
X0107362Y0302706D02*
X0048807Y0302706D01*
X0048807Y0304305D02*
X0109887Y0304305D01*
X0112727Y0304305D02*
X0117707Y0304305D01*
X0117707Y0305903D02*
X0048807Y0305903D01*
X0048807Y0307502D02*
X0117707Y0307502D01*
X0117707Y0309100D02*
X0048807Y0309100D01*
X0048807Y0310699D02*
X0118049Y0310699D01*
X0119357Y0312297D02*
X0048807Y0312297D01*
X0048807Y0313896D02*
X0120955Y0313896D01*
X0122554Y0315494D02*
X0048807Y0315494D01*
X0048807Y0317093D02*
X0124152Y0317093D01*
X0125751Y0318691D02*
X0048807Y0318691D01*
X0066638Y0320290D02*
X0127349Y0320290D01*
X0128948Y0321888D02*
X0069785Y0321888D01*
X0071673Y0323487D02*
X0130546Y0323487D01*
X0131007Y0325085D02*
X0073069Y0325085D01*
X0074106Y0326684D02*
X0131617Y0326684D01*
X0132938Y0328282D02*
X0074936Y0328282D01*
X0075866Y0342669D02*
X0410449Y0342669D01*
X0410449Y0344267D02*
X0075866Y0344267D01*
X0075866Y0345866D02*
X0410449Y0345866D01*
X0411379Y0328282D02*
X0399676Y0328282D01*
X0399309Y0328649D02*
X0397361Y0329456D01*
X0395253Y0329456D01*
X0393305Y0328649D01*
X0391814Y0327158D01*
X0391307Y0325935D01*
X0390800Y0327158D01*
X0389309Y0328649D01*
X0387361Y0329456D01*
X0385253Y0329456D01*
X0383305Y0328649D01*
X0381814Y0327158D01*
X0381007Y0325210D01*
X0381007Y0323102D01*
X0381814Y0321154D01*
X0383305Y0319663D01*
X0385253Y0318856D01*
X0387361Y0318856D01*
X0389309Y0319663D01*
X0390800Y0321154D01*
X0391307Y0322378D01*
X0391814Y0321154D01*
X0393305Y0319663D01*
X0395253Y0318856D01*
X0397361Y0318856D01*
X0399309Y0319663D01*
X0400800Y0321154D01*
X0401607Y0323102D01*
X0401607Y0325210D01*
X0400800Y0327158D01*
X0399309Y0328649D01*
X0400997Y0326684D02*
X0412209Y0326684D01*
X0413246Y0325085D02*
X0401607Y0325085D01*
X0401607Y0323487D02*
X0414642Y0323487D01*
X0416530Y0321888D02*
X0401104Y0321888D01*
X0399936Y0320290D02*
X0419677Y0320290D01*
X0425252Y0302706D02*
X0437708Y0302706D01*
X0437708Y0301108D02*
X0426235Y0301108D01*
X0426607Y0299509D02*
X0437708Y0299509D01*
X0437708Y0297911D02*
X0426528Y0297911D01*
X0425866Y0296312D02*
X0437708Y0296312D01*
X0437708Y0294714D02*
X0424360Y0294714D01*
X0424844Y0293115D02*
X0437708Y0293115D01*
X0437708Y0291516D02*
X0426066Y0291516D01*
X0426607Y0289918D02*
X0437708Y0289918D01*
X0437708Y0288319D02*
X0426607Y0288319D01*
X0426035Y0286721D02*
X0437708Y0286721D01*
X0437708Y0285122D02*
X0424907Y0285122D01*
X0424907Y0283524D02*
X0437708Y0283524D01*
X0437708Y0281925D02*
X0424907Y0281925D01*
X0424907Y0280327D02*
X0437708Y0280327D01*
X0437708Y0278728D02*
X0424907Y0278728D01*
X0424907Y0277130D02*
X0437708Y0277130D01*
X0437708Y0275531D02*
X0424907Y0275531D01*
X0424907Y0273933D02*
X0437708Y0273933D01*
X0437708Y0272334D02*
X0424907Y0272334D01*
X0424907Y0270736D02*
X0437708Y0270736D01*
X0437708Y0269137D02*
X0424907Y0269137D01*
X0425420Y0267539D02*
X0437708Y0267539D01*
X0437708Y0265940D02*
X0426305Y0265940D01*
X0426607Y0264342D02*
X0437708Y0264342D01*
X0437708Y0262743D02*
X0426459Y0262743D01*
X0425791Y0261145D02*
X0437708Y0261145D01*
X0437708Y0259546D02*
X0424027Y0259546D01*
X0425011Y0257948D02*
X0437708Y0257948D01*
X0437708Y0256349D02*
X0426135Y0256349D01*
X0426607Y0254751D02*
X0437708Y0254751D01*
X0437708Y0253152D02*
X0426607Y0253152D01*
X0425966Y0251554D02*
X0437708Y0251554D01*
X0437708Y0249955D02*
X0424907Y0249955D01*
X0424907Y0248357D02*
X0437708Y0248357D01*
X0437708Y0246758D02*
X0424907Y0246758D01*
X0424907Y0245160D02*
X0437708Y0245160D01*
X0437708Y0243561D02*
X0424907Y0243561D01*
X0424907Y0241963D02*
X0437708Y0241963D01*
X0437708Y0240364D02*
X0424907Y0240364D01*
X0424907Y0238766D02*
X0437708Y0238766D01*
X0437708Y0237167D02*
X0424907Y0237167D01*
X0424907Y0235569D02*
X0437708Y0235569D01*
X0437708Y0233970D02*
X0424907Y0233970D01*
X0425587Y0232372D02*
X0437708Y0232372D01*
X0437708Y0230773D02*
X0426374Y0230773D01*
X0426607Y0229175D02*
X0437708Y0229175D01*
X0437708Y0227576D02*
X0426389Y0227576D01*
X0425624Y0225978D02*
X0437708Y0225978D01*
X0437708Y0224379D02*
X0423624Y0224379D01*
X0425178Y0222780D02*
X0437708Y0222780D01*
X0437708Y0221182D02*
X0426205Y0221182D01*
X0426607Y0219583D02*
X0437708Y0219583D01*
X0437708Y0217985D02*
X0426559Y0217985D01*
X0425896Y0216386D02*
X0437708Y0216386D01*
X0437708Y0214788D02*
X0424907Y0214788D01*
X0424907Y0213189D02*
X0437708Y0213189D01*
X0437708Y0211591D02*
X0424907Y0211591D01*
X0424907Y0209992D02*
X0437708Y0209992D01*
X0437708Y0208394D02*
X0424907Y0208394D01*
X0424907Y0206795D02*
X0437708Y0206795D01*
X0437708Y0205197D02*
X0424907Y0205197D01*
X0424907Y0203598D02*
X0437708Y0203598D01*
X0437708Y0202000D02*
X0424242Y0202000D01*
X0422643Y0200401D02*
X0437708Y0200401D01*
X0437708Y0198803D02*
X0421045Y0198803D01*
X0419446Y0197204D02*
X0437708Y0197204D01*
X0437708Y0195606D02*
X0417848Y0195606D01*
X0416249Y0194007D02*
X0437708Y0194007D01*
X0437708Y0192409D02*
X0414651Y0192409D01*
X0413052Y0190810D02*
X0437708Y0190810D01*
X0437708Y0189212D02*
X0411454Y0189212D01*
X0409855Y0187613D02*
X0437708Y0187613D01*
X0437708Y0186015D02*
X0408257Y0186015D01*
X0406658Y0184416D02*
X0437708Y0184416D01*
X0437708Y0182818D02*
X0405060Y0182818D01*
X0403461Y0181219D02*
X0437708Y0181219D01*
X0437708Y0179621D02*
X0401863Y0179621D01*
X0400264Y0178022D02*
X0437708Y0178022D01*
X0437708Y0176424D02*
X0398666Y0176424D01*
X0397067Y0174825D02*
X0437708Y0174825D01*
X0437708Y0173227D02*
X0424732Y0173227D01*
X0424309Y0173649D02*
X0422361Y0174456D01*
X0420253Y0174456D01*
X0418305Y0173649D01*
X0416814Y0172158D01*
X0416007Y0170210D01*
X0416007Y0168102D01*
X0416814Y0166154D01*
X0418305Y0164663D01*
X0419529Y0164156D01*
X0418305Y0163649D01*
X0416814Y0162158D01*
X0416007Y0160210D01*
X0416007Y0158102D01*
X0416814Y0156154D01*
X0418305Y0154663D01*
X0420253Y0153856D01*
X0422361Y0153856D01*
X0424309Y0154663D01*
X0425800Y0156154D01*
X0426607Y0158102D01*
X0426607Y0160210D01*
X0425800Y0162158D01*
X0424309Y0163649D01*
X0423086Y0164156D01*
X0424309Y0164663D01*
X0425800Y0166154D01*
X0426607Y0168102D01*
X0426607Y0170210D01*
X0425800Y0172158D01*
X0424309Y0173649D01*
X0426020Y0171628D02*
X0437708Y0171628D01*
X0437708Y0170030D02*
X0426607Y0170030D01*
X0426607Y0168431D02*
X0437708Y0168431D01*
X0437708Y0166833D02*
X0426081Y0166833D01*
X0424880Y0165234D02*
X0437708Y0165234D01*
X0437708Y0163636D02*
X0424323Y0163636D01*
X0425850Y0162037D02*
X0437708Y0162037D01*
X0437708Y0160439D02*
X0426513Y0160439D01*
X0426607Y0158840D02*
X0437708Y0158840D01*
X0437708Y0157242D02*
X0426251Y0157242D01*
X0425289Y0155643D02*
X0437708Y0155643D01*
X0437708Y0154045D02*
X0422816Y0154045D01*
X0419798Y0154045D02*
X0411510Y0154045D01*
X0409911Y0155643D02*
X0417325Y0155643D01*
X0416363Y0157242D02*
X0408313Y0157242D01*
X0406714Y0158840D02*
X0416007Y0158840D01*
X0416102Y0160439D02*
X0405116Y0160439D01*
X0403517Y0162037D02*
X0416764Y0162037D01*
X0418291Y0163636D02*
X0326919Y0163636D01*
X0325320Y0165234D02*
X0336878Y0165234D01*
X0337236Y0173227D02*
X0327328Y0173227D01*
X0316736Y0163636D02*
X0294323Y0163636D01*
X0294880Y0165234D02*
X0315138Y0165234D01*
X0313539Y0166833D02*
X0296081Y0166833D01*
X0296607Y0168431D02*
X0311941Y0168431D01*
X0310342Y0170030D02*
X0296607Y0170030D01*
X0296020Y0171628D02*
X0308744Y0171628D01*
X0307145Y0173227D02*
X0294732Y0173227D01*
X0300751Y0179621D02*
X0269907Y0179621D01*
X0269907Y0181219D02*
X0299153Y0181219D01*
X0297554Y0182818D02*
X0269907Y0182818D01*
X0269907Y0184416D02*
X0295956Y0184416D01*
X0294357Y0186015D02*
X0269907Y0186015D01*
X0269907Y0187613D02*
X0292759Y0187613D01*
X0291160Y0189212D02*
X0269907Y0189212D01*
X0269907Y0190810D02*
X0289562Y0190810D01*
X0288134Y0192409D02*
X0269907Y0192409D01*
X0269907Y0194007D02*
X0287707Y0194007D01*
X0287707Y0195606D02*
X0269907Y0195606D01*
X0269907Y0197204D02*
X0287707Y0197204D01*
X0287707Y0198803D02*
X0269907Y0198803D01*
X0269907Y0200401D02*
X0287707Y0200401D01*
X0287707Y0202000D02*
X0269907Y0202000D01*
X0269907Y0203598D02*
X0287707Y0203598D01*
X0287707Y0205197D02*
X0269907Y0205197D01*
X0269907Y0206795D02*
X0287707Y0206795D01*
X0287707Y0208394D02*
X0269907Y0208394D01*
X0269907Y0209992D02*
X0287707Y0209992D01*
X0287707Y0211591D02*
X0269907Y0211591D01*
X0269907Y0213189D02*
X0287707Y0213189D01*
X0287707Y0214788D02*
X0269907Y0214788D01*
X0269907Y0216386D02*
X0286718Y0216386D01*
X0286056Y0217985D02*
X0269907Y0217985D01*
X0269907Y0219583D02*
X0286007Y0219583D01*
X0286410Y0221182D02*
X0269907Y0221182D01*
X0269907Y0222780D02*
X0287436Y0222780D01*
X0288991Y0224379D02*
X0269907Y0224379D01*
X0269907Y0225978D02*
X0286990Y0225978D01*
X0286225Y0227576D02*
X0269907Y0227576D01*
X0269907Y0229175D02*
X0286007Y0229175D01*
X0286240Y0230773D02*
X0269907Y0230773D01*
X0269907Y0232372D02*
X0287027Y0232372D01*
X0289079Y0233970D02*
X0269907Y0233970D01*
X0269907Y0235569D02*
X0297707Y0235569D01*
X0297707Y0237167D02*
X0269907Y0237167D01*
X0269907Y0238766D02*
X0297707Y0238766D01*
X0297707Y0240364D02*
X0269907Y0240364D01*
X0269907Y0241963D02*
X0297707Y0241963D01*
X0297707Y0243561D02*
X0269907Y0243561D01*
X0269907Y0245160D02*
X0297707Y0245160D01*
X0297707Y0246758D02*
X0269907Y0246758D01*
X0269907Y0248357D02*
X0297707Y0248357D01*
X0297707Y0249955D02*
X0294601Y0249955D01*
X0294309Y0249663D02*
X0295800Y0251154D01*
X0296607Y0253102D01*
X0296607Y0255210D01*
X0295800Y0257158D01*
X0294309Y0258649D01*
X0293086Y0259156D01*
X0294309Y0259663D01*
X0295800Y0261154D01*
X0296607Y0263102D01*
X0296607Y0265210D01*
X0295800Y0267158D01*
X0294309Y0268649D01*
X0292361Y0269456D01*
X0290253Y0269456D01*
X0288305Y0268649D01*
X0286814Y0267158D01*
X0286007Y0265210D01*
X0286007Y0263102D01*
X0286814Y0261154D01*
X0288305Y0259663D01*
X0289529Y0259156D01*
X0288305Y0258649D01*
X0286814Y0257158D01*
X0286007Y0255210D01*
X0286007Y0253102D01*
X0286814Y0251154D01*
X0288305Y0249663D01*
X0290253Y0248856D01*
X0292361Y0248856D01*
X0294309Y0249663D01*
X0295966Y0251554D02*
X0297707Y0251554D01*
X0297707Y0253152D02*
X0296607Y0253152D01*
X0296607Y0254751D02*
X0297707Y0254751D01*
X0297707Y0256349D02*
X0296135Y0256349D01*
X0295011Y0257948D02*
X0297707Y0257948D01*
X0297707Y0259546D02*
X0294027Y0259546D01*
X0295791Y0261145D02*
X0297707Y0261145D01*
X0297707Y0262743D02*
X0296459Y0262743D01*
X0296607Y0264342D02*
X0297707Y0264342D01*
X0297707Y0265940D02*
X0296305Y0265940D01*
X0295420Y0267539D02*
X0297707Y0267539D01*
X0297707Y0269137D02*
X0293131Y0269137D01*
X0289483Y0269137D02*
X0269907Y0269137D01*
X0269907Y0267539D02*
X0287194Y0267539D01*
X0286309Y0265940D02*
X0269907Y0265940D01*
X0269907Y0264342D02*
X0286007Y0264342D01*
X0286156Y0262743D02*
X0269907Y0262743D01*
X0269907Y0261145D02*
X0286823Y0261145D01*
X0288587Y0259546D02*
X0269907Y0259546D01*
X0269907Y0257948D02*
X0287603Y0257948D01*
X0286479Y0256349D02*
X0269907Y0256349D01*
X0269907Y0254751D02*
X0286007Y0254751D01*
X0286007Y0253152D02*
X0269907Y0253152D01*
X0269907Y0251554D02*
X0286648Y0251554D01*
X0288013Y0249955D02*
X0269907Y0249955D01*
X0262707Y0249955D02*
X0244601Y0249955D01*
X0244309Y0249663D02*
X0245800Y0251154D01*
X0246607Y0253102D01*
X0246607Y0255210D01*
X0245800Y0257158D01*
X0244309Y0258649D01*
X0243086Y0259156D01*
X0244309Y0259663D01*
X0245800Y0261154D01*
X0246607Y0263102D01*
X0246607Y0265210D01*
X0245800Y0267158D01*
X0244309Y0268649D01*
X0242361Y0269456D01*
X0240253Y0269456D01*
X0238305Y0268649D01*
X0236814Y0267158D01*
X0236007Y0265210D01*
X0236007Y0263102D01*
X0236814Y0261154D01*
X0238305Y0259663D01*
X0239529Y0259156D01*
X0238305Y0258649D01*
X0236814Y0257158D01*
X0236007Y0255210D01*
X0236007Y0253102D01*
X0236814Y0251154D01*
X0238305Y0249663D01*
X0240253Y0248856D01*
X0242361Y0248856D01*
X0244309Y0249663D01*
X0245966Y0251554D02*
X0262707Y0251554D01*
X0262707Y0253152D02*
X0246607Y0253152D01*
X0246607Y0254751D02*
X0262707Y0254751D01*
X0262707Y0256349D02*
X0246135Y0256349D01*
X0245011Y0257948D02*
X0262707Y0257948D01*
X0262707Y0259546D02*
X0244027Y0259546D01*
X0245791Y0261145D02*
X0262707Y0261145D01*
X0262707Y0262743D02*
X0246459Y0262743D01*
X0246607Y0264342D02*
X0262707Y0264342D01*
X0262707Y0265940D02*
X0246305Y0265940D01*
X0245420Y0267539D02*
X0262707Y0267539D01*
X0262707Y0269137D02*
X0243131Y0269137D01*
X0239483Y0269137D02*
X0124907Y0269137D01*
X0124907Y0267539D02*
X0237194Y0267539D01*
X0236309Y0265940D02*
X0124907Y0265940D01*
X0124907Y0264342D02*
X0236007Y0264342D01*
X0236156Y0262743D02*
X0124907Y0262743D01*
X0124907Y0261145D02*
X0236823Y0261145D01*
X0238587Y0259546D02*
X0124907Y0259546D01*
X0124907Y0257948D02*
X0237603Y0257948D01*
X0236479Y0256349D02*
X0124907Y0256349D01*
X0124907Y0254751D02*
X0236007Y0254751D01*
X0236007Y0253152D02*
X0124907Y0253152D01*
X0124907Y0251554D02*
X0236648Y0251554D01*
X0238013Y0249955D02*
X0124907Y0249955D01*
X0124907Y0248357D02*
X0262707Y0248357D01*
X0262707Y0246758D02*
X0124907Y0246758D01*
X0124907Y0245160D02*
X0262707Y0245160D01*
X0262707Y0243561D02*
X0124907Y0243561D01*
X0124907Y0241963D02*
X0262707Y0241963D01*
X0262707Y0240364D02*
X0124907Y0240364D01*
X0124907Y0238766D02*
X0262707Y0238766D01*
X0262707Y0237167D02*
X0124907Y0237167D01*
X0124907Y0235569D02*
X0262707Y0235569D01*
X0293535Y0233970D02*
X0297707Y0233970D01*
X0297707Y0232372D02*
X0295587Y0232372D01*
X0296374Y0230773D02*
X0297707Y0230773D01*
X0297707Y0229175D02*
X0296607Y0229175D01*
X0296389Y0227576D02*
X0297707Y0227576D01*
X0297707Y0225978D02*
X0295624Y0225978D01*
X0293624Y0224379D02*
X0297707Y0224379D01*
X0297707Y0222780D02*
X0295178Y0222780D01*
X0296205Y0221182D02*
X0297707Y0221182D01*
X0297707Y0219583D02*
X0296607Y0219583D01*
X0296559Y0217985D02*
X0297707Y0217985D01*
X0297707Y0216386D02*
X0295896Y0216386D01*
X0294907Y0214788D02*
X0297707Y0214788D01*
X0297707Y0213189D02*
X0294907Y0213189D01*
X0294907Y0211591D02*
X0297707Y0211591D01*
X0297707Y0209992D02*
X0294907Y0209992D01*
X0294907Y0208394D02*
X0297707Y0208394D01*
X0297707Y0206795D02*
X0294907Y0206795D01*
X0294907Y0205197D02*
X0297707Y0205197D01*
X0297707Y0203598D02*
X0294907Y0203598D01*
X0294907Y0202000D02*
X0297707Y0202000D01*
X0297707Y0200401D02*
X0294907Y0200401D01*
X0294907Y0198803D02*
X0297707Y0198803D01*
X0297707Y0197204D02*
X0294907Y0197204D01*
X0294949Y0195606D02*
X0297707Y0195606D01*
X0297707Y0194007D02*
X0296547Y0194007D01*
X0302350Y0178022D02*
X0269907Y0178022D01*
X0269907Y0176424D02*
X0303948Y0176424D01*
X0305547Y0174825D02*
X0269907Y0174825D01*
X0262707Y0162037D02*
X0245850Y0162037D01*
X0246513Y0160439D02*
X0262707Y0160439D01*
X0262707Y0158840D02*
X0246607Y0158840D01*
X0246251Y0157242D02*
X0262707Y0157242D01*
X0262707Y0155643D02*
X0245289Y0155643D01*
X0244907Y0154045D02*
X0262707Y0154045D01*
X0262707Y0152446D02*
X0244907Y0152446D01*
X0244907Y0150847D02*
X0262707Y0150847D01*
X0262707Y0149249D02*
X0244907Y0149249D01*
X0244907Y0147650D02*
X0262707Y0147650D01*
X0262707Y0146052D02*
X0244907Y0146052D01*
X0244907Y0144453D02*
X0262707Y0144453D01*
X0262707Y0142855D02*
X0244907Y0142855D01*
X0244907Y0141256D02*
X0262707Y0141256D01*
X0262707Y0139658D02*
X0244907Y0139658D01*
X0244907Y0138059D02*
X0262707Y0138059D01*
X0262707Y0136461D02*
X0246089Y0136461D01*
X0246607Y0134862D02*
X0262707Y0134862D01*
X0262707Y0133264D02*
X0246607Y0133264D01*
X0246012Y0131665D02*
X0262707Y0131665D01*
X0262707Y0130067D02*
X0244713Y0130067D01*
X0244490Y0128468D02*
X0262707Y0128468D01*
X0262707Y0126870D02*
X0245920Y0126870D01*
X0246582Y0125271D02*
X0262707Y0125271D01*
X0262707Y0123673D02*
X0246607Y0123673D01*
X0246181Y0122074D02*
X0262707Y0122074D01*
X0262707Y0120476D02*
X0245122Y0120476D01*
X0244907Y0118877D02*
X0262707Y0118877D01*
X0262707Y0117279D02*
X0244907Y0117279D01*
X0244907Y0115680D02*
X0262707Y0115680D01*
X0262707Y0114082D02*
X0244907Y0114082D01*
X0244907Y0112483D02*
X0262707Y0112483D01*
X0262707Y0110885D02*
X0244907Y0110885D01*
X0244907Y0109286D02*
X0262707Y0109286D01*
X0262707Y0107688D02*
X0244907Y0107688D01*
X0244907Y0106089D02*
X0262707Y0106089D01*
X0262707Y0104491D02*
X0244907Y0104491D01*
X0245066Y0102892D02*
X0262707Y0102892D01*
X0262707Y0101294D02*
X0246158Y0101294D01*
X0246607Y0099695D02*
X0262707Y0099695D01*
X0262707Y0098097D02*
X0246605Y0098097D01*
X0245943Y0096498D02*
X0262707Y0096498D01*
X0262707Y0094900D02*
X0244546Y0094900D01*
X0244657Y0093301D02*
X0262707Y0093301D01*
X0262707Y0091703D02*
X0245989Y0091703D01*
X0246607Y0090104D02*
X0262707Y0090104D01*
X0262707Y0088506D02*
X0246607Y0088506D01*
X0246112Y0086907D02*
X0262707Y0086907D01*
X0262707Y0085309D02*
X0244955Y0085309D01*
X0262784Y0072520D02*
X0194763Y0072520D01*
X0192906Y0070922D02*
X0264053Y0070922D01*
X0268562Y0070922D02*
X0282982Y0070922D01*
X0284580Y0072520D02*
X0269830Y0072520D01*
X0270188Y0074119D02*
X0286179Y0074119D01*
X0287777Y0075717D02*
X0269907Y0075717D01*
X0269907Y0077316D02*
X0289376Y0077316D01*
X0290974Y0078914D02*
X0269907Y0078914D01*
X0269907Y0080513D02*
X0292573Y0080513D01*
X0294171Y0082112D02*
X0269907Y0082112D01*
X0281383Y0069323D02*
X0217682Y0069323D01*
X0217361Y0069456D02*
X0215253Y0069456D01*
X0213305Y0068649D01*
X0211814Y0067158D01*
X0211307Y0065935D01*
X0210800Y0067158D01*
X0209309Y0068649D01*
X0207361Y0069456D01*
X0205253Y0069456D01*
X0203305Y0068649D01*
X0201814Y0067158D01*
X0201007Y0065210D01*
X0201007Y0063102D01*
X0201814Y0061154D01*
X0203305Y0059663D01*
X0205253Y0058856D01*
X0207361Y0058856D01*
X0209309Y0059663D01*
X0210800Y0061154D01*
X0211307Y0062378D01*
X0211814Y0061154D01*
X0213305Y0059663D01*
X0215253Y0058856D01*
X0217361Y0058856D01*
X0219309Y0059663D01*
X0220800Y0061154D01*
X0221607Y0063102D01*
X0221607Y0065210D01*
X0220800Y0067158D01*
X0219309Y0068649D01*
X0217361Y0069456D01*
X0214932Y0069323D02*
X0207682Y0069323D01*
X0204932Y0069323D02*
X0182682Y0069323D01*
X0182361Y0069456D02*
X0180253Y0069456D01*
X0178305Y0068649D01*
X0176814Y0067158D01*
X0176307Y0065935D01*
X0175800Y0067158D01*
X0174309Y0068649D01*
X0172361Y0069456D01*
X0170253Y0069456D01*
X0168305Y0068649D01*
X0166814Y0067158D01*
X0166007Y0065210D01*
X0166007Y0063102D01*
X0166814Y0061154D01*
X0168305Y0059663D01*
X0170253Y0058856D01*
X0172361Y0058856D01*
X0174309Y0059663D01*
X0175800Y0061154D01*
X0176307Y0062378D01*
X0176814Y0061154D01*
X0178305Y0059663D01*
X0180253Y0058856D01*
X0182361Y0058856D01*
X0184309Y0059663D01*
X0185800Y0061154D01*
X0186607Y0063102D01*
X0186607Y0065210D01*
X0185800Y0067158D01*
X0184309Y0068649D01*
X0182361Y0069456D01*
X0179932Y0069323D02*
X0172682Y0069323D01*
X0169932Y0069323D02*
X0147682Y0069323D01*
X0150234Y0067725D02*
X0167380Y0067725D01*
X0166387Y0066126D02*
X0151228Y0066126D01*
X0151607Y0064528D02*
X0166007Y0064528D01*
X0166079Y0062929D02*
X0151536Y0062929D01*
X0150873Y0061331D02*
X0166741Y0061331D01*
X0168236Y0059732D02*
X0149379Y0059732D01*
X0143236Y0059732D02*
X0139379Y0059732D01*
X0140873Y0061331D02*
X0141741Y0061331D01*
X0133236Y0059732D02*
X0120822Y0059732D01*
X0122421Y0058134D02*
X0270194Y0058134D01*
X0271792Y0059732D02*
X0219379Y0059732D01*
X0220873Y0061331D02*
X0273391Y0061331D01*
X0274989Y0062929D02*
X0221536Y0062929D01*
X0221607Y0064528D02*
X0276588Y0064528D01*
X0278186Y0066126D02*
X0221228Y0066126D01*
X0220234Y0067725D02*
X0279785Y0067725D01*
X0310748Y0088506D02*
X0327707Y0088506D01*
X0327707Y0090104D02*
X0312346Y0090104D01*
X0313945Y0091703D02*
X0327707Y0091703D01*
X0327707Y0093301D02*
X0315543Y0093301D01*
X0317142Y0094900D02*
X0327718Y0094900D01*
X0328558Y0096498D02*
X0318740Y0096498D01*
X0319765Y0098097D02*
X0330156Y0098097D01*
X0331755Y0099695D02*
X0319907Y0099695D01*
X0319907Y0101294D02*
X0333353Y0101294D01*
X0333255Y0101195D02*
X0333255Y0101195D01*
X0336429Y0102892D02*
X0319907Y0102892D01*
X0319907Y0104491D02*
X0377707Y0104491D01*
X0377707Y0106089D02*
X0376863Y0106089D01*
X0377707Y0102892D02*
X0375626Y0102892D01*
X0377332Y0101294D02*
X0377707Y0101294D01*
X0371307Y0101294D02*
X0371307Y0101294D01*
X0371307Y0102892D02*
X0371307Y0102892D01*
X0371307Y0103356D02*
X0371307Y0099156D01*
X0371307Y0103356D01*
X0371307Y0099695D02*
X0371307Y0099695D01*
X0371307Y0099156D02*
X0371307Y0099156D01*
X0371307Y0098097D02*
X0371307Y0098097D01*
X0371307Y0096498D02*
X0371307Y0096498D01*
X0371221Y0093301D02*
X0371393Y0093301D01*
X0371393Y0091703D02*
X0371221Y0091703D01*
X0371221Y0090104D02*
X0371393Y0090104D01*
X0371393Y0088506D02*
X0371221Y0088506D01*
X0371221Y0086907D02*
X0371393Y0086907D01*
X0371393Y0085309D02*
X0371221Y0085309D01*
X0384907Y0085309D02*
X0392377Y0085309D01*
X0392112Y0085573D02*
X0392724Y0084961D01*
X0393424Y0084452D01*
X0394196Y0084059D01*
X0395019Y0083792D01*
X0395874Y0083656D01*
X0396107Y0083656D01*
X0396107Y0088956D01*
X0396507Y0088956D01*
X0396507Y0083656D01*
X0396740Y0083656D01*
X0397595Y0083792D01*
X0398418Y0084059D01*
X0399190Y0084452D01*
X0399890Y0084961D01*
X0400502Y0085573D01*
X0401011Y0086274D01*
X0401404Y0087045D01*
X0401672Y0087868D01*
X0401807Y0088723D01*
X0401807Y0088956D01*
X0396507Y0088956D01*
X0396507Y0089356D01*
X0401807Y0089356D01*
X0401807Y0089589D01*
X0401672Y0090444D01*
X0401404Y0091267D01*
X0401011Y0092039D01*
X0400502Y0092739D01*
X0399890Y0093351D01*
X0399190Y0093860D01*
X0398843Y0094037D01*
X0399536Y0094324D01*
X0401139Y0095927D01*
X0402007Y0098022D01*
X0402007Y0100290D01*
X0401139Y0102385D01*
X0399536Y0103988D01*
X0399131Y0104156D01*
X0399536Y0104324D01*
X0401139Y0105927D01*
X0402007Y0108022D01*
X0402007Y0110290D01*
X0401139Y0112385D01*
X0399536Y0113988D01*
X0399131Y0114156D01*
X0399536Y0114324D01*
X0401139Y0115927D01*
X0402007Y0118022D01*
X0402007Y0120290D01*
X0401139Y0122385D01*
X0399536Y0123988D01*
X0399131Y0124156D01*
X0399536Y0124324D01*
X0401139Y0125927D01*
X0402007Y0128022D01*
X0402007Y0130290D01*
X0401139Y0132385D01*
X0399536Y0133988D01*
X0399131Y0134156D01*
X0399536Y0134324D01*
X0401139Y0135927D01*
X0402007Y0138022D01*
X0402007Y0140290D01*
X0401139Y0142385D01*
X0399536Y0143988D01*
X0399131Y0144156D01*
X0399536Y0144324D01*
X0401139Y0145927D01*
X0402007Y0148022D01*
X0402007Y0150290D01*
X0401139Y0152385D01*
X0399536Y0153988D01*
X0397441Y0154856D01*
X0395173Y0154856D01*
X0393078Y0153988D01*
X0391475Y0152385D01*
X0390607Y0150290D01*
X0390607Y0148022D01*
X0391475Y0145927D01*
X0393078Y0144324D01*
X0393483Y0144156D01*
X0393078Y0143988D01*
X0391475Y0142385D01*
X0390607Y0140290D01*
X0390607Y0138022D01*
X0391475Y0135927D01*
X0393078Y0134324D01*
X0393483Y0134156D01*
X0393078Y0133988D01*
X0391475Y0132385D01*
X0390607Y0130290D01*
X0390607Y0128022D01*
X0391475Y0125927D01*
X0393078Y0124324D01*
X0393483Y0124156D01*
X0393078Y0123988D01*
X0391475Y0122385D01*
X0390607Y0120290D01*
X0390607Y0118022D01*
X0391475Y0115927D01*
X0393078Y0114324D01*
X0393483Y0114156D01*
X0393078Y0113988D01*
X0391475Y0112385D01*
X0390607Y0110290D01*
X0390607Y0108022D01*
X0391475Y0105927D01*
X0393078Y0104324D01*
X0393483Y0104156D01*
X0393078Y0103988D01*
X0391475Y0102385D01*
X0390607Y0100290D01*
X0390607Y0098022D01*
X0391475Y0095927D01*
X0393078Y0094324D01*
X0393771Y0094037D01*
X0393424Y0093860D01*
X0392724Y0093351D01*
X0392112Y0092739D01*
X0391603Y0092039D01*
X0391210Y0091267D01*
X0390943Y0090444D01*
X0390807Y0089589D01*
X0390807Y0089356D01*
X0396107Y0089356D01*
X0396107Y0088956D01*
X0390807Y0088956D01*
X0390807Y0088723D01*
X0390943Y0087868D01*
X0391210Y0087045D01*
X0391603Y0086274D01*
X0392112Y0085573D01*
X0391280Y0086907D02*
X0384907Y0086907D01*
X0384907Y0088506D02*
X0390842Y0088506D01*
X0390889Y0090104D02*
X0384907Y0090104D01*
X0384907Y0091703D02*
X0391432Y0091703D01*
X0392674Y0093301D02*
X0384907Y0093301D01*
X0384907Y0094900D02*
X0392503Y0094900D01*
X0391238Y0096498D02*
X0384907Y0096498D01*
X0384907Y0098097D02*
X0390607Y0098097D01*
X0390607Y0099695D02*
X0384907Y0099695D01*
X0384907Y0101294D02*
X0391023Y0101294D01*
X0391982Y0102892D02*
X0384907Y0102892D01*
X0384907Y0104491D02*
X0392912Y0104491D01*
X0391408Y0106089D02*
X0384907Y0106089D01*
X0384907Y0107688D02*
X0390746Y0107688D01*
X0390607Y0109286D02*
X0384907Y0109286D01*
X0384907Y0110885D02*
X0390853Y0110885D01*
X0391573Y0112483D02*
X0384907Y0112483D01*
X0384907Y0114082D02*
X0393304Y0114082D01*
X0391722Y0115680D02*
X0384907Y0115680D01*
X0384907Y0117279D02*
X0390915Y0117279D01*
X0390607Y0118877D02*
X0384907Y0118877D01*
X0384907Y0120476D02*
X0390684Y0120476D01*
X0391346Y0122074D02*
X0384907Y0122074D01*
X0384907Y0123673D02*
X0392763Y0123673D01*
X0392131Y0125271D02*
X0384907Y0125271D01*
X0384907Y0126870D02*
X0391084Y0126870D01*
X0390607Y0128468D02*
X0384907Y0128468D01*
X0384907Y0130067D02*
X0390607Y0130067D01*
X0391177Y0131665D02*
X0384907Y0131665D01*
X0384907Y0133264D02*
X0392354Y0133264D01*
X0392540Y0134862D02*
X0384907Y0134862D01*
X0384094Y0136461D02*
X0391254Y0136461D01*
X0390607Y0138059D02*
X0382495Y0138059D01*
X0380896Y0139658D02*
X0390607Y0139658D01*
X0391007Y0141256D02*
X0379298Y0141256D01*
X0376231Y0142855D02*
X0391945Y0142855D01*
X0392949Y0144453D02*
X0336696Y0144453D01*
X0336383Y0142855D02*
X0335097Y0142855D01*
X0329710Y0147650D02*
X0294907Y0147650D01*
X0294907Y0146052D02*
X0328112Y0146052D01*
X0326513Y0144453D02*
X0294907Y0144453D01*
X0294907Y0142855D02*
X0324915Y0142855D01*
X0323316Y0141256D02*
X0294907Y0141256D01*
X0294907Y0139658D02*
X0321718Y0139658D01*
X0320119Y0138059D02*
X0294907Y0138059D01*
X0296089Y0136461D02*
X0318521Y0136461D01*
X0316922Y0134862D02*
X0296607Y0134862D01*
X0296607Y0133264D02*
X0315324Y0133264D01*
X0313725Y0131665D02*
X0296012Y0131665D01*
X0294713Y0130067D02*
X0312127Y0130067D01*
X0310528Y0128468D02*
X0294490Y0128468D01*
X0295920Y0126870D02*
X0308930Y0126870D01*
X0321119Y0118877D02*
X0334507Y0118877D01*
X0334691Y0120476D02*
X0322718Y0120476D01*
X0324316Y0122074D02*
X0335603Y0122074D01*
X0336788Y0125271D02*
X0327513Y0125271D01*
X0325915Y0123673D02*
X0377707Y0123673D01*
X0377707Y0125271D02*
X0375826Y0125271D01*
X0377523Y0126870D02*
X0377707Y0126870D01*
X0377707Y0122074D02*
X0377011Y0122074D01*
X0377692Y0117279D02*
X0377707Y0117279D01*
X0377707Y0115680D02*
X0376454Y0115680D01*
X0377707Y0114082D02*
X0319907Y0114082D01*
X0319907Y0115680D02*
X0336160Y0115680D01*
X0334922Y0117279D02*
X0319907Y0117279D01*
X0319907Y0112483D02*
X0336012Y0112483D01*
X0334861Y0110885D02*
X0319907Y0110885D01*
X0319907Y0109286D02*
X0334507Y0109286D01*
X0334753Y0107688D02*
X0319907Y0107688D01*
X0319907Y0106089D02*
X0335752Y0106089D01*
X0335092Y0126870D02*
X0329112Y0126870D01*
X0330710Y0128468D02*
X0334507Y0128468D01*
X0334522Y0130067D02*
X0332309Y0130067D01*
X0333907Y0131665D02*
X0335194Y0131665D01*
X0335506Y0133264D02*
X0337326Y0133264D01*
X0337104Y0134862D02*
X0337775Y0134862D01*
X0331309Y0149249D02*
X0294907Y0149249D01*
X0294907Y0150847D02*
X0332907Y0150847D01*
X0334842Y0152446D02*
X0294907Y0152446D01*
X0294907Y0154045D02*
X0381104Y0154045D01*
X0382703Y0155643D02*
X0376416Y0155643D01*
X0377677Y0157242D02*
X0384301Y0157242D01*
X0385900Y0158840D02*
X0378107Y0158840D01*
X0377938Y0160439D02*
X0387498Y0160439D01*
X0389097Y0162037D02*
X0377049Y0162037D01*
X0375736Y0165234D02*
X0417734Y0165234D01*
X0416533Y0166833D02*
X0389075Y0166833D01*
X0390673Y0168431D02*
X0416007Y0168431D01*
X0416007Y0170030D02*
X0392272Y0170030D01*
X0393870Y0171628D02*
X0416594Y0171628D01*
X0417882Y0173227D02*
X0395469Y0173227D01*
X0393214Y0154045D02*
X0391287Y0154045D01*
X0391536Y0152446D02*
X0389688Y0152446D01*
X0390838Y0150847D02*
X0388090Y0150847D01*
X0386491Y0149249D02*
X0390607Y0149249D01*
X0390761Y0147650D02*
X0384893Y0147650D01*
X0383220Y0146052D02*
X0391423Y0146052D01*
X0399665Y0144453D02*
X0407707Y0144453D01*
X0407707Y0142855D02*
X0400669Y0142855D01*
X0401607Y0141256D02*
X0407707Y0141256D01*
X0407707Y0139658D02*
X0402007Y0139658D01*
X0402007Y0138059D02*
X0407707Y0138059D01*
X0407707Y0136461D02*
X0401360Y0136461D01*
X0400074Y0134862D02*
X0407707Y0134862D01*
X0407707Y0133264D02*
X0400260Y0133264D01*
X0401437Y0131665D02*
X0407707Y0131665D01*
X0407707Y0130067D02*
X0402007Y0130067D01*
X0402007Y0128468D02*
X0407707Y0128468D01*
X0407707Y0126870D02*
X0401530Y0126870D01*
X0400483Y0125271D02*
X0407707Y0125271D01*
X0407707Y0123673D02*
X0399851Y0123673D01*
X0401268Y0122074D02*
X0407707Y0122074D01*
X0407707Y0120476D02*
X0401930Y0120476D01*
X0402007Y0118877D02*
X0407707Y0118877D01*
X0407707Y0117279D02*
X0401699Y0117279D01*
X0400892Y0115680D02*
X0407707Y0115680D01*
X0407707Y0114082D02*
X0399311Y0114082D01*
X0401041Y0112483D02*
X0407707Y0112483D01*
X0407707Y0110885D02*
X0401761Y0110885D01*
X0402007Y0109286D02*
X0407707Y0109286D01*
X0407707Y0107688D02*
X0401868Y0107688D01*
X0401206Y0106089D02*
X0407707Y0106089D01*
X0407707Y0104491D02*
X0399703Y0104491D01*
X0400632Y0102892D02*
X0407707Y0102892D01*
X0407707Y0101294D02*
X0401591Y0101294D01*
X0402007Y0099695D02*
X0407707Y0099695D01*
X0407849Y0098097D02*
X0402007Y0098097D01*
X0401376Y0096498D02*
X0408874Y0096498D01*
X0410472Y0094900D02*
X0400112Y0094900D01*
X0399940Y0093301D02*
X0412071Y0093301D01*
X0413670Y0091703D02*
X0401182Y0091703D01*
X0401726Y0090104D02*
X0415268Y0090104D01*
X0416007Y0088506D02*
X0401773Y0088506D01*
X0401334Y0086907D02*
X0416502Y0086907D01*
X0417659Y0085309D02*
X0400238Y0085309D01*
X0397080Y0083710D02*
X0437708Y0083710D01*
X0437708Y0082112D02*
X0384907Y0082112D01*
X0384907Y0083710D02*
X0395534Y0083710D01*
X0396107Y0083710D02*
X0396507Y0083710D01*
X0396507Y0085309D02*
X0396107Y0085309D01*
X0396107Y0086907D02*
X0396507Y0086907D01*
X0396507Y0088506D02*
X0396107Y0088506D01*
X0384907Y0080513D02*
X0437708Y0080513D01*
X0437708Y0078914D02*
X0384907Y0078914D01*
X0384907Y0077316D02*
X0437708Y0077316D01*
X0437708Y0075717D02*
X0384907Y0075717D01*
X0384907Y0074119D02*
X0437708Y0074119D01*
X0437708Y0072520D02*
X0384526Y0072520D01*
X0383164Y0070922D02*
X0437708Y0070922D01*
X0437708Y0069323D02*
X0397682Y0069323D01*
X0397361Y0069456D02*
X0395253Y0069456D01*
X0393305Y0068649D01*
X0391814Y0067158D01*
X0391307Y0065935D01*
X0390800Y0067158D01*
X0389309Y0068649D01*
X0387361Y0069456D01*
X0385253Y0069456D01*
X0383305Y0068649D01*
X0381814Y0067158D01*
X0381007Y0065210D01*
X0381007Y0063102D01*
X0381814Y0061154D01*
X0383305Y0059663D01*
X0385253Y0058856D01*
X0387361Y0058856D01*
X0389309Y0059663D01*
X0390800Y0061154D01*
X0391307Y0062378D01*
X0391814Y0061154D01*
X0393305Y0059663D01*
X0395253Y0058856D01*
X0397361Y0058856D01*
X0399309Y0059663D01*
X0400800Y0061154D01*
X0401607Y0063102D01*
X0401607Y0065210D01*
X0400800Y0067158D01*
X0399309Y0068649D01*
X0397361Y0069456D01*
X0394932Y0069323D02*
X0387682Y0069323D01*
X0384932Y0069323D02*
X0381566Y0069323D01*
X0382380Y0067725D02*
X0379967Y0067725D01*
X0381387Y0066126D02*
X0378368Y0066126D01*
X0376770Y0064528D02*
X0381007Y0064528D01*
X0381079Y0062929D02*
X0375171Y0062929D01*
X0373573Y0061331D02*
X0381741Y0061331D01*
X0383236Y0059732D02*
X0371974Y0059732D01*
X0370376Y0058134D02*
X0413206Y0058134D01*
X0412179Y0056535D02*
X0368777Y0056535D01*
X0367179Y0054937D02*
X0411395Y0054937D01*
X0410832Y0053338D02*
X0365580Y0053338D01*
X0363982Y0051740D02*
X0410556Y0051740D01*
X0410449Y0050141D02*
X0075866Y0050141D01*
X0075866Y0048543D02*
X0410449Y0048543D01*
X0410449Y0046944D02*
X0075866Y0046944D01*
X0075866Y0045346D02*
X0410449Y0045346D01*
X0410449Y0043747D02*
X0075866Y0043747D01*
X0075866Y0042149D02*
X0410449Y0042149D01*
X0410449Y0040550D02*
X0075866Y0040550D01*
X0075866Y0038952D02*
X0410449Y0038952D01*
X0410449Y0037353D02*
X0075866Y0037353D01*
X0075759Y0051740D02*
X0118632Y0051740D01*
X0117034Y0053338D02*
X0075483Y0053338D01*
X0074920Y0054937D02*
X0115435Y0054937D01*
X0113837Y0056535D02*
X0074136Y0056535D01*
X0073109Y0058134D02*
X0112238Y0058134D01*
X0110640Y0059732D02*
X0071716Y0059732D01*
X0069884Y0061331D02*
X0109041Y0061331D01*
X0107443Y0062929D02*
X0066672Y0062929D01*
X0048807Y0064528D02*
X0105844Y0064528D01*
X0104246Y0066126D02*
X0048807Y0066126D01*
X0048807Y0067725D02*
X0102647Y0067725D01*
X0101049Y0069323D02*
X0048807Y0069323D01*
X0048807Y0070922D02*
X0099450Y0070922D01*
X0097852Y0072520D02*
X0048807Y0072520D01*
X0048807Y0074119D02*
X0096253Y0074119D01*
X0094655Y0075717D02*
X0048807Y0075717D01*
X0048807Y0077316D02*
X0093056Y0077316D01*
X0091458Y0078914D02*
X0048807Y0078914D01*
X0048807Y0080513D02*
X0089859Y0080513D01*
X0088261Y0082112D02*
X0048807Y0082112D01*
X0048807Y0083710D02*
X0086662Y0083710D01*
X0085064Y0085309D02*
X0048807Y0085309D01*
X0048807Y0086907D02*
X0083465Y0086907D01*
X0081867Y0088506D02*
X0048807Y0088506D01*
X0048807Y0090104D02*
X0080268Y0090104D01*
X0078670Y0091703D02*
X0048807Y0091703D01*
X0048807Y0093301D02*
X0077071Y0093301D01*
X0075472Y0094900D02*
X0048807Y0094900D01*
X0048807Y0096498D02*
X0073874Y0096498D01*
X0072275Y0098097D02*
X0048807Y0098097D01*
X0048807Y0099695D02*
X0070677Y0099695D01*
X0069078Y0101294D02*
X0048807Y0101294D01*
X0048807Y0102892D02*
X0067480Y0102892D01*
X0065881Y0104491D02*
X0048807Y0104491D01*
X0048807Y0106089D02*
X0064283Y0106089D01*
X0063019Y0107688D02*
X0048807Y0107688D01*
X0048807Y0109286D02*
X0062707Y0109286D01*
X0062707Y0110885D02*
X0048807Y0110885D01*
X0048807Y0112483D02*
X0062707Y0112483D01*
X0062707Y0114082D02*
X0048807Y0114082D01*
X0048807Y0115680D02*
X0062707Y0115680D01*
X0062707Y0117279D02*
X0048807Y0117279D01*
X0048807Y0118877D02*
X0062707Y0118877D01*
X0062492Y0120476D02*
X0048807Y0120476D01*
X0048807Y0122074D02*
X0061433Y0122074D01*
X0061007Y0123673D02*
X0048807Y0123673D01*
X0048807Y0125271D02*
X0061032Y0125271D01*
X0061694Y0126870D02*
X0048807Y0126870D01*
X0048807Y0128468D02*
X0063124Y0128468D01*
X0062901Y0130067D02*
X0048807Y0130067D01*
X0048807Y0131665D02*
X0061602Y0131665D01*
X0061007Y0133264D02*
X0048807Y0133264D01*
X0048807Y0134862D02*
X0061007Y0134862D01*
X0061525Y0136461D02*
X0048807Y0136461D01*
X0048807Y0138059D02*
X0062715Y0138059D01*
X0069899Y0138059D02*
X0107715Y0138059D01*
X0108305Y0138649D02*
X0106814Y0137158D01*
X0106007Y0135210D01*
X0106007Y0133102D01*
X0106814Y0131154D01*
X0108305Y0129663D01*
X0109529Y0129156D01*
X0108305Y0128649D01*
X0106814Y0127158D01*
X0106007Y0125210D01*
X0106007Y0123102D01*
X0106814Y0121154D01*
X0108305Y0119663D01*
X0110253Y0118856D01*
X0112361Y0118856D01*
X0114309Y0119663D01*
X0115800Y0121154D01*
X0116607Y0123102D01*
X0116607Y0125210D01*
X0115800Y0127158D01*
X0114309Y0128649D01*
X0113086Y0129156D01*
X0114309Y0129663D01*
X0115800Y0131154D01*
X0116607Y0133102D01*
X0116607Y0135210D01*
X0115800Y0137158D01*
X0114309Y0138649D01*
X0112361Y0139456D01*
X0110253Y0139456D01*
X0108305Y0138649D01*
X0106525Y0136461D02*
X0071089Y0136461D01*
X0071607Y0134862D02*
X0106007Y0134862D01*
X0106007Y0133264D02*
X0071607Y0133264D01*
X0071012Y0131665D02*
X0106602Y0131665D01*
X0107901Y0130067D02*
X0069713Y0130067D01*
X0069490Y0128468D02*
X0108124Y0128468D01*
X0106694Y0126870D02*
X0070920Y0126870D01*
X0071582Y0125271D02*
X0106032Y0125271D01*
X0106007Y0123673D02*
X0071607Y0123673D01*
X0071181Y0122074D02*
X0106433Y0122074D01*
X0107492Y0120476D02*
X0070122Y0120476D01*
X0069907Y0118877D02*
X0110202Y0118877D01*
X0112412Y0118877D02*
X0130607Y0118877D01*
X0130607Y0118022D02*
X0131475Y0115927D01*
X0133078Y0114324D01*
X0133483Y0114156D01*
X0133078Y0113988D01*
X0131475Y0112385D01*
X0130607Y0110290D01*
X0130607Y0108022D01*
X0131475Y0105927D01*
X0133078Y0104324D01*
X0133483Y0104156D01*
X0133078Y0103988D01*
X0131475Y0102385D01*
X0130607Y0100290D01*
X0130607Y0098022D01*
X0131475Y0095927D01*
X0133078Y0094324D01*
X0133771Y0094037D01*
X0133424Y0093860D01*
X0132724Y0093351D01*
X0132112Y0092739D01*
X0131603Y0092039D01*
X0131210Y0091267D01*
X0130943Y0090444D01*
X0130807Y0089589D01*
X0130807Y0089356D01*
X0136107Y0089356D01*
X0136107Y0088956D01*
X0136507Y0088956D01*
X0136507Y0083656D01*
X0136740Y0083656D01*
X0137595Y0083792D01*
X0138418Y0084059D01*
X0139190Y0084452D01*
X0139890Y0084961D01*
X0140502Y0085573D01*
X0141011Y0086274D01*
X0141404Y0087045D01*
X0141672Y0087868D01*
X0141807Y0088723D01*
X0141807Y0088956D01*
X0136507Y0088956D01*
X0136507Y0089356D01*
X0141807Y0089356D01*
X0141807Y0089589D01*
X0141672Y0090444D01*
X0141404Y0091267D01*
X0141011Y0092039D01*
X0140502Y0092739D01*
X0139890Y0093351D01*
X0139190Y0093860D01*
X0138843Y0094037D01*
X0139536Y0094324D01*
X0141139Y0095927D01*
X0142007Y0098022D01*
X0142007Y0100290D01*
X0141139Y0102385D01*
X0139536Y0103988D01*
X0139131Y0104156D01*
X0139536Y0104324D01*
X0141139Y0105927D01*
X0142007Y0108022D01*
X0142007Y0110290D01*
X0141139Y0112385D01*
X0139536Y0113988D01*
X0139131Y0114156D01*
X0139536Y0114324D01*
X0141139Y0115927D01*
X0142007Y0118022D01*
X0142007Y0120290D01*
X0141139Y0122385D01*
X0139536Y0123988D01*
X0139131Y0124156D01*
X0139536Y0124324D01*
X0141139Y0125927D01*
X0142007Y0128022D01*
X0142007Y0130290D01*
X0141139Y0132385D01*
X0139536Y0133988D01*
X0139131Y0134156D01*
X0139536Y0134324D01*
X0141139Y0135927D01*
X0142007Y0138022D01*
X0142007Y0140290D01*
X0141139Y0142385D01*
X0139536Y0143988D01*
X0139131Y0144156D01*
X0139536Y0144324D01*
X0141139Y0145927D01*
X0142007Y0148022D01*
X0142007Y0150290D01*
X0141139Y0152385D01*
X0139536Y0153988D01*
X0137441Y0154856D01*
X0135698Y0154856D01*
X0118346Y0172208D01*
X0117023Y0172756D01*
X0115202Y0172756D01*
X0114309Y0173649D01*
X0112361Y0174456D01*
X0110253Y0174456D01*
X0108305Y0173649D01*
X0106814Y0172158D01*
X0106007Y0170210D01*
X0106007Y0168102D01*
X0106814Y0166154D01*
X0108305Y0164663D01*
X0109529Y0164156D01*
X0108305Y0163649D01*
X0106814Y0162158D01*
X0106007Y0160210D01*
X0106007Y0158102D01*
X0106814Y0156154D01*
X0108305Y0154663D01*
X0110253Y0153856D01*
X0112361Y0153856D01*
X0114309Y0154663D01*
X0115800Y0156154D01*
X0116607Y0158102D01*
X0116607Y0160210D01*
X0115800Y0162158D01*
X0114309Y0163649D01*
X0113086Y0164156D01*
X0114309Y0164663D01*
X0115009Y0165363D01*
X0130607Y0149765D01*
X0130607Y0148022D01*
X0131475Y0145927D01*
X0133078Y0144324D01*
X0133483Y0144156D01*
X0133078Y0143988D01*
X0131475Y0142385D01*
X0130607Y0140290D01*
X0130607Y0138022D01*
X0131475Y0135927D01*
X0133078Y0134324D01*
X0133483Y0134156D01*
X0133078Y0133988D01*
X0131475Y0132385D01*
X0130607Y0130290D01*
X0130607Y0128022D01*
X0131475Y0125927D01*
X0133078Y0124324D01*
X0133483Y0124156D01*
X0133078Y0123988D01*
X0131475Y0122385D01*
X0130607Y0120290D01*
X0130607Y0118022D01*
X0130915Y0117279D02*
X0069907Y0117279D01*
X0069907Y0115680D02*
X0131722Y0115680D01*
X0133304Y0114082D02*
X0069907Y0114082D01*
X0069907Y0112483D02*
X0131573Y0112483D01*
X0130853Y0110885D02*
X0069907Y0110885D01*
X0071268Y0109286D02*
X0130607Y0109286D01*
X0130746Y0107688D02*
X0072867Y0107688D01*
X0074465Y0106089D02*
X0131408Y0106089D01*
X0132912Y0104491D02*
X0076064Y0104491D01*
X0077662Y0102892D02*
X0107548Y0102892D01*
X0106814Y0102158D02*
X0108305Y0103649D01*
X0110253Y0104456D01*
X0112361Y0104456D01*
X0114309Y0103649D01*
X0115800Y0102158D01*
X0116607Y0100210D01*
X0116607Y0098102D01*
X0115800Y0096154D01*
X0114309Y0094663D01*
X0113086Y0094156D01*
X0114309Y0093649D01*
X0115800Y0092158D01*
X0116607Y0090210D01*
X0116607Y0088102D01*
X0115800Y0086154D01*
X0114309Y0084663D01*
X0112361Y0083856D01*
X0110253Y0083856D01*
X0108305Y0084663D01*
X0106814Y0086154D01*
X0106007Y0088102D01*
X0106007Y0090210D01*
X0106814Y0092158D01*
X0108305Y0093649D01*
X0109529Y0094156D01*
X0108305Y0094663D01*
X0106814Y0096154D01*
X0106007Y0098102D01*
X0106007Y0100210D01*
X0106814Y0102158D01*
X0106456Y0101294D02*
X0079261Y0101294D01*
X0080859Y0099695D02*
X0106007Y0099695D01*
X0106009Y0098097D02*
X0082458Y0098097D01*
X0084056Y0096498D02*
X0106671Y0096498D01*
X0108068Y0094900D02*
X0085655Y0094900D01*
X0087253Y0093301D02*
X0107957Y0093301D01*
X0106625Y0091703D02*
X0088852Y0091703D01*
X0090450Y0090104D02*
X0106007Y0090104D01*
X0106007Y0088506D02*
X0092049Y0088506D01*
X0093647Y0086907D02*
X0106502Y0086907D01*
X0107659Y0085309D02*
X0095246Y0085309D01*
X0096844Y0083710D02*
X0135534Y0083710D01*
X0135874Y0083656D02*
X0136107Y0083656D01*
X0136107Y0088956D01*
X0130807Y0088956D01*
X0130807Y0088723D01*
X0130943Y0087868D01*
X0131210Y0087045D01*
X0131603Y0086274D01*
X0132112Y0085573D01*
X0132724Y0084961D01*
X0133424Y0084452D01*
X0134196Y0084059D01*
X0135019Y0083792D01*
X0135874Y0083656D01*
X0136107Y0083710D02*
X0136507Y0083710D01*
X0137080Y0083710D02*
X0159560Y0083710D01*
X0160173Y0083456D02*
X0162441Y0083456D01*
X0164536Y0084324D01*
X0166139Y0085927D01*
X0167007Y0088022D01*
X0167007Y0090290D01*
X0166139Y0092385D01*
X0164536Y0093988D01*
X0162682Y0094756D01*
X0164582Y0094756D01*
X0166199Y0095426D01*
X0167437Y0096664D01*
X0168107Y0098281D01*
X0168107Y0100031D01*
X0167437Y0101649D01*
X0166199Y0102886D01*
X0164582Y0103556D01*
X0158032Y0103556D01*
X0156415Y0102886D01*
X0155177Y0101649D01*
X0154507Y0100031D01*
X0154507Y0098281D01*
X0155177Y0096664D01*
X0156415Y0095426D01*
X0158032Y0094756D01*
X0159932Y0094756D01*
X0158078Y0093988D01*
X0156475Y0092385D01*
X0155607Y0090290D01*
X0155607Y0088022D01*
X0156475Y0085927D01*
X0158078Y0084324D01*
X0160173Y0083456D01*
X0163054Y0083710D02*
X0190534Y0083710D01*
X0190874Y0083656D02*
X0191221Y0083656D01*
X0191221Y0089070D01*
X0191393Y0089070D01*
X0191393Y0083656D01*
X0191740Y0083656D01*
X0192595Y0083792D01*
X0193418Y0084059D01*
X0194190Y0084452D01*
X0194890Y0084961D01*
X0195502Y0085573D01*
X0196011Y0086274D01*
X0196404Y0087045D01*
X0196672Y0087868D01*
X0196807Y0088723D01*
X0196807Y0089070D01*
X0191393Y0089070D01*
X0191393Y0089242D01*
X0196807Y0089242D01*
X0196807Y0089589D01*
X0196672Y0090444D01*
X0196404Y0091267D01*
X0196011Y0092039D01*
X0195502Y0092739D01*
X0194890Y0093351D01*
X0194190Y0093860D01*
X0193418Y0094253D01*
X0192595Y0094521D01*
X0191740Y0094656D01*
X0191393Y0094656D01*
X0191393Y0089242D01*
X0191221Y0089242D01*
X0191221Y0089070D01*
X0185807Y0089070D01*
X0185807Y0088723D01*
X0185943Y0087868D01*
X0186210Y0087045D01*
X0186603Y0086274D01*
X0187112Y0085573D01*
X0187724Y0084961D01*
X0188424Y0084452D01*
X0189196Y0084059D01*
X0190019Y0083792D01*
X0190874Y0083656D01*
X0191221Y0083710D02*
X0191393Y0083710D01*
X0192080Y0083710D02*
X0195770Y0083710D01*
X0195238Y0085309D02*
X0197368Y0085309D01*
X0196334Y0086907D02*
X0198967Y0086907D01*
X0200565Y0088506D02*
X0196773Y0088506D01*
X0196726Y0090104D02*
X0202164Y0090104D01*
X0202707Y0091703D02*
X0196182Y0091703D01*
X0194940Y0093301D02*
X0202707Y0093301D01*
X0202707Y0094900D02*
X0164929Y0094900D01*
X0165223Y0093301D02*
X0187674Y0093301D01*
X0187724Y0093351D02*
X0187112Y0092739D01*
X0186603Y0092039D01*
X0186210Y0091267D01*
X0185943Y0090444D01*
X0185807Y0089589D01*
X0185807Y0089242D01*
X0191221Y0089242D01*
X0191221Y0094656D01*
X0190874Y0094656D01*
X0190019Y0094521D01*
X0189196Y0094253D01*
X0188424Y0093860D01*
X0187724Y0093351D01*
X0187924Y0095060D02*
X0188577Y0094956D01*
X0191307Y0094956D01*
X0191307Y0099156D01*
X0191307Y0099156D01*
X0184707Y0099156D01*
X0184707Y0098826D01*
X0184811Y0098173D01*
X0185015Y0097544D01*
X0185315Y0096955D01*
X0185704Y0096420D01*
X0186171Y0095953D01*
X0186706Y0095564D01*
X0187295Y0095264D01*
X0187924Y0095060D01*
X0185647Y0096498D02*
X0167272Y0096498D01*
X0168031Y0098097D02*
X0184835Y0098097D01*
X0184707Y0099156D02*
X0191307Y0099156D01*
X0191307Y0099156D01*
X0191307Y0094956D01*
X0194038Y0094956D01*
X0194691Y0095060D01*
X0195319Y0095264D01*
X0195908Y0095564D01*
X0196443Y0095953D01*
X0196911Y0096420D01*
X0197299Y0096955D01*
X0197599Y0097544D01*
X0197804Y0098173D01*
X0197907Y0098826D01*
X0197907Y0099156D01*
X0191307Y0099156D01*
X0191307Y0099156D01*
X0191307Y0103356D01*
X0188577Y0103356D01*
X0187924Y0103253D01*
X0187295Y0103048D01*
X0186706Y0102748D01*
X0186171Y0102360D01*
X0185704Y0101892D01*
X0185315Y0101357D01*
X0185015Y0100768D01*
X0184811Y0100140D01*
X0184707Y0099487D01*
X0184707Y0099156D01*
X0184740Y0099695D02*
X0168107Y0099695D01*
X0167584Y0101294D02*
X0185282Y0101294D01*
X0186988Y0102892D02*
X0166185Y0102892D01*
X0164582Y0104756D02*
X0166199Y0105426D01*
X0167437Y0106664D01*
X0168107Y0108281D01*
X0168107Y0110031D01*
X0167437Y0111649D01*
X0166199Y0112886D01*
X0164582Y0113556D01*
X0158032Y0113556D01*
X0156415Y0112886D01*
X0155177Y0111649D01*
X0154507Y0110031D01*
X0154507Y0108281D01*
X0155177Y0106664D01*
X0156415Y0105426D01*
X0158032Y0104756D01*
X0164582Y0104756D01*
X0166863Y0106089D02*
X0185752Y0106089D01*
X0185177Y0106664D02*
X0186415Y0105426D01*
X0188032Y0104756D01*
X0194582Y0104756D01*
X0196199Y0105426D01*
X0197437Y0106664D01*
X0198107Y0108281D01*
X0198107Y0110031D01*
X0197437Y0111649D01*
X0196199Y0112886D01*
X0194582Y0113556D01*
X0188032Y0113556D01*
X0186415Y0112886D01*
X0185177Y0111649D01*
X0184507Y0110031D01*
X0184507Y0108281D01*
X0185177Y0106664D01*
X0184753Y0107688D02*
X0167861Y0107688D01*
X0168107Y0109286D02*
X0184507Y0109286D01*
X0184861Y0110885D02*
X0167754Y0110885D01*
X0166603Y0112483D02*
X0186012Y0112483D01*
X0186415Y0115426D02*
X0188032Y0114756D01*
X0194582Y0114756D01*
X0196199Y0115426D01*
X0197437Y0116664D01*
X0198107Y0118281D01*
X0198107Y0120031D01*
X0197437Y0121649D01*
X0196199Y0122886D01*
X0194582Y0123556D01*
X0188032Y0123556D01*
X0186415Y0122886D01*
X0185177Y0121649D01*
X0184507Y0120031D01*
X0184507Y0118281D01*
X0185177Y0116664D01*
X0186415Y0115426D01*
X0186160Y0115680D02*
X0166454Y0115680D01*
X0166199Y0115426D02*
X0167437Y0116664D01*
X0168107Y0118281D01*
X0168107Y0120031D01*
X0167437Y0121649D01*
X0166199Y0122886D01*
X0164582Y0123556D01*
X0158032Y0123556D01*
X0156415Y0122886D01*
X0155177Y0121649D01*
X0154507Y0120031D01*
X0154507Y0118281D01*
X0155177Y0116664D01*
X0156415Y0115426D01*
X0158032Y0114756D01*
X0164582Y0114756D01*
X0166199Y0115426D01*
X0167692Y0117279D02*
X0184922Y0117279D01*
X0184507Y0118877D02*
X0168107Y0118877D01*
X0167923Y0120476D02*
X0184691Y0120476D01*
X0185603Y0122074D02*
X0167011Y0122074D01*
X0165826Y0125271D02*
X0186788Y0125271D01*
X0186415Y0125426D02*
X0188032Y0124756D01*
X0194582Y0124756D01*
X0196199Y0125426D01*
X0197437Y0126664D01*
X0198107Y0128281D01*
X0198107Y0130031D01*
X0197437Y0131649D01*
X0196199Y0132886D01*
X0194582Y0133556D01*
X0188032Y0133556D01*
X0186415Y0132886D01*
X0185177Y0131649D01*
X0184507Y0130031D01*
X0184507Y0128281D01*
X0185177Y0126664D01*
X0186415Y0125426D01*
X0185092Y0126870D02*
X0167523Y0126870D01*
X0167437Y0126664D02*
X0168107Y0128281D01*
X0168107Y0130031D01*
X0167437Y0131649D01*
X0166199Y0132886D01*
X0164582Y0133556D01*
X0158032Y0133556D01*
X0156415Y0132886D01*
X0155177Y0131649D01*
X0154507Y0130031D01*
X0154507Y0128281D01*
X0155177Y0126664D01*
X0156415Y0125426D01*
X0158032Y0124756D01*
X0164582Y0124756D01*
X0166199Y0125426D01*
X0167437Y0126664D01*
X0168107Y0128468D02*
X0184507Y0128468D01*
X0184522Y0130067D02*
X0168092Y0130067D01*
X0167420Y0131665D02*
X0185194Y0131665D01*
X0187326Y0133264D02*
X0165288Y0133264D01*
X0164839Y0134862D02*
X0187775Y0134862D01*
X0185380Y0136461D02*
X0167234Y0136461D01*
X0168015Y0138059D02*
X0184599Y0138059D01*
X0184507Y0139658D02*
X0168107Y0139658D01*
X0167600Y0141256D02*
X0185015Y0141256D01*
X0186383Y0142855D02*
X0166231Y0142855D01*
X0164582Y0144756D02*
X0166199Y0145426D01*
X0167437Y0146664D01*
X0168107Y0148281D01*
X0168107Y0150031D01*
X0167437Y0151649D01*
X0166199Y0152886D01*
X0164582Y0153556D01*
X0158032Y0153556D01*
X0156415Y0152886D01*
X0155177Y0151649D01*
X0154507Y0150031D01*
X0154507Y0148281D01*
X0155177Y0146664D01*
X0156415Y0145426D01*
X0158032Y0144756D01*
X0164582Y0144756D01*
X0166825Y0146052D02*
X0185789Y0146052D01*
X0184768Y0147650D02*
X0167846Y0147650D01*
X0168107Y0149249D02*
X0184507Y0149249D01*
X0184845Y0150847D02*
X0167769Y0150847D01*
X0166640Y0152446D02*
X0185974Y0152446D01*
X0186198Y0155643D02*
X0166416Y0155643D01*
X0167677Y0157242D02*
X0184938Y0157242D01*
X0184507Y0158840D02*
X0168107Y0158840D01*
X0167938Y0160439D02*
X0184676Y0160439D01*
X0185565Y0162037D02*
X0167049Y0162037D01*
X0155974Y0152446D02*
X0149907Y0152446D01*
X0149907Y0150847D02*
X0154845Y0150847D01*
X0154507Y0149249D02*
X0151305Y0149249D01*
X0152904Y0147650D02*
X0154768Y0147650D01*
X0154502Y0146052D02*
X0155789Y0146052D01*
X0156101Y0144453D02*
X0200919Y0144453D01*
X0202517Y0142855D02*
X0196231Y0142855D01*
X0194839Y0134862D02*
X0200510Y0134862D01*
X0202108Y0133264D02*
X0195288Y0133264D01*
X0197420Y0131665D02*
X0202707Y0131665D01*
X0202707Y0130067D02*
X0198092Y0130067D01*
X0198107Y0128468D02*
X0202707Y0128468D01*
X0202707Y0126870D02*
X0197523Y0126870D01*
X0195826Y0125271D02*
X0202707Y0125271D01*
X0202707Y0123673D02*
X0139851Y0123673D01*
X0140483Y0125271D02*
X0156788Y0125271D01*
X0155092Y0126870D02*
X0141530Y0126870D01*
X0142007Y0128468D02*
X0154507Y0128468D01*
X0154522Y0130067D02*
X0142007Y0130067D01*
X0141437Y0131665D02*
X0155194Y0131665D01*
X0157326Y0133264D02*
X0140260Y0133264D01*
X0140074Y0134862D02*
X0157775Y0134862D01*
X0153911Y0136461D02*
X0141360Y0136461D01*
X0142007Y0138059D02*
X0152313Y0138059D01*
X0150714Y0139658D02*
X0142007Y0139658D01*
X0141607Y0141256D02*
X0149116Y0141256D01*
X0147517Y0142855D02*
X0140669Y0142855D01*
X0139665Y0144453D02*
X0145919Y0144453D01*
X0144320Y0146052D02*
X0141191Y0146052D01*
X0141853Y0147650D02*
X0143034Y0147650D01*
X0142707Y0149249D02*
X0142007Y0149249D01*
X0141776Y0150847D02*
X0142707Y0150847D01*
X0142707Y0152446D02*
X0141078Y0152446D01*
X0141328Y0154045D02*
X0139400Y0154045D01*
X0139729Y0155643D02*
X0134911Y0155643D01*
X0133313Y0157242D02*
X0138131Y0157242D01*
X0136532Y0158840D02*
X0131714Y0158840D01*
X0130116Y0160439D02*
X0134934Y0160439D01*
X0133335Y0162037D02*
X0128517Y0162037D01*
X0126919Y0163636D02*
X0131736Y0163636D01*
X0130138Y0165234D02*
X0125320Y0165234D01*
X0123722Y0166833D02*
X0128539Y0166833D01*
X0126941Y0168431D02*
X0122123Y0168431D01*
X0120525Y0170030D02*
X0125342Y0170030D01*
X0123744Y0171628D02*
X0118926Y0171628D01*
X0120547Y0174825D02*
X0048807Y0174825D01*
X0048807Y0173227D02*
X0107882Y0173227D01*
X0106594Y0171628D02*
X0048807Y0171628D01*
X0048807Y0170030D02*
X0106007Y0170030D01*
X0106007Y0168431D02*
X0048807Y0168431D01*
X0048807Y0166833D02*
X0106533Y0166833D01*
X0107734Y0165234D02*
X0048807Y0165234D01*
X0048807Y0163636D02*
X0108291Y0163636D01*
X0106764Y0162037D02*
X0048807Y0162037D01*
X0048807Y0160439D02*
X0106102Y0160439D01*
X0106007Y0158840D02*
X0048807Y0158840D01*
X0048807Y0157242D02*
X0106363Y0157242D01*
X0107325Y0155643D02*
X0048807Y0155643D01*
X0048807Y0154045D02*
X0109798Y0154045D01*
X0112816Y0154045D02*
X0126328Y0154045D01*
X0124729Y0155643D02*
X0115289Y0155643D01*
X0116251Y0157242D02*
X0123131Y0157242D01*
X0121532Y0158840D02*
X0116607Y0158840D01*
X0116513Y0160439D02*
X0119934Y0160439D01*
X0118335Y0162037D02*
X0115850Y0162037D01*
X0116736Y0163636D02*
X0114323Y0163636D01*
X0114880Y0165234D02*
X0115138Y0165234D01*
X0114732Y0173227D02*
X0122145Y0173227D01*
X0118948Y0176424D02*
X0048807Y0176424D01*
X0048807Y0178022D02*
X0117350Y0178022D01*
X0115751Y0179621D02*
X0048807Y0179621D01*
X0048807Y0181219D02*
X0114153Y0181219D01*
X0112554Y0182818D02*
X0048807Y0182818D01*
X0048807Y0184416D02*
X0062986Y0184416D01*
X0063078Y0184324D02*
X0065173Y0183456D01*
X0067441Y0183456D01*
X0069536Y0184324D01*
X0071139Y0185927D01*
X0072007Y0188022D01*
X0072007Y0190290D01*
X0071139Y0192385D01*
X0069536Y0193988D01*
X0069131Y0194156D01*
X0069536Y0194324D01*
X0071139Y0195927D01*
X0072007Y0198022D01*
X0072007Y0200290D01*
X0071139Y0202385D01*
X0069536Y0203988D01*
X0067441Y0204856D01*
X0065173Y0204856D01*
X0063078Y0203988D01*
X0061475Y0202385D01*
X0060607Y0200290D01*
X0060607Y0198022D01*
X0061475Y0195927D01*
X0063078Y0194324D01*
X0063483Y0194156D01*
X0063078Y0193988D01*
X0061475Y0192385D01*
X0060607Y0190290D01*
X0060607Y0188022D01*
X0061475Y0185927D01*
X0063078Y0184324D01*
X0061439Y0186015D02*
X0048807Y0186015D01*
X0048807Y0187613D02*
X0060777Y0187613D01*
X0060607Y0189212D02*
X0048807Y0189212D01*
X0048807Y0190810D02*
X0060823Y0190810D01*
X0061499Y0192409D02*
X0048807Y0192409D01*
X0048807Y0194007D02*
X0063124Y0194007D01*
X0061796Y0195606D02*
X0048807Y0195606D01*
X0048807Y0197204D02*
X0060946Y0197204D01*
X0060607Y0198803D02*
X0048807Y0198803D01*
X0048807Y0200401D02*
X0060653Y0200401D01*
X0061315Y0202000D02*
X0048807Y0202000D01*
X0048807Y0203598D02*
X0062688Y0203598D01*
X0069926Y0203598D02*
X0092688Y0203598D01*
X0093078Y0203988D02*
X0091475Y0202385D01*
X0090607Y0200290D01*
X0090607Y0198022D01*
X0091475Y0195927D01*
X0093078Y0194324D01*
X0093483Y0194156D01*
X0093078Y0193988D01*
X0091475Y0192385D01*
X0090607Y0190290D01*
X0090607Y0188022D01*
X0091475Y0185927D01*
X0093078Y0184324D01*
X0095173Y0183456D01*
X0097441Y0183456D01*
X0099536Y0184324D01*
X0101139Y0185927D01*
X0102007Y0188022D01*
X0102007Y0190290D01*
X0101139Y0192385D01*
X0099536Y0193988D01*
X0099131Y0194156D01*
X0099536Y0194324D01*
X0101139Y0195927D01*
X0102007Y0198022D01*
X0102007Y0200290D01*
X0101139Y0202385D01*
X0099536Y0203988D01*
X0097441Y0204856D01*
X0095173Y0204856D01*
X0093078Y0203988D01*
X0091315Y0202000D02*
X0071299Y0202000D01*
X0071961Y0200401D02*
X0090653Y0200401D01*
X0090607Y0198803D02*
X0072007Y0198803D01*
X0071668Y0197204D02*
X0090946Y0197204D01*
X0091796Y0195606D02*
X0070818Y0195606D01*
X0069490Y0194007D02*
X0093124Y0194007D01*
X0091499Y0192409D02*
X0071115Y0192409D01*
X0071792Y0190810D02*
X0090823Y0190810D01*
X0090607Y0189212D02*
X0072007Y0189212D01*
X0071838Y0187613D02*
X0090777Y0187613D01*
X0091439Y0186015D02*
X0071175Y0186015D01*
X0069628Y0184416D02*
X0092986Y0184416D01*
X0099628Y0184416D02*
X0110956Y0184416D01*
X0109357Y0186015D02*
X0101175Y0186015D01*
X0101838Y0187613D02*
X0108050Y0187613D01*
X0107707Y0189212D02*
X0102007Y0189212D01*
X0101792Y0190810D02*
X0107707Y0190810D01*
X0107707Y0192409D02*
X0101115Y0192409D01*
X0099490Y0194007D02*
X0107707Y0194007D01*
X0107707Y0195606D02*
X0100818Y0195606D01*
X0101668Y0197204D02*
X0107707Y0197204D01*
X0107707Y0198803D02*
X0102007Y0198803D01*
X0101961Y0200401D02*
X0107707Y0200401D01*
X0107707Y0202000D02*
X0101299Y0202000D01*
X0099926Y0203598D02*
X0106774Y0203598D01*
X0105175Y0205197D02*
X0048807Y0205197D01*
X0048807Y0206795D02*
X0103577Y0206795D01*
X0101978Y0208394D02*
X0048807Y0208394D01*
X0048807Y0209992D02*
X0100380Y0209992D01*
X0098781Y0211591D02*
X0048807Y0211591D01*
X0048807Y0213189D02*
X0097183Y0213189D01*
X0095584Y0214788D02*
X0048807Y0214788D01*
X0048807Y0216386D02*
X0093986Y0216386D01*
X0092387Y0217985D02*
X0048807Y0217985D01*
X0048807Y0219583D02*
X0090789Y0219583D01*
X0089190Y0221182D02*
X0048807Y0221182D01*
X0048807Y0222780D02*
X0087592Y0222780D01*
X0085993Y0224379D02*
X0048807Y0224379D01*
X0048807Y0225978D02*
X0084395Y0225978D01*
X0082796Y0227576D02*
X0048807Y0227576D01*
X0048807Y0229175D02*
X0081198Y0229175D01*
X0079599Y0230773D02*
X0048807Y0230773D01*
X0048807Y0232372D02*
X0078001Y0232372D01*
X0076402Y0233970D02*
X0048807Y0233970D01*
X0048807Y0235569D02*
X0074803Y0235569D01*
X0073205Y0237167D02*
X0048807Y0237167D01*
X0048807Y0238766D02*
X0071606Y0238766D01*
X0070008Y0240364D02*
X0048807Y0240364D01*
X0048807Y0241963D02*
X0068409Y0241963D01*
X0066811Y0243561D02*
X0048807Y0243561D01*
X0048807Y0245160D02*
X0065212Y0245160D01*
X0063614Y0246758D02*
X0048807Y0246758D01*
X0048807Y0248357D02*
X0062742Y0248357D01*
X0062707Y0249955D02*
X0048807Y0249955D01*
X0048807Y0251554D02*
X0061648Y0251554D01*
X0061007Y0253152D02*
X0048807Y0253152D01*
X0048807Y0254751D02*
X0061007Y0254751D01*
X0061479Y0256349D02*
X0048807Y0256349D01*
X0048807Y0257948D02*
X0062603Y0257948D01*
X0063587Y0259546D02*
X0048807Y0259546D01*
X0048807Y0261145D02*
X0061823Y0261145D01*
X0061156Y0262743D02*
X0048807Y0262743D01*
X0048807Y0264342D02*
X0061007Y0264342D01*
X0061309Y0265940D02*
X0048807Y0265940D01*
X0048807Y0267539D02*
X0062194Y0267539D01*
X0064483Y0269137D02*
X0048807Y0269137D01*
X0048807Y0270736D02*
X0117707Y0270736D01*
X0117707Y0272334D02*
X0048807Y0272334D01*
X0048807Y0273933D02*
X0117707Y0273933D01*
X0117707Y0275531D02*
X0048807Y0275531D01*
X0048807Y0277130D02*
X0117707Y0277130D01*
X0117707Y0278728D02*
X0048807Y0278728D01*
X0048807Y0280327D02*
X0117707Y0280327D01*
X0117707Y0281925D02*
X0048807Y0281925D01*
X0068131Y0269137D02*
X0109483Y0269137D01*
X0110253Y0269456D02*
X0108305Y0268649D01*
X0106814Y0267158D01*
X0106007Y0265210D01*
X0106007Y0263102D01*
X0106814Y0261154D01*
X0108305Y0259663D01*
X0109529Y0259156D01*
X0108305Y0258649D01*
X0106814Y0257158D01*
X0106007Y0255210D01*
X0106007Y0253102D01*
X0106814Y0251154D01*
X0108305Y0249663D01*
X0110253Y0248856D01*
X0112361Y0248856D01*
X0114309Y0249663D01*
X0115800Y0251154D01*
X0116607Y0253102D01*
X0116607Y0255210D01*
X0115800Y0257158D01*
X0114309Y0258649D01*
X0113086Y0259156D01*
X0114309Y0259663D01*
X0115800Y0261154D01*
X0116607Y0263102D01*
X0116607Y0265210D01*
X0115800Y0267158D01*
X0114309Y0268649D01*
X0112361Y0269456D01*
X0110253Y0269456D01*
X0113131Y0269137D02*
X0117707Y0269137D01*
X0117707Y0267539D02*
X0115420Y0267539D01*
X0116305Y0265940D02*
X0117707Y0265940D01*
X0117707Y0264342D02*
X0116607Y0264342D01*
X0116459Y0262743D02*
X0117707Y0262743D01*
X0117707Y0261145D02*
X0115791Y0261145D01*
X0114027Y0259546D02*
X0117707Y0259546D01*
X0117707Y0257948D02*
X0115011Y0257948D01*
X0116135Y0256349D02*
X0117707Y0256349D01*
X0117707Y0254751D02*
X0116607Y0254751D01*
X0116607Y0253152D02*
X0117707Y0253152D01*
X0117707Y0251554D02*
X0115966Y0251554D01*
X0114601Y0249955D02*
X0117707Y0249955D01*
X0117707Y0248357D02*
X0072198Y0248357D01*
X0070599Y0249955D02*
X0108013Y0249955D01*
X0106648Y0251554D02*
X0070966Y0251554D01*
X0071607Y0253152D02*
X0106007Y0253152D01*
X0106007Y0254751D02*
X0071607Y0254751D01*
X0071135Y0256349D02*
X0106479Y0256349D01*
X0107603Y0257948D02*
X0070011Y0257948D01*
X0069027Y0259546D02*
X0108587Y0259546D01*
X0106823Y0261145D02*
X0070791Y0261145D01*
X0071459Y0262743D02*
X0106156Y0262743D01*
X0106007Y0264342D02*
X0071607Y0264342D01*
X0071305Y0265940D02*
X0106309Y0265940D01*
X0107194Y0267539D02*
X0070420Y0267539D01*
X0073796Y0246758D02*
X0117707Y0246758D01*
X0117707Y0245160D02*
X0075395Y0245160D01*
X0076993Y0243561D02*
X0117707Y0243561D01*
X0117707Y0241963D02*
X0078592Y0241963D01*
X0080190Y0240364D02*
X0117707Y0240364D01*
X0117707Y0238766D02*
X0081789Y0238766D01*
X0083387Y0237167D02*
X0117707Y0237167D01*
X0117707Y0235569D02*
X0084986Y0235569D01*
X0086584Y0233970D02*
X0109079Y0233970D01*
X0107027Y0232372D02*
X0088183Y0232372D01*
X0089781Y0230773D02*
X0106240Y0230773D01*
X0106007Y0229175D02*
X0091380Y0229175D01*
X0092978Y0227576D02*
X0106225Y0227576D01*
X0106990Y0225978D02*
X0094577Y0225978D01*
X0096175Y0224379D02*
X0108991Y0224379D01*
X0107436Y0222780D02*
X0097774Y0222780D01*
X0099372Y0221182D02*
X0106410Y0221182D01*
X0106007Y0219583D02*
X0100971Y0219583D01*
X0102569Y0217985D02*
X0106056Y0217985D01*
X0106718Y0216386D02*
X0104168Y0216386D01*
X0105766Y0214788D02*
X0107707Y0214788D01*
X0107811Y0213189D02*
X0107365Y0213189D01*
X0115766Y0214788D02*
X0117707Y0214788D01*
X0117707Y0216386D02*
X0115896Y0216386D01*
X0116559Y0217985D02*
X0117707Y0217985D01*
X0117707Y0219583D02*
X0116607Y0219583D01*
X0116205Y0221182D02*
X0117707Y0221182D01*
X0117707Y0222780D02*
X0115178Y0222780D01*
X0113624Y0224379D02*
X0117707Y0224379D01*
X0117707Y0225978D02*
X0115624Y0225978D01*
X0116389Y0227576D02*
X0117707Y0227576D01*
X0117707Y0229175D02*
X0116607Y0229175D01*
X0116374Y0230773D02*
X0117707Y0230773D01*
X0117707Y0232372D02*
X0115587Y0232372D01*
X0113535Y0233970D02*
X0117707Y0233970D01*
X0117707Y0213189D02*
X0117365Y0213189D01*
X0126752Y0198803D02*
X0133676Y0198803D01*
X0131860Y0197204D02*
X0128350Y0197204D01*
X0129949Y0195606D02*
X0131171Y0195606D01*
X0138939Y0198803D02*
X0143676Y0198803D01*
X0141860Y0197204D02*
X0140754Y0197204D01*
X0140457Y0190810D02*
X0142158Y0190810D01*
X0144394Y0189212D02*
X0138220Y0189212D01*
X0148220Y0189212D02*
X0169394Y0189212D01*
X0170253Y0188856D02*
X0172361Y0188856D01*
X0174309Y0189663D01*
X0175800Y0191154D01*
X0176307Y0192378D01*
X0176814Y0191154D01*
X0178305Y0189663D01*
X0180253Y0188856D01*
X0182361Y0188856D01*
X0184309Y0189663D01*
X0185800Y0191154D01*
X0186607Y0193102D01*
X0186607Y0195210D01*
X0185800Y0197158D01*
X0184309Y0198649D01*
X0182361Y0199456D01*
X0180253Y0199456D01*
X0178305Y0198649D01*
X0176814Y0197158D01*
X0176307Y0195935D01*
X0175800Y0197158D01*
X0174309Y0198649D01*
X0172361Y0199456D01*
X0170253Y0199456D01*
X0168305Y0198649D01*
X0166814Y0197158D01*
X0166007Y0195210D01*
X0166007Y0193102D01*
X0166814Y0191154D01*
X0168305Y0189663D01*
X0170253Y0188856D01*
X0173220Y0189212D02*
X0179394Y0189212D01*
X0177158Y0190810D02*
X0175457Y0190810D01*
X0167158Y0190810D02*
X0150457Y0190810D01*
X0151320Y0192409D02*
X0166294Y0192409D01*
X0166007Y0194007D02*
X0151607Y0194007D01*
X0151443Y0195606D02*
X0166171Y0195606D01*
X0166860Y0197204D02*
X0150754Y0197204D01*
X0148939Y0198803D02*
X0168676Y0198803D01*
X0173939Y0198803D02*
X0178676Y0198803D01*
X0176860Y0197204D02*
X0175754Y0197204D01*
X0183939Y0198803D02*
X0203676Y0198803D01*
X0201860Y0197204D02*
X0185754Y0197204D01*
X0186443Y0195606D02*
X0201171Y0195606D01*
X0201007Y0194007D02*
X0186607Y0194007D01*
X0186320Y0192409D02*
X0201294Y0192409D01*
X0202158Y0190810D02*
X0185457Y0190810D01*
X0183220Y0189212D02*
X0204394Y0189212D01*
X0208220Y0189212D02*
X0214394Y0189212D01*
X0212158Y0190810D02*
X0210457Y0190810D01*
X0210754Y0197204D02*
X0211860Y0197204D01*
X0213676Y0198803D02*
X0208939Y0198803D01*
X0196416Y0155643D02*
X0237325Y0155643D01*
X0237707Y0154045D02*
X0149907Y0154045D01*
X0149588Y0155643D02*
X0150381Y0155643D01*
X0144268Y0146104D02*
X0144268Y0146104D01*
X0132949Y0144453D02*
X0048807Y0144453D01*
X0048807Y0142855D02*
X0131945Y0142855D01*
X0131007Y0141256D02*
X0048807Y0141256D01*
X0048807Y0139658D02*
X0130607Y0139658D01*
X0130607Y0138059D02*
X0114899Y0138059D01*
X0116089Y0136461D02*
X0131254Y0136461D01*
X0132540Y0134862D02*
X0116607Y0134862D01*
X0116607Y0133264D02*
X0132354Y0133264D01*
X0131177Y0131665D02*
X0116012Y0131665D01*
X0114713Y0130067D02*
X0130607Y0130067D01*
X0130607Y0128468D02*
X0114490Y0128468D01*
X0115920Y0126870D02*
X0131084Y0126870D01*
X0132131Y0125271D02*
X0116582Y0125271D01*
X0116607Y0123673D02*
X0132763Y0123673D01*
X0131346Y0122074D02*
X0116181Y0122074D01*
X0115122Y0120476D02*
X0130684Y0120476D01*
X0141268Y0122074D02*
X0155603Y0122074D01*
X0154691Y0120476D02*
X0141930Y0120476D01*
X0142007Y0118877D02*
X0154507Y0118877D01*
X0154922Y0117279D02*
X0141699Y0117279D01*
X0140892Y0115680D02*
X0156160Y0115680D01*
X0156012Y0112483D02*
X0141041Y0112483D01*
X0141761Y0110885D02*
X0154861Y0110885D01*
X0154507Y0109286D02*
X0142007Y0109286D01*
X0141868Y0107688D02*
X0154753Y0107688D01*
X0155752Y0106089D02*
X0141206Y0106089D01*
X0139703Y0104491D02*
X0202707Y0104491D01*
X0202707Y0106089D02*
X0196863Y0106089D01*
X0197861Y0107688D02*
X0202707Y0107688D01*
X0202707Y0109286D02*
X0198107Y0109286D01*
X0197754Y0110885D02*
X0202707Y0110885D01*
X0202707Y0112483D02*
X0196603Y0112483D01*
X0196454Y0115680D02*
X0202707Y0115680D01*
X0202707Y0114082D02*
X0139311Y0114082D01*
X0140632Y0102892D02*
X0156429Y0102892D01*
X0155030Y0101294D02*
X0141591Y0101294D01*
X0142007Y0099695D02*
X0154507Y0099695D01*
X0154583Y0098097D02*
X0142007Y0098097D01*
X0141376Y0096498D02*
X0155343Y0096498D01*
X0157686Y0094900D02*
X0140112Y0094900D01*
X0139940Y0093301D02*
X0157391Y0093301D01*
X0156192Y0091703D02*
X0141182Y0091703D01*
X0141726Y0090104D02*
X0155607Y0090104D01*
X0155607Y0088506D02*
X0141773Y0088506D01*
X0141334Y0086907D02*
X0156069Y0086907D01*
X0157094Y0085309D02*
X0140238Y0085309D01*
X0136507Y0085309D02*
X0136107Y0085309D01*
X0136107Y0086907D02*
X0136507Y0086907D01*
X0136507Y0088506D02*
X0136107Y0088506D01*
X0132377Y0085309D02*
X0114955Y0085309D01*
X0116112Y0086907D02*
X0131280Y0086907D01*
X0130842Y0088506D02*
X0116607Y0088506D01*
X0116607Y0090104D02*
X0130889Y0090104D01*
X0131432Y0091703D02*
X0115989Y0091703D01*
X0114657Y0093301D02*
X0132674Y0093301D01*
X0132503Y0094900D02*
X0114546Y0094900D01*
X0115943Y0096498D02*
X0131238Y0096498D01*
X0130607Y0098097D02*
X0116605Y0098097D01*
X0116607Y0099695D02*
X0130607Y0099695D01*
X0131023Y0101294D02*
X0116158Y0101294D01*
X0115066Y0102892D02*
X0131982Y0102892D01*
X0165520Y0085309D02*
X0187377Y0085309D01*
X0186280Y0086907D02*
X0166545Y0086907D01*
X0167007Y0088506D02*
X0185842Y0088506D01*
X0185889Y0090104D02*
X0167007Y0090104D01*
X0166422Y0091703D02*
X0186432Y0091703D01*
X0191221Y0091703D02*
X0191393Y0091703D01*
X0191393Y0093301D02*
X0191221Y0093301D01*
X0191221Y0090104D02*
X0191393Y0090104D01*
X0191393Y0088506D02*
X0191221Y0088506D01*
X0191221Y0086907D02*
X0191393Y0086907D01*
X0191393Y0085309D02*
X0191221Y0085309D01*
X0194171Y0082112D02*
X0098443Y0082112D01*
X0100041Y0080513D02*
X0192573Y0080513D01*
X0190974Y0078914D02*
X0101640Y0078914D01*
X0103238Y0077316D02*
X0144528Y0077316D01*
X0142777Y0075717D02*
X0104837Y0075717D01*
X0106435Y0074119D02*
X0141179Y0074119D01*
X0139580Y0072520D02*
X0108034Y0072520D01*
X0109632Y0070922D02*
X0137982Y0070922D01*
X0134932Y0069323D02*
X0111231Y0069323D01*
X0112830Y0067725D02*
X0132380Y0067725D01*
X0131387Y0066126D02*
X0114428Y0066126D01*
X0116027Y0064528D02*
X0131007Y0064528D01*
X0131079Y0062929D02*
X0117625Y0062929D01*
X0119224Y0061331D02*
X0131741Y0061331D01*
X0174379Y0059732D02*
X0178236Y0059732D01*
X0176741Y0061331D02*
X0175873Y0061331D01*
X0176228Y0066126D02*
X0176387Y0066126D01*
X0177380Y0067725D02*
X0175234Y0067725D01*
X0185234Y0067725D02*
X0202380Y0067725D01*
X0201387Y0066126D02*
X0186228Y0066126D01*
X0186607Y0064528D02*
X0201007Y0064528D01*
X0201079Y0062929D02*
X0186536Y0062929D01*
X0185873Y0061331D02*
X0201741Y0061331D01*
X0203236Y0059732D02*
X0184379Y0059732D01*
X0209379Y0059732D02*
X0213236Y0059732D01*
X0211741Y0061331D02*
X0210873Y0061331D01*
X0211228Y0066126D02*
X0211387Y0066126D01*
X0212380Y0067725D02*
X0210234Y0067725D01*
X0202707Y0096498D02*
X0196967Y0096498D01*
X0197779Y0098097D02*
X0202707Y0098097D01*
X0202707Y0099695D02*
X0197874Y0099695D01*
X0197907Y0099487D02*
X0197804Y0100140D01*
X0197599Y0100768D01*
X0197299Y0101357D01*
X0196911Y0101892D01*
X0196443Y0102360D01*
X0195908Y0102748D01*
X0195319Y0103048D01*
X0194691Y0103253D01*
X0194038Y0103356D01*
X0191307Y0103356D01*
X0191307Y0099156D01*
X0191307Y0099156D01*
X0197907Y0099156D01*
X0197907Y0099487D01*
X0197332Y0101294D02*
X0202707Y0101294D01*
X0202707Y0102892D02*
X0195626Y0102892D01*
X0191307Y0102892D02*
X0191307Y0102892D01*
X0191307Y0101294D02*
X0191307Y0101294D01*
X0191307Y0099695D02*
X0191307Y0099695D01*
X0191307Y0098097D02*
X0191307Y0098097D01*
X0191307Y0096498D02*
X0191307Y0096498D01*
X0197692Y0117279D02*
X0202707Y0117279D01*
X0202707Y0118877D02*
X0198107Y0118877D01*
X0197923Y0120476D02*
X0202707Y0120476D01*
X0202707Y0122074D02*
X0197011Y0122074D01*
X0219094Y0136461D02*
X0236525Y0136461D01*
X0236007Y0134862D02*
X0220692Y0134862D01*
X0222291Y0133264D02*
X0236007Y0133264D01*
X0236602Y0131665D02*
X0223889Y0131665D01*
X0225488Y0130067D02*
X0237901Y0130067D01*
X0238124Y0128468D02*
X0227086Y0128468D01*
X0228685Y0126870D02*
X0236694Y0126870D01*
X0236032Y0125271D02*
X0229742Y0125271D01*
X0229907Y0123673D02*
X0236007Y0123673D01*
X0236433Y0122074D02*
X0229907Y0122074D01*
X0229907Y0120476D02*
X0237492Y0120476D01*
X0237707Y0118877D02*
X0229907Y0118877D01*
X0229907Y0117279D02*
X0237707Y0117279D01*
X0237707Y0115680D02*
X0229907Y0115680D01*
X0229907Y0114082D02*
X0237707Y0114082D01*
X0237707Y0112483D02*
X0229907Y0112483D01*
X0229907Y0110885D02*
X0237707Y0110885D01*
X0237707Y0109286D02*
X0229907Y0109286D01*
X0229907Y0107688D02*
X0237707Y0107688D01*
X0237707Y0106089D02*
X0229907Y0106089D01*
X0231064Y0104491D02*
X0237707Y0104491D01*
X0237548Y0102892D02*
X0232662Y0102892D01*
X0234261Y0101294D02*
X0236456Y0101294D01*
X0236007Y0099695D02*
X0235859Y0099695D01*
X0295289Y0155643D02*
X0325381Y0155643D01*
X0323131Y0157242D02*
X0296251Y0157242D01*
X0296607Y0158840D02*
X0321532Y0158840D01*
X0319934Y0160439D02*
X0296513Y0160439D01*
X0295850Y0162037D02*
X0318335Y0162037D01*
X0374839Y0134862D02*
X0375510Y0134862D01*
X0375288Y0133264D02*
X0377108Y0133264D01*
X0377420Y0131665D02*
X0377707Y0131665D01*
X0401191Y0146052D02*
X0407707Y0146052D01*
X0407707Y0147650D02*
X0401853Y0147650D01*
X0402007Y0149249D02*
X0406123Y0149249D01*
X0404525Y0150847D02*
X0401776Y0150847D01*
X0401078Y0152446D02*
X0402926Y0152446D01*
X0401328Y0154045D02*
X0399400Y0154045D01*
X0413108Y0152446D02*
X0437708Y0152446D01*
X0437708Y0150847D02*
X0414503Y0150847D01*
X0414907Y0149249D02*
X0437708Y0149249D01*
X0437708Y0147650D02*
X0414907Y0147650D01*
X0414907Y0146052D02*
X0437708Y0146052D01*
X0437708Y0144453D02*
X0414907Y0144453D01*
X0414907Y0142855D02*
X0437708Y0142855D01*
X0437708Y0141256D02*
X0414907Y0141256D01*
X0414907Y0139658D02*
X0437708Y0139658D01*
X0437708Y0138059D02*
X0424899Y0138059D01*
X0424309Y0138649D02*
X0422361Y0139456D01*
X0420253Y0139456D01*
X0418305Y0138649D01*
X0416814Y0137158D01*
X0416007Y0135210D01*
X0416007Y0133102D01*
X0416814Y0131154D01*
X0418305Y0129663D01*
X0419529Y0129156D01*
X0418305Y0128649D01*
X0416814Y0127158D01*
X0416007Y0125210D01*
X0416007Y0123102D01*
X0416814Y0121154D01*
X0418305Y0119663D01*
X0420253Y0118856D01*
X0422361Y0118856D01*
X0424309Y0119663D01*
X0425800Y0121154D01*
X0426607Y0123102D01*
X0426607Y0125210D01*
X0425800Y0127158D01*
X0424309Y0128649D01*
X0423086Y0129156D01*
X0424309Y0129663D01*
X0425800Y0131154D01*
X0426607Y0133102D01*
X0426607Y0135210D01*
X0425800Y0137158D01*
X0424309Y0138649D01*
X0426089Y0136461D02*
X0437708Y0136461D01*
X0437708Y0134862D02*
X0426607Y0134862D01*
X0426607Y0133264D02*
X0437708Y0133264D01*
X0437708Y0131665D02*
X0426012Y0131665D01*
X0424713Y0130067D02*
X0437708Y0130067D01*
X0437708Y0128468D02*
X0424490Y0128468D01*
X0425920Y0126870D02*
X0437708Y0126870D01*
X0437708Y0125271D02*
X0426582Y0125271D01*
X0426607Y0123673D02*
X0437708Y0123673D01*
X0437708Y0122074D02*
X0426181Y0122074D01*
X0425122Y0120476D02*
X0437708Y0120476D01*
X0437708Y0118877D02*
X0422412Y0118877D01*
X0420202Y0118877D02*
X0414907Y0118877D01*
X0414907Y0117279D02*
X0437708Y0117279D01*
X0437708Y0115680D02*
X0414907Y0115680D01*
X0414907Y0114082D02*
X0437708Y0114082D01*
X0437708Y0112483D02*
X0414907Y0112483D01*
X0414907Y0110885D02*
X0437708Y0110885D01*
X0437708Y0109286D02*
X0414907Y0109286D01*
X0414907Y0107688D02*
X0437708Y0107688D01*
X0437708Y0106089D02*
X0414907Y0106089D01*
X0414907Y0104491D02*
X0437708Y0104491D01*
X0437708Y0102892D02*
X0425066Y0102892D01*
X0426158Y0101294D02*
X0437708Y0101294D01*
X0437708Y0099695D02*
X0426607Y0099695D01*
X0426605Y0098097D02*
X0437708Y0098097D01*
X0437708Y0096498D02*
X0425943Y0096498D01*
X0424546Y0094900D02*
X0437708Y0094900D01*
X0437708Y0093301D02*
X0424657Y0093301D01*
X0425989Y0091703D02*
X0437708Y0091703D01*
X0437708Y0090104D02*
X0426607Y0090104D01*
X0426607Y0088506D02*
X0437708Y0088506D01*
X0437708Y0086907D02*
X0426112Y0086907D01*
X0424955Y0085309D02*
X0437708Y0085309D01*
X0437708Y0067725D02*
X0400234Y0067725D01*
X0401228Y0066126D02*
X0437708Y0066126D01*
X0437708Y0064528D02*
X0401607Y0064528D01*
X0401536Y0062929D02*
X0419643Y0062929D01*
X0416431Y0061331D02*
X0400873Y0061331D01*
X0399379Y0059732D02*
X0414599Y0059732D01*
X0393236Y0059732D02*
X0389379Y0059732D01*
X0390873Y0061331D02*
X0391741Y0061331D01*
X0391387Y0066126D02*
X0391228Y0066126D01*
X0390234Y0067725D02*
X0392380Y0067725D01*
X0371383Y0069323D02*
X0362682Y0069323D01*
X0365234Y0067725D02*
X0369785Y0067725D01*
X0368186Y0066126D02*
X0366228Y0066126D01*
X0415859Y0099695D02*
X0416007Y0099695D01*
X0416456Y0101294D02*
X0414907Y0101294D01*
X0414907Y0102892D02*
X0417548Y0102892D01*
X0417492Y0120476D02*
X0414907Y0120476D01*
X0414907Y0122074D02*
X0416433Y0122074D01*
X0416007Y0123673D02*
X0414907Y0123673D01*
X0414907Y0125271D02*
X0416032Y0125271D01*
X0416694Y0126870D02*
X0414907Y0126870D01*
X0414907Y0128468D02*
X0418124Y0128468D01*
X0417901Y0130067D02*
X0414907Y0130067D01*
X0414907Y0131665D02*
X0416602Y0131665D01*
X0416007Y0133264D02*
X0414907Y0133264D01*
X0414907Y0134862D02*
X0416007Y0134862D01*
X0416525Y0136461D02*
X0414907Y0136461D01*
X0414907Y0138059D02*
X0417715Y0138059D01*
X0377707Y0112483D02*
X0376603Y0112483D01*
X0297707Y0270736D02*
X0269907Y0270736D01*
X0269907Y0272334D02*
X0297707Y0272334D01*
X0297707Y0273933D02*
X0269907Y0273933D01*
X0269907Y0275531D02*
X0297707Y0275531D01*
X0297707Y0277130D02*
X0269907Y0277130D01*
X0269907Y0278728D02*
X0297707Y0278728D01*
X0297707Y0280327D02*
X0269907Y0280327D01*
X0269907Y0281925D02*
X0297707Y0281925D01*
X0297707Y0283524D02*
X0269907Y0283524D01*
X0269907Y0285122D02*
X0287845Y0285122D01*
X0288305Y0284663D02*
X0290253Y0283856D01*
X0292361Y0283856D01*
X0294309Y0284663D01*
X0295800Y0286154D01*
X0296607Y0288102D01*
X0296607Y0290210D01*
X0295800Y0292158D01*
X0294309Y0293649D01*
X0293086Y0294156D01*
X0294309Y0294663D01*
X0295800Y0296154D01*
X0296607Y0298102D01*
X0296607Y0300210D01*
X0295800Y0302158D01*
X0294309Y0303649D01*
X0292361Y0304456D01*
X0290253Y0304456D01*
X0288305Y0303649D01*
X0286814Y0302158D01*
X0286007Y0300210D01*
X0286007Y0298102D01*
X0286814Y0296154D01*
X0288305Y0294663D01*
X0289529Y0294156D01*
X0288305Y0293649D01*
X0286814Y0292158D01*
X0286007Y0290210D01*
X0286007Y0288102D01*
X0286814Y0286154D01*
X0288305Y0284663D01*
X0286579Y0286721D02*
X0269907Y0286721D01*
X0269907Y0288319D02*
X0286007Y0288319D01*
X0286007Y0289918D02*
X0269907Y0289918D01*
X0269907Y0291516D02*
X0286548Y0291516D01*
X0287771Y0293115D02*
X0269907Y0293115D01*
X0269907Y0294714D02*
X0288254Y0294714D01*
X0286748Y0296312D02*
X0269907Y0296312D01*
X0269907Y0297911D02*
X0286086Y0297911D01*
X0286007Y0299509D02*
X0269907Y0299509D01*
X0269907Y0301108D02*
X0286379Y0301108D01*
X0287362Y0302706D02*
X0269907Y0302706D01*
X0269907Y0304305D02*
X0289887Y0304305D01*
X0292727Y0304305D02*
X0297707Y0304305D01*
X0297707Y0305903D02*
X0269907Y0305903D01*
X0269907Y0307502D02*
X0297707Y0307502D01*
X0297707Y0309100D02*
X0269907Y0309100D01*
X0269907Y0310699D02*
X0298049Y0310699D01*
X0299357Y0312297D02*
X0269907Y0312297D01*
X0269907Y0313896D02*
X0300955Y0313896D01*
X0302554Y0315494D02*
X0269907Y0315494D01*
X0269907Y0317093D02*
X0304152Y0317093D01*
X0305751Y0318691D02*
X0269907Y0318691D01*
X0269907Y0320290D02*
X0307349Y0320290D01*
X0308948Y0321888D02*
X0269907Y0321888D01*
X0269907Y0323487D02*
X0310546Y0323487D01*
X0311007Y0325085D02*
X0269907Y0325085D01*
X0269907Y0326684D02*
X0311617Y0326684D01*
X0329676Y0328282D02*
X0347938Y0328282D01*
X0348305Y0328649D02*
X0346814Y0327158D01*
X0346007Y0325210D01*
X0346007Y0323102D01*
X0346814Y0321154D01*
X0348305Y0319663D01*
X0350253Y0318856D01*
X0352361Y0318856D01*
X0354309Y0319663D01*
X0355800Y0321154D01*
X0356307Y0322378D01*
X0356814Y0321154D01*
X0358305Y0319663D01*
X0360253Y0318856D01*
X0362361Y0318856D01*
X0364309Y0319663D01*
X0365800Y0321154D01*
X0366607Y0323102D01*
X0366607Y0325210D01*
X0365800Y0327158D01*
X0364309Y0328649D01*
X0362361Y0329456D01*
X0360253Y0329456D01*
X0358305Y0328649D01*
X0356814Y0327158D01*
X0356307Y0325935D01*
X0355800Y0327158D01*
X0354309Y0328649D01*
X0352361Y0329456D01*
X0350253Y0329456D01*
X0348305Y0328649D01*
X0346617Y0326684D02*
X0330997Y0326684D01*
X0331607Y0325085D02*
X0346007Y0325085D01*
X0346007Y0323487D02*
X0331607Y0323487D01*
X0331104Y0321888D02*
X0346510Y0321888D01*
X0347678Y0320290D02*
X0329936Y0320290D01*
X0354936Y0320290D02*
X0357678Y0320290D01*
X0356510Y0321888D02*
X0356104Y0321888D01*
X0364936Y0320290D02*
X0382678Y0320290D01*
X0381510Y0321888D02*
X0366104Y0321888D01*
X0366607Y0323487D02*
X0381007Y0323487D01*
X0381007Y0325085D02*
X0366607Y0325085D01*
X0365997Y0326684D02*
X0381617Y0326684D01*
X0382938Y0328282D02*
X0364676Y0328282D01*
X0357938Y0328282D02*
X0354676Y0328282D01*
X0355997Y0326684D02*
X0356617Y0326684D01*
X0389676Y0328282D02*
X0392938Y0328282D01*
X0391617Y0326684D02*
X0390997Y0326684D01*
X0391104Y0321888D02*
X0391510Y0321888D01*
X0392678Y0320290D02*
X0389936Y0320290D01*
X0297707Y0302706D02*
X0295252Y0302706D01*
X0296235Y0301108D02*
X0297707Y0301108D01*
X0297707Y0299509D02*
X0296607Y0299509D01*
X0296528Y0297911D02*
X0297707Y0297911D01*
X0297707Y0296312D02*
X0295866Y0296312D01*
X0294360Y0294714D02*
X0297707Y0294714D01*
X0297707Y0293115D02*
X0294844Y0293115D01*
X0296066Y0291516D02*
X0297707Y0291516D01*
X0297707Y0289918D02*
X0296607Y0289918D01*
X0296607Y0288319D02*
X0297707Y0288319D01*
X0297707Y0286721D02*
X0296035Y0286721D01*
X0294769Y0285122D02*
X0297707Y0285122D01*
X0262707Y0281925D02*
X0124907Y0281925D01*
X0124907Y0280327D02*
X0262707Y0280327D01*
X0262707Y0278728D02*
X0124907Y0278728D01*
X0124907Y0277130D02*
X0262707Y0277130D01*
X0262707Y0275531D02*
X0124907Y0275531D01*
X0124907Y0273933D02*
X0262707Y0273933D01*
X0262707Y0272334D02*
X0124907Y0272334D01*
X0124907Y0270736D02*
X0262707Y0270736D01*
X0212678Y0320290D02*
X0209936Y0320290D01*
X0211104Y0321888D02*
X0211510Y0321888D01*
X0211617Y0326684D02*
X0210997Y0326684D01*
X0209676Y0328282D02*
X0212938Y0328282D01*
X0202938Y0328282D02*
X0184676Y0328282D01*
X0184309Y0328649D02*
X0182361Y0329456D01*
X0180253Y0329456D01*
X0178305Y0328649D01*
X0176814Y0327158D01*
X0176307Y0325935D01*
X0175800Y0327158D01*
X0174309Y0328649D01*
X0172361Y0329456D01*
X0170253Y0329456D01*
X0168305Y0328649D01*
X0166814Y0327158D01*
X0166007Y0325210D01*
X0166007Y0323102D01*
X0166814Y0321154D01*
X0168305Y0319663D01*
X0170253Y0318856D01*
X0172361Y0318856D01*
X0174309Y0319663D01*
X0175800Y0321154D01*
X0176307Y0322378D01*
X0176814Y0321154D01*
X0178305Y0319663D01*
X0180253Y0318856D01*
X0182361Y0318856D01*
X0184309Y0319663D01*
X0185800Y0321154D01*
X0186607Y0323102D01*
X0186607Y0325210D01*
X0185800Y0327158D01*
X0184309Y0328649D01*
X0185997Y0326684D02*
X0201617Y0326684D01*
X0201007Y0325085D02*
X0186607Y0325085D01*
X0186607Y0323487D02*
X0201007Y0323487D01*
X0201510Y0321888D02*
X0186104Y0321888D01*
X0184936Y0320290D02*
X0202678Y0320290D01*
X0177678Y0320290D02*
X0174936Y0320290D01*
X0176104Y0321888D02*
X0176510Y0321888D01*
X0176617Y0326684D02*
X0175997Y0326684D01*
X0174676Y0328282D02*
X0177938Y0328282D01*
X0167938Y0328282D02*
X0149676Y0328282D01*
X0150997Y0326684D02*
X0166617Y0326684D01*
X0166007Y0325085D02*
X0151607Y0325085D01*
X0151607Y0323487D02*
X0166007Y0323487D01*
X0166510Y0321888D02*
X0151104Y0321888D01*
X0149936Y0320290D02*
X0167678Y0320290D01*
X0142678Y0320290D02*
X0139936Y0320290D01*
X0141104Y0321888D02*
X0141510Y0321888D01*
X0141617Y0326684D02*
X0140997Y0326684D01*
X0139676Y0328282D02*
X0142938Y0328282D01*
X0250926Y0328282D02*
X0251688Y0328282D01*
X0251688Y0329881D02*
X0250926Y0329881D01*
X0250926Y0331479D02*
X0251688Y0331479D01*
X0251688Y0333078D02*
X0250926Y0333078D01*
X0250926Y0334676D02*
X0251688Y0334676D01*
X0251688Y0336275D02*
X0250926Y0336275D01*
X0250926Y0337873D02*
X0251688Y0337873D01*
X0251688Y0339472D02*
X0250926Y0339472D01*
X0257769Y0339472D02*
X0260856Y0339472D01*
X0259320Y0337873D02*
X0257857Y0337873D01*
X0257857Y0336275D02*
X0258658Y0336275D01*
X0258337Y0334676D02*
X0257857Y0334676D01*
X0257857Y0333078D02*
X0258337Y0333078D01*
X0257857Y0331479D02*
X0258889Y0331479D01*
X0259816Y0329881D02*
X0257857Y0329881D01*
X0257479Y0328282D02*
X0261629Y0328282D01*
X0269907Y0328282D02*
X0275408Y0328282D01*
X0273596Y0329881D02*
X0270357Y0329881D01*
X0271284Y0331479D02*
X0272669Y0331479D01*
X0272116Y0333078D02*
X0271837Y0333078D01*
X0271837Y0334676D02*
X0272116Y0334676D01*
X0272438Y0336275D02*
X0271515Y0336275D01*
X0270853Y0337873D02*
X0273100Y0337873D01*
X0274636Y0339472D02*
X0269317Y0339472D01*
X0127926Y0152446D02*
X0048807Y0152446D01*
X0048807Y0150847D02*
X0129525Y0150847D01*
X0130607Y0149249D02*
X0048807Y0149249D01*
X0048807Y0147650D02*
X0130761Y0147650D01*
X0131423Y0146052D02*
X0048807Y0146052D01*
M02*
