G75*
%MOIN*%
%OFA0B0*%
%FSLAX25Y25*%
%IPPOS*%
%LPD*%
%AMOC8*
5,1,8,0,0,1.08239X$1,22.5*
%
%ADD10C,0.04800*%
%ADD11C,0.07400*%
%ADD12C,0.06600*%
%ADD13C,0.00000*%
%ADD14R,0.09500X0.09500*%
%ADD15C,0.09500*%
%ADD16C,0.03200*%
%ADD17C,0.03400*%
%ADD18C,0.03762*%
%ADD19C,0.02400*%
%ADD20C,0.01600*%
D10*
X0158907Y0099156D02*
X0163707Y0099156D01*
X0163707Y0109156D02*
X0158907Y0109156D01*
X0158907Y0119156D02*
X0163707Y0119156D01*
X0163707Y0129156D02*
X0158907Y0129156D01*
X0158907Y0139156D02*
X0163707Y0139156D01*
X0163707Y0149156D02*
X0158907Y0149156D01*
X0158907Y0159156D02*
X0163707Y0159156D01*
X0163707Y0169156D02*
X0158907Y0169156D01*
X0188907Y0169156D02*
X0193707Y0169156D01*
X0193707Y0159156D02*
X0188907Y0159156D01*
X0188907Y0149156D02*
X0193707Y0149156D01*
X0193707Y0139156D02*
X0188907Y0139156D01*
X0188907Y0129156D02*
X0193707Y0129156D01*
X0193707Y0119156D02*
X0188907Y0119156D01*
X0188907Y0109156D02*
X0193707Y0109156D01*
X0193707Y0099156D02*
X0188907Y0099156D01*
X0338907Y0099156D02*
X0343707Y0099156D01*
X0343707Y0109156D02*
X0338907Y0109156D01*
X0338907Y0119156D02*
X0343707Y0119156D01*
X0343707Y0129156D02*
X0338907Y0129156D01*
X0338907Y0139156D02*
X0343707Y0139156D01*
X0343707Y0149156D02*
X0338907Y0149156D01*
X0338907Y0159156D02*
X0343707Y0159156D01*
X0343707Y0169156D02*
X0338907Y0169156D01*
X0368907Y0169156D02*
X0373707Y0169156D01*
X0373707Y0159156D02*
X0368907Y0159156D01*
X0368907Y0149156D02*
X0373707Y0149156D01*
X0373707Y0139156D02*
X0368907Y0139156D01*
X0368907Y0129156D02*
X0373707Y0129156D01*
X0373707Y0119156D02*
X0368907Y0119156D01*
X0368907Y0109156D02*
X0373707Y0109156D01*
X0373707Y0099156D02*
X0368907Y0099156D01*
D11*
X0371307Y0089156D03*
X0396307Y0089156D03*
X0396307Y0099156D03*
X0396307Y0109156D03*
X0396307Y0119156D03*
X0396307Y0129156D03*
X0396307Y0139156D03*
X0396307Y0149156D03*
X0341307Y0089156D03*
X0191307Y0089156D03*
X0161307Y0089156D03*
X0136307Y0089156D03*
X0136307Y0099156D03*
X0136307Y0109156D03*
X0136307Y0119156D03*
X0136307Y0129156D03*
X0136307Y0139156D03*
X0136307Y0149156D03*
X0096307Y0189156D03*
X0096307Y0199156D03*
X0066307Y0199156D03*
X0066307Y0189156D03*
D12*
X0111307Y0169156D03*
X0111307Y0159156D03*
X0111307Y0134156D03*
X0111307Y0124156D03*
X0111307Y0099156D03*
X0111307Y0089156D03*
X0136307Y0064156D03*
X0146307Y0064156D03*
X0171307Y0064156D03*
X0181307Y0064156D03*
X0206307Y0064156D03*
X0216307Y0064156D03*
X0241307Y0089156D03*
X0241307Y0099156D03*
X0241307Y0124156D03*
X0241307Y0134156D03*
X0241307Y0159156D03*
X0241307Y0169156D03*
X0216307Y0194156D03*
X0206307Y0194156D03*
X0181307Y0194156D03*
X0171307Y0194156D03*
X0146307Y0194156D03*
X0136307Y0194156D03*
X0111307Y0219156D03*
X0111307Y0229156D03*
X0111307Y0254156D03*
X0111307Y0264156D03*
X0111307Y0289156D03*
X0111307Y0299156D03*
X0136307Y0324156D03*
X0146307Y0324156D03*
X0171307Y0324156D03*
X0181307Y0324156D03*
X0206307Y0324156D03*
X0216307Y0324156D03*
X0241307Y0299156D03*
X0241307Y0289156D03*
X0241307Y0264156D03*
X0241307Y0254156D03*
X0241307Y0229156D03*
X0241307Y0219156D03*
X0291307Y0219156D03*
X0291307Y0229156D03*
X0291307Y0254156D03*
X0291307Y0264156D03*
X0291307Y0289156D03*
X0291307Y0299156D03*
X0316307Y0324156D03*
X0326307Y0324156D03*
X0351307Y0324156D03*
X0361307Y0324156D03*
X0386307Y0324156D03*
X0396307Y0324156D03*
X0421307Y0299156D03*
X0421307Y0289156D03*
X0421307Y0264156D03*
X0421307Y0254156D03*
X0421307Y0229156D03*
X0421307Y0219156D03*
X0396307Y0194156D03*
X0386307Y0194156D03*
X0361307Y0194156D03*
X0351307Y0194156D03*
X0326307Y0194156D03*
X0316307Y0194156D03*
X0291307Y0169156D03*
X0291307Y0159156D03*
X0291307Y0134156D03*
X0291307Y0124156D03*
X0291307Y0099156D03*
X0291307Y0089156D03*
X0316307Y0064156D03*
X0326307Y0064156D03*
X0351307Y0064156D03*
X0361307Y0064156D03*
X0386307Y0064156D03*
X0396307Y0064156D03*
X0421307Y0089156D03*
X0421307Y0099156D03*
X0421307Y0124156D03*
X0421307Y0134156D03*
X0421307Y0159156D03*
X0421307Y0169156D03*
X0066307Y0134156D03*
X0066307Y0124156D03*
X0066307Y0254156D03*
X0066307Y0264156D03*
D13*
X0062055Y0034156D02*
X0424260Y0034156D01*
X0417961Y0049904D02*
X0417963Y0050062D01*
X0417969Y0050220D01*
X0417979Y0050378D01*
X0417993Y0050536D01*
X0418011Y0050693D01*
X0418032Y0050850D01*
X0418058Y0051006D01*
X0418088Y0051162D01*
X0418121Y0051317D01*
X0418159Y0051470D01*
X0418200Y0051623D01*
X0418245Y0051775D01*
X0418294Y0051926D01*
X0418347Y0052075D01*
X0418403Y0052223D01*
X0418463Y0052369D01*
X0418527Y0052514D01*
X0418595Y0052657D01*
X0418666Y0052799D01*
X0418740Y0052939D01*
X0418818Y0053076D01*
X0418900Y0053212D01*
X0418984Y0053346D01*
X0419073Y0053477D01*
X0419164Y0053606D01*
X0419259Y0053733D01*
X0419356Y0053858D01*
X0419457Y0053980D01*
X0419561Y0054099D01*
X0419668Y0054216D01*
X0419778Y0054330D01*
X0419891Y0054441D01*
X0420006Y0054550D01*
X0420124Y0054655D01*
X0420245Y0054757D01*
X0420368Y0054857D01*
X0420494Y0054953D01*
X0420622Y0055046D01*
X0420752Y0055136D01*
X0420885Y0055222D01*
X0421020Y0055306D01*
X0421156Y0055385D01*
X0421295Y0055462D01*
X0421436Y0055534D01*
X0421578Y0055604D01*
X0421722Y0055669D01*
X0421868Y0055731D01*
X0422015Y0055789D01*
X0422164Y0055844D01*
X0422314Y0055895D01*
X0422465Y0055942D01*
X0422617Y0055985D01*
X0422770Y0056024D01*
X0422925Y0056060D01*
X0423080Y0056091D01*
X0423236Y0056119D01*
X0423392Y0056143D01*
X0423549Y0056163D01*
X0423707Y0056179D01*
X0423864Y0056191D01*
X0424023Y0056199D01*
X0424181Y0056203D01*
X0424339Y0056203D01*
X0424497Y0056199D01*
X0424656Y0056191D01*
X0424813Y0056179D01*
X0424971Y0056163D01*
X0425128Y0056143D01*
X0425284Y0056119D01*
X0425440Y0056091D01*
X0425595Y0056060D01*
X0425750Y0056024D01*
X0425903Y0055985D01*
X0426055Y0055942D01*
X0426206Y0055895D01*
X0426356Y0055844D01*
X0426505Y0055789D01*
X0426652Y0055731D01*
X0426798Y0055669D01*
X0426942Y0055604D01*
X0427084Y0055534D01*
X0427225Y0055462D01*
X0427364Y0055385D01*
X0427500Y0055306D01*
X0427635Y0055222D01*
X0427768Y0055136D01*
X0427898Y0055046D01*
X0428026Y0054953D01*
X0428152Y0054857D01*
X0428275Y0054757D01*
X0428396Y0054655D01*
X0428514Y0054550D01*
X0428629Y0054441D01*
X0428742Y0054330D01*
X0428852Y0054216D01*
X0428959Y0054099D01*
X0429063Y0053980D01*
X0429164Y0053858D01*
X0429261Y0053733D01*
X0429356Y0053606D01*
X0429447Y0053477D01*
X0429536Y0053346D01*
X0429620Y0053212D01*
X0429702Y0053076D01*
X0429780Y0052939D01*
X0429854Y0052799D01*
X0429925Y0052657D01*
X0429993Y0052514D01*
X0430057Y0052369D01*
X0430117Y0052223D01*
X0430173Y0052075D01*
X0430226Y0051926D01*
X0430275Y0051775D01*
X0430320Y0051623D01*
X0430361Y0051470D01*
X0430399Y0051317D01*
X0430432Y0051162D01*
X0430462Y0051006D01*
X0430488Y0050850D01*
X0430509Y0050693D01*
X0430527Y0050536D01*
X0430541Y0050378D01*
X0430551Y0050220D01*
X0430557Y0050062D01*
X0430559Y0049904D01*
X0430557Y0049746D01*
X0430551Y0049588D01*
X0430541Y0049430D01*
X0430527Y0049272D01*
X0430509Y0049115D01*
X0430488Y0048958D01*
X0430462Y0048802D01*
X0430432Y0048646D01*
X0430399Y0048491D01*
X0430361Y0048338D01*
X0430320Y0048185D01*
X0430275Y0048033D01*
X0430226Y0047882D01*
X0430173Y0047733D01*
X0430117Y0047585D01*
X0430057Y0047439D01*
X0429993Y0047294D01*
X0429925Y0047151D01*
X0429854Y0047009D01*
X0429780Y0046869D01*
X0429702Y0046732D01*
X0429620Y0046596D01*
X0429536Y0046462D01*
X0429447Y0046331D01*
X0429356Y0046202D01*
X0429261Y0046075D01*
X0429164Y0045950D01*
X0429063Y0045828D01*
X0428959Y0045709D01*
X0428852Y0045592D01*
X0428742Y0045478D01*
X0428629Y0045367D01*
X0428514Y0045258D01*
X0428396Y0045153D01*
X0428275Y0045051D01*
X0428152Y0044951D01*
X0428026Y0044855D01*
X0427898Y0044762D01*
X0427768Y0044672D01*
X0427635Y0044586D01*
X0427500Y0044502D01*
X0427364Y0044423D01*
X0427225Y0044346D01*
X0427084Y0044274D01*
X0426942Y0044204D01*
X0426798Y0044139D01*
X0426652Y0044077D01*
X0426505Y0044019D01*
X0426356Y0043964D01*
X0426206Y0043913D01*
X0426055Y0043866D01*
X0425903Y0043823D01*
X0425750Y0043784D01*
X0425595Y0043748D01*
X0425440Y0043717D01*
X0425284Y0043689D01*
X0425128Y0043665D01*
X0424971Y0043645D01*
X0424813Y0043629D01*
X0424656Y0043617D01*
X0424497Y0043609D01*
X0424339Y0043605D01*
X0424181Y0043605D01*
X0424023Y0043609D01*
X0423864Y0043617D01*
X0423707Y0043629D01*
X0423549Y0043645D01*
X0423392Y0043665D01*
X0423236Y0043689D01*
X0423080Y0043717D01*
X0422925Y0043748D01*
X0422770Y0043784D01*
X0422617Y0043823D01*
X0422465Y0043866D01*
X0422314Y0043913D01*
X0422164Y0043964D01*
X0422015Y0044019D01*
X0421868Y0044077D01*
X0421722Y0044139D01*
X0421578Y0044204D01*
X0421436Y0044274D01*
X0421295Y0044346D01*
X0421156Y0044423D01*
X0421020Y0044502D01*
X0420885Y0044586D01*
X0420752Y0044672D01*
X0420622Y0044762D01*
X0420494Y0044855D01*
X0420368Y0044951D01*
X0420245Y0045051D01*
X0420124Y0045153D01*
X0420006Y0045258D01*
X0419891Y0045367D01*
X0419778Y0045478D01*
X0419668Y0045592D01*
X0419561Y0045709D01*
X0419457Y0045828D01*
X0419356Y0045950D01*
X0419259Y0046075D01*
X0419164Y0046202D01*
X0419073Y0046331D01*
X0418984Y0046462D01*
X0418900Y0046596D01*
X0418818Y0046732D01*
X0418740Y0046869D01*
X0418666Y0047009D01*
X0418595Y0047151D01*
X0418527Y0047294D01*
X0418463Y0047439D01*
X0418403Y0047585D01*
X0418347Y0047733D01*
X0418294Y0047882D01*
X0418245Y0048033D01*
X0418200Y0048185D01*
X0418159Y0048338D01*
X0418121Y0048491D01*
X0418088Y0048646D01*
X0418058Y0048802D01*
X0418032Y0048958D01*
X0418011Y0049115D01*
X0417993Y0049272D01*
X0417979Y0049430D01*
X0417969Y0049588D01*
X0417963Y0049746D01*
X0417961Y0049904D01*
X0424260Y0034156D02*
X0424641Y0034161D01*
X0425021Y0034174D01*
X0425401Y0034197D01*
X0425780Y0034230D01*
X0426158Y0034271D01*
X0426535Y0034321D01*
X0426911Y0034381D01*
X0427286Y0034449D01*
X0427658Y0034527D01*
X0428029Y0034614D01*
X0428397Y0034709D01*
X0428763Y0034814D01*
X0429126Y0034927D01*
X0429487Y0035049D01*
X0429844Y0035179D01*
X0430198Y0035319D01*
X0430549Y0035466D01*
X0430896Y0035623D01*
X0431239Y0035787D01*
X0431578Y0035960D01*
X0431913Y0036141D01*
X0432244Y0036330D01*
X0432569Y0036527D01*
X0432890Y0036731D01*
X0433206Y0036944D01*
X0433516Y0037164D01*
X0433822Y0037391D01*
X0434121Y0037626D01*
X0434415Y0037868D01*
X0434703Y0038116D01*
X0434985Y0038372D01*
X0435260Y0038635D01*
X0435529Y0038904D01*
X0435792Y0039179D01*
X0436048Y0039461D01*
X0436296Y0039749D01*
X0436538Y0040043D01*
X0436773Y0040342D01*
X0437000Y0040648D01*
X0437220Y0040958D01*
X0437433Y0041274D01*
X0437637Y0041595D01*
X0437834Y0041920D01*
X0438023Y0042251D01*
X0438204Y0042586D01*
X0438377Y0042925D01*
X0438541Y0043268D01*
X0438698Y0043615D01*
X0438845Y0043966D01*
X0438985Y0044320D01*
X0439115Y0044677D01*
X0439237Y0045038D01*
X0439350Y0045401D01*
X0439455Y0045767D01*
X0439550Y0046135D01*
X0439637Y0046506D01*
X0439715Y0046878D01*
X0439783Y0047253D01*
X0439843Y0047629D01*
X0439893Y0048006D01*
X0439934Y0048384D01*
X0439967Y0048763D01*
X0439990Y0049143D01*
X0440003Y0049523D01*
X0440008Y0049904D01*
X0440008Y0333369D01*
X0417961Y0333369D02*
X0417963Y0333527D01*
X0417969Y0333685D01*
X0417979Y0333843D01*
X0417993Y0334001D01*
X0418011Y0334158D01*
X0418032Y0334315D01*
X0418058Y0334471D01*
X0418088Y0334627D01*
X0418121Y0334782D01*
X0418159Y0334935D01*
X0418200Y0335088D01*
X0418245Y0335240D01*
X0418294Y0335391D01*
X0418347Y0335540D01*
X0418403Y0335688D01*
X0418463Y0335834D01*
X0418527Y0335979D01*
X0418595Y0336122D01*
X0418666Y0336264D01*
X0418740Y0336404D01*
X0418818Y0336541D01*
X0418900Y0336677D01*
X0418984Y0336811D01*
X0419073Y0336942D01*
X0419164Y0337071D01*
X0419259Y0337198D01*
X0419356Y0337323D01*
X0419457Y0337445D01*
X0419561Y0337564D01*
X0419668Y0337681D01*
X0419778Y0337795D01*
X0419891Y0337906D01*
X0420006Y0338015D01*
X0420124Y0338120D01*
X0420245Y0338222D01*
X0420368Y0338322D01*
X0420494Y0338418D01*
X0420622Y0338511D01*
X0420752Y0338601D01*
X0420885Y0338687D01*
X0421020Y0338771D01*
X0421156Y0338850D01*
X0421295Y0338927D01*
X0421436Y0338999D01*
X0421578Y0339069D01*
X0421722Y0339134D01*
X0421868Y0339196D01*
X0422015Y0339254D01*
X0422164Y0339309D01*
X0422314Y0339360D01*
X0422465Y0339407D01*
X0422617Y0339450D01*
X0422770Y0339489D01*
X0422925Y0339525D01*
X0423080Y0339556D01*
X0423236Y0339584D01*
X0423392Y0339608D01*
X0423549Y0339628D01*
X0423707Y0339644D01*
X0423864Y0339656D01*
X0424023Y0339664D01*
X0424181Y0339668D01*
X0424339Y0339668D01*
X0424497Y0339664D01*
X0424656Y0339656D01*
X0424813Y0339644D01*
X0424971Y0339628D01*
X0425128Y0339608D01*
X0425284Y0339584D01*
X0425440Y0339556D01*
X0425595Y0339525D01*
X0425750Y0339489D01*
X0425903Y0339450D01*
X0426055Y0339407D01*
X0426206Y0339360D01*
X0426356Y0339309D01*
X0426505Y0339254D01*
X0426652Y0339196D01*
X0426798Y0339134D01*
X0426942Y0339069D01*
X0427084Y0338999D01*
X0427225Y0338927D01*
X0427364Y0338850D01*
X0427500Y0338771D01*
X0427635Y0338687D01*
X0427768Y0338601D01*
X0427898Y0338511D01*
X0428026Y0338418D01*
X0428152Y0338322D01*
X0428275Y0338222D01*
X0428396Y0338120D01*
X0428514Y0338015D01*
X0428629Y0337906D01*
X0428742Y0337795D01*
X0428852Y0337681D01*
X0428959Y0337564D01*
X0429063Y0337445D01*
X0429164Y0337323D01*
X0429261Y0337198D01*
X0429356Y0337071D01*
X0429447Y0336942D01*
X0429536Y0336811D01*
X0429620Y0336677D01*
X0429702Y0336541D01*
X0429780Y0336404D01*
X0429854Y0336264D01*
X0429925Y0336122D01*
X0429993Y0335979D01*
X0430057Y0335834D01*
X0430117Y0335688D01*
X0430173Y0335540D01*
X0430226Y0335391D01*
X0430275Y0335240D01*
X0430320Y0335088D01*
X0430361Y0334935D01*
X0430399Y0334782D01*
X0430432Y0334627D01*
X0430462Y0334471D01*
X0430488Y0334315D01*
X0430509Y0334158D01*
X0430527Y0334001D01*
X0430541Y0333843D01*
X0430551Y0333685D01*
X0430557Y0333527D01*
X0430559Y0333369D01*
X0430557Y0333211D01*
X0430551Y0333053D01*
X0430541Y0332895D01*
X0430527Y0332737D01*
X0430509Y0332580D01*
X0430488Y0332423D01*
X0430462Y0332267D01*
X0430432Y0332111D01*
X0430399Y0331956D01*
X0430361Y0331803D01*
X0430320Y0331650D01*
X0430275Y0331498D01*
X0430226Y0331347D01*
X0430173Y0331198D01*
X0430117Y0331050D01*
X0430057Y0330904D01*
X0429993Y0330759D01*
X0429925Y0330616D01*
X0429854Y0330474D01*
X0429780Y0330334D01*
X0429702Y0330197D01*
X0429620Y0330061D01*
X0429536Y0329927D01*
X0429447Y0329796D01*
X0429356Y0329667D01*
X0429261Y0329540D01*
X0429164Y0329415D01*
X0429063Y0329293D01*
X0428959Y0329174D01*
X0428852Y0329057D01*
X0428742Y0328943D01*
X0428629Y0328832D01*
X0428514Y0328723D01*
X0428396Y0328618D01*
X0428275Y0328516D01*
X0428152Y0328416D01*
X0428026Y0328320D01*
X0427898Y0328227D01*
X0427768Y0328137D01*
X0427635Y0328051D01*
X0427500Y0327967D01*
X0427364Y0327888D01*
X0427225Y0327811D01*
X0427084Y0327739D01*
X0426942Y0327669D01*
X0426798Y0327604D01*
X0426652Y0327542D01*
X0426505Y0327484D01*
X0426356Y0327429D01*
X0426206Y0327378D01*
X0426055Y0327331D01*
X0425903Y0327288D01*
X0425750Y0327249D01*
X0425595Y0327213D01*
X0425440Y0327182D01*
X0425284Y0327154D01*
X0425128Y0327130D01*
X0424971Y0327110D01*
X0424813Y0327094D01*
X0424656Y0327082D01*
X0424497Y0327074D01*
X0424339Y0327070D01*
X0424181Y0327070D01*
X0424023Y0327074D01*
X0423864Y0327082D01*
X0423707Y0327094D01*
X0423549Y0327110D01*
X0423392Y0327130D01*
X0423236Y0327154D01*
X0423080Y0327182D01*
X0422925Y0327213D01*
X0422770Y0327249D01*
X0422617Y0327288D01*
X0422465Y0327331D01*
X0422314Y0327378D01*
X0422164Y0327429D01*
X0422015Y0327484D01*
X0421868Y0327542D01*
X0421722Y0327604D01*
X0421578Y0327669D01*
X0421436Y0327739D01*
X0421295Y0327811D01*
X0421156Y0327888D01*
X0421020Y0327967D01*
X0420885Y0328051D01*
X0420752Y0328137D01*
X0420622Y0328227D01*
X0420494Y0328320D01*
X0420368Y0328416D01*
X0420245Y0328516D01*
X0420124Y0328618D01*
X0420006Y0328723D01*
X0419891Y0328832D01*
X0419778Y0328943D01*
X0419668Y0329057D01*
X0419561Y0329174D01*
X0419457Y0329293D01*
X0419356Y0329415D01*
X0419259Y0329540D01*
X0419164Y0329667D01*
X0419073Y0329796D01*
X0418984Y0329927D01*
X0418900Y0330061D01*
X0418818Y0330197D01*
X0418740Y0330334D01*
X0418666Y0330474D01*
X0418595Y0330616D01*
X0418527Y0330759D01*
X0418463Y0330904D01*
X0418403Y0331050D01*
X0418347Y0331198D01*
X0418294Y0331347D01*
X0418245Y0331498D01*
X0418200Y0331650D01*
X0418159Y0331803D01*
X0418121Y0331956D01*
X0418088Y0332111D01*
X0418058Y0332267D01*
X0418032Y0332423D01*
X0418011Y0332580D01*
X0417993Y0332737D01*
X0417979Y0332895D01*
X0417969Y0333053D01*
X0417963Y0333211D01*
X0417961Y0333369D01*
X0424260Y0349117D02*
X0424641Y0349112D01*
X0425021Y0349099D01*
X0425401Y0349076D01*
X0425780Y0349043D01*
X0426158Y0349002D01*
X0426535Y0348952D01*
X0426911Y0348892D01*
X0427286Y0348824D01*
X0427658Y0348746D01*
X0428029Y0348659D01*
X0428397Y0348564D01*
X0428763Y0348459D01*
X0429126Y0348346D01*
X0429487Y0348224D01*
X0429844Y0348094D01*
X0430198Y0347954D01*
X0430549Y0347807D01*
X0430896Y0347650D01*
X0431239Y0347486D01*
X0431578Y0347313D01*
X0431913Y0347132D01*
X0432244Y0346943D01*
X0432569Y0346746D01*
X0432890Y0346542D01*
X0433206Y0346329D01*
X0433516Y0346109D01*
X0433822Y0345882D01*
X0434121Y0345647D01*
X0434415Y0345405D01*
X0434703Y0345157D01*
X0434985Y0344901D01*
X0435260Y0344638D01*
X0435529Y0344369D01*
X0435792Y0344094D01*
X0436048Y0343812D01*
X0436296Y0343524D01*
X0436538Y0343230D01*
X0436773Y0342931D01*
X0437000Y0342625D01*
X0437220Y0342315D01*
X0437433Y0341999D01*
X0437637Y0341678D01*
X0437834Y0341353D01*
X0438023Y0341022D01*
X0438204Y0340687D01*
X0438377Y0340348D01*
X0438541Y0340005D01*
X0438698Y0339658D01*
X0438845Y0339307D01*
X0438985Y0338953D01*
X0439115Y0338596D01*
X0439237Y0338235D01*
X0439350Y0337872D01*
X0439455Y0337506D01*
X0439550Y0337138D01*
X0439637Y0336767D01*
X0439715Y0336395D01*
X0439783Y0336020D01*
X0439843Y0335644D01*
X0439893Y0335267D01*
X0439934Y0334889D01*
X0439967Y0334510D01*
X0439990Y0334130D01*
X0440003Y0333750D01*
X0440008Y0333369D01*
X0424260Y0349117D02*
X0062055Y0349117D01*
X0055756Y0333369D02*
X0055758Y0333527D01*
X0055764Y0333685D01*
X0055774Y0333843D01*
X0055788Y0334001D01*
X0055806Y0334158D01*
X0055827Y0334315D01*
X0055853Y0334471D01*
X0055883Y0334627D01*
X0055916Y0334782D01*
X0055954Y0334935D01*
X0055995Y0335088D01*
X0056040Y0335240D01*
X0056089Y0335391D01*
X0056142Y0335540D01*
X0056198Y0335688D01*
X0056258Y0335834D01*
X0056322Y0335979D01*
X0056390Y0336122D01*
X0056461Y0336264D01*
X0056535Y0336404D01*
X0056613Y0336541D01*
X0056695Y0336677D01*
X0056779Y0336811D01*
X0056868Y0336942D01*
X0056959Y0337071D01*
X0057054Y0337198D01*
X0057151Y0337323D01*
X0057252Y0337445D01*
X0057356Y0337564D01*
X0057463Y0337681D01*
X0057573Y0337795D01*
X0057686Y0337906D01*
X0057801Y0338015D01*
X0057919Y0338120D01*
X0058040Y0338222D01*
X0058163Y0338322D01*
X0058289Y0338418D01*
X0058417Y0338511D01*
X0058547Y0338601D01*
X0058680Y0338687D01*
X0058815Y0338771D01*
X0058951Y0338850D01*
X0059090Y0338927D01*
X0059231Y0338999D01*
X0059373Y0339069D01*
X0059517Y0339134D01*
X0059663Y0339196D01*
X0059810Y0339254D01*
X0059959Y0339309D01*
X0060109Y0339360D01*
X0060260Y0339407D01*
X0060412Y0339450D01*
X0060565Y0339489D01*
X0060720Y0339525D01*
X0060875Y0339556D01*
X0061031Y0339584D01*
X0061187Y0339608D01*
X0061344Y0339628D01*
X0061502Y0339644D01*
X0061659Y0339656D01*
X0061818Y0339664D01*
X0061976Y0339668D01*
X0062134Y0339668D01*
X0062292Y0339664D01*
X0062451Y0339656D01*
X0062608Y0339644D01*
X0062766Y0339628D01*
X0062923Y0339608D01*
X0063079Y0339584D01*
X0063235Y0339556D01*
X0063390Y0339525D01*
X0063545Y0339489D01*
X0063698Y0339450D01*
X0063850Y0339407D01*
X0064001Y0339360D01*
X0064151Y0339309D01*
X0064300Y0339254D01*
X0064447Y0339196D01*
X0064593Y0339134D01*
X0064737Y0339069D01*
X0064879Y0338999D01*
X0065020Y0338927D01*
X0065159Y0338850D01*
X0065295Y0338771D01*
X0065430Y0338687D01*
X0065563Y0338601D01*
X0065693Y0338511D01*
X0065821Y0338418D01*
X0065947Y0338322D01*
X0066070Y0338222D01*
X0066191Y0338120D01*
X0066309Y0338015D01*
X0066424Y0337906D01*
X0066537Y0337795D01*
X0066647Y0337681D01*
X0066754Y0337564D01*
X0066858Y0337445D01*
X0066959Y0337323D01*
X0067056Y0337198D01*
X0067151Y0337071D01*
X0067242Y0336942D01*
X0067331Y0336811D01*
X0067415Y0336677D01*
X0067497Y0336541D01*
X0067575Y0336404D01*
X0067649Y0336264D01*
X0067720Y0336122D01*
X0067788Y0335979D01*
X0067852Y0335834D01*
X0067912Y0335688D01*
X0067968Y0335540D01*
X0068021Y0335391D01*
X0068070Y0335240D01*
X0068115Y0335088D01*
X0068156Y0334935D01*
X0068194Y0334782D01*
X0068227Y0334627D01*
X0068257Y0334471D01*
X0068283Y0334315D01*
X0068304Y0334158D01*
X0068322Y0334001D01*
X0068336Y0333843D01*
X0068346Y0333685D01*
X0068352Y0333527D01*
X0068354Y0333369D01*
X0068352Y0333211D01*
X0068346Y0333053D01*
X0068336Y0332895D01*
X0068322Y0332737D01*
X0068304Y0332580D01*
X0068283Y0332423D01*
X0068257Y0332267D01*
X0068227Y0332111D01*
X0068194Y0331956D01*
X0068156Y0331803D01*
X0068115Y0331650D01*
X0068070Y0331498D01*
X0068021Y0331347D01*
X0067968Y0331198D01*
X0067912Y0331050D01*
X0067852Y0330904D01*
X0067788Y0330759D01*
X0067720Y0330616D01*
X0067649Y0330474D01*
X0067575Y0330334D01*
X0067497Y0330197D01*
X0067415Y0330061D01*
X0067331Y0329927D01*
X0067242Y0329796D01*
X0067151Y0329667D01*
X0067056Y0329540D01*
X0066959Y0329415D01*
X0066858Y0329293D01*
X0066754Y0329174D01*
X0066647Y0329057D01*
X0066537Y0328943D01*
X0066424Y0328832D01*
X0066309Y0328723D01*
X0066191Y0328618D01*
X0066070Y0328516D01*
X0065947Y0328416D01*
X0065821Y0328320D01*
X0065693Y0328227D01*
X0065563Y0328137D01*
X0065430Y0328051D01*
X0065295Y0327967D01*
X0065159Y0327888D01*
X0065020Y0327811D01*
X0064879Y0327739D01*
X0064737Y0327669D01*
X0064593Y0327604D01*
X0064447Y0327542D01*
X0064300Y0327484D01*
X0064151Y0327429D01*
X0064001Y0327378D01*
X0063850Y0327331D01*
X0063698Y0327288D01*
X0063545Y0327249D01*
X0063390Y0327213D01*
X0063235Y0327182D01*
X0063079Y0327154D01*
X0062923Y0327130D01*
X0062766Y0327110D01*
X0062608Y0327094D01*
X0062451Y0327082D01*
X0062292Y0327074D01*
X0062134Y0327070D01*
X0061976Y0327070D01*
X0061818Y0327074D01*
X0061659Y0327082D01*
X0061502Y0327094D01*
X0061344Y0327110D01*
X0061187Y0327130D01*
X0061031Y0327154D01*
X0060875Y0327182D01*
X0060720Y0327213D01*
X0060565Y0327249D01*
X0060412Y0327288D01*
X0060260Y0327331D01*
X0060109Y0327378D01*
X0059959Y0327429D01*
X0059810Y0327484D01*
X0059663Y0327542D01*
X0059517Y0327604D01*
X0059373Y0327669D01*
X0059231Y0327739D01*
X0059090Y0327811D01*
X0058951Y0327888D01*
X0058815Y0327967D01*
X0058680Y0328051D01*
X0058547Y0328137D01*
X0058417Y0328227D01*
X0058289Y0328320D01*
X0058163Y0328416D01*
X0058040Y0328516D01*
X0057919Y0328618D01*
X0057801Y0328723D01*
X0057686Y0328832D01*
X0057573Y0328943D01*
X0057463Y0329057D01*
X0057356Y0329174D01*
X0057252Y0329293D01*
X0057151Y0329415D01*
X0057054Y0329540D01*
X0056959Y0329667D01*
X0056868Y0329796D01*
X0056779Y0329927D01*
X0056695Y0330061D01*
X0056613Y0330197D01*
X0056535Y0330334D01*
X0056461Y0330474D01*
X0056390Y0330616D01*
X0056322Y0330759D01*
X0056258Y0330904D01*
X0056198Y0331050D01*
X0056142Y0331198D01*
X0056089Y0331347D01*
X0056040Y0331498D01*
X0055995Y0331650D01*
X0055954Y0331803D01*
X0055916Y0331956D01*
X0055883Y0332111D01*
X0055853Y0332267D01*
X0055827Y0332423D01*
X0055806Y0332580D01*
X0055788Y0332737D01*
X0055774Y0332895D01*
X0055764Y0333053D01*
X0055758Y0333211D01*
X0055756Y0333369D01*
X0046307Y0333369D02*
X0046312Y0333750D01*
X0046325Y0334130D01*
X0046348Y0334510D01*
X0046381Y0334889D01*
X0046422Y0335267D01*
X0046472Y0335644D01*
X0046532Y0336020D01*
X0046600Y0336395D01*
X0046678Y0336767D01*
X0046765Y0337138D01*
X0046860Y0337506D01*
X0046965Y0337872D01*
X0047078Y0338235D01*
X0047200Y0338596D01*
X0047330Y0338953D01*
X0047470Y0339307D01*
X0047617Y0339658D01*
X0047774Y0340005D01*
X0047938Y0340348D01*
X0048111Y0340687D01*
X0048292Y0341022D01*
X0048481Y0341353D01*
X0048678Y0341678D01*
X0048882Y0341999D01*
X0049095Y0342315D01*
X0049315Y0342625D01*
X0049542Y0342931D01*
X0049777Y0343230D01*
X0050019Y0343524D01*
X0050267Y0343812D01*
X0050523Y0344094D01*
X0050786Y0344369D01*
X0051055Y0344638D01*
X0051330Y0344901D01*
X0051612Y0345157D01*
X0051900Y0345405D01*
X0052194Y0345647D01*
X0052493Y0345882D01*
X0052799Y0346109D01*
X0053109Y0346329D01*
X0053425Y0346542D01*
X0053746Y0346746D01*
X0054071Y0346943D01*
X0054402Y0347132D01*
X0054737Y0347313D01*
X0055076Y0347486D01*
X0055419Y0347650D01*
X0055766Y0347807D01*
X0056117Y0347954D01*
X0056471Y0348094D01*
X0056828Y0348224D01*
X0057189Y0348346D01*
X0057552Y0348459D01*
X0057918Y0348564D01*
X0058286Y0348659D01*
X0058657Y0348746D01*
X0059029Y0348824D01*
X0059404Y0348892D01*
X0059780Y0348952D01*
X0060157Y0349002D01*
X0060535Y0349043D01*
X0060914Y0349076D01*
X0061294Y0349099D01*
X0061674Y0349112D01*
X0062055Y0349117D01*
X0046307Y0333369D02*
X0046307Y0049904D01*
X0055756Y0049904D02*
X0055758Y0050062D01*
X0055764Y0050220D01*
X0055774Y0050378D01*
X0055788Y0050536D01*
X0055806Y0050693D01*
X0055827Y0050850D01*
X0055853Y0051006D01*
X0055883Y0051162D01*
X0055916Y0051317D01*
X0055954Y0051470D01*
X0055995Y0051623D01*
X0056040Y0051775D01*
X0056089Y0051926D01*
X0056142Y0052075D01*
X0056198Y0052223D01*
X0056258Y0052369D01*
X0056322Y0052514D01*
X0056390Y0052657D01*
X0056461Y0052799D01*
X0056535Y0052939D01*
X0056613Y0053076D01*
X0056695Y0053212D01*
X0056779Y0053346D01*
X0056868Y0053477D01*
X0056959Y0053606D01*
X0057054Y0053733D01*
X0057151Y0053858D01*
X0057252Y0053980D01*
X0057356Y0054099D01*
X0057463Y0054216D01*
X0057573Y0054330D01*
X0057686Y0054441D01*
X0057801Y0054550D01*
X0057919Y0054655D01*
X0058040Y0054757D01*
X0058163Y0054857D01*
X0058289Y0054953D01*
X0058417Y0055046D01*
X0058547Y0055136D01*
X0058680Y0055222D01*
X0058815Y0055306D01*
X0058951Y0055385D01*
X0059090Y0055462D01*
X0059231Y0055534D01*
X0059373Y0055604D01*
X0059517Y0055669D01*
X0059663Y0055731D01*
X0059810Y0055789D01*
X0059959Y0055844D01*
X0060109Y0055895D01*
X0060260Y0055942D01*
X0060412Y0055985D01*
X0060565Y0056024D01*
X0060720Y0056060D01*
X0060875Y0056091D01*
X0061031Y0056119D01*
X0061187Y0056143D01*
X0061344Y0056163D01*
X0061502Y0056179D01*
X0061659Y0056191D01*
X0061818Y0056199D01*
X0061976Y0056203D01*
X0062134Y0056203D01*
X0062292Y0056199D01*
X0062451Y0056191D01*
X0062608Y0056179D01*
X0062766Y0056163D01*
X0062923Y0056143D01*
X0063079Y0056119D01*
X0063235Y0056091D01*
X0063390Y0056060D01*
X0063545Y0056024D01*
X0063698Y0055985D01*
X0063850Y0055942D01*
X0064001Y0055895D01*
X0064151Y0055844D01*
X0064300Y0055789D01*
X0064447Y0055731D01*
X0064593Y0055669D01*
X0064737Y0055604D01*
X0064879Y0055534D01*
X0065020Y0055462D01*
X0065159Y0055385D01*
X0065295Y0055306D01*
X0065430Y0055222D01*
X0065563Y0055136D01*
X0065693Y0055046D01*
X0065821Y0054953D01*
X0065947Y0054857D01*
X0066070Y0054757D01*
X0066191Y0054655D01*
X0066309Y0054550D01*
X0066424Y0054441D01*
X0066537Y0054330D01*
X0066647Y0054216D01*
X0066754Y0054099D01*
X0066858Y0053980D01*
X0066959Y0053858D01*
X0067056Y0053733D01*
X0067151Y0053606D01*
X0067242Y0053477D01*
X0067331Y0053346D01*
X0067415Y0053212D01*
X0067497Y0053076D01*
X0067575Y0052939D01*
X0067649Y0052799D01*
X0067720Y0052657D01*
X0067788Y0052514D01*
X0067852Y0052369D01*
X0067912Y0052223D01*
X0067968Y0052075D01*
X0068021Y0051926D01*
X0068070Y0051775D01*
X0068115Y0051623D01*
X0068156Y0051470D01*
X0068194Y0051317D01*
X0068227Y0051162D01*
X0068257Y0051006D01*
X0068283Y0050850D01*
X0068304Y0050693D01*
X0068322Y0050536D01*
X0068336Y0050378D01*
X0068346Y0050220D01*
X0068352Y0050062D01*
X0068354Y0049904D01*
X0068352Y0049746D01*
X0068346Y0049588D01*
X0068336Y0049430D01*
X0068322Y0049272D01*
X0068304Y0049115D01*
X0068283Y0048958D01*
X0068257Y0048802D01*
X0068227Y0048646D01*
X0068194Y0048491D01*
X0068156Y0048338D01*
X0068115Y0048185D01*
X0068070Y0048033D01*
X0068021Y0047882D01*
X0067968Y0047733D01*
X0067912Y0047585D01*
X0067852Y0047439D01*
X0067788Y0047294D01*
X0067720Y0047151D01*
X0067649Y0047009D01*
X0067575Y0046869D01*
X0067497Y0046732D01*
X0067415Y0046596D01*
X0067331Y0046462D01*
X0067242Y0046331D01*
X0067151Y0046202D01*
X0067056Y0046075D01*
X0066959Y0045950D01*
X0066858Y0045828D01*
X0066754Y0045709D01*
X0066647Y0045592D01*
X0066537Y0045478D01*
X0066424Y0045367D01*
X0066309Y0045258D01*
X0066191Y0045153D01*
X0066070Y0045051D01*
X0065947Y0044951D01*
X0065821Y0044855D01*
X0065693Y0044762D01*
X0065563Y0044672D01*
X0065430Y0044586D01*
X0065295Y0044502D01*
X0065159Y0044423D01*
X0065020Y0044346D01*
X0064879Y0044274D01*
X0064737Y0044204D01*
X0064593Y0044139D01*
X0064447Y0044077D01*
X0064300Y0044019D01*
X0064151Y0043964D01*
X0064001Y0043913D01*
X0063850Y0043866D01*
X0063698Y0043823D01*
X0063545Y0043784D01*
X0063390Y0043748D01*
X0063235Y0043717D01*
X0063079Y0043689D01*
X0062923Y0043665D01*
X0062766Y0043645D01*
X0062608Y0043629D01*
X0062451Y0043617D01*
X0062292Y0043609D01*
X0062134Y0043605D01*
X0061976Y0043605D01*
X0061818Y0043609D01*
X0061659Y0043617D01*
X0061502Y0043629D01*
X0061344Y0043645D01*
X0061187Y0043665D01*
X0061031Y0043689D01*
X0060875Y0043717D01*
X0060720Y0043748D01*
X0060565Y0043784D01*
X0060412Y0043823D01*
X0060260Y0043866D01*
X0060109Y0043913D01*
X0059959Y0043964D01*
X0059810Y0044019D01*
X0059663Y0044077D01*
X0059517Y0044139D01*
X0059373Y0044204D01*
X0059231Y0044274D01*
X0059090Y0044346D01*
X0058951Y0044423D01*
X0058815Y0044502D01*
X0058680Y0044586D01*
X0058547Y0044672D01*
X0058417Y0044762D01*
X0058289Y0044855D01*
X0058163Y0044951D01*
X0058040Y0045051D01*
X0057919Y0045153D01*
X0057801Y0045258D01*
X0057686Y0045367D01*
X0057573Y0045478D01*
X0057463Y0045592D01*
X0057356Y0045709D01*
X0057252Y0045828D01*
X0057151Y0045950D01*
X0057054Y0046075D01*
X0056959Y0046202D01*
X0056868Y0046331D01*
X0056779Y0046462D01*
X0056695Y0046596D01*
X0056613Y0046732D01*
X0056535Y0046869D01*
X0056461Y0047009D01*
X0056390Y0047151D01*
X0056322Y0047294D01*
X0056258Y0047439D01*
X0056198Y0047585D01*
X0056142Y0047733D01*
X0056089Y0047882D01*
X0056040Y0048033D01*
X0055995Y0048185D01*
X0055954Y0048338D01*
X0055916Y0048491D01*
X0055883Y0048646D01*
X0055853Y0048802D01*
X0055827Y0048958D01*
X0055806Y0049115D01*
X0055788Y0049272D01*
X0055774Y0049430D01*
X0055764Y0049588D01*
X0055758Y0049746D01*
X0055756Y0049904D01*
X0046307Y0049904D02*
X0046312Y0049523D01*
X0046325Y0049143D01*
X0046348Y0048763D01*
X0046381Y0048384D01*
X0046422Y0048006D01*
X0046472Y0047629D01*
X0046532Y0047253D01*
X0046600Y0046878D01*
X0046678Y0046506D01*
X0046765Y0046135D01*
X0046860Y0045767D01*
X0046965Y0045401D01*
X0047078Y0045038D01*
X0047200Y0044677D01*
X0047330Y0044320D01*
X0047470Y0043966D01*
X0047617Y0043615D01*
X0047774Y0043268D01*
X0047938Y0042925D01*
X0048111Y0042586D01*
X0048292Y0042251D01*
X0048481Y0041920D01*
X0048678Y0041595D01*
X0048882Y0041274D01*
X0049095Y0040958D01*
X0049315Y0040648D01*
X0049542Y0040342D01*
X0049777Y0040043D01*
X0050019Y0039749D01*
X0050267Y0039461D01*
X0050523Y0039179D01*
X0050786Y0038904D01*
X0051055Y0038635D01*
X0051330Y0038372D01*
X0051612Y0038116D01*
X0051900Y0037868D01*
X0052194Y0037626D01*
X0052493Y0037391D01*
X0052799Y0037164D01*
X0053109Y0036944D01*
X0053425Y0036731D01*
X0053746Y0036527D01*
X0054071Y0036330D01*
X0054402Y0036141D01*
X0054737Y0035960D01*
X0055076Y0035787D01*
X0055419Y0035623D01*
X0055766Y0035466D01*
X0056117Y0035319D01*
X0056471Y0035179D01*
X0056828Y0035049D01*
X0057189Y0034927D01*
X0057552Y0034814D01*
X0057918Y0034709D01*
X0058286Y0034614D01*
X0058657Y0034527D01*
X0059029Y0034449D01*
X0059404Y0034381D01*
X0059780Y0034321D01*
X0060157Y0034271D01*
X0060535Y0034230D01*
X0060914Y0034197D01*
X0061294Y0034174D01*
X0061674Y0034161D01*
X0062055Y0034156D01*
D14*
X0251307Y0334156D03*
D15*
X0265087Y0334156D03*
X0278866Y0334156D03*
D16*
X0326307Y0324156D02*
X0351307Y0324156D01*
X0361307Y0324156D02*
X0386307Y0324156D01*
X0396307Y0324156D02*
X0421307Y0299156D01*
X0431307Y0289156D01*
X0431307Y0199156D01*
X0411307Y0179156D01*
X0396307Y0164156D01*
X0396307Y0149156D01*
X0371307Y0159156D02*
X0366307Y0159156D01*
X0341307Y0184156D01*
X0326307Y0184156D01*
X0316307Y0194156D01*
X0326307Y0194156D02*
X0351307Y0194156D01*
X0361307Y0194156D02*
X0386307Y0194156D01*
X0386307Y0204156D02*
X0396307Y0194156D01*
X0411307Y0179156D01*
X0421307Y0169156D01*
X0431307Y0159156D01*
X0431307Y0089156D01*
X0406307Y0064156D01*
X0396307Y0064156D01*
X0386307Y0054156D01*
X0226307Y0054156D01*
X0216307Y0064156D01*
X0206307Y0064156D02*
X0181307Y0064156D01*
X0171307Y0064156D02*
X0146307Y0064156D01*
X0136307Y0074156D02*
X0266307Y0074156D01*
X0331307Y0074156D01*
X0396307Y0074156D01*
X0406307Y0084156D01*
X0406307Y0094156D01*
X0401307Y0099156D01*
X0396307Y0099156D01*
X0396307Y0089156D02*
X0371307Y0089156D01*
X0361307Y0079156D01*
X0191307Y0079156D01*
X0191307Y0089156D01*
X0191307Y0099156D01*
X0191307Y0079156D02*
X0146307Y0079156D01*
X0136307Y0089156D01*
X0126307Y0094156D02*
X0126307Y0084156D01*
X0136307Y0074156D01*
X0121307Y0099156D02*
X0111307Y0089156D01*
X0111307Y0099156D02*
X0111307Y0124156D01*
X0111307Y0134156D02*
X0111307Y0159156D01*
X0111307Y0169156D02*
X0111307Y0189156D01*
X0096307Y0189156D01*
X0096307Y0199156D01*
X0096307Y0284156D01*
X0111307Y0299156D01*
X0111307Y0289156D02*
X0111307Y0264156D01*
X0111307Y0254156D02*
X0111307Y0229156D01*
X0126307Y0204156D02*
X0206307Y0204156D01*
X0216307Y0194156D01*
X0241307Y0169156D01*
X0266307Y0194156D01*
X0291307Y0194156D01*
X0291307Y0169156D01*
X0291307Y0194156D02*
X0301307Y0194156D01*
X0311307Y0204156D01*
X0386307Y0204156D01*
X0421307Y0159156D02*
X0421307Y0134156D01*
X0421307Y0124156D02*
X0421307Y0099156D01*
X0386307Y0064156D02*
X0361307Y0064156D01*
X0351307Y0064156D02*
X0326307Y0064156D01*
X0371307Y0089156D02*
X0371307Y0099156D01*
X0341307Y0119156D02*
X0336307Y0119156D01*
X0366307Y0129156D02*
X0371307Y0129156D01*
X0266307Y0194156D02*
X0266307Y0284156D01*
X0281307Y0299156D01*
X0291307Y0299156D01*
X0291307Y0289156D02*
X0291307Y0264156D01*
X0291307Y0254156D02*
X0291307Y0229156D01*
X0241307Y0229156D02*
X0241307Y0254156D01*
X0241307Y0264156D02*
X0241307Y0289156D01*
X0241307Y0299156D02*
X0251307Y0299156D01*
X0266307Y0284156D01*
X0241307Y0299156D02*
X0216307Y0324156D01*
X0206307Y0324156D02*
X0181307Y0324156D01*
X0171307Y0324156D02*
X0146307Y0324156D01*
X0066307Y0264156D02*
X0056307Y0254156D01*
X0056307Y0244156D01*
X0066307Y0234156D01*
X0066307Y0199156D01*
X0066307Y0189156D02*
X0066307Y0134156D01*
X0121307Y0149156D02*
X0121307Y0099156D01*
X0126307Y0094156D02*
X0131307Y0099156D01*
X0136307Y0099156D01*
X0161307Y0099156D01*
X0191307Y0119156D02*
X0196307Y0119156D01*
X0161307Y0149156D02*
X0151307Y0149156D01*
X0141307Y0159156D01*
X0131307Y0159156D01*
X0121307Y0149156D01*
X0151307Y0179156D02*
X0136307Y0194156D01*
X0146307Y0194156D02*
X0171307Y0194156D01*
X0181307Y0194156D02*
X0206307Y0194156D01*
X0186307Y0159156D02*
X0166307Y0179156D01*
X0151307Y0179156D01*
X0126307Y0204156D02*
X0111307Y0189156D01*
X0186307Y0159156D02*
X0191307Y0159156D01*
D17*
X0331307Y0074156D03*
D18*
X0266307Y0074156D03*
D19*
X0321307Y0114156D02*
X0201307Y0114156D01*
X0196307Y0119156D01*
X0191307Y0119156D02*
X0171307Y0119156D01*
X0166307Y0124156D01*
X0151307Y0124156D01*
X0146307Y0119156D01*
X0136307Y0119156D01*
X0136307Y0109156D02*
X0146307Y0109156D01*
X0156307Y0119156D01*
X0161307Y0119156D01*
X0161307Y0109156D02*
X0166307Y0109156D01*
X0171307Y0104156D01*
X0171307Y0094156D01*
X0166307Y0089156D01*
X0161307Y0089156D01*
X0191307Y0109156D02*
X0326307Y0109156D01*
X0336307Y0119156D01*
X0331307Y0124156D02*
X0321307Y0114156D01*
X0331307Y0124156D02*
X0351307Y0124156D01*
X0356307Y0119156D01*
X0371307Y0119156D01*
X0396307Y0119156D01*
X0391307Y0124156D02*
X0361307Y0124156D01*
X0356307Y0129156D01*
X0341307Y0129156D01*
X0311307Y0129156D01*
X0296307Y0144156D01*
X0236307Y0144156D01*
X0216307Y0124156D01*
X0176307Y0124156D01*
X0171307Y0129156D01*
X0161307Y0129156D01*
X0136307Y0129156D01*
X0136307Y0139156D02*
X0141307Y0139156D01*
X0146307Y0134156D01*
X0176307Y0134156D01*
X0181307Y0129156D01*
X0191307Y0129156D01*
X0211307Y0129156D01*
X0231307Y0149156D01*
X0301307Y0149156D01*
X0316307Y0134156D01*
X0361307Y0134156D01*
X0366307Y0129156D01*
X0371307Y0129156D02*
X0386307Y0129156D01*
X0396307Y0139156D01*
X0396307Y0129156D02*
X0391307Y0124156D01*
X0396307Y0109156D02*
X0371307Y0109156D01*
X0351307Y0104156D02*
X0351307Y0094156D01*
X0346307Y0089156D01*
X0341307Y0089156D01*
X0351307Y0104156D02*
X0346307Y0109156D01*
X0341307Y0109156D01*
D20*
X0366725Y0133264D02*
X0367326Y0133264D01*
X0366901Y0133088D02*
X0364020Y0135969D01*
X0363120Y0136869D01*
X0361944Y0137356D01*
X0347724Y0137356D01*
X0348107Y0138281D01*
X0348107Y0140031D01*
X0347437Y0141649D01*
X0346199Y0142886D01*
X0344582Y0143556D01*
X0338032Y0143556D01*
X0336415Y0142886D01*
X0335177Y0141649D01*
X0334507Y0140031D01*
X0334507Y0138281D01*
X0334890Y0137356D01*
X0317633Y0137356D01*
X0304020Y0150969D01*
X0303120Y0151869D01*
X0301944Y0152356D01*
X0230671Y0152356D01*
X0229494Y0151869D01*
X0209982Y0132356D01*
X0196730Y0132356D01*
X0196199Y0132886D01*
X0194582Y0133556D01*
X0188032Y0133556D01*
X0186415Y0132886D01*
X0185885Y0132356D01*
X0182633Y0132356D01*
X0179020Y0135969D01*
X0178120Y0136869D01*
X0176944Y0137356D01*
X0167724Y0137356D01*
X0168107Y0138281D01*
X0168107Y0140031D01*
X0167437Y0141649D01*
X0166199Y0142886D01*
X0164582Y0143556D01*
X0158032Y0143556D01*
X0156415Y0142886D01*
X0155177Y0141649D01*
X0154507Y0140031D01*
X0154507Y0138281D01*
X0154890Y0137356D01*
X0147633Y0137356D01*
X0144020Y0140969D01*
X0143120Y0141869D01*
X0141944Y0142356D01*
X0141151Y0142356D01*
X0141139Y0142385D01*
X0139536Y0143988D01*
X0138843Y0144275D01*
X0139190Y0144452D01*
X0139890Y0144961D01*
X0140502Y0145573D01*
X0141011Y0146274D01*
X0141404Y0147045D01*
X0141672Y0147868D01*
X0141807Y0148723D01*
X0141807Y0148956D01*
X0136507Y0148956D01*
X0136507Y0149356D01*
X0141807Y0149356D01*
X0141807Y0149589D01*
X0141672Y0150444D01*
X0141404Y0151267D01*
X0141011Y0152039D01*
X0140502Y0152739D01*
X0139890Y0153351D01*
X0139190Y0153860D01*
X0138418Y0154253D01*
X0137595Y0154521D01*
X0136740Y0154656D01*
X0136507Y0154656D01*
X0136507Y0149356D01*
X0136107Y0149356D01*
X0136107Y0148956D01*
X0130807Y0148956D01*
X0130807Y0148723D01*
X0130943Y0147868D01*
X0131210Y0147045D01*
X0131603Y0146274D01*
X0132112Y0145573D01*
X0132724Y0144961D01*
X0133424Y0144452D01*
X0133771Y0144275D01*
X0133078Y0143988D01*
X0131475Y0142385D01*
X0130607Y0140290D01*
X0130607Y0138022D01*
X0131475Y0135927D01*
X0133078Y0134324D01*
X0133483Y0134156D01*
X0133078Y0133988D01*
X0131475Y0132385D01*
X0130607Y0130290D01*
X0130607Y0128022D01*
X0131475Y0125927D01*
X0133078Y0124324D01*
X0133483Y0124156D01*
X0133078Y0123988D01*
X0131475Y0122385D01*
X0130607Y0120290D01*
X0130607Y0118022D01*
X0131475Y0115927D01*
X0133078Y0114324D01*
X0133483Y0114156D01*
X0133078Y0113988D01*
X0131475Y0112385D01*
X0130607Y0110290D01*
X0130607Y0108022D01*
X0131475Y0105927D01*
X0133078Y0104324D01*
X0133483Y0104156D01*
X0133078Y0103988D01*
X0131846Y0102756D01*
X0130591Y0102756D01*
X0129268Y0102208D01*
X0124488Y0097428D01*
X0124907Y0098440D01*
X0124907Y0147665D01*
X0132798Y0155556D01*
X0139816Y0155556D01*
X0149268Y0146104D01*
X0150591Y0145556D01*
X0156285Y0145556D01*
X0156415Y0145426D01*
X0158032Y0144756D01*
X0164582Y0144756D01*
X0166199Y0145426D01*
X0167437Y0146664D01*
X0168107Y0148281D01*
X0168107Y0150031D01*
X0167437Y0151649D01*
X0166199Y0152886D01*
X0164582Y0153556D01*
X0158032Y0153556D01*
X0156415Y0152886D01*
X0156285Y0152756D01*
X0152798Y0152756D01*
X0144359Y0161195D01*
X0143346Y0162208D01*
X0142023Y0162756D01*
X0130591Y0162756D01*
X0129268Y0162208D01*
X0119268Y0152208D01*
X0118255Y0151195D01*
X0117707Y0149872D01*
X0117707Y0100647D01*
X0116607Y0099547D01*
X0116607Y0100210D01*
X0115800Y0102158D01*
X0114907Y0103051D01*
X0114907Y0120261D01*
X0115800Y0121154D01*
X0116607Y0123102D01*
X0116607Y0125210D01*
X0115800Y0127158D01*
X0114309Y0128649D01*
X0113086Y0129156D01*
X0114309Y0129663D01*
X0115800Y0131154D01*
X0116607Y0133102D01*
X0116607Y0135210D01*
X0115800Y0137158D01*
X0114907Y0138051D01*
X0114907Y0155261D01*
X0115800Y0156154D01*
X0116607Y0158102D01*
X0116607Y0160210D01*
X0115800Y0162158D01*
X0114309Y0163649D01*
X0112794Y0164277D01*
X0113265Y0164430D01*
X0113980Y0164794D01*
X0114630Y0165266D01*
X0115197Y0165834D01*
X0115669Y0166483D01*
X0116033Y0167198D01*
X0116281Y0167962D01*
X0116407Y0168755D01*
X0116407Y0169156D01*
X0111307Y0169156D01*
X0106207Y0169156D01*
X0106207Y0168755D01*
X0106333Y0167962D01*
X0106581Y0167198D01*
X0106945Y0166483D01*
X0107417Y0165834D01*
X0107985Y0165266D01*
X0108634Y0164794D01*
X0109349Y0164430D01*
X0109820Y0164277D01*
X0108305Y0163649D01*
X0106814Y0162158D01*
X0106007Y0160210D01*
X0106007Y0158102D01*
X0106814Y0156154D01*
X0107707Y0155261D01*
X0107707Y0138051D01*
X0106814Y0137158D01*
X0106007Y0135210D01*
X0106007Y0133102D01*
X0106814Y0131154D01*
X0108305Y0129663D01*
X0109529Y0129156D01*
X0108305Y0128649D01*
X0106814Y0127158D01*
X0106007Y0125210D01*
X0106007Y0123102D01*
X0106814Y0121154D01*
X0107707Y0120261D01*
X0107707Y0103051D01*
X0106814Y0102158D01*
X0106007Y0100210D01*
X0106007Y0098102D01*
X0106814Y0096154D01*
X0108305Y0094663D01*
X0109529Y0094156D01*
X0108305Y0093649D01*
X0106814Y0092158D01*
X0106007Y0090210D01*
X0106007Y0088102D01*
X0106814Y0086154D01*
X0108305Y0084663D01*
X0110253Y0083856D01*
X0112361Y0083856D01*
X0114309Y0084663D01*
X0115800Y0086154D01*
X0116607Y0088102D01*
X0116607Y0089365D01*
X0123126Y0095884D01*
X0122707Y0094872D01*
X0122707Y0083440D01*
X0123255Y0082117D01*
X0133255Y0072117D01*
X0134268Y0071104D01*
X0135591Y0070556D01*
X0264856Y0070556D01*
X0265535Y0070275D01*
X0267079Y0070275D01*
X0267758Y0070556D01*
X0330330Y0070556D01*
X0330571Y0070456D01*
X0332043Y0070456D01*
X0332284Y0070556D01*
X0397023Y0070556D01*
X0398346Y0071104D01*
X0399359Y0072117D01*
X0409359Y0082117D01*
X0409907Y0083440D01*
X0409907Y0094872D01*
X0409359Y0096195D01*
X0408346Y0097208D01*
X0403346Y0102208D01*
X0402023Y0102756D01*
X0400768Y0102756D01*
X0399536Y0103988D01*
X0399131Y0104156D01*
X0399536Y0104324D01*
X0401139Y0105927D01*
X0402007Y0108022D01*
X0402007Y0110290D01*
X0401139Y0112385D01*
X0399536Y0113988D01*
X0399131Y0114156D01*
X0399536Y0114324D01*
X0401139Y0115927D01*
X0402007Y0118022D01*
X0402007Y0120290D01*
X0401139Y0122385D01*
X0399536Y0123988D01*
X0399131Y0124156D01*
X0399536Y0124324D01*
X0401139Y0125927D01*
X0402007Y0128022D01*
X0402007Y0130290D01*
X0401139Y0132385D01*
X0399536Y0133988D01*
X0399131Y0134156D01*
X0399536Y0134324D01*
X0401139Y0135927D01*
X0402007Y0138022D01*
X0402007Y0140290D01*
X0401139Y0142385D01*
X0399536Y0143988D01*
X0398843Y0144275D01*
X0399190Y0144452D01*
X0399890Y0144961D01*
X0400502Y0145573D01*
X0401011Y0146274D01*
X0401404Y0147045D01*
X0401672Y0147868D01*
X0401807Y0148723D01*
X0401807Y0148956D01*
X0396507Y0148956D01*
X0396507Y0149356D01*
X0401807Y0149356D01*
X0401807Y0149589D01*
X0401672Y0150444D01*
X0401404Y0151267D01*
X0401011Y0152039D01*
X0400502Y0152739D01*
X0399890Y0153351D01*
X0399190Y0153860D01*
X0398418Y0154253D01*
X0397595Y0154521D01*
X0396740Y0154656D01*
X0396507Y0154656D01*
X0396507Y0149356D01*
X0396107Y0149356D01*
X0396107Y0148956D01*
X0390807Y0148956D01*
X0390807Y0148723D01*
X0390943Y0147868D01*
X0391210Y0147045D01*
X0391603Y0146274D01*
X0392112Y0145573D01*
X0392724Y0144961D01*
X0393424Y0144452D01*
X0393771Y0144275D01*
X0393078Y0143988D01*
X0391475Y0142385D01*
X0390607Y0140290D01*
X0390607Y0138022D01*
X0390619Y0137994D01*
X0384982Y0132356D01*
X0376730Y0132356D01*
X0376199Y0132886D01*
X0374582Y0133556D01*
X0368032Y0133556D01*
X0366901Y0133088D01*
X0367775Y0134862D02*
X0365126Y0134862D01*
X0366415Y0135426D02*
X0365177Y0136664D01*
X0364507Y0138281D01*
X0364507Y0140031D01*
X0365177Y0141649D01*
X0366415Y0142886D01*
X0368032Y0143556D01*
X0374582Y0143556D01*
X0376199Y0142886D01*
X0377437Y0141649D01*
X0378107Y0140031D01*
X0378107Y0138281D01*
X0377437Y0136664D01*
X0376199Y0135426D01*
X0374582Y0134756D01*
X0368032Y0134756D01*
X0366415Y0135426D01*
X0365380Y0136461D02*
X0363528Y0136461D01*
X0364599Y0138059D02*
X0348015Y0138059D01*
X0348107Y0139658D02*
X0364507Y0139658D01*
X0365015Y0141256D02*
X0347600Y0141256D01*
X0346231Y0142855D02*
X0366383Y0142855D01*
X0368032Y0144756D02*
X0366415Y0145426D01*
X0365177Y0146664D01*
X0364507Y0148281D01*
X0364507Y0150031D01*
X0365177Y0151649D01*
X0366415Y0152886D01*
X0368032Y0153556D01*
X0374582Y0153556D01*
X0376199Y0152886D01*
X0377437Y0151649D01*
X0378107Y0150031D01*
X0378107Y0148281D01*
X0377437Y0146664D01*
X0376199Y0145426D01*
X0374582Y0144756D01*
X0368032Y0144756D01*
X0365789Y0146052D02*
X0346825Y0146052D01*
X0347437Y0146664D02*
X0348107Y0148281D01*
X0348107Y0150031D01*
X0347437Y0151649D01*
X0346199Y0152886D01*
X0344582Y0153556D01*
X0338032Y0153556D01*
X0336415Y0152886D01*
X0335177Y0151649D01*
X0334507Y0150031D01*
X0334507Y0148281D01*
X0335177Y0146664D01*
X0336415Y0145426D01*
X0338032Y0144756D01*
X0344582Y0144756D01*
X0346199Y0145426D01*
X0347437Y0146664D01*
X0347846Y0147650D02*
X0364768Y0147650D01*
X0364507Y0149249D02*
X0348107Y0149249D01*
X0347769Y0150847D02*
X0364845Y0150847D01*
X0365974Y0152446D02*
X0346640Y0152446D01*
X0346199Y0155426D02*
X0347437Y0156664D01*
X0348107Y0158281D01*
X0348107Y0160031D01*
X0347437Y0161649D01*
X0346199Y0162886D01*
X0344582Y0163556D01*
X0338032Y0163556D01*
X0336415Y0162886D01*
X0335177Y0161649D01*
X0334507Y0160031D01*
X0334507Y0158281D01*
X0335177Y0156664D01*
X0336415Y0155426D01*
X0338032Y0154756D01*
X0344582Y0154756D01*
X0346199Y0155426D01*
X0346416Y0155643D02*
X0365381Y0155643D01*
X0365591Y0155556D02*
X0366285Y0155556D01*
X0366415Y0155426D01*
X0368032Y0154756D01*
X0374582Y0154756D01*
X0376199Y0155426D01*
X0377437Y0156664D01*
X0378107Y0158281D01*
X0378107Y0160031D01*
X0377437Y0161649D01*
X0376199Y0162886D01*
X0374582Y0163556D01*
X0368032Y0163556D01*
X0367301Y0163253D01*
X0344359Y0186195D01*
X0343346Y0187208D01*
X0342023Y0187756D01*
X0327798Y0187756D01*
X0326698Y0188856D01*
X0327361Y0188856D01*
X0329309Y0189663D01*
X0330202Y0190556D01*
X0347412Y0190556D01*
X0348305Y0189663D01*
X0350253Y0188856D01*
X0352361Y0188856D01*
X0354309Y0189663D01*
X0355800Y0191154D01*
X0356307Y0192378D01*
X0356814Y0191154D01*
X0358305Y0189663D01*
X0360253Y0188856D01*
X0362361Y0188856D01*
X0364309Y0189663D01*
X0365202Y0190556D01*
X0382412Y0190556D01*
X0383305Y0189663D01*
X0385253Y0188856D01*
X0387361Y0188856D01*
X0389309Y0189663D01*
X0390800Y0191154D01*
X0391428Y0192669D01*
X0391581Y0192198D01*
X0391945Y0191483D01*
X0392417Y0190834D01*
X0392985Y0190266D01*
X0393634Y0189794D01*
X0394349Y0189430D01*
X0395113Y0189182D01*
X0395906Y0189056D01*
X0396307Y0189056D01*
X0396307Y0194156D01*
X0396307Y0194156D01*
X0396307Y0189056D01*
X0396708Y0189056D01*
X0397501Y0189182D01*
X0398265Y0189430D01*
X0398980Y0189794D01*
X0399630Y0190266D01*
X0400197Y0190834D01*
X0400669Y0191483D01*
X0401033Y0192198D01*
X0401281Y0192962D01*
X0401407Y0193755D01*
X0401407Y0194156D01*
X0396307Y0194156D01*
X0396307Y0194156D01*
X0396307Y0199256D01*
X0395906Y0199256D01*
X0395113Y0199131D01*
X0394349Y0198883D01*
X0393634Y0198518D01*
X0392985Y0198046D01*
X0392417Y0197479D01*
X0391945Y0196829D01*
X0391581Y0196114D01*
X0391428Y0195643D01*
X0390800Y0197158D01*
X0389309Y0198649D01*
X0387361Y0199456D01*
X0385253Y0199456D01*
X0383305Y0198649D01*
X0382412Y0197756D01*
X0365202Y0197756D01*
X0364309Y0198649D01*
X0362361Y0199456D01*
X0360253Y0199456D01*
X0358305Y0198649D01*
X0356814Y0197158D01*
X0356307Y0195935D01*
X0355800Y0197158D01*
X0354309Y0198649D01*
X0352361Y0199456D01*
X0350253Y0199456D01*
X0348305Y0198649D01*
X0347412Y0197756D01*
X0330202Y0197756D01*
X0329309Y0198649D01*
X0327361Y0199456D01*
X0325253Y0199456D01*
X0323305Y0198649D01*
X0321814Y0197158D01*
X0321307Y0195935D01*
X0320800Y0197158D01*
X0319309Y0198649D01*
X0317361Y0199456D01*
X0315253Y0199456D01*
X0313305Y0198649D01*
X0311814Y0197158D01*
X0311007Y0195210D01*
X0311007Y0193102D01*
X0311814Y0191154D01*
X0313305Y0189663D01*
X0315253Y0188856D01*
X0316516Y0188856D01*
X0324268Y0181104D01*
X0325591Y0180556D01*
X0339816Y0180556D01*
X0364268Y0156104D01*
X0365591Y0155556D01*
X0363131Y0157242D02*
X0347677Y0157242D01*
X0348107Y0158840D02*
X0361532Y0158840D01*
X0359934Y0160439D02*
X0347938Y0160439D01*
X0347049Y0162037D02*
X0358335Y0162037D01*
X0356736Y0163636D02*
X0294323Y0163636D01*
X0294309Y0163649D02*
X0292794Y0164277D01*
X0293265Y0164430D01*
X0293980Y0164794D01*
X0294630Y0165266D01*
X0295197Y0165834D01*
X0295669Y0166483D01*
X0296033Y0167198D01*
X0296281Y0167962D01*
X0296407Y0168755D01*
X0296407Y0169156D01*
X0291307Y0169156D01*
X0286207Y0169156D01*
X0286207Y0168755D01*
X0286333Y0167962D01*
X0286581Y0167198D01*
X0286945Y0166483D01*
X0287417Y0165834D01*
X0287985Y0165266D01*
X0288634Y0164794D01*
X0289349Y0164430D01*
X0289820Y0164277D01*
X0288305Y0163649D01*
X0286814Y0162158D01*
X0286007Y0160210D01*
X0286007Y0158102D01*
X0286814Y0156154D01*
X0288305Y0154663D01*
X0290253Y0153856D01*
X0292361Y0153856D01*
X0294309Y0154663D01*
X0295800Y0156154D01*
X0296607Y0158102D01*
X0296607Y0160210D01*
X0295800Y0162158D01*
X0294309Y0163649D01*
X0294585Y0165234D02*
X0336878Y0165234D01*
X0336415Y0165426D02*
X0338032Y0164756D01*
X0344582Y0164756D01*
X0346199Y0165426D01*
X0347437Y0166664D01*
X0348107Y0168281D01*
X0348107Y0170031D01*
X0347437Y0171649D01*
X0346199Y0172886D01*
X0344582Y0173556D01*
X0338032Y0173556D01*
X0336415Y0172886D01*
X0335177Y0171649D01*
X0334507Y0170031D01*
X0334507Y0168281D01*
X0335177Y0166664D01*
X0336415Y0165426D01*
X0335107Y0166833D02*
X0295847Y0166833D01*
X0296356Y0168431D02*
X0334507Y0168431D01*
X0334507Y0170030D02*
X0296332Y0170030D01*
X0296281Y0170350D02*
X0296033Y0171114D01*
X0295669Y0171829D01*
X0295197Y0172479D01*
X0294630Y0173046D01*
X0293980Y0173518D01*
X0293265Y0173883D01*
X0292501Y0174131D01*
X0291708Y0174256D01*
X0291307Y0174256D01*
X0290906Y0174256D01*
X0290113Y0174131D01*
X0289349Y0173883D01*
X0288634Y0173518D01*
X0287985Y0173046D01*
X0287417Y0172479D01*
X0286945Y0171829D01*
X0286581Y0171114D01*
X0286333Y0170350D01*
X0286207Y0169558D01*
X0286207Y0169156D01*
X0291307Y0169156D01*
X0291307Y0169156D01*
X0291307Y0169156D01*
X0291307Y0174256D01*
X0291307Y0169156D01*
X0291307Y0169156D01*
X0296407Y0169156D01*
X0296407Y0169558D01*
X0296281Y0170350D01*
X0295771Y0171628D02*
X0335168Y0171628D01*
X0337236Y0173227D02*
X0294381Y0173227D01*
X0291307Y0173227D02*
X0291307Y0173227D01*
X0291307Y0171628D02*
X0291307Y0171628D01*
X0291307Y0170030D02*
X0291307Y0170030D01*
X0288233Y0173227D02*
X0244381Y0173227D01*
X0244630Y0173046D02*
X0243980Y0173518D01*
X0243265Y0173883D01*
X0242501Y0174131D01*
X0241708Y0174256D01*
X0241307Y0174256D01*
X0240906Y0174256D01*
X0240113Y0174131D01*
X0239349Y0173883D01*
X0238634Y0173518D01*
X0237985Y0173046D01*
X0237417Y0172479D01*
X0236945Y0171829D01*
X0236581Y0171114D01*
X0236333Y0170350D01*
X0236207Y0169558D01*
X0236207Y0169156D01*
X0236207Y0168755D01*
X0236333Y0167962D01*
X0236581Y0167198D01*
X0236945Y0166483D01*
X0237417Y0165834D01*
X0237985Y0165266D01*
X0238634Y0164794D01*
X0239349Y0164430D01*
X0239820Y0164277D01*
X0238305Y0163649D01*
X0236814Y0162158D01*
X0236007Y0160210D01*
X0236007Y0158102D01*
X0236814Y0156154D01*
X0238305Y0154663D01*
X0240253Y0153856D01*
X0242361Y0153856D01*
X0244309Y0154663D01*
X0245800Y0156154D01*
X0246607Y0158102D01*
X0246607Y0160210D01*
X0245800Y0162158D01*
X0244309Y0163649D01*
X0242794Y0164277D01*
X0243265Y0164430D01*
X0243980Y0164794D01*
X0244630Y0165266D01*
X0245197Y0165834D01*
X0245669Y0166483D01*
X0246033Y0167198D01*
X0246281Y0167962D01*
X0246407Y0168755D01*
X0246407Y0169156D01*
X0241307Y0169156D01*
X0236207Y0169156D01*
X0241307Y0169156D01*
X0241307Y0169156D01*
X0241307Y0169156D01*
X0241307Y0174256D01*
X0241307Y0169156D01*
X0241307Y0169156D01*
X0246407Y0169156D01*
X0246407Y0169558D01*
X0246281Y0170350D01*
X0246033Y0171114D01*
X0245669Y0171829D01*
X0245197Y0172479D01*
X0244630Y0173046D01*
X0245771Y0171628D02*
X0286843Y0171628D01*
X0286282Y0170030D02*
X0246332Y0170030D01*
X0246356Y0168431D02*
X0286258Y0168431D01*
X0286767Y0166833D02*
X0245847Y0166833D01*
X0244585Y0165234D02*
X0288029Y0165234D01*
X0288291Y0163636D02*
X0244323Y0163636D01*
X0245850Y0162037D02*
X0286764Y0162037D01*
X0286102Y0160439D02*
X0246513Y0160439D01*
X0246607Y0158840D02*
X0286007Y0158840D01*
X0286363Y0157242D02*
X0246251Y0157242D01*
X0245289Y0155643D02*
X0287325Y0155643D01*
X0289798Y0154045D02*
X0242816Y0154045D01*
X0239798Y0154045D02*
X0151510Y0154045D01*
X0149911Y0155643D02*
X0156198Y0155643D01*
X0156415Y0155426D02*
X0158032Y0154756D01*
X0164582Y0154756D01*
X0166199Y0155426D01*
X0167437Y0156664D01*
X0168107Y0158281D01*
X0168107Y0160031D01*
X0167437Y0161649D01*
X0166199Y0162886D01*
X0164582Y0163556D01*
X0158032Y0163556D01*
X0156415Y0162886D01*
X0155177Y0161649D01*
X0154507Y0160031D01*
X0154507Y0158281D01*
X0155177Y0156664D01*
X0156415Y0155426D01*
X0154938Y0157242D02*
X0148313Y0157242D01*
X0146714Y0158840D02*
X0154507Y0158840D01*
X0154676Y0160439D02*
X0145116Y0160439D01*
X0143517Y0162037D02*
X0155565Y0162037D01*
X0156878Y0165234D02*
X0114585Y0165234D01*
X0114323Y0163636D02*
X0176736Y0163636D01*
X0175138Y0165234D02*
X0165736Y0165234D01*
X0166199Y0165426D02*
X0164582Y0164756D01*
X0158032Y0164756D01*
X0156415Y0165426D01*
X0155177Y0166664D01*
X0154507Y0168281D01*
X0154507Y0170031D01*
X0155177Y0171649D01*
X0156415Y0172886D01*
X0158032Y0173556D01*
X0164582Y0173556D01*
X0166199Y0172886D01*
X0167437Y0171649D01*
X0168107Y0170031D01*
X0168107Y0168281D01*
X0167437Y0166664D01*
X0166199Y0165426D01*
X0167507Y0166833D02*
X0173539Y0166833D01*
X0171941Y0168431D02*
X0168107Y0168431D01*
X0168107Y0170030D02*
X0170342Y0170030D01*
X0168744Y0171628D02*
X0167446Y0171628D01*
X0167145Y0173227D02*
X0165378Y0173227D01*
X0165547Y0174825D02*
X0069907Y0174825D01*
X0069907Y0173227D02*
X0108233Y0173227D01*
X0107985Y0173046D02*
X0107417Y0172479D01*
X0106945Y0171829D01*
X0106581Y0171114D01*
X0106333Y0170350D01*
X0106207Y0169558D01*
X0106207Y0169156D01*
X0111307Y0169156D01*
X0111307Y0169156D01*
X0111307Y0169156D01*
X0111307Y0174256D01*
X0110906Y0174256D01*
X0110113Y0174131D01*
X0109349Y0173883D01*
X0108634Y0173518D01*
X0107985Y0173046D01*
X0106843Y0171628D02*
X0069907Y0171628D01*
X0069907Y0170030D02*
X0106282Y0170030D01*
X0106258Y0168431D02*
X0069907Y0168431D01*
X0069907Y0166833D02*
X0106767Y0166833D01*
X0108029Y0165234D02*
X0069907Y0165234D01*
X0069907Y0163636D02*
X0108291Y0163636D01*
X0106764Y0162037D02*
X0069907Y0162037D01*
X0069907Y0160439D02*
X0106102Y0160439D01*
X0106007Y0158840D02*
X0069907Y0158840D01*
X0069907Y0157242D02*
X0106363Y0157242D01*
X0107325Y0155643D02*
X0069907Y0155643D01*
X0069907Y0154045D02*
X0107707Y0154045D01*
X0107707Y0152446D02*
X0069907Y0152446D01*
X0069907Y0150847D02*
X0107707Y0150847D01*
X0107707Y0149249D02*
X0069907Y0149249D01*
X0069907Y0147650D02*
X0107707Y0147650D01*
X0107707Y0146052D02*
X0069907Y0146052D01*
X0069907Y0144453D02*
X0107707Y0144453D01*
X0107707Y0142855D02*
X0069907Y0142855D01*
X0069907Y0141256D02*
X0107707Y0141256D01*
X0107707Y0139658D02*
X0069907Y0139658D01*
X0069907Y0138059D02*
X0107707Y0138059D01*
X0106525Y0136461D02*
X0071089Y0136461D01*
X0070800Y0137158D02*
X0069907Y0138051D01*
X0069907Y0184695D01*
X0071139Y0185927D01*
X0072007Y0188022D01*
X0072007Y0190290D01*
X0071139Y0192385D01*
X0069536Y0193988D01*
X0069131Y0194156D01*
X0069536Y0194324D01*
X0071139Y0195927D01*
X0072007Y0198022D01*
X0072007Y0200290D01*
X0071139Y0202385D01*
X0069907Y0203617D01*
X0069907Y0234872D01*
X0069359Y0236195D01*
X0059907Y0245647D01*
X0059907Y0252665D01*
X0061007Y0253765D01*
X0061007Y0253102D01*
X0061814Y0251154D01*
X0063305Y0249663D01*
X0065253Y0248856D01*
X0067361Y0248856D01*
X0069309Y0249663D01*
X0070800Y0251154D01*
X0071607Y0253102D01*
X0071607Y0255210D01*
X0070800Y0257158D01*
X0069309Y0258649D01*
X0068086Y0259156D01*
X0069309Y0259663D01*
X0070800Y0261154D01*
X0071607Y0263102D01*
X0071607Y0265210D01*
X0070800Y0267158D01*
X0069309Y0268649D01*
X0067361Y0269456D01*
X0065253Y0269456D01*
X0063305Y0268649D01*
X0061814Y0267158D01*
X0061007Y0265210D01*
X0061007Y0263947D01*
X0053255Y0256195D01*
X0052707Y0254872D01*
X0052707Y0243440D01*
X0053255Y0242117D01*
X0054268Y0241104D01*
X0062707Y0232665D01*
X0062707Y0203617D01*
X0061475Y0202385D01*
X0060607Y0200290D01*
X0060607Y0198022D01*
X0061475Y0195927D01*
X0063078Y0194324D01*
X0063483Y0194156D01*
X0063078Y0193988D01*
X0061475Y0192385D01*
X0060607Y0190290D01*
X0060607Y0188022D01*
X0061475Y0185927D01*
X0062707Y0184695D01*
X0062707Y0138051D01*
X0061814Y0137158D01*
X0061007Y0135210D01*
X0061007Y0133102D01*
X0061814Y0131154D01*
X0063305Y0129663D01*
X0064529Y0129156D01*
X0063305Y0128649D01*
X0061814Y0127158D01*
X0061007Y0125210D01*
X0061007Y0123102D01*
X0061814Y0121154D01*
X0063305Y0119663D01*
X0065253Y0118856D01*
X0067361Y0118856D01*
X0069309Y0119663D01*
X0070800Y0121154D01*
X0071607Y0123102D01*
X0071607Y0125210D01*
X0070800Y0127158D01*
X0069309Y0128649D01*
X0068086Y0129156D01*
X0069309Y0129663D01*
X0070800Y0131154D01*
X0071607Y0133102D01*
X0071607Y0135210D01*
X0070800Y0137158D01*
X0071607Y0134862D02*
X0106007Y0134862D01*
X0106007Y0133264D02*
X0071607Y0133264D01*
X0071012Y0131665D02*
X0106602Y0131665D01*
X0107901Y0130067D02*
X0069713Y0130067D01*
X0069490Y0128468D02*
X0108124Y0128468D01*
X0106694Y0126870D02*
X0070920Y0126870D01*
X0071582Y0125271D02*
X0106032Y0125271D01*
X0106007Y0123673D02*
X0071607Y0123673D01*
X0071181Y0122074D02*
X0106433Y0122074D01*
X0107492Y0120476D02*
X0070122Y0120476D01*
X0067412Y0118877D02*
X0107707Y0118877D01*
X0107707Y0117279D02*
X0048807Y0117279D01*
X0048807Y0118877D02*
X0065202Y0118877D01*
X0062492Y0120476D02*
X0048807Y0120476D01*
X0048807Y0122074D02*
X0061433Y0122074D01*
X0061007Y0123673D02*
X0048807Y0123673D01*
X0048807Y0125271D02*
X0061032Y0125271D01*
X0061694Y0126870D02*
X0048807Y0126870D01*
X0048807Y0128468D02*
X0063124Y0128468D01*
X0062901Y0130067D02*
X0048807Y0130067D01*
X0048807Y0131665D02*
X0061602Y0131665D01*
X0061007Y0133264D02*
X0048807Y0133264D01*
X0048807Y0134862D02*
X0061007Y0134862D01*
X0061525Y0136461D02*
X0048807Y0136461D01*
X0048807Y0138059D02*
X0062707Y0138059D01*
X0062707Y0139658D02*
X0048807Y0139658D01*
X0048807Y0141256D02*
X0062707Y0141256D01*
X0062707Y0142855D02*
X0048807Y0142855D01*
X0048807Y0144453D02*
X0062707Y0144453D01*
X0062707Y0146052D02*
X0048807Y0146052D01*
X0048807Y0147650D02*
X0062707Y0147650D01*
X0062707Y0149249D02*
X0048807Y0149249D01*
X0048807Y0150847D02*
X0062707Y0150847D01*
X0062707Y0152446D02*
X0048807Y0152446D01*
X0048807Y0154045D02*
X0062707Y0154045D01*
X0062707Y0155643D02*
X0048807Y0155643D01*
X0048807Y0157242D02*
X0062707Y0157242D01*
X0062707Y0158840D02*
X0048807Y0158840D01*
X0048807Y0160439D02*
X0062707Y0160439D01*
X0062707Y0162037D02*
X0048807Y0162037D01*
X0048807Y0163636D02*
X0062707Y0163636D01*
X0062707Y0165234D02*
X0048807Y0165234D01*
X0048807Y0166833D02*
X0062707Y0166833D01*
X0062707Y0168431D02*
X0048807Y0168431D01*
X0048807Y0170030D02*
X0062707Y0170030D01*
X0062707Y0171628D02*
X0048807Y0171628D01*
X0048807Y0173227D02*
X0062707Y0173227D01*
X0062707Y0174825D02*
X0048807Y0174825D01*
X0048807Y0176424D02*
X0062707Y0176424D01*
X0062707Y0178022D02*
X0048807Y0178022D01*
X0048807Y0179621D02*
X0062707Y0179621D01*
X0062707Y0181219D02*
X0048807Y0181219D01*
X0048807Y0182818D02*
X0062707Y0182818D01*
X0062707Y0184416D02*
X0048807Y0184416D01*
X0048807Y0186015D02*
X0061439Y0186015D01*
X0060777Y0187613D02*
X0048807Y0187613D01*
X0048807Y0189212D02*
X0060607Y0189212D01*
X0060823Y0190810D02*
X0048807Y0190810D01*
X0048807Y0192409D02*
X0061499Y0192409D01*
X0063124Y0194007D02*
X0048807Y0194007D01*
X0048807Y0195606D02*
X0061796Y0195606D01*
X0060946Y0197204D02*
X0048807Y0197204D01*
X0048807Y0198803D02*
X0060607Y0198803D01*
X0060653Y0200401D02*
X0048807Y0200401D01*
X0048807Y0202000D02*
X0061315Y0202000D01*
X0062688Y0203598D02*
X0048807Y0203598D01*
X0048807Y0205197D02*
X0062707Y0205197D01*
X0062707Y0206795D02*
X0048807Y0206795D01*
X0048807Y0208394D02*
X0062707Y0208394D01*
X0062707Y0209992D02*
X0048807Y0209992D01*
X0048807Y0211591D02*
X0062707Y0211591D01*
X0062707Y0213189D02*
X0048807Y0213189D01*
X0048807Y0214788D02*
X0062707Y0214788D01*
X0062707Y0216386D02*
X0048807Y0216386D01*
X0048807Y0217985D02*
X0062707Y0217985D01*
X0062707Y0219583D02*
X0048807Y0219583D01*
X0048807Y0221182D02*
X0062707Y0221182D01*
X0062707Y0222780D02*
X0048807Y0222780D01*
X0048807Y0224379D02*
X0062707Y0224379D01*
X0062707Y0225978D02*
X0048807Y0225978D01*
X0048807Y0227576D02*
X0062707Y0227576D01*
X0062707Y0229175D02*
X0048807Y0229175D01*
X0048807Y0230773D02*
X0062707Y0230773D01*
X0062707Y0232372D02*
X0048807Y0232372D01*
X0048807Y0233970D02*
X0061402Y0233970D01*
X0059803Y0235569D02*
X0048807Y0235569D01*
X0048807Y0237167D02*
X0058205Y0237167D01*
X0056606Y0238766D02*
X0048807Y0238766D01*
X0048807Y0240364D02*
X0055008Y0240364D01*
X0053409Y0241963D02*
X0048807Y0241963D01*
X0048807Y0243561D02*
X0052707Y0243561D01*
X0052707Y0245160D02*
X0048807Y0245160D01*
X0048807Y0246758D02*
X0052707Y0246758D01*
X0052707Y0248357D02*
X0048807Y0248357D01*
X0048807Y0249955D02*
X0052707Y0249955D01*
X0052707Y0251554D02*
X0048807Y0251554D01*
X0048807Y0253152D02*
X0052707Y0253152D01*
X0052707Y0254751D02*
X0048807Y0254751D01*
X0048807Y0256349D02*
X0053409Y0256349D01*
X0055008Y0257948D02*
X0048807Y0257948D01*
X0048807Y0259546D02*
X0056606Y0259546D01*
X0058205Y0261145D02*
X0048807Y0261145D01*
X0048807Y0262743D02*
X0059803Y0262743D01*
X0061007Y0264342D02*
X0048807Y0264342D01*
X0048807Y0265940D02*
X0061309Y0265940D01*
X0062194Y0267539D02*
X0048807Y0267539D01*
X0048807Y0269137D02*
X0064483Y0269137D01*
X0068131Y0269137D02*
X0107707Y0269137D01*
X0107707Y0268051D02*
X0106814Y0267158D01*
X0106007Y0265210D01*
X0106007Y0263102D01*
X0106814Y0261154D01*
X0108305Y0259663D01*
X0109529Y0259156D01*
X0108305Y0258649D01*
X0106814Y0257158D01*
X0106007Y0255210D01*
X0106007Y0253102D01*
X0106814Y0251154D01*
X0107707Y0250261D01*
X0107707Y0233051D01*
X0106814Y0232158D01*
X0106007Y0230210D01*
X0106007Y0228102D01*
X0106814Y0226154D01*
X0108305Y0224663D01*
X0109529Y0224156D01*
X0108305Y0223649D01*
X0106814Y0222158D01*
X0106007Y0220210D01*
X0106007Y0218102D01*
X0106814Y0216154D01*
X0108305Y0214663D01*
X0110253Y0213856D01*
X0112361Y0213856D01*
X0114309Y0214663D01*
X0115800Y0216154D01*
X0116607Y0218102D01*
X0116607Y0220210D01*
X0115800Y0222158D01*
X0114309Y0223649D01*
X0113086Y0224156D01*
X0114309Y0224663D01*
X0115800Y0226154D01*
X0116607Y0228102D01*
X0116607Y0230210D01*
X0115800Y0232158D01*
X0114907Y0233051D01*
X0114907Y0250261D01*
X0115800Y0251154D01*
X0116607Y0253102D01*
X0116607Y0255210D01*
X0115800Y0257158D01*
X0114309Y0258649D01*
X0113086Y0259156D01*
X0114309Y0259663D01*
X0115800Y0261154D01*
X0116607Y0263102D01*
X0116607Y0265210D01*
X0115800Y0267158D01*
X0114907Y0268051D01*
X0114907Y0285261D01*
X0115800Y0286154D01*
X0116607Y0288102D01*
X0116607Y0290210D01*
X0115800Y0292158D01*
X0114309Y0293649D01*
X0112794Y0294277D01*
X0113265Y0294430D01*
X0113980Y0294794D01*
X0114630Y0295266D01*
X0115197Y0295834D01*
X0115669Y0296483D01*
X0116033Y0297198D01*
X0116281Y0297962D01*
X0116407Y0298755D01*
X0116407Y0299156D01*
X0111307Y0299156D01*
X0106207Y0299156D01*
X0106207Y0298755D01*
X0106333Y0297962D01*
X0106581Y0297198D01*
X0106945Y0296483D01*
X0107417Y0295834D01*
X0107985Y0295266D01*
X0108634Y0294794D01*
X0109349Y0294430D01*
X0109820Y0294277D01*
X0108305Y0293649D01*
X0106814Y0292158D01*
X0106007Y0290210D01*
X0106007Y0288102D01*
X0106814Y0286154D01*
X0107707Y0285261D01*
X0107707Y0268051D01*
X0107194Y0267539D02*
X0070420Y0267539D01*
X0071305Y0265940D02*
X0106309Y0265940D01*
X0106007Y0264342D02*
X0071607Y0264342D01*
X0071459Y0262743D02*
X0106156Y0262743D01*
X0106823Y0261145D02*
X0070791Y0261145D01*
X0069027Y0259546D02*
X0108587Y0259546D01*
X0107603Y0257948D02*
X0070011Y0257948D01*
X0071135Y0256349D02*
X0106479Y0256349D01*
X0106007Y0254751D02*
X0071607Y0254751D01*
X0071607Y0253152D02*
X0106007Y0253152D01*
X0106648Y0251554D02*
X0070966Y0251554D01*
X0069601Y0249955D02*
X0107707Y0249955D01*
X0107707Y0248357D02*
X0059907Y0248357D01*
X0059907Y0249955D02*
X0063013Y0249955D01*
X0061648Y0251554D02*
X0059907Y0251554D01*
X0060394Y0253152D02*
X0061007Y0253152D01*
X0059907Y0246758D02*
X0107707Y0246758D01*
X0107707Y0245160D02*
X0060395Y0245160D01*
X0061993Y0243561D02*
X0107707Y0243561D01*
X0107707Y0241963D02*
X0063592Y0241963D01*
X0065190Y0240364D02*
X0107707Y0240364D01*
X0107707Y0238766D02*
X0066789Y0238766D01*
X0068387Y0237167D02*
X0107707Y0237167D01*
X0107707Y0235569D02*
X0069619Y0235569D01*
X0069907Y0233970D02*
X0107707Y0233970D01*
X0107027Y0232372D02*
X0069907Y0232372D01*
X0069907Y0230773D02*
X0106240Y0230773D01*
X0106007Y0229175D02*
X0069907Y0229175D01*
X0069907Y0227576D02*
X0106225Y0227576D01*
X0106990Y0225978D02*
X0069907Y0225978D01*
X0069907Y0224379D02*
X0108991Y0224379D01*
X0107436Y0222780D02*
X0069907Y0222780D01*
X0069907Y0221182D02*
X0106410Y0221182D01*
X0106007Y0219583D02*
X0069907Y0219583D01*
X0069907Y0217985D02*
X0106056Y0217985D01*
X0106718Y0216386D02*
X0069907Y0216386D01*
X0069907Y0214788D02*
X0108180Y0214788D01*
X0114434Y0214788D02*
X0238180Y0214788D01*
X0238305Y0214663D02*
X0240253Y0213856D01*
X0242361Y0213856D01*
X0244309Y0214663D01*
X0245800Y0216154D01*
X0246607Y0218102D01*
X0246607Y0220210D01*
X0245800Y0222158D01*
X0244309Y0223649D01*
X0243086Y0224156D01*
X0244309Y0224663D01*
X0245800Y0226154D01*
X0246607Y0228102D01*
X0246607Y0230210D01*
X0245800Y0232158D01*
X0244907Y0233051D01*
X0244907Y0250261D01*
X0245800Y0251154D01*
X0246607Y0253102D01*
X0246607Y0255210D01*
X0245800Y0257158D01*
X0244309Y0258649D01*
X0243086Y0259156D01*
X0244309Y0259663D01*
X0245800Y0261154D01*
X0246607Y0263102D01*
X0246607Y0265210D01*
X0245800Y0267158D01*
X0244907Y0268051D01*
X0244907Y0285261D01*
X0245800Y0286154D01*
X0246607Y0288102D01*
X0246607Y0290210D01*
X0245800Y0292158D01*
X0244309Y0293649D01*
X0242794Y0294277D01*
X0243265Y0294430D01*
X0243980Y0294794D01*
X0244630Y0295266D01*
X0245197Y0295834D01*
X0245669Y0296483D01*
X0246033Y0297198D01*
X0246281Y0297962D01*
X0246407Y0298755D01*
X0246407Y0299156D01*
X0241307Y0299156D01*
X0236207Y0299156D01*
X0236207Y0298755D01*
X0236333Y0297962D01*
X0236581Y0297198D01*
X0236945Y0296483D01*
X0237417Y0295834D01*
X0237985Y0295266D01*
X0238634Y0294794D01*
X0239349Y0294430D01*
X0239820Y0294277D01*
X0238305Y0293649D01*
X0236814Y0292158D01*
X0236007Y0290210D01*
X0236007Y0288102D01*
X0236814Y0286154D01*
X0237707Y0285261D01*
X0237707Y0268051D01*
X0236814Y0267158D01*
X0236007Y0265210D01*
X0236007Y0263102D01*
X0236814Y0261154D01*
X0238305Y0259663D01*
X0239529Y0259156D01*
X0238305Y0258649D01*
X0236814Y0257158D01*
X0236007Y0255210D01*
X0236007Y0253102D01*
X0236814Y0251154D01*
X0237707Y0250261D01*
X0237707Y0233051D01*
X0236814Y0232158D01*
X0236007Y0230210D01*
X0236007Y0228102D01*
X0236814Y0226154D01*
X0238305Y0224663D01*
X0239529Y0224156D01*
X0238305Y0223649D01*
X0236814Y0222158D01*
X0236007Y0220210D01*
X0236007Y0218102D01*
X0236814Y0216154D01*
X0238305Y0214663D01*
X0236718Y0216386D02*
X0115896Y0216386D01*
X0116559Y0217985D02*
X0236056Y0217985D01*
X0236007Y0219583D02*
X0116607Y0219583D01*
X0116205Y0221182D02*
X0236410Y0221182D01*
X0237436Y0222780D02*
X0115178Y0222780D01*
X0113624Y0224379D02*
X0238991Y0224379D01*
X0236990Y0225978D02*
X0115624Y0225978D01*
X0116389Y0227576D02*
X0236225Y0227576D01*
X0236007Y0229175D02*
X0116607Y0229175D01*
X0116374Y0230773D02*
X0236240Y0230773D01*
X0237027Y0232372D02*
X0115587Y0232372D01*
X0114907Y0233970D02*
X0237707Y0233970D01*
X0237707Y0235569D02*
X0114907Y0235569D01*
X0114907Y0237167D02*
X0237707Y0237167D01*
X0237707Y0238766D02*
X0114907Y0238766D01*
X0114907Y0240364D02*
X0237707Y0240364D01*
X0237707Y0241963D02*
X0114907Y0241963D01*
X0114907Y0243561D02*
X0237707Y0243561D01*
X0237707Y0245160D02*
X0114907Y0245160D01*
X0114907Y0246758D02*
X0237707Y0246758D01*
X0237707Y0248357D02*
X0114907Y0248357D01*
X0114907Y0249955D02*
X0237707Y0249955D01*
X0236648Y0251554D02*
X0115966Y0251554D01*
X0116607Y0253152D02*
X0236007Y0253152D01*
X0236007Y0254751D02*
X0116607Y0254751D01*
X0116135Y0256349D02*
X0236479Y0256349D01*
X0237603Y0257948D02*
X0115011Y0257948D01*
X0114027Y0259546D02*
X0238587Y0259546D01*
X0236823Y0261145D02*
X0115791Y0261145D01*
X0116459Y0262743D02*
X0236156Y0262743D01*
X0236007Y0264342D02*
X0116607Y0264342D01*
X0116305Y0265940D02*
X0236309Y0265940D01*
X0237194Y0267539D02*
X0115420Y0267539D01*
X0114907Y0269137D02*
X0237707Y0269137D01*
X0237707Y0270736D02*
X0114907Y0270736D01*
X0114907Y0272334D02*
X0237707Y0272334D01*
X0237707Y0273933D02*
X0114907Y0273933D01*
X0114907Y0275531D02*
X0237707Y0275531D01*
X0237707Y0277130D02*
X0114907Y0277130D01*
X0114907Y0278728D02*
X0237707Y0278728D01*
X0237707Y0280327D02*
X0114907Y0280327D01*
X0114907Y0281925D02*
X0237707Y0281925D01*
X0237707Y0283524D02*
X0114907Y0283524D01*
X0114907Y0285122D02*
X0237707Y0285122D01*
X0236579Y0286721D02*
X0116035Y0286721D01*
X0116607Y0288319D02*
X0236007Y0288319D01*
X0236007Y0289918D02*
X0116607Y0289918D01*
X0116066Y0291516D02*
X0236548Y0291516D01*
X0237771Y0293115D02*
X0114844Y0293115D01*
X0113822Y0294714D02*
X0238793Y0294714D01*
X0237070Y0296312D02*
X0115545Y0296312D01*
X0116265Y0297911D02*
X0236349Y0297911D01*
X0236207Y0299156D02*
X0241307Y0299156D01*
X0241307Y0299156D01*
X0241307Y0299156D01*
X0241307Y0304256D01*
X0240906Y0304256D01*
X0240113Y0304131D01*
X0239349Y0303883D01*
X0238634Y0303518D01*
X0237985Y0303046D01*
X0237417Y0302479D01*
X0236945Y0301829D01*
X0236581Y0301114D01*
X0236333Y0300350D01*
X0236207Y0299558D01*
X0236207Y0299156D01*
X0236207Y0299509D02*
X0116407Y0299509D01*
X0116407Y0299558D02*
X0116281Y0300350D01*
X0116033Y0301114D01*
X0115669Y0301829D01*
X0115197Y0302479D01*
X0114630Y0303046D01*
X0113980Y0303518D01*
X0113265Y0303883D01*
X0112501Y0304131D01*
X0111708Y0304256D01*
X0111307Y0304256D01*
X0110906Y0304256D01*
X0110113Y0304131D01*
X0109349Y0303883D01*
X0108634Y0303518D01*
X0107985Y0303046D01*
X0107417Y0302479D01*
X0106945Y0301829D01*
X0106581Y0301114D01*
X0106333Y0300350D01*
X0106207Y0299558D01*
X0106207Y0299156D01*
X0111307Y0299156D01*
X0111307Y0299156D01*
X0111307Y0299156D01*
X0111307Y0304256D01*
X0111307Y0299156D01*
X0111307Y0299156D01*
X0116407Y0299156D01*
X0116407Y0299558D01*
X0116035Y0301108D02*
X0236579Y0301108D01*
X0237645Y0302706D02*
X0114970Y0302706D01*
X0111307Y0302706D02*
X0111307Y0302706D01*
X0111307Y0301108D02*
X0111307Y0301108D01*
X0111307Y0299509D02*
X0111307Y0299509D01*
X0107645Y0302706D02*
X0048807Y0302706D01*
X0048807Y0301108D02*
X0106579Y0301108D01*
X0106207Y0299509D02*
X0048807Y0299509D01*
X0048807Y0297911D02*
X0106349Y0297911D01*
X0107070Y0296312D02*
X0048807Y0296312D01*
X0048807Y0294714D02*
X0108793Y0294714D01*
X0107771Y0293115D02*
X0048807Y0293115D01*
X0048807Y0291516D02*
X0106548Y0291516D01*
X0106007Y0289918D02*
X0048807Y0289918D01*
X0048807Y0288319D02*
X0106007Y0288319D01*
X0106579Y0286721D02*
X0048807Y0286721D01*
X0048807Y0285122D02*
X0107707Y0285122D01*
X0107707Y0283524D02*
X0048807Y0283524D01*
X0048807Y0281925D02*
X0107707Y0281925D01*
X0107707Y0280327D02*
X0048807Y0280327D01*
X0048807Y0278728D02*
X0107707Y0278728D01*
X0107707Y0277130D02*
X0048807Y0277130D01*
X0048807Y0275531D02*
X0107707Y0275531D01*
X0107707Y0273933D02*
X0048807Y0273933D01*
X0048807Y0272334D02*
X0107707Y0272334D01*
X0107707Y0270736D02*
X0048807Y0270736D01*
X0048807Y0304305D02*
X0437708Y0304305D01*
X0437708Y0305903D02*
X0048807Y0305903D01*
X0048807Y0307502D02*
X0437708Y0307502D01*
X0437708Y0309100D02*
X0048807Y0309100D01*
X0048807Y0310699D02*
X0437708Y0310699D01*
X0437708Y0312297D02*
X0048807Y0312297D01*
X0048807Y0313896D02*
X0437708Y0313896D01*
X0437708Y0315494D02*
X0048807Y0315494D01*
X0048807Y0317093D02*
X0437708Y0317093D01*
X0437708Y0318691D02*
X0048807Y0318691D01*
X0048807Y0319558D02*
X0061309Y0319558D01*
X0061371Y0319504D01*
X0062126Y0319558D01*
X0062884Y0319558D01*
X0062942Y0319616D01*
X0063215Y0319636D01*
X0063352Y0319548D01*
X0064021Y0319693D01*
X0064705Y0319742D01*
X0064812Y0319865D01*
X0065157Y0319940D01*
X0065305Y0319873D01*
X0065948Y0320112D01*
X0066617Y0320258D01*
X0066705Y0320395D01*
X0067037Y0320519D01*
X0067193Y0320473D01*
X0067795Y0320801D01*
X0068437Y0321041D01*
X0068504Y0321189D01*
X0068815Y0321358D01*
X0068976Y0321335D01*
X0069525Y0321746D01*
X0070126Y0322074D01*
X0070172Y0322231D01*
X0070455Y0322443D01*
X0070618Y0322443D01*
X0071103Y0322927D01*
X0071651Y0323338D01*
X0071675Y0323499D01*
X0071925Y0323749D01*
X0072086Y0323772D01*
X0072497Y0324321D01*
X0072981Y0324806D01*
X0072981Y0324969D01*
X0073193Y0325252D01*
X0073349Y0325298D01*
X0073678Y0325899D01*
X0074089Y0326448D01*
X0074066Y0326609D01*
X0074235Y0326920D01*
X0074383Y0326987D01*
X0074623Y0327629D01*
X0074951Y0328231D01*
X0074905Y0328387D01*
X0075029Y0328719D01*
X0075166Y0328807D01*
X0075312Y0329476D01*
X0075551Y0330118D01*
X0075483Y0330267D01*
X0075559Y0330612D01*
X0075682Y0330719D01*
X0075731Y0331402D01*
X0075876Y0332072D01*
X0075788Y0332209D01*
X0075808Y0332482D01*
X0075866Y0332540D01*
X0075866Y0333297D01*
X0075920Y0334052D01*
X0075866Y0334115D01*
X0075866Y0346656D01*
X0410449Y0346656D01*
X0410449Y0334115D01*
X0410395Y0334052D01*
X0410449Y0333297D01*
X0410449Y0332540D01*
X0410507Y0332482D01*
X0410527Y0332209D01*
X0410439Y0332072D01*
X0410584Y0331402D01*
X0410633Y0330719D01*
X0410756Y0330612D01*
X0410831Y0330267D01*
X0410764Y0330118D01*
X0411003Y0329476D01*
X0411149Y0328807D01*
X0411286Y0328719D01*
X0411410Y0328387D01*
X0411364Y0328231D01*
X0411692Y0327629D01*
X0411932Y0326987D01*
X0412080Y0326920D01*
X0412249Y0326609D01*
X0412226Y0326448D01*
X0412637Y0325899D01*
X0412965Y0325298D01*
X0413122Y0325252D01*
X0413334Y0324969D01*
X0413334Y0324806D01*
X0413818Y0324321D01*
X0414229Y0323772D01*
X0414390Y0323749D01*
X0414640Y0323499D01*
X0414664Y0323338D01*
X0415212Y0322927D01*
X0415697Y0322443D01*
X0415860Y0322443D01*
X0416143Y0322231D01*
X0416189Y0322074D01*
X0416790Y0321746D01*
X0417339Y0321335D01*
X0417500Y0321358D01*
X0417811Y0321189D01*
X0417878Y0321041D01*
X0418520Y0320801D01*
X0419122Y0320473D01*
X0419278Y0320519D01*
X0419610Y0320395D01*
X0419698Y0320258D01*
X0420367Y0320112D01*
X0421010Y0319873D01*
X0421158Y0319940D01*
X0421503Y0319865D01*
X0421610Y0319742D01*
X0422294Y0319693D01*
X0422963Y0319548D01*
X0423100Y0319636D01*
X0423373Y0319616D01*
X0423431Y0319558D01*
X0424188Y0319558D01*
X0424943Y0319504D01*
X0425006Y0319558D01*
X0437708Y0319558D01*
X0437708Y0063715D01*
X0425006Y0063715D01*
X0424943Y0063769D01*
X0424188Y0063715D01*
X0423431Y0063715D01*
X0423373Y0063657D01*
X0423100Y0063637D01*
X0422963Y0063725D01*
X0422294Y0063580D01*
X0421610Y0063531D01*
X0421503Y0063408D01*
X0421158Y0063333D01*
X0421010Y0063400D01*
X0420367Y0063161D01*
X0419698Y0063015D01*
X0419610Y0062878D01*
X0419278Y0062754D01*
X0419122Y0062800D01*
X0418520Y0062472D01*
X0417878Y0062232D01*
X0417811Y0062084D01*
X0417500Y0061915D01*
X0417339Y0061938D01*
X0416790Y0061527D01*
X0416189Y0061199D01*
X0416143Y0061042D01*
X0415860Y0060830D01*
X0415697Y0060830D01*
X0415212Y0060346D01*
X0414664Y0059935D01*
X0414640Y0059774D01*
X0414390Y0059524D01*
X0414229Y0059500D01*
X0413818Y0058952D01*
X0413334Y0058467D01*
X0413334Y0058304D01*
X0413122Y0058021D01*
X0412965Y0057975D01*
X0412637Y0057374D01*
X0412226Y0056825D01*
X0412249Y0056664D01*
X0412080Y0056353D01*
X0411932Y0056286D01*
X0411692Y0055644D01*
X0411364Y0055042D01*
X0411410Y0054886D01*
X0411286Y0054554D01*
X0411149Y0054466D01*
X0411003Y0053797D01*
X0410764Y0053154D01*
X0410831Y0053006D01*
X0410756Y0052661D01*
X0410633Y0052554D01*
X0410584Y0051870D01*
X0410439Y0051201D01*
X0410527Y0051064D01*
X0410507Y0050791D01*
X0410449Y0050733D01*
X0410449Y0049976D01*
X0410395Y0049221D01*
X0410449Y0049158D01*
X0410449Y0036656D01*
X0075866Y0036656D01*
X0075866Y0049158D01*
X0075920Y0049221D01*
X0075866Y0049976D01*
X0075866Y0050733D01*
X0075808Y0050791D01*
X0075788Y0051064D01*
X0075876Y0051201D01*
X0075731Y0051870D01*
X0075682Y0052554D01*
X0075559Y0052661D01*
X0075483Y0053006D01*
X0075551Y0053154D01*
X0075312Y0053797D01*
X0075166Y0054466D01*
X0075029Y0054554D01*
X0074905Y0054886D01*
X0074951Y0055042D01*
X0074623Y0055644D01*
X0074383Y0056286D01*
X0074235Y0056353D01*
X0074066Y0056664D01*
X0074089Y0056825D01*
X0073678Y0057374D01*
X0073349Y0057975D01*
X0073193Y0058021D01*
X0072981Y0058304D01*
X0072981Y0058467D01*
X0072497Y0058952D01*
X0072086Y0059500D01*
X0071925Y0059524D01*
X0071675Y0059774D01*
X0071651Y0059935D01*
X0071103Y0060346D01*
X0070618Y0060830D01*
X0070455Y0060830D01*
X0070172Y0061042D01*
X0070126Y0061199D01*
X0069525Y0061527D01*
X0068976Y0061938D01*
X0068815Y0061915D01*
X0068504Y0062084D01*
X0068437Y0062232D01*
X0067795Y0062472D01*
X0067193Y0062800D01*
X0067037Y0062754D01*
X0066705Y0062878D01*
X0066617Y0063015D01*
X0065948Y0063161D01*
X0065305Y0063400D01*
X0065157Y0063333D01*
X0064812Y0063408D01*
X0064705Y0063531D01*
X0064021Y0063580D01*
X0063352Y0063725D01*
X0063215Y0063637D01*
X0062942Y0063657D01*
X0062884Y0063715D01*
X0062127Y0063715D01*
X0061371Y0063769D01*
X0061309Y0063715D01*
X0048807Y0063715D01*
X0048807Y0319558D01*
X0066638Y0320290D02*
X0132678Y0320290D01*
X0133305Y0319663D02*
X0135253Y0318856D01*
X0137361Y0318856D01*
X0139309Y0319663D01*
X0140800Y0321154D01*
X0141307Y0322378D01*
X0141814Y0321154D01*
X0143305Y0319663D01*
X0145253Y0318856D01*
X0147361Y0318856D01*
X0149309Y0319663D01*
X0150202Y0320556D01*
X0167412Y0320556D01*
X0168305Y0319663D01*
X0170253Y0318856D01*
X0172361Y0318856D01*
X0174309Y0319663D01*
X0175800Y0321154D01*
X0176307Y0322378D01*
X0176814Y0321154D01*
X0178305Y0319663D01*
X0180253Y0318856D01*
X0182361Y0318856D01*
X0184309Y0319663D01*
X0185202Y0320556D01*
X0202412Y0320556D01*
X0203305Y0319663D01*
X0205253Y0318856D01*
X0207361Y0318856D01*
X0209309Y0319663D01*
X0210800Y0321154D01*
X0211428Y0322669D01*
X0211581Y0322198D01*
X0211945Y0321483D01*
X0212417Y0320834D01*
X0212985Y0320266D01*
X0213634Y0319794D01*
X0214349Y0319430D01*
X0215113Y0319182D01*
X0215906Y0319056D01*
X0216307Y0319056D01*
X0216307Y0324156D01*
X0216307Y0324156D01*
X0216307Y0319056D01*
X0216708Y0319056D01*
X0217501Y0319182D01*
X0218265Y0319430D01*
X0218980Y0319794D01*
X0219630Y0320266D01*
X0220197Y0320834D01*
X0220669Y0321483D01*
X0221033Y0322198D01*
X0221281Y0322962D01*
X0221407Y0323755D01*
X0221407Y0324156D01*
X0216307Y0324156D01*
X0216307Y0324156D01*
X0216307Y0329256D01*
X0215906Y0329256D01*
X0215113Y0329131D01*
X0214349Y0328883D01*
X0213634Y0328518D01*
X0212985Y0328046D01*
X0212417Y0327479D01*
X0211945Y0326829D01*
X0211581Y0326114D01*
X0211428Y0325643D01*
X0210800Y0327158D01*
X0209309Y0328649D01*
X0207361Y0329456D01*
X0205253Y0329456D01*
X0203305Y0328649D01*
X0202412Y0327756D01*
X0185202Y0327756D01*
X0184309Y0328649D01*
X0182361Y0329456D01*
X0180253Y0329456D01*
X0178305Y0328649D01*
X0176814Y0327158D01*
X0176307Y0325935D01*
X0175800Y0327158D01*
X0174309Y0328649D01*
X0172361Y0329456D01*
X0170253Y0329456D01*
X0168305Y0328649D01*
X0167412Y0327756D01*
X0150202Y0327756D01*
X0149309Y0328649D01*
X0147361Y0329456D01*
X0145253Y0329456D01*
X0143305Y0328649D01*
X0141814Y0327158D01*
X0141307Y0325935D01*
X0140800Y0327158D01*
X0139309Y0328649D01*
X0137361Y0329456D01*
X0135253Y0329456D01*
X0133305Y0328649D01*
X0131814Y0327158D01*
X0131007Y0325210D01*
X0131007Y0323102D01*
X0131814Y0321154D01*
X0133305Y0319663D01*
X0131510Y0321888D02*
X0069785Y0321888D01*
X0071673Y0323487D02*
X0131007Y0323487D01*
X0131007Y0325085D02*
X0073069Y0325085D01*
X0074106Y0326684D02*
X0131617Y0326684D01*
X0132938Y0328282D02*
X0074936Y0328282D01*
X0075462Y0329881D02*
X0244557Y0329881D01*
X0244557Y0328578D02*
X0245729Y0327406D01*
X0256886Y0327406D01*
X0258057Y0328578D01*
X0258057Y0339735D01*
X0256886Y0340906D01*
X0245729Y0340906D01*
X0244557Y0339735D01*
X0244557Y0328578D01*
X0244853Y0328282D02*
X0219305Y0328282D01*
X0219630Y0328046D02*
X0218980Y0328518D01*
X0218265Y0328883D01*
X0217501Y0329131D01*
X0216708Y0329256D01*
X0216307Y0329256D01*
X0216307Y0324156D01*
X0216307Y0324156D01*
X0221407Y0324156D01*
X0221407Y0324558D01*
X0221281Y0325350D01*
X0221033Y0326114D01*
X0220669Y0326829D01*
X0220197Y0327479D01*
X0219630Y0328046D01*
X0220743Y0326684D02*
X0311617Y0326684D01*
X0311814Y0327158D02*
X0311007Y0325210D01*
X0311007Y0323102D01*
X0311814Y0321154D01*
X0313305Y0319663D01*
X0315253Y0318856D01*
X0317361Y0318856D01*
X0319309Y0319663D01*
X0320800Y0321154D01*
X0321307Y0322378D01*
X0321814Y0321154D01*
X0323305Y0319663D01*
X0325253Y0318856D01*
X0327361Y0318856D01*
X0329309Y0319663D01*
X0330202Y0320556D01*
X0347412Y0320556D01*
X0348305Y0319663D01*
X0350253Y0318856D01*
X0352361Y0318856D01*
X0354309Y0319663D01*
X0355800Y0321154D01*
X0356307Y0322378D01*
X0356814Y0321154D01*
X0358305Y0319663D01*
X0360253Y0318856D01*
X0362361Y0318856D01*
X0364309Y0319663D01*
X0365202Y0320556D01*
X0382412Y0320556D01*
X0383305Y0319663D01*
X0385253Y0318856D01*
X0387361Y0318856D01*
X0389309Y0319663D01*
X0390800Y0321154D01*
X0391428Y0322669D01*
X0391581Y0322198D01*
X0391945Y0321483D01*
X0392417Y0320834D01*
X0392985Y0320266D01*
X0393634Y0319794D01*
X0394349Y0319430D01*
X0395113Y0319182D01*
X0395906Y0319056D01*
X0396307Y0319056D01*
X0396307Y0324156D01*
X0396307Y0324156D01*
X0396307Y0319056D01*
X0396708Y0319056D01*
X0397501Y0319182D01*
X0398265Y0319430D01*
X0398980Y0319794D01*
X0399630Y0320266D01*
X0400197Y0320834D01*
X0400669Y0321483D01*
X0401033Y0322198D01*
X0401281Y0322962D01*
X0401407Y0323755D01*
X0401407Y0324156D01*
X0396307Y0324156D01*
X0396307Y0324156D01*
X0396307Y0329256D01*
X0395906Y0329256D01*
X0395113Y0329131D01*
X0394349Y0328883D01*
X0393634Y0328518D01*
X0392985Y0328046D01*
X0392417Y0327479D01*
X0391945Y0326829D01*
X0391581Y0326114D01*
X0391428Y0325643D01*
X0390800Y0327158D01*
X0389309Y0328649D01*
X0387361Y0329456D01*
X0385253Y0329456D01*
X0383305Y0328649D01*
X0382412Y0327756D01*
X0365202Y0327756D01*
X0364309Y0328649D01*
X0362361Y0329456D01*
X0360253Y0329456D01*
X0358305Y0328649D01*
X0356814Y0327158D01*
X0356307Y0325935D01*
X0355800Y0327158D01*
X0354309Y0328649D01*
X0352361Y0329456D01*
X0350253Y0329456D01*
X0348305Y0328649D01*
X0347412Y0327756D01*
X0330202Y0327756D01*
X0329309Y0328649D01*
X0327361Y0329456D01*
X0325253Y0329456D01*
X0323305Y0328649D01*
X0321814Y0327158D01*
X0321307Y0325935D01*
X0320800Y0327158D01*
X0319309Y0328649D01*
X0317361Y0329456D01*
X0315253Y0329456D01*
X0313305Y0328649D01*
X0311814Y0327158D01*
X0312938Y0328282D02*
X0281792Y0328282D01*
X0281769Y0328269D02*
X0282513Y0328698D01*
X0283194Y0329221D01*
X0283801Y0329828D01*
X0284324Y0330509D01*
X0284753Y0331253D01*
X0285082Y0332046D01*
X0285304Y0332876D01*
X0285416Y0333727D01*
X0285416Y0333775D01*
X0279247Y0333775D01*
X0279247Y0327606D01*
X0279295Y0327606D01*
X0280147Y0327718D01*
X0280976Y0327940D01*
X0281769Y0328269D01*
X0279247Y0328282D02*
X0278485Y0328282D01*
X0278485Y0327606D02*
X0278485Y0333775D01*
X0279247Y0333775D01*
X0279247Y0334537D01*
X0285416Y0334537D01*
X0285416Y0334585D01*
X0285304Y0335437D01*
X0285082Y0336266D01*
X0284753Y0337059D01*
X0284324Y0337803D01*
X0283801Y0338484D01*
X0283194Y0339091D01*
X0282513Y0339614D01*
X0281769Y0340043D01*
X0280976Y0340372D01*
X0280147Y0340594D01*
X0279295Y0340706D01*
X0279247Y0340706D01*
X0279247Y0334537D01*
X0278485Y0334537D01*
X0278485Y0333775D01*
X0272316Y0333775D01*
X0272316Y0333727D01*
X0272428Y0332876D01*
X0272650Y0332046D01*
X0272979Y0331253D01*
X0273408Y0330509D01*
X0273931Y0329828D01*
X0274538Y0329221D01*
X0275219Y0328698D01*
X0275963Y0328269D01*
X0276756Y0327940D01*
X0277586Y0327718D01*
X0278437Y0327606D01*
X0278485Y0327606D01*
X0278485Y0329881D02*
X0279247Y0329881D01*
X0279247Y0331479D02*
X0278485Y0331479D01*
X0278485Y0333078D02*
X0279247Y0333078D01*
X0279247Y0334676D02*
X0278485Y0334676D01*
X0278485Y0334537D02*
X0278485Y0340706D01*
X0278437Y0340706D01*
X0277586Y0340594D01*
X0276756Y0340372D01*
X0275963Y0340043D01*
X0275219Y0339614D01*
X0274538Y0339091D01*
X0273931Y0338484D01*
X0273408Y0337803D01*
X0272979Y0337059D01*
X0272650Y0336266D01*
X0272428Y0335437D01*
X0272316Y0334585D01*
X0272316Y0334537D01*
X0278485Y0334537D01*
X0278485Y0336275D02*
X0279247Y0336275D01*
X0279247Y0337873D02*
X0278485Y0337873D01*
X0278485Y0339472D02*
X0279247Y0339472D01*
X0282698Y0339472D02*
X0410449Y0339472D01*
X0410449Y0341070D02*
X0075866Y0341070D01*
X0075866Y0339472D02*
X0244557Y0339472D01*
X0244557Y0337873D02*
X0075866Y0337873D01*
X0075866Y0336275D02*
X0244557Y0336275D01*
X0244557Y0334676D02*
X0075866Y0334676D01*
X0075866Y0333078D02*
X0244557Y0333078D01*
X0244557Y0331479D02*
X0075747Y0331479D01*
X0075866Y0342669D02*
X0410449Y0342669D01*
X0410449Y0344267D02*
X0075866Y0344267D01*
X0075866Y0345866D02*
X0410449Y0345866D01*
X0410449Y0337873D02*
X0284270Y0337873D01*
X0285078Y0336275D02*
X0410449Y0336275D01*
X0410449Y0334676D02*
X0285404Y0334676D01*
X0285331Y0333078D02*
X0410449Y0333078D01*
X0410568Y0331479D02*
X0284847Y0331479D01*
X0283842Y0329881D02*
X0410853Y0329881D01*
X0411379Y0328282D02*
X0399305Y0328282D01*
X0399630Y0328046D02*
X0398980Y0328518D01*
X0398265Y0328883D01*
X0397501Y0329131D01*
X0396708Y0329256D01*
X0396307Y0329256D01*
X0396307Y0324156D01*
X0396307Y0324156D01*
X0401407Y0324156D01*
X0401407Y0324558D01*
X0401281Y0325350D01*
X0401033Y0326114D01*
X0400669Y0326829D01*
X0400197Y0327479D01*
X0399630Y0328046D01*
X0400743Y0326684D02*
X0412209Y0326684D01*
X0413246Y0325085D02*
X0401323Y0325085D01*
X0401365Y0323487D02*
X0414642Y0323487D01*
X0416530Y0321888D02*
X0400875Y0321888D01*
X0399653Y0320290D02*
X0419677Y0320290D01*
X0420906Y0304256D02*
X0420113Y0304131D01*
X0419349Y0303883D01*
X0418634Y0303518D01*
X0417985Y0303046D01*
X0417417Y0302479D01*
X0416945Y0301829D01*
X0416581Y0301114D01*
X0416333Y0300350D01*
X0416207Y0299558D01*
X0416207Y0299156D01*
X0416207Y0298755D01*
X0416333Y0297962D01*
X0416581Y0297198D01*
X0416945Y0296483D01*
X0417417Y0295834D01*
X0417985Y0295266D01*
X0418634Y0294794D01*
X0419349Y0294430D01*
X0419820Y0294277D01*
X0418305Y0293649D01*
X0416814Y0292158D01*
X0416007Y0290210D01*
X0416007Y0288102D01*
X0416814Y0286154D01*
X0418305Y0284663D01*
X0420253Y0283856D01*
X0422361Y0283856D01*
X0424309Y0284663D01*
X0425800Y0286154D01*
X0426607Y0288102D01*
X0426607Y0290210D01*
X0425800Y0292158D01*
X0424309Y0293649D01*
X0422794Y0294277D01*
X0423265Y0294430D01*
X0423980Y0294794D01*
X0424630Y0295266D01*
X0425197Y0295834D01*
X0425669Y0296483D01*
X0426033Y0297198D01*
X0426281Y0297962D01*
X0426407Y0298755D01*
X0426407Y0299156D01*
X0421307Y0299156D01*
X0416207Y0299156D01*
X0421307Y0299156D01*
X0421307Y0299156D01*
X0421307Y0299156D01*
X0421307Y0304256D01*
X0420906Y0304256D01*
X0421307Y0304256D02*
X0421307Y0299156D01*
X0421307Y0299156D01*
X0426407Y0299156D01*
X0426407Y0299558D01*
X0426281Y0300350D01*
X0426033Y0301114D01*
X0425669Y0301829D01*
X0425197Y0302479D01*
X0424630Y0303046D01*
X0423980Y0303518D01*
X0423265Y0303883D01*
X0422501Y0304131D01*
X0421708Y0304256D01*
X0421307Y0304256D01*
X0421307Y0302706D02*
X0421307Y0302706D01*
X0421307Y0301108D02*
X0421307Y0301108D01*
X0421307Y0299509D02*
X0421307Y0299509D01*
X0417645Y0302706D02*
X0294970Y0302706D01*
X0295197Y0302479D02*
X0294630Y0303046D01*
X0293980Y0303518D01*
X0293265Y0303883D01*
X0292501Y0304131D01*
X0291708Y0304256D01*
X0291307Y0304256D01*
X0290906Y0304256D01*
X0290113Y0304131D01*
X0289349Y0303883D01*
X0288634Y0303518D01*
X0287985Y0303046D01*
X0287417Y0302479D01*
X0286945Y0301829D01*
X0286581Y0301114D01*
X0286333Y0300350D01*
X0286207Y0299558D01*
X0286207Y0299156D01*
X0286207Y0298755D01*
X0286333Y0297962D01*
X0286581Y0297198D01*
X0286945Y0296483D01*
X0287417Y0295834D01*
X0287985Y0295266D01*
X0288634Y0294794D01*
X0289349Y0294430D01*
X0289820Y0294277D01*
X0288305Y0293649D01*
X0286814Y0292158D01*
X0286007Y0290210D01*
X0286007Y0288102D01*
X0286814Y0286154D01*
X0287707Y0285261D01*
X0287707Y0268051D01*
X0286814Y0267158D01*
X0286007Y0265210D01*
X0286007Y0263102D01*
X0286814Y0261154D01*
X0288305Y0259663D01*
X0289529Y0259156D01*
X0288305Y0258649D01*
X0286814Y0257158D01*
X0286007Y0255210D01*
X0286007Y0253102D01*
X0286814Y0251154D01*
X0287707Y0250261D01*
X0287707Y0233051D01*
X0286814Y0232158D01*
X0286007Y0230210D01*
X0286007Y0228102D01*
X0286814Y0226154D01*
X0288305Y0224663D01*
X0289529Y0224156D01*
X0288305Y0223649D01*
X0286814Y0222158D01*
X0286007Y0220210D01*
X0286007Y0218102D01*
X0286814Y0216154D01*
X0288305Y0214663D01*
X0290253Y0213856D01*
X0292361Y0213856D01*
X0294309Y0214663D01*
X0295800Y0216154D01*
X0296607Y0218102D01*
X0296607Y0220210D01*
X0295800Y0222158D01*
X0294309Y0223649D01*
X0293086Y0224156D01*
X0294309Y0224663D01*
X0295800Y0226154D01*
X0296607Y0228102D01*
X0296607Y0230210D01*
X0295800Y0232158D01*
X0294907Y0233051D01*
X0294907Y0250261D01*
X0295800Y0251154D01*
X0296607Y0253102D01*
X0296607Y0255210D01*
X0295800Y0257158D01*
X0294309Y0258649D01*
X0293086Y0259156D01*
X0294309Y0259663D01*
X0295800Y0261154D01*
X0296607Y0263102D01*
X0296607Y0265210D01*
X0295800Y0267158D01*
X0294907Y0268051D01*
X0294907Y0285261D01*
X0295800Y0286154D01*
X0296607Y0288102D01*
X0296607Y0290210D01*
X0295800Y0292158D01*
X0294309Y0293649D01*
X0292794Y0294277D01*
X0293265Y0294430D01*
X0293980Y0294794D01*
X0294630Y0295266D01*
X0295197Y0295834D01*
X0295669Y0296483D01*
X0296033Y0297198D01*
X0296281Y0297962D01*
X0296407Y0298755D01*
X0296407Y0299156D01*
X0291307Y0299156D01*
X0286207Y0299156D01*
X0291307Y0299156D01*
X0291307Y0299156D01*
X0291307Y0299156D01*
X0291307Y0304256D01*
X0291307Y0299156D01*
X0291307Y0299156D01*
X0296407Y0299156D01*
X0296407Y0299558D01*
X0296281Y0300350D01*
X0296033Y0301114D01*
X0295669Y0301829D01*
X0295197Y0302479D01*
X0296035Y0301108D02*
X0416579Y0301108D01*
X0416207Y0299509D02*
X0296407Y0299509D01*
X0296265Y0297911D02*
X0416349Y0297911D01*
X0417070Y0296312D02*
X0295545Y0296312D01*
X0293822Y0294714D02*
X0418793Y0294714D01*
X0417771Y0293115D02*
X0294844Y0293115D01*
X0296066Y0291516D02*
X0416548Y0291516D01*
X0416007Y0289918D02*
X0296607Y0289918D01*
X0296607Y0288319D02*
X0416007Y0288319D01*
X0416579Y0286721D02*
X0296035Y0286721D01*
X0294907Y0285122D02*
X0417845Y0285122D01*
X0424769Y0285122D02*
X0437708Y0285122D01*
X0437708Y0283524D02*
X0294907Y0283524D01*
X0294907Y0281925D02*
X0437708Y0281925D01*
X0437708Y0280327D02*
X0294907Y0280327D01*
X0294907Y0278728D02*
X0437708Y0278728D01*
X0437708Y0277130D02*
X0294907Y0277130D01*
X0294907Y0275531D02*
X0437708Y0275531D01*
X0437708Y0273933D02*
X0294907Y0273933D01*
X0294907Y0272334D02*
X0437708Y0272334D01*
X0437708Y0270736D02*
X0294907Y0270736D01*
X0294907Y0269137D02*
X0419483Y0269137D01*
X0420253Y0269456D02*
X0418305Y0268649D01*
X0416814Y0267158D01*
X0416007Y0265210D01*
X0416007Y0263102D01*
X0416814Y0261154D01*
X0418305Y0259663D01*
X0419529Y0259156D01*
X0418305Y0258649D01*
X0416814Y0257158D01*
X0416007Y0255210D01*
X0416007Y0253102D01*
X0416814Y0251154D01*
X0418305Y0249663D01*
X0420253Y0248856D01*
X0422361Y0248856D01*
X0424309Y0249663D01*
X0425800Y0251154D01*
X0426607Y0253102D01*
X0426607Y0255210D01*
X0425800Y0257158D01*
X0424309Y0258649D01*
X0423086Y0259156D01*
X0424309Y0259663D01*
X0425800Y0261154D01*
X0426607Y0263102D01*
X0426607Y0265210D01*
X0425800Y0267158D01*
X0424309Y0268649D01*
X0422361Y0269456D01*
X0420253Y0269456D01*
X0423131Y0269137D02*
X0437708Y0269137D01*
X0437708Y0267539D02*
X0425420Y0267539D01*
X0426305Y0265940D02*
X0437708Y0265940D01*
X0437708Y0264342D02*
X0426607Y0264342D01*
X0426459Y0262743D02*
X0437708Y0262743D01*
X0437708Y0261145D02*
X0425791Y0261145D01*
X0424027Y0259546D02*
X0437708Y0259546D01*
X0437708Y0257948D02*
X0425011Y0257948D01*
X0426135Y0256349D02*
X0437708Y0256349D01*
X0437708Y0254751D02*
X0426607Y0254751D01*
X0426607Y0253152D02*
X0437708Y0253152D01*
X0437708Y0251554D02*
X0425966Y0251554D01*
X0424601Y0249955D02*
X0437708Y0249955D01*
X0437708Y0248357D02*
X0294907Y0248357D01*
X0294907Y0249955D02*
X0418013Y0249955D01*
X0416648Y0251554D02*
X0295966Y0251554D01*
X0296607Y0253152D02*
X0416007Y0253152D01*
X0416007Y0254751D02*
X0296607Y0254751D01*
X0296135Y0256349D02*
X0416479Y0256349D01*
X0417603Y0257948D02*
X0295011Y0257948D01*
X0294027Y0259546D02*
X0418587Y0259546D01*
X0416823Y0261145D02*
X0295791Y0261145D01*
X0296459Y0262743D02*
X0416156Y0262743D01*
X0416007Y0264342D02*
X0296607Y0264342D01*
X0296305Y0265940D02*
X0416309Y0265940D01*
X0417194Y0267539D02*
X0295420Y0267539D01*
X0287707Y0269137D02*
X0244907Y0269137D01*
X0244907Y0270736D02*
X0287707Y0270736D01*
X0287707Y0272334D02*
X0244907Y0272334D01*
X0244907Y0273933D02*
X0287707Y0273933D01*
X0287707Y0275531D02*
X0244907Y0275531D01*
X0244907Y0277130D02*
X0287707Y0277130D01*
X0287707Y0278728D02*
X0244907Y0278728D01*
X0244907Y0280327D02*
X0287707Y0280327D01*
X0287707Y0281925D02*
X0244907Y0281925D01*
X0244907Y0283524D02*
X0287707Y0283524D01*
X0287707Y0285122D02*
X0244907Y0285122D01*
X0246035Y0286721D02*
X0286579Y0286721D01*
X0286007Y0288319D02*
X0246607Y0288319D01*
X0246607Y0289918D02*
X0286007Y0289918D01*
X0286548Y0291516D02*
X0246066Y0291516D01*
X0244844Y0293115D02*
X0287771Y0293115D01*
X0288793Y0294714D02*
X0243822Y0294714D01*
X0245545Y0296312D02*
X0287070Y0296312D01*
X0286349Y0297911D02*
X0246265Y0297911D01*
X0246407Y0299156D02*
X0246407Y0299558D01*
X0246281Y0300350D01*
X0246033Y0301114D01*
X0245669Y0301829D01*
X0245197Y0302479D01*
X0244630Y0303046D01*
X0243980Y0303518D01*
X0243265Y0303883D01*
X0242501Y0304131D01*
X0241708Y0304256D01*
X0241307Y0304256D01*
X0241307Y0299156D01*
X0241307Y0299156D01*
X0246407Y0299156D01*
X0246407Y0299509D02*
X0286207Y0299509D01*
X0286579Y0301108D02*
X0246035Y0301108D01*
X0244970Y0302706D02*
X0287645Y0302706D01*
X0291307Y0302706D02*
X0291307Y0302706D01*
X0291307Y0301108D02*
X0291307Y0301108D01*
X0291307Y0299509D02*
X0291307Y0299509D01*
X0312678Y0320290D02*
X0219653Y0320290D01*
X0220875Y0321888D02*
X0311510Y0321888D01*
X0311007Y0323487D02*
X0221365Y0323487D01*
X0221323Y0325085D02*
X0311007Y0325085D01*
X0319676Y0328282D02*
X0322938Y0328282D01*
X0321617Y0326684D02*
X0320997Y0326684D01*
X0321104Y0321888D02*
X0321510Y0321888D01*
X0322678Y0320290D02*
X0319936Y0320290D01*
X0329936Y0320290D02*
X0347678Y0320290D01*
X0354936Y0320290D02*
X0357678Y0320290D01*
X0356510Y0321888D02*
X0356104Y0321888D01*
X0364936Y0320290D02*
X0382678Y0320290D01*
X0389936Y0320290D02*
X0392961Y0320290D01*
X0391739Y0321888D02*
X0391104Y0321888D01*
X0396307Y0321888D02*
X0396307Y0321888D01*
X0396307Y0320290D02*
X0396307Y0320290D01*
X0396307Y0323487D02*
X0396307Y0323487D01*
X0396307Y0325085D02*
X0396307Y0325085D01*
X0396307Y0326684D02*
X0396307Y0326684D01*
X0396307Y0328282D02*
X0396307Y0328282D01*
X0393310Y0328282D02*
X0389676Y0328282D01*
X0390997Y0326684D02*
X0391871Y0326684D01*
X0382938Y0328282D02*
X0364676Y0328282D01*
X0357938Y0328282D02*
X0354676Y0328282D01*
X0355997Y0326684D02*
X0356617Y0326684D01*
X0347938Y0328282D02*
X0329676Y0328282D01*
X0275940Y0328282D02*
X0268544Y0328282D01*
X0268910Y0328434D02*
X0270809Y0330333D01*
X0271837Y0332813D01*
X0271837Y0335499D01*
X0270809Y0337980D01*
X0268910Y0339879D01*
X0266429Y0340906D01*
X0263744Y0340906D01*
X0261263Y0339879D01*
X0259364Y0337980D01*
X0258337Y0335499D01*
X0258337Y0332813D01*
X0259364Y0330333D01*
X0261263Y0328434D01*
X0263744Y0327406D01*
X0266429Y0327406D01*
X0268910Y0328434D01*
X0270357Y0329881D02*
X0273891Y0329881D01*
X0272885Y0331479D02*
X0271284Y0331479D01*
X0271837Y0333078D02*
X0272402Y0333078D01*
X0272328Y0334676D02*
X0271837Y0334676D01*
X0271515Y0336275D02*
X0272654Y0336275D01*
X0273462Y0337873D02*
X0270853Y0337873D01*
X0269317Y0339472D02*
X0275034Y0339472D01*
X0260856Y0339472D02*
X0258057Y0339472D01*
X0258057Y0337873D02*
X0259320Y0337873D01*
X0258658Y0336275D02*
X0258057Y0336275D01*
X0258057Y0334676D02*
X0258337Y0334676D01*
X0258337Y0333078D02*
X0258057Y0333078D01*
X0258057Y0331479D02*
X0258889Y0331479D01*
X0258057Y0329881D02*
X0259816Y0329881D01*
X0261629Y0328282D02*
X0257762Y0328282D01*
X0241307Y0302706D02*
X0241307Y0302706D01*
X0241307Y0301108D02*
X0241307Y0301108D01*
X0241307Y0299509D02*
X0241307Y0299509D01*
X0216307Y0320290D02*
X0216307Y0320290D01*
X0216307Y0321888D02*
X0216307Y0321888D01*
X0216307Y0323487D02*
X0216307Y0323487D01*
X0216307Y0325085D02*
X0216307Y0325085D01*
X0216307Y0326684D02*
X0216307Y0326684D01*
X0216307Y0328282D02*
X0216307Y0328282D01*
X0213310Y0328282D02*
X0209676Y0328282D01*
X0210997Y0326684D02*
X0211871Y0326684D01*
X0211739Y0321888D02*
X0211104Y0321888D01*
X0209936Y0320290D02*
X0212961Y0320290D01*
X0202678Y0320290D02*
X0184936Y0320290D01*
X0177678Y0320290D02*
X0174936Y0320290D01*
X0176104Y0321888D02*
X0176510Y0321888D01*
X0176617Y0326684D02*
X0175997Y0326684D01*
X0174676Y0328282D02*
X0177938Y0328282D01*
X0184676Y0328282D02*
X0202938Y0328282D01*
X0167938Y0328282D02*
X0149676Y0328282D01*
X0142938Y0328282D02*
X0139676Y0328282D01*
X0140997Y0326684D02*
X0141617Y0326684D01*
X0141510Y0321888D02*
X0141104Y0321888D01*
X0139936Y0320290D02*
X0142678Y0320290D01*
X0149936Y0320290D02*
X0167678Y0320290D01*
X0245420Y0267539D02*
X0287194Y0267539D01*
X0286309Y0265940D02*
X0246305Y0265940D01*
X0246607Y0264342D02*
X0286007Y0264342D01*
X0286156Y0262743D02*
X0246459Y0262743D01*
X0245791Y0261145D02*
X0286823Y0261145D01*
X0288587Y0259546D02*
X0244027Y0259546D01*
X0245011Y0257948D02*
X0287603Y0257948D01*
X0286479Y0256349D02*
X0246135Y0256349D01*
X0246607Y0254751D02*
X0286007Y0254751D01*
X0286007Y0253152D02*
X0246607Y0253152D01*
X0245966Y0251554D02*
X0286648Y0251554D01*
X0287707Y0249955D02*
X0244907Y0249955D01*
X0244907Y0248357D02*
X0287707Y0248357D01*
X0287707Y0246758D02*
X0244907Y0246758D01*
X0244907Y0245160D02*
X0287707Y0245160D01*
X0287707Y0243561D02*
X0244907Y0243561D01*
X0244907Y0241963D02*
X0287707Y0241963D01*
X0287707Y0240364D02*
X0244907Y0240364D01*
X0244907Y0238766D02*
X0287707Y0238766D01*
X0287707Y0237167D02*
X0244907Y0237167D01*
X0244907Y0235569D02*
X0287707Y0235569D01*
X0287707Y0233970D02*
X0244907Y0233970D01*
X0245587Y0232372D02*
X0287027Y0232372D01*
X0286240Y0230773D02*
X0246374Y0230773D01*
X0246607Y0229175D02*
X0286007Y0229175D01*
X0286225Y0227576D02*
X0246389Y0227576D01*
X0245624Y0225978D02*
X0286990Y0225978D01*
X0288991Y0224379D02*
X0243624Y0224379D01*
X0245178Y0222780D02*
X0287436Y0222780D01*
X0286410Y0221182D02*
X0246205Y0221182D01*
X0246607Y0219583D02*
X0286007Y0219583D01*
X0286056Y0217985D02*
X0246559Y0217985D01*
X0245896Y0216386D02*
X0286718Y0216386D01*
X0288180Y0214788D02*
X0244434Y0214788D01*
X0220396Y0197204D02*
X0311860Y0197204D01*
X0311171Y0195606D02*
X0221199Y0195606D01*
X0221281Y0195350D02*
X0221033Y0196114D01*
X0220669Y0196829D01*
X0220197Y0197479D01*
X0219630Y0198046D01*
X0218980Y0198518D01*
X0218265Y0198883D01*
X0217501Y0199131D01*
X0216708Y0199256D01*
X0216307Y0199256D01*
X0215906Y0199256D01*
X0215113Y0199131D01*
X0214349Y0198883D01*
X0213634Y0198518D01*
X0212985Y0198046D01*
X0212417Y0197479D01*
X0211945Y0196829D01*
X0211581Y0196114D01*
X0211428Y0195643D01*
X0210800Y0197158D01*
X0209309Y0198649D01*
X0207361Y0199456D01*
X0205253Y0199456D01*
X0203305Y0198649D01*
X0202412Y0197756D01*
X0185202Y0197756D01*
X0184309Y0198649D01*
X0182361Y0199456D01*
X0180253Y0199456D01*
X0178305Y0198649D01*
X0176814Y0197158D01*
X0176307Y0195935D01*
X0175800Y0197158D01*
X0174309Y0198649D01*
X0172361Y0199456D01*
X0170253Y0199456D01*
X0168305Y0198649D01*
X0167412Y0197756D01*
X0150202Y0197756D01*
X0149309Y0198649D01*
X0147361Y0199456D01*
X0145253Y0199456D01*
X0143305Y0198649D01*
X0141814Y0197158D01*
X0141307Y0195935D01*
X0140800Y0197158D01*
X0139309Y0198649D01*
X0137361Y0199456D01*
X0135253Y0199456D01*
X0133305Y0198649D01*
X0131814Y0197158D01*
X0131007Y0195210D01*
X0131007Y0193102D01*
X0131814Y0191154D01*
X0133305Y0189663D01*
X0135253Y0188856D01*
X0136516Y0188856D01*
X0149268Y0176104D01*
X0150591Y0175556D01*
X0164816Y0175556D01*
X0184268Y0156104D01*
X0185591Y0155556D01*
X0186285Y0155556D01*
X0186415Y0155426D01*
X0188032Y0154756D01*
X0194582Y0154756D01*
X0196199Y0155426D01*
X0197437Y0156664D01*
X0198107Y0158281D01*
X0198107Y0160031D01*
X0197437Y0161649D01*
X0196199Y0162886D01*
X0194582Y0163556D01*
X0188032Y0163556D01*
X0187301Y0163253D01*
X0169359Y0181195D01*
X0168346Y0182208D01*
X0167023Y0182756D01*
X0152798Y0182756D01*
X0146698Y0188856D01*
X0147361Y0188856D01*
X0149309Y0189663D01*
X0150202Y0190556D01*
X0167412Y0190556D01*
X0168305Y0189663D01*
X0170253Y0188856D01*
X0172361Y0188856D01*
X0174309Y0189663D01*
X0175800Y0191154D01*
X0176307Y0192378D01*
X0176814Y0191154D01*
X0178305Y0189663D01*
X0180253Y0188856D01*
X0182361Y0188856D01*
X0184309Y0189663D01*
X0185202Y0190556D01*
X0202412Y0190556D01*
X0203305Y0189663D01*
X0205253Y0188856D01*
X0207361Y0188856D01*
X0209309Y0189663D01*
X0210800Y0191154D01*
X0211428Y0192669D01*
X0211581Y0192198D01*
X0211945Y0191483D01*
X0212417Y0190834D01*
X0212985Y0190266D01*
X0213634Y0189794D01*
X0214349Y0189430D01*
X0215113Y0189182D01*
X0215906Y0189056D01*
X0216307Y0189056D01*
X0216307Y0194156D01*
X0216307Y0194156D01*
X0216307Y0189056D01*
X0216708Y0189056D01*
X0217501Y0189182D01*
X0218265Y0189430D01*
X0218980Y0189794D01*
X0219630Y0190266D01*
X0220197Y0190834D01*
X0220669Y0191483D01*
X0221033Y0192198D01*
X0221281Y0192962D01*
X0221407Y0193755D01*
X0221407Y0194156D01*
X0216307Y0194156D01*
X0216307Y0194156D01*
X0216307Y0199256D01*
X0216307Y0194156D01*
X0216307Y0194156D01*
X0221407Y0194156D01*
X0221407Y0194558D01*
X0221281Y0195350D01*
X0221407Y0194007D02*
X0311007Y0194007D01*
X0311294Y0192409D02*
X0221102Y0192409D01*
X0220174Y0190810D02*
X0312158Y0190810D01*
X0314394Y0189212D02*
X0217594Y0189212D01*
X0216307Y0189212D02*
X0216307Y0189212D01*
X0215020Y0189212D02*
X0208220Y0189212D01*
X0210457Y0190810D02*
X0212440Y0190810D01*
X0211512Y0192409D02*
X0211320Y0192409D01*
X0210754Y0197204D02*
X0212218Y0197204D01*
X0214193Y0198803D02*
X0208939Y0198803D01*
X0203676Y0198803D02*
X0183939Y0198803D01*
X0178676Y0198803D02*
X0173939Y0198803D01*
X0175754Y0197204D02*
X0176860Y0197204D01*
X0177158Y0190810D02*
X0175457Y0190810D01*
X0173220Y0189212D02*
X0179394Y0189212D01*
X0183220Y0189212D02*
X0204394Y0189212D01*
X0216307Y0190810D02*
X0216307Y0190810D01*
X0216307Y0192409D02*
X0216307Y0192409D01*
X0216307Y0194007D02*
X0216307Y0194007D01*
X0216307Y0195606D02*
X0216307Y0195606D01*
X0216307Y0197204D02*
X0216307Y0197204D01*
X0216307Y0198803D02*
X0216307Y0198803D01*
X0218421Y0198803D02*
X0313676Y0198803D01*
X0318939Y0198803D02*
X0323676Y0198803D01*
X0321860Y0197204D02*
X0320754Y0197204D01*
X0328939Y0198803D02*
X0348676Y0198803D01*
X0353939Y0198803D02*
X0358676Y0198803D01*
X0356860Y0197204D02*
X0355754Y0197204D01*
X0355457Y0190810D02*
X0357158Y0190810D01*
X0359394Y0189212D02*
X0353220Y0189212D01*
X0349394Y0189212D02*
X0328220Y0189212D01*
X0322554Y0182818D02*
X0152737Y0182818D01*
X0151138Y0184416D02*
X0320956Y0184416D01*
X0319357Y0186015D02*
X0149540Y0186015D01*
X0147941Y0187613D02*
X0317759Y0187613D01*
X0324153Y0181219D02*
X0169335Y0181219D01*
X0170934Y0179621D02*
X0340751Y0179621D01*
X0342350Y0178022D02*
X0172532Y0178022D01*
X0174131Y0176424D02*
X0343948Y0176424D01*
X0345547Y0174825D02*
X0175729Y0174825D01*
X0177328Y0173227D02*
X0187236Y0173227D01*
X0188032Y0173556D02*
X0186415Y0172886D01*
X0185177Y0171649D01*
X0184507Y0170031D01*
X0184507Y0168281D01*
X0185177Y0166664D01*
X0186415Y0165426D01*
X0188032Y0164756D01*
X0194582Y0164756D01*
X0196199Y0165426D01*
X0197437Y0166664D01*
X0198107Y0168281D01*
X0198107Y0170031D01*
X0197437Y0171649D01*
X0196199Y0172886D01*
X0194582Y0173556D01*
X0188032Y0173556D01*
X0185168Y0171628D02*
X0178926Y0171628D01*
X0180525Y0170030D02*
X0184507Y0170030D01*
X0184507Y0168431D02*
X0182123Y0168431D01*
X0183722Y0166833D02*
X0185107Y0166833D01*
X0185320Y0165234D02*
X0186878Y0165234D01*
X0186919Y0163636D02*
X0238291Y0163636D01*
X0238029Y0165234D02*
X0195736Y0165234D01*
X0197507Y0166833D02*
X0236767Y0166833D01*
X0236258Y0168431D02*
X0198107Y0168431D01*
X0198107Y0170030D02*
X0236282Y0170030D01*
X0236843Y0171628D02*
X0197446Y0171628D01*
X0195378Y0173227D02*
X0238233Y0173227D01*
X0241307Y0173227D02*
X0241307Y0173227D01*
X0241307Y0171628D02*
X0241307Y0171628D01*
X0241307Y0170030D02*
X0241307Y0170030D01*
X0236764Y0162037D02*
X0197049Y0162037D01*
X0197938Y0160439D02*
X0236102Y0160439D01*
X0236007Y0158840D02*
X0198107Y0158840D01*
X0197677Y0157242D02*
X0236363Y0157242D01*
X0237325Y0155643D02*
X0196416Y0155643D01*
X0196199Y0152886D02*
X0194582Y0153556D01*
X0188032Y0153556D01*
X0186415Y0152886D01*
X0185177Y0151649D01*
X0184507Y0150031D01*
X0184507Y0148281D01*
X0185177Y0146664D01*
X0186415Y0145426D01*
X0188032Y0144756D01*
X0194582Y0144756D01*
X0196199Y0145426D01*
X0197437Y0146664D01*
X0198107Y0148281D01*
X0198107Y0150031D01*
X0197437Y0151649D01*
X0196199Y0152886D01*
X0196640Y0152446D02*
X0335974Y0152446D01*
X0334845Y0150847D02*
X0304141Y0150847D01*
X0305740Y0149249D02*
X0334507Y0149249D01*
X0334768Y0147650D02*
X0307338Y0147650D01*
X0308937Y0146052D02*
X0335789Y0146052D01*
X0336383Y0142855D02*
X0312134Y0142855D01*
X0313732Y0141256D02*
X0335015Y0141256D01*
X0334507Y0139658D02*
X0315331Y0139658D01*
X0316929Y0138059D02*
X0334599Y0138059D01*
X0336198Y0155643D02*
X0295289Y0155643D01*
X0296251Y0157242D02*
X0334938Y0157242D01*
X0334507Y0158840D02*
X0296607Y0158840D01*
X0296513Y0160439D02*
X0334676Y0160439D01*
X0335565Y0162037D02*
X0295850Y0162037D01*
X0292816Y0154045D02*
X0393786Y0154045D01*
X0393424Y0153860D02*
X0392724Y0153351D01*
X0392112Y0152739D01*
X0391603Y0152039D01*
X0391210Y0151267D01*
X0390943Y0150444D01*
X0390807Y0149589D01*
X0390807Y0149356D01*
X0396107Y0149356D01*
X0396107Y0154656D01*
X0395874Y0154656D01*
X0395019Y0154521D01*
X0394196Y0154253D01*
X0393424Y0153860D01*
X0391899Y0152446D02*
X0376640Y0152446D01*
X0377769Y0150847D02*
X0391074Y0150847D01*
X0391013Y0147650D02*
X0377846Y0147650D01*
X0378107Y0149249D02*
X0396107Y0149249D01*
X0396507Y0149249D02*
X0417707Y0149249D01*
X0417707Y0150847D02*
X0401541Y0150847D01*
X0400715Y0152446D02*
X0417707Y0152446D01*
X0417707Y0154045D02*
X0398828Y0154045D01*
X0396507Y0154045D02*
X0396107Y0154045D01*
X0396107Y0152446D02*
X0396507Y0152446D01*
X0396507Y0150847D02*
X0396107Y0150847D01*
X0401601Y0147650D02*
X0417707Y0147650D01*
X0417707Y0146052D02*
X0400850Y0146052D01*
X0399191Y0144453D02*
X0417707Y0144453D01*
X0417707Y0142855D02*
X0400669Y0142855D01*
X0401607Y0141256D02*
X0417707Y0141256D01*
X0417707Y0139658D02*
X0402007Y0139658D01*
X0402007Y0138059D02*
X0417707Y0138059D01*
X0417707Y0138051D02*
X0416814Y0137158D01*
X0416007Y0135210D01*
X0416007Y0133102D01*
X0416814Y0131154D01*
X0418305Y0129663D01*
X0419529Y0129156D01*
X0418305Y0128649D01*
X0416814Y0127158D01*
X0416007Y0125210D01*
X0416007Y0123102D01*
X0416814Y0121154D01*
X0417707Y0120261D01*
X0417707Y0103051D01*
X0416814Y0102158D01*
X0416007Y0100210D01*
X0416007Y0098102D01*
X0416814Y0096154D01*
X0418305Y0094663D01*
X0419529Y0094156D01*
X0418305Y0093649D01*
X0416814Y0092158D01*
X0416007Y0090210D01*
X0416007Y0088102D01*
X0416814Y0086154D01*
X0418305Y0084663D01*
X0420253Y0083856D01*
X0422361Y0083856D01*
X0424309Y0084663D01*
X0425800Y0086154D01*
X0426607Y0088102D01*
X0426607Y0090210D01*
X0425800Y0092158D01*
X0424309Y0093649D01*
X0423086Y0094156D01*
X0424309Y0094663D01*
X0425800Y0096154D01*
X0426607Y0098102D01*
X0426607Y0100210D01*
X0425800Y0102158D01*
X0424907Y0103051D01*
X0424907Y0120261D01*
X0425800Y0121154D01*
X0426607Y0123102D01*
X0426607Y0125210D01*
X0425800Y0127158D01*
X0424309Y0128649D01*
X0423086Y0129156D01*
X0424309Y0129663D01*
X0425800Y0131154D01*
X0426607Y0133102D01*
X0426607Y0135210D01*
X0425800Y0137158D01*
X0424907Y0138051D01*
X0424907Y0155261D01*
X0425800Y0156154D01*
X0426607Y0158102D01*
X0426607Y0160210D01*
X0425800Y0162158D01*
X0424309Y0163649D01*
X0422794Y0164277D01*
X0423265Y0164430D01*
X0423980Y0164794D01*
X0424630Y0165266D01*
X0425197Y0165834D01*
X0425669Y0166483D01*
X0426033Y0167198D01*
X0426281Y0167962D01*
X0426407Y0168755D01*
X0426407Y0169156D01*
X0421307Y0169156D01*
X0416207Y0169156D01*
X0416207Y0168755D01*
X0416333Y0167962D01*
X0416581Y0167198D01*
X0416945Y0166483D01*
X0417417Y0165834D01*
X0417985Y0165266D01*
X0418634Y0164794D01*
X0419349Y0164430D01*
X0419820Y0164277D01*
X0418305Y0163649D01*
X0416814Y0162158D01*
X0416007Y0160210D01*
X0416007Y0158102D01*
X0416814Y0156154D01*
X0417707Y0155261D01*
X0417707Y0138051D01*
X0416525Y0136461D02*
X0401360Y0136461D01*
X0400074Y0134862D02*
X0416007Y0134862D01*
X0416007Y0133264D02*
X0400260Y0133264D01*
X0401437Y0131665D02*
X0416602Y0131665D01*
X0417901Y0130067D02*
X0402007Y0130067D01*
X0402007Y0128468D02*
X0418124Y0128468D01*
X0416694Y0126870D02*
X0401530Y0126870D01*
X0400483Y0125271D02*
X0416032Y0125271D01*
X0416007Y0123673D02*
X0399851Y0123673D01*
X0401268Y0122074D02*
X0416433Y0122074D01*
X0417492Y0120476D02*
X0401930Y0120476D01*
X0402007Y0118877D02*
X0417707Y0118877D01*
X0417707Y0117279D02*
X0401699Y0117279D01*
X0400892Y0115680D02*
X0417707Y0115680D01*
X0417707Y0114082D02*
X0399311Y0114082D01*
X0401041Y0112483D02*
X0417707Y0112483D01*
X0417707Y0110885D02*
X0401761Y0110885D01*
X0402007Y0109286D02*
X0417707Y0109286D01*
X0417707Y0107688D02*
X0401868Y0107688D01*
X0401206Y0106089D02*
X0417707Y0106089D01*
X0417707Y0104491D02*
X0399703Y0104491D01*
X0400632Y0102892D02*
X0417548Y0102892D01*
X0416456Y0101294D02*
X0404261Y0101294D01*
X0405859Y0099695D02*
X0416007Y0099695D01*
X0416009Y0098097D02*
X0407458Y0098097D01*
X0409056Y0096498D02*
X0416671Y0096498D01*
X0418068Y0094900D02*
X0409896Y0094900D01*
X0409907Y0093301D02*
X0417957Y0093301D01*
X0416625Y0091703D02*
X0409907Y0091703D01*
X0409907Y0090104D02*
X0416007Y0090104D01*
X0416007Y0088506D02*
X0409907Y0088506D01*
X0409907Y0086907D02*
X0416502Y0086907D01*
X0417659Y0085309D02*
X0409907Y0085309D01*
X0409907Y0083710D02*
X0437708Y0083710D01*
X0437708Y0082112D02*
X0409354Y0082112D01*
X0407755Y0080513D02*
X0437708Y0080513D01*
X0437708Y0078914D02*
X0406157Y0078914D01*
X0404558Y0077316D02*
X0437708Y0077316D01*
X0437708Y0075717D02*
X0402960Y0075717D01*
X0401361Y0074119D02*
X0437708Y0074119D01*
X0437708Y0072520D02*
X0399763Y0072520D01*
X0397906Y0070922D02*
X0437708Y0070922D01*
X0437708Y0069323D02*
X0387682Y0069323D01*
X0387361Y0069456D02*
X0385253Y0069456D01*
X0383305Y0068649D01*
X0382412Y0067756D01*
X0365202Y0067756D01*
X0364309Y0068649D01*
X0362361Y0069456D01*
X0360253Y0069456D01*
X0358305Y0068649D01*
X0356814Y0067158D01*
X0356307Y0065935D01*
X0355800Y0067158D01*
X0354309Y0068649D01*
X0352361Y0069456D01*
X0350253Y0069456D01*
X0348305Y0068649D01*
X0347412Y0067756D01*
X0330202Y0067756D01*
X0329309Y0068649D01*
X0327361Y0069456D01*
X0325253Y0069456D01*
X0323305Y0068649D01*
X0321814Y0067158D01*
X0321307Y0065935D01*
X0320800Y0067158D01*
X0319309Y0068649D01*
X0317361Y0069456D01*
X0315253Y0069456D01*
X0313305Y0068649D01*
X0311814Y0067158D01*
X0311007Y0065210D01*
X0311007Y0063102D01*
X0311814Y0061154D01*
X0313305Y0059663D01*
X0315253Y0058856D01*
X0317361Y0058856D01*
X0319309Y0059663D01*
X0320800Y0061154D01*
X0321307Y0062378D01*
X0321814Y0061154D01*
X0323305Y0059663D01*
X0325253Y0058856D01*
X0327361Y0058856D01*
X0329309Y0059663D01*
X0330202Y0060556D01*
X0347412Y0060556D01*
X0348305Y0059663D01*
X0350253Y0058856D01*
X0352361Y0058856D01*
X0354309Y0059663D01*
X0355800Y0061154D01*
X0356307Y0062378D01*
X0356814Y0061154D01*
X0358305Y0059663D01*
X0360253Y0058856D01*
X0362361Y0058856D01*
X0364309Y0059663D01*
X0365202Y0060556D01*
X0382412Y0060556D01*
X0383305Y0059663D01*
X0385253Y0058856D01*
X0387361Y0058856D01*
X0389309Y0059663D01*
X0390800Y0061154D01*
X0391428Y0062669D01*
X0391581Y0062198D01*
X0391945Y0061483D01*
X0392417Y0060834D01*
X0392985Y0060266D01*
X0393634Y0059794D01*
X0394349Y0059430D01*
X0395113Y0059182D01*
X0395906Y0059056D01*
X0396307Y0059056D01*
X0396307Y0064156D01*
X0396307Y0064156D01*
X0396307Y0059056D01*
X0396708Y0059056D01*
X0397501Y0059182D01*
X0398265Y0059430D01*
X0398980Y0059794D01*
X0399630Y0060266D01*
X0400197Y0060834D01*
X0400669Y0061483D01*
X0401033Y0062198D01*
X0401281Y0062962D01*
X0401407Y0063755D01*
X0401407Y0064156D01*
X0396307Y0064156D01*
X0396307Y0064156D01*
X0396307Y0069256D01*
X0395906Y0069256D01*
X0395113Y0069131D01*
X0394349Y0068883D01*
X0393634Y0068518D01*
X0392985Y0068046D01*
X0392417Y0067479D01*
X0391945Y0066829D01*
X0391581Y0066114D01*
X0391428Y0065643D01*
X0390800Y0067158D01*
X0389309Y0068649D01*
X0387361Y0069456D01*
X0384932Y0069323D02*
X0362682Y0069323D01*
X0359932Y0069323D02*
X0352682Y0069323D01*
X0349932Y0069323D02*
X0327682Y0069323D01*
X0324932Y0069323D02*
X0317682Y0069323D01*
X0314932Y0069323D02*
X0207682Y0069323D01*
X0207361Y0069456D02*
X0205253Y0069456D01*
X0203305Y0068649D01*
X0202412Y0067756D01*
X0185202Y0067756D01*
X0184309Y0068649D01*
X0182361Y0069456D01*
X0180253Y0069456D01*
X0178305Y0068649D01*
X0176814Y0067158D01*
X0176307Y0065935D01*
X0175800Y0067158D01*
X0174309Y0068649D01*
X0172361Y0069456D01*
X0170253Y0069456D01*
X0168305Y0068649D01*
X0167412Y0067756D01*
X0150202Y0067756D01*
X0149309Y0068649D01*
X0147361Y0069456D01*
X0145253Y0069456D01*
X0143305Y0068649D01*
X0141814Y0067158D01*
X0141307Y0065935D01*
X0140800Y0067158D01*
X0139309Y0068649D01*
X0137361Y0069456D01*
X0135253Y0069456D01*
X0133305Y0068649D01*
X0131814Y0067158D01*
X0131007Y0065210D01*
X0131007Y0063102D01*
X0131814Y0061154D01*
X0133305Y0059663D01*
X0135253Y0058856D01*
X0137361Y0058856D01*
X0139309Y0059663D01*
X0140800Y0061154D01*
X0141307Y0062378D01*
X0141814Y0061154D01*
X0143305Y0059663D01*
X0145253Y0058856D01*
X0147361Y0058856D01*
X0149309Y0059663D01*
X0150202Y0060556D01*
X0167412Y0060556D01*
X0168305Y0059663D01*
X0170253Y0058856D01*
X0172361Y0058856D01*
X0174309Y0059663D01*
X0175800Y0061154D01*
X0176307Y0062378D01*
X0176814Y0061154D01*
X0178305Y0059663D01*
X0180253Y0058856D01*
X0182361Y0058856D01*
X0184309Y0059663D01*
X0185202Y0060556D01*
X0202412Y0060556D01*
X0203305Y0059663D01*
X0205253Y0058856D01*
X0207361Y0058856D01*
X0209309Y0059663D01*
X0210800Y0061154D01*
X0211428Y0062669D01*
X0211581Y0062198D01*
X0211945Y0061483D01*
X0212417Y0060834D01*
X0212985Y0060266D01*
X0213634Y0059794D01*
X0214349Y0059430D01*
X0215113Y0059182D01*
X0215906Y0059056D01*
X0216307Y0059056D01*
X0216307Y0064156D01*
X0216307Y0064156D01*
X0216307Y0059056D01*
X0216708Y0059056D01*
X0217501Y0059182D01*
X0218265Y0059430D01*
X0218980Y0059794D01*
X0219630Y0060266D01*
X0220197Y0060834D01*
X0220669Y0061483D01*
X0221033Y0062198D01*
X0221281Y0062962D01*
X0221407Y0063755D01*
X0221407Y0064156D01*
X0216307Y0064156D01*
X0216307Y0064156D01*
X0216307Y0069256D01*
X0215906Y0069256D01*
X0215113Y0069131D01*
X0214349Y0068883D01*
X0213634Y0068518D01*
X0212985Y0068046D01*
X0212417Y0067479D01*
X0211945Y0066829D01*
X0211581Y0066114D01*
X0211428Y0065643D01*
X0210800Y0067158D01*
X0209309Y0068649D01*
X0207361Y0069456D01*
X0204932Y0069323D02*
X0182682Y0069323D01*
X0179932Y0069323D02*
X0172682Y0069323D01*
X0169932Y0069323D02*
X0147682Y0069323D01*
X0144932Y0069323D02*
X0137682Y0069323D01*
X0134932Y0069323D02*
X0048807Y0069323D01*
X0048807Y0067725D02*
X0132380Y0067725D01*
X0131387Y0066126D02*
X0048807Y0066126D01*
X0048807Y0064528D02*
X0131007Y0064528D01*
X0131079Y0062929D02*
X0066672Y0062929D01*
X0069884Y0061331D02*
X0131741Y0061331D01*
X0133236Y0059732D02*
X0071716Y0059732D01*
X0073109Y0058134D02*
X0413206Y0058134D01*
X0412179Y0056535D02*
X0074136Y0056535D01*
X0074920Y0054937D02*
X0411395Y0054937D01*
X0410832Y0053338D02*
X0075483Y0053338D01*
X0075759Y0051740D02*
X0410556Y0051740D01*
X0410449Y0050141D02*
X0075866Y0050141D01*
X0075866Y0048543D02*
X0410449Y0048543D01*
X0410449Y0046944D02*
X0075866Y0046944D01*
X0075866Y0045346D02*
X0410449Y0045346D01*
X0410449Y0043747D02*
X0075866Y0043747D01*
X0075866Y0042149D02*
X0410449Y0042149D01*
X0410449Y0040550D02*
X0075866Y0040550D01*
X0075866Y0038952D02*
X0410449Y0038952D01*
X0410449Y0037353D02*
X0075866Y0037353D01*
X0048807Y0070922D02*
X0134708Y0070922D01*
X0132852Y0072520D02*
X0048807Y0072520D01*
X0048807Y0074119D02*
X0131253Y0074119D01*
X0129655Y0075717D02*
X0048807Y0075717D01*
X0048807Y0077316D02*
X0128056Y0077316D01*
X0126458Y0078914D02*
X0048807Y0078914D01*
X0048807Y0080513D02*
X0124859Y0080513D01*
X0123261Y0082112D02*
X0048807Y0082112D01*
X0048807Y0083710D02*
X0122707Y0083710D01*
X0122707Y0085309D02*
X0114955Y0085309D01*
X0116112Y0086907D02*
X0122707Y0086907D01*
X0122707Y0088506D02*
X0116607Y0088506D01*
X0117346Y0090104D02*
X0122707Y0090104D01*
X0122707Y0091703D02*
X0118945Y0091703D01*
X0120543Y0093301D02*
X0122707Y0093301D01*
X0122718Y0094900D02*
X0122142Y0094900D01*
X0124765Y0098097D02*
X0125156Y0098097D01*
X0124907Y0099695D02*
X0126755Y0099695D01*
X0128353Y0101294D02*
X0124907Y0101294D01*
X0124907Y0102892D02*
X0131982Y0102892D01*
X0132912Y0104491D02*
X0124907Y0104491D01*
X0124907Y0106089D02*
X0131408Y0106089D01*
X0130746Y0107688D02*
X0124907Y0107688D01*
X0124907Y0109286D02*
X0130607Y0109286D01*
X0130853Y0110885D02*
X0124907Y0110885D01*
X0124907Y0112483D02*
X0131573Y0112483D01*
X0133304Y0114082D02*
X0124907Y0114082D01*
X0124907Y0115680D02*
X0131722Y0115680D01*
X0130915Y0117279D02*
X0124907Y0117279D01*
X0124907Y0118877D02*
X0130607Y0118877D01*
X0130684Y0120476D02*
X0124907Y0120476D01*
X0124907Y0122074D02*
X0131346Y0122074D01*
X0132763Y0123673D02*
X0124907Y0123673D01*
X0124907Y0125271D02*
X0132131Y0125271D01*
X0131084Y0126870D02*
X0124907Y0126870D01*
X0124907Y0128468D02*
X0130607Y0128468D01*
X0130607Y0130067D02*
X0124907Y0130067D01*
X0124907Y0131665D02*
X0131177Y0131665D01*
X0132354Y0133264D02*
X0124907Y0133264D01*
X0124907Y0134862D02*
X0132540Y0134862D01*
X0131254Y0136461D02*
X0124907Y0136461D01*
X0124907Y0138059D02*
X0130607Y0138059D01*
X0130607Y0139658D02*
X0124907Y0139658D01*
X0124907Y0141256D02*
X0131007Y0141256D01*
X0131945Y0142855D02*
X0124907Y0142855D01*
X0124907Y0144453D02*
X0133423Y0144453D01*
X0131764Y0146052D02*
X0124907Y0146052D01*
X0124907Y0147650D02*
X0131013Y0147650D01*
X0130807Y0149356D02*
X0136107Y0149356D01*
X0136107Y0154656D01*
X0135874Y0154656D01*
X0135019Y0154521D01*
X0134196Y0154253D01*
X0133424Y0153860D01*
X0132724Y0153351D01*
X0132112Y0152739D01*
X0131603Y0152039D01*
X0131210Y0151267D01*
X0130943Y0150444D01*
X0130807Y0149589D01*
X0130807Y0149356D01*
X0131074Y0150847D02*
X0128090Y0150847D01*
X0126491Y0149249D02*
X0136107Y0149249D01*
X0136507Y0149249D02*
X0146123Y0149249D01*
X0144525Y0150847D02*
X0141541Y0150847D01*
X0140715Y0152446D02*
X0142926Y0152446D01*
X0141328Y0154045D02*
X0138828Y0154045D01*
X0136507Y0154045D02*
X0136107Y0154045D01*
X0136107Y0152446D02*
X0136507Y0152446D01*
X0136507Y0150847D02*
X0136107Y0150847D01*
X0133786Y0154045D02*
X0131287Y0154045D01*
X0131899Y0152446D02*
X0129688Y0152446D01*
X0124301Y0157242D02*
X0116251Y0157242D01*
X0116607Y0158840D02*
X0125900Y0158840D01*
X0127498Y0160439D02*
X0116513Y0160439D01*
X0115850Y0162037D02*
X0129097Y0162037D01*
X0122703Y0155643D02*
X0115289Y0155643D01*
X0114907Y0154045D02*
X0121104Y0154045D01*
X0119506Y0152446D02*
X0114907Y0152446D01*
X0114907Y0150847D02*
X0118111Y0150847D01*
X0117707Y0149249D02*
X0114907Y0149249D01*
X0114907Y0147650D02*
X0117707Y0147650D01*
X0117707Y0146052D02*
X0114907Y0146052D01*
X0114907Y0144453D02*
X0117707Y0144453D01*
X0117707Y0142855D02*
X0114907Y0142855D01*
X0114907Y0141256D02*
X0117707Y0141256D01*
X0117707Y0139658D02*
X0114907Y0139658D01*
X0114907Y0138059D02*
X0117707Y0138059D01*
X0117707Y0136461D02*
X0116089Y0136461D01*
X0116607Y0134862D02*
X0117707Y0134862D01*
X0117707Y0133264D02*
X0116607Y0133264D01*
X0116012Y0131665D02*
X0117707Y0131665D01*
X0117707Y0130067D02*
X0114713Y0130067D01*
X0114490Y0128468D02*
X0117707Y0128468D01*
X0117707Y0126870D02*
X0115920Y0126870D01*
X0116582Y0125271D02*
X0117707Y0125271D01*
X0117707Y0123673D02*
X0116607Y0123673D01*
X0116181Y0122074D02*
X0117707Y0122074D01*
X0117707Y0120476D02*
X0115122Y0120476D01*
X0114907Y0118877D02*
X0117707Y0118877D01*
X0117707Y0117279D02*
X0114907Y0117279D01*
X0114907Y0115680D02*
X0117707Y0115680D01*
X0117707Y0114082D02*
X0114907Y0114082D01*
X0114907Y0112483D02*
X0117707Y0112483D01*
X0117707Y0110885D02*
X0114907Y0110885D01*
X0114907Y0109286D02*
X0117707Y0109286D01*
X0117707Y0107688D02*
X0114907Y0107688D01*
X0114907Y0106089D02*
X0117707Y0106089D01*
X0117707Y0104491D02*
X0114907Y0104491D01*
X0115066Y0102892D02*
X0117707Y0102892D01*
X0117707Y0101294D02*
X0116158Y0101294D01*
X0116607Y0099695D02*
X0116755Y0099695D01*
X0107548Y0102892D02*
X0048807Y0102892D01*
X0048807Y0101294D02*
X0106456Y0101294D01*
X0106007Y0099695D02*
X0048807Y0099695D01*
X0048807Y0098097D02*
X0106009Y0098097D01*
X0106671Y0096498D02*
X0048807Y0096498D01*
X0048807Y0094900D02*
X0108068Y0094900D01*
X0107957Y0093301D02*
X0048807Y0093301D01*
X0048807Y0091703D02*
X0106625Y0091703D01*
X0106007Y0090104D02*
X0048807Y0090104D01*
X0048807Y0088506D02*
X0106007Y0088506D01*
X0106502Y0086907D02*
X0048807Y0086907D01*
X0048807Y0085309D02*
X0107659Y0085309D01*
X0107707Y0104491D02*
X0048807Y0104491D01*
X0048807Y0106089D02*
X0107707Y0106089D01*
X0107707Y0107688D02*
X0048807Y0107688D01*
X0048807Y0109286D02*
X0107707Y0109286D01*
X0107707Y0110885D02*
X0048807Y0110885D01*
X0048807Y0112483D02*
X0107707Y0112483D01*
X0107707Y0114082D02*
X0048807Y0114082D01*
X0048807Y0115680D02*
X0107707Y0115680D01*
X0143732Y0141256D02*
X0155015Y0141256D01*
X0154507Y0139658D02*
X0145331Y0139658D01*
X0146929Y0138059D02*
X0154599Y0138059D01*
X0156383Y0142855D02*
X0140669Y0142855D01*
X0139191Y0144453D02*
X0222079Y0144453D01*
X0220480Y0142855D02*
X0196231Y0142855D01*
X0196199Y0142886D02*
X0194582Y0143556D01*
X0188032Y0143556D01*
X0186415Y0142886D01*
X0185177Y0141649D01*
X0184507Y0140031D01*
X0184507Y0138281D01*
X0185177Y0136664D01*
X0186415Y0135426D01*
X0188032Y0134756D01*
X0194582Y0134756D01*
X0196199Y0135426D01*
X0197437Y0136664D01*
X0198107Y0138281D01*
X0198107Y0140031D01*
X0197437Y0141649D01*
X0196199Y0142886D01*
X0197600Y0141256D02*
X0218882Y0141256D01*
X0217283Y0139658D02*
X0198107Y0139658D01*
X0198015Y0138059D02*
X0215685Y0138059D01*
X0214086Y0136461D02*
X0197234Y0136461D01*
X0194839Y0134862D02*
X0212488Y0134862D01*
X0210889Y0133264D02*
X0195288Y0133264D01*
X0187775Y0134862D02*
X0180126Y0134862D01*
X0181725Y0133264D02*
X0187326Y0133264D01*
X0185380Y0136461D02*
X0178528Y0136461D01*
X0184599Y0138059D02*
X0168015Y0138059D01*
X0168107Y0139658D02*
X0184507Y0139658D01*
X0185015Y0141256D02*
X0167600Y0141256D01*
X0166231Y0142855D02*
X0186383Y0142855D01*
X0185789Y0146052D02*
X0166825Y0146052D01*
X0167846Y0147650D02*
X0184768Y0147650D01*
X0184507Y0149249D02*
X0168107Y0149249D01*
X0167769Y0150847D02*
X0184845Y0150847D01*
X0185974Y0152446D02*
X0166640Y0152446D01*
X0166416Y0155643D02*
X0185381Y0155643D01*
X0183131Y0157242D02*
X0167677Y0157242D01*
X0168107Y0158840D02*
X0181532Y0158840D01*
X0179934Y0160439D02*
X0167938Y0160439D01*
X0167049Y0162037D02*
X0178335Y0162037D01*
X0197769Y0150847D02*
X0228473Y0150847D01*
X0226874Y0149249D02*
X0198107Y0149249D01*
X0197846Y0147650D02*
X0225276Y0147650D01*
X0223677Y0146052D02*
X0196825Y0146052D01*
X0157236Y0173227D02*
X0114381Y0173227D01*
X0114630Y0173046D02*
X0113980Y0173518D01*
X0113265Y0173883D01*
X0112501Y0174131D01*
X0111708Y0174256D01*
X0111307Y0174256D01*
X0111307Y0169156D01*
X0111307Y0169156D01*
X0116407Y0169156D01*
X0116407Y0169558D01*
X0116281Y0170350D01*
X0116033Y0171114D01*
X0115669Y0171829D01*
X0115197Y0172479D01*
X0114630Y0173046D01*
X0115771Y0171628D02*
X0155168Y0171628D01*
X0154507Y0170030D02*
X0116332Y0170030D01*
X0116356Y0168431D02*
X0154507Y0168431D01*
X0155107Y0166833D02*
X0115847Y0166833D01*
X0111307Y0170030D02*
X0111307Y0170030D01*
X0111307Y0171628D02*
X0111307Y0171628D01*
X0111307Y0173227D02*
X0111307Y0173227D01*
X0099890Y0184961D02*
X0100502Y0185573D01*
X0101011Y0186274D01*
X0101404Y0187045D01*
X0101672Y0187868D01*
X0101807Y0188723D01*
X0101807Y0189070D01*
X0096393Y0189070D01*
X0096393Y0183656D01*
X0096740Y0183656D01*
X0097595Y0183792D01*
X0098418Y0184059D01*
X0099190Y0184452D01*
X0099890Y0184961D01*
X0099119Y0184416D02*
X0140956Y0184416D01*
X0142554Y0182818D02*
X0069907Y0182818D01*
X0069907Y0184416D02*
X0093495Y0184416D01*
X0093424Y0184452D02*
X0094196Y0184059D01*
X0095019Y0183792D01*
X0095874Y0183656D01*
X0096221Y0183656D01*
X0096221Y0189070D01*
X0096393Y0189070D01*
X0096393Y0189242D01*
X0101807Y0189242D01*
X0101807Y0189589D01*
X0101672Y0190444D01*
X0101404Y0191267D01*
X0101011Y0192039D01*
X0100502Y0192739D01*
X0099890Y0193351D01*
X0099190Y0193860D01*
X0098609Y0194156D01*
X0099190Y0194452D01*
X0099890Y0194961D01*
X0100502Y0195573D01*
X0101011Y0196274D01*
X0101404Y0197045D01*
X0101672Y0197868D01*
X0101807Y0198723D01*
X0101807Y0199070D01*
X0096393Y0199070D01*
X0096393Y0193656D01*
X0096393Y0189242D01*
X0096221Y0189242D01*
X0096221Y0189070D01*
X0090807Y0189070D01*
X0090807Y0188723D01*
X0090943Y0187868D01*
X0091210Y0187045D01*
X0091603Y0186274D01*
X0092112Y0185573D01*
X0092724Y0184961D01*
X0093424Y0184452D01*
X0091791Y0186015D02*
X0071175Y0186015D01*
X0071838Y0187613D02*
X0091025Y0187613D01*
X0090807Y0189242D02*
X0096221Y0189242D01*
X0096221Y0199070D01*
X0096393Y0199070D01*
X0096393Y0199242D01*
X0101807Y0199242D01*
X0101807Y0199589D01*
X0101672Y0200444D01*
X0101404Y0201267D01*
X0101011Y0202039D01*
X0100502Y0202739D01*
X0099890Y0203351D01*
X0099190Y0203860D01*
X0098418Y0204253D01*
X0097595Y0204521D01*
X0096740Y0204656D01*
X0096393Y0204656D01*
X0096393Y0199242D01*
X0096221Y0199242D01*
X0096221Y0199070D01*
X0090807Y0199070D01*
X0090807Y0198723D01*
X0090943Y0197868D01*
X0091210Y0197045D01*
X0091603Y0196274D01*
X0092112Y0195573D01*
X0092724Y0194961D01*
X0093424Y0194452D01*
X0094005Y0194156D01*
X0093424Y0193860D01*
X0092724Y0193351D01*
X0092112Y0192739D01*
X0091603Y0192039D01*
X0091210Y0191267D01*
X0090943Y0190444D01*
X0090807Y0189589D01*
X0090807Y0189242D01*
X0091062Y0190810D02*
X0071792Y0190810D01*
X0072007Y0189212D02*
X0096221Y0189212D01*
X0096393Y0189212D02*
X0134394Y0189212D01*
X0132158Y0190810D02*
X0101553Y0190810D01*
X0100742Y0192409D02*
X0131294Y0192409D01*
X0131007Y0194007D02*
X0098901Y0194007D01*
X0100526Y0195606D02*
X0131171Y0195606D01*
X0131860Y0197204D02*
X0101456Y0197204D01*
X0101807Y0198803D02*
X0133676Y0198803D01*
X0138939Y0198803D02*
X0143676Y0198803D01*
X0141860Y0197204D02*
X0140754Y0197204D01*
X0148939Y0198803D02*
X0168676Y0198803D01*
X0169394Y0189212D02*
X0148220Y0189212D01*
X0144153Y0181219D02*
X0069907Y0181219D01*
X0069907Y0179621D02*
X0145751Y0179621D01*
X0147350Y0178022D02*
X0069907Y0178022D01*
X0069907Y0176424D02*
X0148948Y0176424D01*
X0139357Y0186015D02*
X0100823Y0186015D01*
X0101589Y0187613D02*
X0137759Y0187613D01*
X0101678Y0200401D02*
X0437708Y0200401D01*
X0437708Y0198803D02*
X0398421Y0198803D01*
X0398265Y0198883D02*
X0397501Y0199131D01*
X0396708Y0199256D01*
X0396307Y0199256D01*
X0396307Y0194156D01*
X0396307Y0194156D01*
X0401407Y0194156D01*
X0401407Y0194558D01*
X0401281Y0195350D01*
X0401033Y0196114D01*
X0400669Y0196829D01*
X0400197Y0197479D01*
X0399630Y0198046D01*
X0398980Y0198518D01*
X0398265Y0198883D01*
X0396307Y0198803D02*
X0396307Y0198803D01*
X0396307Y0197204D02*
X0396307Y0197204D01*
X0396307Y0195606D02*
X0396307Y0195606D01*
X0396307Y0194007D02*
X0396307Y0194007D01*
X0396307Y0192409D02*
X0396307Y0192409D01*
X0396307Y0190810D02*
X0396307Y0190810D01*
X0396307Y0189212D02*
X0396307Y0189212D01*
X0395020Y0189212D02*
X0388220Y0189212D01*
X0390457Y0190810D02*
X0392440Y0190810D01*
X0391512Y0192409D02*
X0391320Y0192409D01*
X0390754Y0197204D02*
X0392218Y0197204D01*
X0394193Y0198803D02*
X0388939Y0198803D01*
X0383676Y0198803D02*
X0363939Y0198803D01*
X0363220Y0189212D02*
X0384394Y0189212D01*
X0397594Y0189212D02*
X0437708Y0189212D01*
X0437708Y0190810D02*
X0400174Y0190810D01*
X0401102Y0192409D02*
X0437708Y0192409D01*
X0437708Y0194007D02*
X0401407Y0194007D01*
X0401199Y0195606D02*
X0437708Y0195606D01*
X0437708Y0197204D02*
X0400396Y0197204D01*
X0418180Y0214788D02*
X0294434Y0214788D01*
X0295896Y0216386D02*
X0416718Y0216386D01*
X0416814Y0216154D02*
X0418305Y0214663D01*
X0420253Y0213856D01*
X0422361Y0213856D01*
X0424309Y0214663D01*
X0425800Y0216154D01*
X0426607Y0218102D01*
X0426607Y0220210D01*
X0425800Y0222158D01*
X0424309Y0223649D01*
X0423086Y0224156D01*
X0424309Y0224663D01*
X0425800Y0226154D01*
X0426607Y0228102D01*
X0426607Y0230210D01*
X0425800Y0232158D01*
X0424309Y0233649D01*
X0422361Y0234456D01*
X0420253Y0234456D01*
X0418305Y0233649D01*
X0416814Y0232158D01*
X0416007Y0230210D01*
X0416007Y0228102D01*
X0416814Y0226154D01*
X0418305Y0224663D01*
X0419529Y0224156D01*
X0418305Y0223649D01*
X0416814Y0222158D01*
X0416007Y0220210D01*
X0416007Y0218102D01*
X0416814Y0216154D01*
X0416056Y0217985D02*
X0296559Y0217985D01*
X0296607Y0219583D02*
X0416007Y0219583D01*
X0416410Y0221182D02*
X0296205Y0221182D01*
X0295178Y0222780D02*
X0417436Y0222780D01*
X0418991Y0224379D02*
X0293624Y0224379D01*
X0295624Y0225978D02*
X0416990Y0225978D01*
X0416225Y0227576D02*
X0296389Y0227576D01*
X0296607Y0229175D02*
X0416007Y0229175D01*
X0416240Y0230773D02*
X0296374Y0230773D01*
X0295587Y0232372D02*
X0417027Y0232372D01*
X0419079Y0233970D02*
X0294907Y0233970D01*
X0294907Y0235569D02*
X0437708Y0235569D01*
X0437708Y0237167D02*
X0294907Y0237167D01*
X0294907Y0238766D02*
X0437708Y0238766D01*
X0437708Y0240364D02*
X0294907Y0240364D01*
X0294907Y0241963D02*
X0437708Y0241963D01*
X0437708Y0243561D02*
X0294907Y0243561D01*
X0294907Y0245160D02*
X0437708Y0245160D01*
X0437708Y0246758D02*
X0294907Y0246758D01*
X0342368Y0187613D02*
X0437708Y0187613D01*
X0437708Y0186015D02*
X0344540Y0186015D01*
X0346138Y0184416D02*
X0437708Y0184416D01*
X0437708Y0182818D02*
X0347737Y0182818D01*
X0349335Y0181219D02*
X0437708Y0181219D01*
X0437708Y0179621D02*
X0350934Y0179621D01*
X0352532Y0178022D02*
X0437708Y0178022D01*
X0437708Y0176424D02*
X0354131Y0176424D01*
X0355729Y0174825D02*
X0437708Y0174825D01*
X0437708Y0173227D02*
X0424381Y0173227D01*
X0424630Y0173046D02*
X0423980Y0173518D01*
X0423265Y0173883D01*
X0422501Y0174131D01*
X0421708Y0174256D01*
X0421307Y0174256D01*
X0420906Y0174256D01*
X0420113Y0174131D01*
X0419349Y0173883D01*
X0418634Y0173518D01*
X0417985Y0173046D01*
X0417417Y0172479D01*
X0416945Y0171829D01*
X0416581Y0171114D01*
X0416333Y0170350D01*
X0416207Y0169558D01*
X0416207Y0169156D01*
X0421307Y0169156D01*
X0421307Y0169156D01*
X0421307Y0169156D01*
X0421307Y0174256D01*
X0421307Y0169156D01*
X0421307Y0169156D01*
X0426407Y0169156D01*
X0426407Y0169558D01*
X0426281Y0170350D01*
X0426033Y0171114D01*
X0425669Y0171829D01*
X0425197Y0172479D01*
X0424630Y0173046D01*
X0425771Y0171628D02*
X0437708Y0171628D01*
X0437708Y0170030D02*
X0426332Y0170030D01*
X0426356Y0168431D02*
X0437708Y0168431D01*
X0437708Y0166833D02*
X0425847Y0166833D01*
X0424585Y0165234D02*
X0437708Y0165234D01*
X0437708Y0163636D02*
X0424323Y0163636D01*
X0425850Y0162037D02*
X0437708Y0162037D01*
X0437708Y0160439D02*
X0426513Y0160439D01*
X0426607Y0158840D02*
X0437708Y0158840D01*
X0437708Y0157242D02*
X0426251Y0157242D01*
X0425289Y0155643D02*
X0437708Y0155643D01*
X0437708Y0154045D02*
X0424907Y0154045D01*
X0424907Y0152446D02*
X0437708Y0152446D01*
X0437708Y0150847D02*
X0424907Y0150847D01*
X0424907Y0149249D02*
X0437708Y0149249D01*
X0437708Y0147650D02*
X0424907Y0147650D01*
X0424907Y0146052D02*
X0437708Y0146052D01*
X0437708Y0144453D02*
X0424907Y0144453D01*
X0424907Y0142855D02*
X0437708Y0142855D01*
X0437708Y0141256D02*
X0424907Y0141256D01*
X0424907Y0139658D02*
X0437708Y0139658D01*
X0437708Y0138059D02*
X0424907Y0138059D01*
X0426089Y0136461D02*
X0437708Y0136461D01*
X0437708Y0134862D02*
X0426607Y0134862D01*
X0426607Y0133264D02*
X0437708Y0133264D01*
X0437708Y0131665D02*
X0426012Y0131665D01*
X0424713Y0130067D02*
X0437708Y0130067D01*
X0437708Y0128468D02*
X0424490Y0128468D01*
X0425920Y0126870D02*
X0437708Y0126870D01*
X0437708Y0125271D02*
X0426582Y0125271D01*
X0426607Y0123673D02*
X0437708Y0123673D01*
X0437708Y0122074D02*
X0426181Y0122074D01*
X0425122Y0120476D02*
X0437708Y0120476D01*
X0437708Y0118877D02*
X0424907Y0118877D01*
X0424907Y0117279D02*
X0437708Y0117279D01*
X0437708Y0115680D02*
X0424907Y0115680D01*
X0424907Y0114082D02*
X0437708Y0114082D01*
X0437708Y0112483D02*
X0424907Y0112483D01*
X0424907Y0110885D02*
X0437708Y0110885D01*
X0437708Y0109286D02*
X0424907Y0109286D01*
X0424907Y0107688D02*
X0437708Y0107688D01*
X0437708Y0106089D02*
X0424907Y0106089D01*
X0424907Y0104491D02*
X0437708Y0104491D01*
X0437708Y0102892D02*
X0425066Y0102892D01*
X0426158Y0101294D02*
X0437708Y0101294D01*
X0437708Y0099695D02*
X0426607Y0099695D01*
X0426605Y0098097D02*
X0437708Y0098097D01*
X0437708Y0096498D02*
X0425943Y0096498D01*
X0424546Y0094900D02*
X0437708Y0094900D01*
X0437708Y0093301D02*
X0424657Y0093301D01*
X0425989Y0091703D02*
X0437708Y0091703D01*
X0437708Y0090104D02*
X0426607Y0090104D01*
X0426607Y0088506D02*
X0437708Y0088506D01*
X0437708Y0086907D02*
X0426112Y0086907D01*
X0424955Y0085309D02*
X0437708Y0085309D01*
X0437708Y0067725D02*
X0399951Y0067725D01*
X0400197Y0067479D02*
X0399630Y0068046D01*
X0398980Y0068518D01*
X0398265Y0068883D01*
X0397501Y0069131D01*
X0396708Y0069256D01*
X0396307Y0069256D01*
X0396307Y0064156D01*
X0396307Y0064156D01*
X0401407Y0064156D01*
X0401407Y0064558D01*
X0401281Y0065350D01*
X0401033Y0066114D01*
X0400669Y0066829D01*
X0400197Y0067479D01*
X0401027Y0066126D02*
X0437708Y0066126D01*
X0437708Y0064528D02*
X0401407Y0064528D01*
X0401271Y0062929D02*
X0419643Y0062929D01*
X0416431Y0061331D02*
X0400558Y0061331D01*
X0398859Y0059732D02*
X0414599Y0059732D01*
X0396307Y0059732D02*
X0396307Y0059732D01*
X0396307Y0061331D02*
X0396307Y0061331D01*
X0396307Y0062929D02*
X0396307Y0062929D01*
X0396307Y0064528D02*
X0396307Y0064528D01*
X0396307Y0066126D02*
X0396307Y0066126D01*
X0396307Y0067725D02*
X0396307Y0067725D01*
X0392663Y0067725D02*
X0390234Y0067725D01*
X0391228Y0066126D02*
X0391587Y0066126D01*
X0392056Y0061331D02*
X0390873Y0061331D01*
X0389379Y0059732D02*
X0393756Y0059732D01*
X0383236Y0059732D02*
X0364379Y0059732D01*
X0358236Y0059732D02*
X0354379Y0059732D01*
X0355873Y0061331D02*
X0356741Y0061331D01*
X0356387Y0066126D02*
X0356228Y0066126D01*
X0355234Y0067725D02*
X0357380Y0067725D01*
X0348236Y0059732D02*
X0329379Y0059732D01*
X0323236Y0059732D02*
X0319379Y0059732D01*
X0320873Y0061331D02*
X0321741Y0061331D01*
X0321387Y0066126D02*
X0321228Y0066126D01*
X0320234Y0067725D02*
X0322380Y0067725D01*
X0312380Y0067725D02*
X0219951Y0067725D01*
X0220197Y0067479D02*
X0219630Y0068046D01*
X0218980Y0068518D01*
X0218265Y0068883D01*
X0217501Y0069131D01*
X0216708Y0069256D01*
X0216307Y0069256D01*
X0216307Y0064156D01*
X0216307Y0064156D01*
X0221407Y0064156D01*
X0221407Y0064558D01*
X0221281Y0065350D01*
X0221033Y0066114D01*
X0220669Y0066829D01*
X0220197Y0067479D01*
X0221027Y0066126D02*
X0311387Y0066126D01*
X0311007Y0064528D02*
X0221407Y0064528D01*
X0221271Y0062929D02*
X0311079Y0062929D01*
X0311741Y0061331D02*
X0220558Y0061331D01*
X0218859Y0059732D02*
X0313236Y0059732D01*
X0375288Y0133264D02*
X0385889Y0133264D01*
X0387488Y0134862D02*
X0374839Y0134862D01*
X0377234Y0136461D02*
X0389086Y0136461D01*
X0390607Y0138059D02*
X0378015Y0138059D01*
X0378107Y0139658D02*
X0390607Y0139658D01*
X0391007Y0141256D02*
X0377600Y0141256D01*
X0376231Y0142855D02*
X0391945Y0142855D01*
X0393423Y0144453D02*
X0310535Y0144453D01*
X0345736Y0165234D02*
X0355138Y0165234D01*
X0353539Y0166833D02*
X0347507Y0166833D01*
X0348107Y0168431D02*
X0351941Y0168431D01*
X0350342Y0170030D02*
X0348107Y0170030D01*
X0348744Y0171628D02*
X0347446Y0171628D01*
X0347145Y0173227D02*
X0345378Y0173227D01*
X0357328Y0173227D02*
X0367236Y0173227D01*
X0368032Y0173556D02*
X0366415Y0172886D01*
X0365177Y0171649D01*
X0364507Y0170031D01*
X0364507Y0168281D01*
X0365177Y0166664D01*
X0366415Y0165426D01*
X0368032Y0164756D01*
X0374582Y0164756D01*
X0376199Y0165426D01*
X0377437Y0166664D01*
X0378107Y0168281D01*
X0378107Y0170031D01*
X0377437Y0171649D01*
X0376199Y0172886D01*
X0374582Y0173556D01*
X0368032Y0173556D01*
X0365168Y0171628D02*
X0358926Y0171628D01*
X0360525Y0170030D02*
X0364507Y0170030D01*
X0364507Y0168431D02*
X0362123Y0168431D01*
X0363722Y0166833D02*
X0365107Y0166833D01*
X0365320Y0165234D02*
X0366878Y0165234D01*
X0366919Y0163636D02*
X0418291Y0163636D01*
X0418029Y0165234D02*
X0375736Y0165234D01*
X0377507Y0166833D02*
X0416767Y0166833D01*
X0416258Y0168431D02*
X0378107Y0168431D01*
X0378107Y0170030D02*
X0416282Y0170030D01*
X0416843Y0171628D02*
X0377446Y0171628D01*
X0375378Y0173227D02*
X0418233Y0173227D01*
X0421307Y0173227D02*
X0421307Y0173227D01*
X0421307Y0171628D02*
X0421307Y0171628D01*
X0421307Y0170030D02*
X0421307Y0170030D01*
X0416764Y0162037D02*
X0377049Y0162037D01*
X0377938Y0160439D02*
X0416102Y0160439D01*
X0416007Y0158840D02*
X0378107Y0158840D01*
X0377677Y0157242D02*
X0416363Y0157242D01*
X0417325Y0155643D02*
X0376416Y0155643D01*
X0376825Y0146052D02*
X0391764Y0146052D01*
X0437708Y0202000D02*
X0101031Y0202000D01*
X0099550Y0203598D02*
X0437708Y0203598D01*
X0437708Y0205197D02*
X0069907Y0205197D01*
X0069907Y0206795D02*
X0437708Y0206795D01*
X0437708Y0208394D02*
X0069907Y0208394D01*
X0069907Y0209992D02*
X0437708Y0209992D01*
X0437708Y0211591D02*
X0069907Y0211591D01*
X0069907Y0213189D02*
X0437708Y0213189D01*
X0437708Y0214788D02*
X0424434Y0214788D01*
X0425896Y0216386D02*
X0437708Y0216386D01*
X0437708Y0217985D02*
X0426559Y0217985D01*
X0426607Y0219583D02*
X0437708Y0219583D01*
X0437708Y0221182D02*
X0426205Y0221182D01*
X0425178Y0222780D02*
X0437708Y0222780D01*
X0437708Y0224379D02*
X0423624Y0224379D01*
X0425624Y0225978D02*
X0437708Y0225978D01*
X0437708Y0227576D02*
X0426389Y0227576D01*
X0426607Y0229175D02*
X0437708Y0229175D01*
X0437708Y0230773D02*
X0426374Y0230773D01*
X0425587Y0232372D02*
X0437708Y0232372D01*
X0437708Y0233970D02*
X0423535Y0233970D01*
X0426035Y0286721D02*
X0437708Y0286721D01*
X0437708Y0288319D02*
X0426607Y0288319D01*
X0426607Y0289918D02*
X0437708Y0289918D01*
X0437708Y0291516D02*
X0426066Y0291516D01*
X0424844Y0293115D02*
X0437708Y0293115D01*
X0437708Y0294714D02*
X0423822Y0294714D01*
X0425545Y0296312D02*
X0437708Y0296312D01*
X0437708Y0297911D02*
X0426265Y0297911D01*
X0426407Y0299509D02*
X0437708Y0299509D01*
X0437708Y0301108D02*
X0426035Y0301108D01*
X0424970Y0302706D02*
X0437708Y0302706D01*
X0149394Y0146052D02*
X0140850Y0146052D01*
X0141601Y0147650D02*
X0147722Y0147650D01*
X0096393Y0184416D02*
X0096221Y0184416D01*
X0096221Y0186015D02*
X0096393Y0186015D01*
X0096393Y0187613D02*
X0096221Y0187613D01*
X0096221Y0190810D02*
X0096393Y0190810D01*
X0096393Y0192409D02*
X0096221Y0192409D01*
X0096221Y0194007D02*
X0096393Y0194007D01*
X0096393Y0195606D02*
X0096221Y0195606D01*
X0096221Y0197204D02*
X0096393Y0197204D01*
X0096393Y0198803D02*
X0096221Y0198803D01*
X0096221Y0199242D02*
X0090807Y0199242D01*
X0090807Y0199589D01*
X0090943Y0200444D01*
X0091210Y0201267D01*
X0091603Y0202039D01*
X0092112Y0202739D01*
X0092724Y0203351D01*
X0093424Y0203860D01*
X0094196Y0204253D01*
X0095019Y0204521D01*
X0095874Y0204656D01*
X0096221Y0204656D01*
X0096221Y0199242D01*
X0096221Y0200401D02*
X0096393Y0200401D01*
X0096393Y0202000D02*
X0096221Y0202000D01*
X0096221Y0203598D02*
X0096393Y0203598D01*
X0093064Y0203598D02*
X0069926Y0203598D01*
X0071299Y0202000D02*
X0091583Y0202000D01*
X0090936Y0200401D02*
X0071961Y0200401D01*
X0072007Y0198803D02*
X0090807Y0198803D01*
X0091158Y0197204D02*
X0071668Y0197204D01*
X0070818Y0195606D02*
X0092088Y0195606D01*
X0093713Y0194007D02*
X0069490Y0194007D01*
X0071115Y0192409D02*
X0091872Y0192409D01*
X0140234Y0067725D02*
X0142380Y0067725D01*
X0141387Y0066126D02*
X0141228Y0066126D01*
X0140873Y0061331D02*
X0141741Y0061331D01*
X0143236Y0059732D02*
X0139379Y0059732D01*
X0149379Y0059732D02*
X0168236Y0059732D01*
X0174379Y0059732D02*
X0178236Y0059732D01*
X0176741Y0061331D02*
X0175873Y0061331D01*
X0176228Y0066126D02*
X0176387Y0066126D01*
X0177380Y0067725D02*
X0175234Y0067725D01*
X0184379Y0059732D02*
X0203236Y0059732D01*
X0209379Y0059732D02*
X0213756Y0059732D01*
X0212056Y0061331D02*
X0210873Y0061331D01*
X0211228Y0066126D02*
X0211587Y0066126D01*
X0212663Y0067725D02*
X0210234Y0067725D01*
X0216307Y0067725D02*
X0216307Y0067725D01*
X0216307Y0066126D02*
X0216307Y0066126D01*
X0216307Y0064528D02*
X0216307Y0064528D01*
X0216307Y0062929D02*
X0216307Y0062929D01*
X0216307Y0061331D02*
X0216307Y0061331D01*
X0216307Y0059732D02*
X0216307Y0059732D01*
M02*
